<svg width="41" height="41" viewBox="0 0 41 41" fill="none" xmlns="http://www.w3.org/2000/svg">
<rect width="41" height="41" rx="6" fill="#618CC9"/>
<path d="M17.0003 25.6667C17.3539 25.6667 17.6931 25.5262 17.9431 25.2761C18.1932 25.0261 18.3337 24.687 18.3337 24.3333C18.3337 23.9797 18.1932 23.6406 17.9431 23.3905C17.6931 23.1405 17.3539 23 17.0003 23C16.6467 23 16.3076 23.1405 16.0575 23.3905C15.8075 23.6406 15.667 23.9797 15.667 24.3333C15.667 24.687 15.8075 25.0261 16.0575 25.2761C16.3076 25.5262 16.6467 25.6667 17.0003 25.6667Z" stroke="white" stroke-linecap="round" stroke-linejoin="round"/>
<path d="M25.0003 25.6667C25.3539 25.6667 25.6931 25.5262 25.9431 25.2761C26.1932 25.0261 26.3337 24.687 26.3337 24.3333C26.3337 23.9797 26.1932 23.6406 25.9431 23.3905C25.6931 23.1405 25.3539 23 25.0003 23C24.6467 23 24.3076 23.1405 24.0575 23.3905C23.8075 23.6406 23.667 23.9797 23.667 24.3333C23.667 24.687 23.8075 25.0261 24.0575 25.2761C24.3076 25.5262 24.6467 25.6667 25.0003 25.6667Z" stroke="white" stroke-linecap="round" stroke-linejoin="round"/>
<path d="M23.6663 24.3335H18.333" stroke="white" stroke-linecap="round" stroke-linejoin="round"/>
<path d="M15.6663 24.3335H14.333V17.0002C14.333 16.8234 14.4032 16.6538 14.5283 16.5288C14.6533 16.4037 14.8229 16.3335 14.9997 16.3335H24.333C25.217 16.3335 26.065 16.8248 26.6897 17.7002C27.315 18.5755 27.6663 19.7622 27.6663 21.0002V24.3335H26.333" stroke="white" stroke-linecap="round" stroke-linejoin="round"/>
<path d="M23.667 16.3335L24.667 21.0002H27.667" stroke="white" stroke-linecap="round" stroke-linejoin="round"/>
<path d="M14.333 19.6665H24.333" stroke="white" stroke-linecap="round" stroke-linejoin="round"/>
<path d="M17.667 16.3335V19.6668" stroke="white" stroke-linecap="round" stroke-linejoin="round"/>
<path d="M21 16.3335V19.6668" stroke="white" stroke-linecap="round" stroke-linejoin="round"/>
</svg>
