<svg width="41" height="41" viewBox="0 0 41 41" fill="none" xmlns="http://www.w3.org/2000/svg">
<rect width="41" height="41" rx="6" fill="#618CC9"/>
<path d="M15.9587 25.4583C16.3344 25.4583 16.6947 25.3091 16.9604 25.0434C17.2261 24.7777 17.3753 24.4174 17.3753 24.0417C17.3753 23.6659 17.2261 23.3056 16.9604 23.0399C16.6947 22.7743 16.3344 22.625 15.9587 22.625C15.5829 22.625 15.2226 22.7743 14.9569 23.0399C14.6912 23.3056 14.542 23.6659 14.542 24.0417C14.542 24.4174 14.6912 24.7777 14.9569 25.0434C15.2226 25.3091 15.5829 25.4583 15.9587 25.4583Z" stroke="white" stroke-linecap="round" stroke-linejoin="round"/>
<path d="M23.0417 25.4583C23.4174 25.4583 23.7777 25.3091 24.0434 25.0434C24.3091 24.7777 24.4583 24.4174 24.4583 24.0417C24.4583 23.6659 24.3091 23.3056 24.0434 23.0399C23.7777 22.7743 23.4174 22.625 23.0417 22.625C22.6659 22.625 22.3056 22.7743 22.0399 23.0399C21.7743 23.3056 21.625 23.6659 21.625 24.0417C21.625 24.4174 21.7743 24.7777 22.0399 25.0434C22.3056 25.3091 22.6659 25.4583 23.0417 25.4583Z" stroke="white" stroke-linecap="round" stroke-linejoin="round"/>
<path d="M19.5 19.7917V16.25" stroke="white" stroke-linecap="round" stroke-linejoin="round"/>
<path d="M14.5417 24.0417H13.125V19.7917L14.5417 16.25H20.9167L23.75 19.7917H24.4583C24.8341 19.7917 25.1944 19.9409 25.4601 20.2066C25.7257 20.4723 25.875 20.8326 25.875 21.2083V24.0417H24.4583" stroke="white" stroke-linecap="round" stroke-linejoin="round"/>
<path d="M21.625 24.0415H17.375" stroke="white" stroke-linecap="round" stroke-linejoin="round"/>
<path d="M13.125 19.7915H23.75" stroke="white" stroke-linecap="round" stroke-linejoin="round"/>
</svg>
