<svg width="346" height="166" viewBox="0 0 346 166" fill="none" xmlns="http://www.w3.org/2000/svg">
<path d="M42.21 8.646C42.21 7.84333 42.0513 7.19933 41.734 6.714C41.426 6.21933 41.0107 5.86 40.488 5.636C39.9747 5.40267 39.4007 5.286 38.766 5.286C38.4767 5.286 38.22 5.29533 37.996 5.314C37.772 5.33267 37.5667 5.36067 37.38 5.398V12.062C37.604 12.118 37.842 12.1553 38.094 12.174C38.3553 12.1927 38.6213 12.202 38.892 12.202C39.984 12.202 40.81 11.9033 41.37 11.306C41.93 10.6993 42.21 9.81267 42.21 8.646ZM43.372 8.646C43.372 9.66333 43.1853 10.508 42.812 11.18C42.448 11.8427 41.93 12.3373 41.258 12.664C40.5953 12.9907 39.8113 13.154 38.906 13.154C38.6167 13.154 38.2807 13.14 37.898 13.112C37.5247 13.0933 37.17 13.0327 36.834 12.93C36.442 12.8087 36.246 12.594 36.246 12.286V5.09C36.246 4.94067 36.2833 4.82867 36.358 4.754C36.442 4.67 36.5587 4.60467 36.708 4.558C36.9973 4.46467 37.324 4.404 37.688 4.376C38.052 4.348 38.416 4.334 38.78 4.334C39.6947 4.334 40.4927 4.49733 41.174 4.824C41.8647 5.14133 42.4013 5.61733 42.784 6.252C43.176 6.88667 43.372 7.68467 43.372 8.646ZM45.0848 4.488C45.0848 4.292 45.1548 4.12867 45.2948 3.998C45.4348 3.858 45.6075 3.788 45.8128 3.788C46.0275 3.788 46.2001 3.858 46.3308 3.998C46.4615 4.12867 46.5268 4.292 46.5268 4.488C46.5268 4.684 46.4615 4.852 46.3308 4.992C46.2001 5.12267 46.0275 5.188 45.8128 5.188C45.6075 5.188 45.4348 5.12267 45.2948 4.992C45.1548 4.852 45.0848 4.684 45.0848 4.488ZM45.2528 9.304H46.3728V12.972C46.3261 12.9907 46.2561 13.0093 46.1628 13.028C46.0695 13.056 45.9668 13.07 45.8548 13.07C45.6588 13.07 45.5095 13.0327 45.4068 12.958C45.3041 12.874 45.2528 12.7433 45.2528 12.566V9.304ZM46.3728 9.85H45.2528V6.56C45.2995 6.54133 45.3695 6.52267 45.4628 6.504C45.5655 6.476 45.6728 6.462 45.7848 6.462C45.9808 6.462 46.1255 6.504 46.2188 6.588C46.3215 6.66267 46.3728 6.79333 46.3728 6.98V9.85ZM50.8698 12.272C51.2618 12.272 51.5838 12.2347 51.8358 12.16C52.0971 12.076 52.2838 11.9967 52.3958 11.922V9.892L50.6598 10.074C50.1744 10.1113 49.8151 10.2187 49.5818 10.396C49.3484 10.5733 49.2318 10.83 49.2318 11.166C49.2318 11.5113 49.3671 11.782 49.6378 11.978C49.9178 12.174 50.3284 12.272 50.8698 12.272ZM50.8558 6.35C51.6678 6.35 52.3118 6.532 52.7878 6.896C53.2638 7.26 53.5018 7.834 53.5018 8.618V11.936C53.5018 12.1413 53.4598 12.3 53.3758 12.412C53.3011 12.5147 53.1844 12.6127 53.0258 12.706C52.8018 12.8273 52.5031 12.9393 52.1298 13.042C51.7564 13.1447 51.3364 13.196 50.8698 13.196C49.9924 13.196 49.3111 13.0233 48.8258 12.678C48.3498 12.3327 48.1118 11.8333 48.1118 11.18C48.1118 10.5733 48.3124 10.1113 48.7138 9.794C49.1244 9.46733 49.6891 9.27133 50.4078 9.206L52.3958 9.01V8.618C52.3958 8.15133 52.2558 7.81067 51.9758 7.596C51.6958 7.38133 51.3178 7.274 50.8418 7.274C50.4591 7.274 50.0904 7.33 49.7358 7.442C49.3904 7.554 49.0824 7.68 48.8118 7.82C48.7371 7.75467 48.6671 7.68 48.6018 7.596C48.5458 7.50267 48.5178 7.40933 48.5178 7.316C48.5178 7.07333 48.6531 6.88667 48.9238 6.756C49.1758 6.62533 49.4651 6.52733 49.7918 6.462C50.1278 6.38733 50.4824 6.35 50.8558 6.35ZM60.8548 9.864H59.7208V5.58L57.9288 6.42C57.8075 6.37333 57.7048 6.30333 57.6208 6.21C57.5462 6.11667 57.5088 6 57.5088 5.86C57.5088 5.58933 57.6768 5.384 58.0128 5.244L59.9728 4.39H60.2388C60.4255 4.39 60.5748 4.446 60.6868 4.558C60.7988 4.67 60.8548 4.81933 60.8548 5.006V9.864ZM59.7208 9.304H60.8548V13.014C60.7988 13.0327 60.7242 13.0513 60.6308 13.07C60.5375 13.098 60.4348 13.112 60.3228 13.112C60.1268 13.112 59.9775 13.07 59.8748 12.986C59.7722 12.902 59.7208 12.7713 59.7208 12.594V9.304Z" fill="#1A365D"/>
<circle cx="21" cy="12" r="6" fill="#0AB9AD"/>
<rect x="37.5" y="24.5" width="293" height="50" rx="9.5" fill="white" stroke="#D7DADE"/>
<rect opacity="0.7" x="45" y="33" width="35" height="35" rx="6" fill="#8253F6"/>
<path d="M58.375 48.2085L61.125 46.8335L63.875 48.2085L66.625 46.8335V52.7918L63.875 54.1668L61.125 52.7918L58.375 54.1668V48.2085Z" stroke="white" stroke-linecap="round" stroke-linejoin="round"/>
<path d="M61.125 46.8335V52.7918" stroke="white" stroke-linecap="round" stroke-linejoin="round"/>
<path d="M63.875 48.2085V54.1668" stroke="white" stroke-linecap="round" stroke-linejoin="round"/>
<path d="M300.125 39.25H301.542H312.875" stroke="#D35050" stroke-linecap="round" stroke-linejoin="round"/>
<path d="M311.459 39.2498V49.1665C311.459 49.5422 311.309 49.9026 311.044 50.1682C310.778 50.4339 310.418 50.5832 310.042 50.5832H302.959C302.583 50.5832 302.223 50.4339 301.957 50.1682C301.691 49.9026 301.542 49.5422 301.542 49.1665V39.2498M303.667 39.2498V37.8332C303.667 37.4574 303.816 37.0971 304.082 36.8314C304.348 36.5658 304.708 36.4165 305.084 36.4165H307.917C308.293 36.4165 308.653 36.5658 308.919 36.8314C309.184 37.0971 309.334 37.4574 309.334 37.8332V39.2498" stroke="#D35050" stroke-linecap="round" stroke-linejoin="round"/>
<path d="M305.083 42.7915V47.0415" stroke="#D35050" stroke-linecap="round" stroke-linejoin="round"/>
<path d="M307.917 42.7915V47.0415" stroke="#D35050" stroke-linecap="round" stroke-linejoin="round"/>
<rect x="94" y="39" width="184" height="10" rx="5" fill="#D7DADE"/>
<rect x="94" y="53" width="79" height="10" rx="5" fill="#D7DADE"/>
<rect x="37.5" y="83.5" width="293" height="50" rx="9.5" fill="white" stroke="#D7DADE"/>
<rect opacity="0.7" x="45" y="94" width="35" height="35" rx="6" fill="#8253F6"/>
<path d="M58.375 107.208L61.125 105.833L63.875 107.208L66.625 105.833V111.792L63.875 113.167L61.125 111.792L58.375 113.167V107.208Z" stroke="white" stroke-linecap="round" stroke-linejoin="round"/>
<path d="M61.125 105.833V111.792" stroke="white" stroke-linecap="round" stroke-linejoin="round"/>
<path d="M63.875 107.208V113.167" stroke="white" stroke-linecap="round" stroke-linejoin="round"/>
<path d="M300.125 98.25H301.542H312.875" stroke="#D35050" stroke-linecap="round" stroke-linejoin="round"/>
<path d="M311.459 98.2498V108.167C311.459 108.542 311.309 108.903 311.044 109.168C310.778 109.434 310.418 109.583 310.042 109.583H302.959C302.583 109.583 302.223 109.434 301.957 109.168C301.691 108.903 301.542 108.542 301.542 108.167V98.2498M303.667 98.2498V96.8332C303.667 96.4574 303.816 96.0971 304.082 95.8314C304.348 95.5658 304.708 95.4165 305.084 95.4165H307.917C308.293 95.4165 308.653 95.5658 308.919 95.8314C309.184 96.0971 309.334 96.4574 309.334 96.8332V98.2498" stroke="#D35050" stroke-linecap="round" stroke-linejoin="round"/>
<path d="M305.083 101.792V106.042" stroke="#D35050" stroke-linecap="round" stroke-linejoin="round"/>
<path d="M307.917 101.792V106.042" stroke="#D35050" stroke-linecap="round" stroke-linejoin="round"/>
<rect x="94" y="98" width="184" height="10" rx="5" fill="#D7DADE"/>
<rect x="94" y="112" width="79" height="10" rx="5" fill="#D7DADE"/>
<line x1="20.5" y1="23" x2="20.5" y2="143" stroke="#0AB9AD"/>
<rect y="83" width="346" height="83" fill="url(#paint0_linear_3389_4272)"/>
<defs>
<linearGradient id="paint0_linear_3389_4272" x1="173" y1="83" x2="173" y2="166" gradientUnits="userSpaceOnUse">
<stop stop-color="#FEFEFE" stop-opacity="0"/>
<stop offset="0.51331" stop-color="#FEFEFE" stop-opacity="0.92"/>
</linearGradient>
</defs>
</svg>
