<svg width="77" height="77" viewBox="0 0 77 77" fill="none" xmlns="http://www.w3.org/2000/svg">
<circle opacity="0.8" cx="38.5" cy="38.5" r="38.5" fill="#B6EAE6"/>
<path d="M32.3653 50.9746C32.3056 50.9746 32.2465 50.9621 32.1914 50.9378C32.1362 50.9135 32.0861 50.8778 32.0439 50.8329C32.0017 50.788 31.9682 50.7347 31.9453 50.6761C31.9225 50.6174 31.9107 50.5545 31.9107 50.491C31.9107 50.4275 31.9225 50.3646 31.9453 50.306C31.9682 50.2473 32.0017 50.194 32.0439 50.1491C32.0861 50.1042 32.1362 50.0686 32.1914 50.0443C32.2465 50.02 32.3056 50.0075 32.3653 50.0075H37.5382V43.9759L37.1841 43.9454C36.4153 43.8866 35.6539 43.7468 34.9111 43.528H34.8824H34.8154L34.7532 43.5025C34.369 43.3824 33.9919 43.2379 33.6239 43.0699L33.265 42.8714C27.1494 39.9854 27.0058 36 27.0058 35.5572C26.8383 28.869 30.3316 21.5701 30.4799 21.2647C30.5173 21.1852 30.5746 21.1184 30.6456 21.0716C30.7166 21.0249 30.7984 21.0001 30.8819 21H45.1181C45.2017 20.9995 45.2837 21.0241 45.3548 21.0709C45.4259 21.1177 45.4832 21.1849 45.52 21.2647C45.6732 21.5701 49.1616 28.8487 48.9942 35.5419C48.9942 36.0153 48.8458 40.1229 42.4623 43.0037L42.1034 43.1666C41.9359 43.2379 41.7636 43.304 41.5674 43.3753L41.4478 43.4211L41.132 43.5484H41.0363H40.9693C40.2623 43.7571 39.5379 43.8918 38.8063 43.9505L38.4522 43.9759V50.0075H43.6251C43.697 49.9823 43.7734 49.9757 43.8482 49.9881C43.9229 50.0005 43.9938 50.0315 44.0551 50.0787C44.1164 50.1259 44.1663 50.1879 44.2007 50.2596C44.2351 50.3312 44.253 50.4105 44.253 50.491C44.253 50.5715 44.2351 50.6508 44.2007 50.7225C44.1663 50.7941 44.1164 50.8561 44.0551 50.9033C43.9938 50.9505 43.9229 50.9815 43.8482 50.9939C43.7734 51.0063 43.697 50.9997 43.6251 50.9746H32.3653ZM28.2452 31.2613C27.9965 32.6586 27.8826 34.0793 27.9055 35.5012C27.9055 35.7201 27.9581 39.7971 34.8872 42.4998C35.9044 42.8324 36.9621 43.0039 38.0263 43.0088C39.1112 43.0109 40.1892 42.8253 41.2181 42.4591C48.1902 39.6851 48.0802 35.5775 48.0754 35.5368C48.0995 34.1047 47.9857 32.6738 47.7356 31.2664L47.6782 30.9305H44.6778L46.0751 33.6586C46.127 33.7725 46.1371 33.9029 46.1035 34.0243C46.0699 34.1457 45.9949 34.2494 45.8933 34.3152L41.1655 37.0536C41.1001 37.094 41.0257 37.115 40.9501 37.1147C40.8682 37.1124 40.7883 37.0878 40.7179 37.0432C40.6475 36.9987 40.5891 36.9357 40.5482 36.8602L39.9261 35.6437L39.4715 39.8989C39.4562 40.026 39.3964 40.1424 39.304 40.2246C39.2218 40.2925 39.121 40.3301 39.0169 40.3315H38.9642L33.6191 39.6851C33.5016 39.6651 33.3954 39.5993 33.321 39.5005C33.2467 39.4017 33.2097 39.277 33.2171 39.1507L33.8248 33.4601C33.8421 33.3456 33.8957 33.2408 33.9766 33.163C34.0575 33.0853 34.161 33.0392 34.2699 33.0326H34.3273L38.8685 33.5823L37.9737 31.8415C37.9171 31.7273 37.9034 31.5945 37.9354 31.47C37.9727 31.349 38.0512 31.2473 38.1555 31.1849L42.8834 28.4415C42.9488 28.4011 43.0231 28.3801 43.0987 28.3804C43.1416 28.3755 43.185 28.3755 43.2279 28.3804C43.3434 28.4189 43.4409 28.5026 43.5007 28.6145L44.1802 29.9481H47.4916L47.3719 29.4391C46.7768 26.9346 45.9597 24.4957 44.9315 22.1554L44.8262 21.9213H31.169L31.0685 22.1554C30.038 24.4953 29.2192 26.9342 28.6233 29.4391L28.5084 29.9481H36.1648C35.962 30.2345 35.8081 30.5567 35.7102 30.8999H28.317L28.2452 31.2613ZM34.1742 38.7689L38.6197 39.3034L39.1269 34.5748L34.6766 34.0404L34.1742 38.7689ZM38.9882 31.7906L41.132 35.9695L45.0607 33.6943L42.9169 29.5104L38.9882 31.7906Z" fill="white"/>
</svg>
