<svg width="205" height="153" viewBox="0 0 205 153" fill="none" xmlns="http://www.w3.org/2000/svg">
<circle cx="50" cy="50" r="50" fill="#EEFBFA"/>
<g clip-path="url(#clip0_3392_2301)">
<path d="M124.175 6.51397L125.426 5.55228C125.964 5.14156 126.637 4.94858 127.311 5.01176C127.985 5.07495 128.61 5.38967 129.063 5.89325L131.222 8.28873C131.585 8.69461 131.816 9.20059 131.886 9.74036C131.957 10.2801 131.862 10.8285 131.615 11.3137L131.065 12.4677C130.689 13.1982 130.14 13.826 129.467 14.2968C128.793 14.7675 128.016 15.0669 127.2 15.1692L123.703 15.6151C122.792 15.7313 121.866 15.6408 120.994 15.3502C120.122 15.0596 119.327 14.5764 118.668 13.9365L117.846 13.1496C119.428 9.36407 124.175 6.51397 124.175 6.51397Z" fill="#FFC2BC"/>
<path d="M83.1025 62.9473L83.1637 61.7496L83.2337 60.6567C83.2949 59.9398 83.3736 59.2229 83.4522 58.5148C83.6096 57.0985 83.8282 55.6996 84.0642 54.2921C84.5507 51.4871 85.1928 48.7114 85.9876 45.9778C86.783 43.2047 87.7644 40.4883 88.9251 37.8472C90.0913 35.1368 91.4864 32.5308 93.0954 30.0575C93.6275 29.2478 94.227 28.4844 94.8876 27.7756C95.4471 27.1549 95.9979 26.6304 96.5487 26.1145C97.6328 25.1091 98.7169 24.1912 99.7922 23.3082C101.952 21.5596 104.164 19.9422 106.367 18.3686C110.776 15.2604 115.34 12.3775 120.04 9.73083C120.683 9.37069 121.435 9.2568 122.156 9.41043C122.876 9.56407 123.516 9.97472 123.956 10.5657C124.396 11.1567 124.606 11.8876 124.547 12.6221C124.487 13.3565 124.163 14.0442 123.633 14.5568C119.848 18.2287 115.949 21.8219 112.181 25.4151C110.292 27.1637 108.439 29.0258 106.664 30.8181C105.79 31.6923 104.915 32.6191 104.164 33.5021C103.796 33.9392 103.429 34.3763 103.132 34.7698C102.907 35.0422 102.708 35.3349 102.537 35.644C100.373 39.9076 98.7288 44.4163 97.6416 49.0727C97.0645 51.442 96.575 53.8549 96.1815 56.2854C95.9805 57.5006 95.8143 58.7159 95.657 59.9311L95.4471 61.7496L95.351 62.6238L95.281 63.4194V63.7254C95.1291 65.3044 94.3656 66.7614 93.1538 67.7851C91.9419 68.8088 90.3778 69.3179 88.7956 69.2038C87.2134 69.0896 85.7385 68.3612 84.6862 67.1742C83.6338 65.9872 83.0874 64.4356 83.1637 62.8511L83.1025 62.9473Z" fill="#FFC2BC"/>
<path d="M137.316 33.949C152.248 46.5471 132.551 58.2535 146.443 71.7434C160.335 85.2333 170.739 94.9551 159.347 108.524C150.176 119.443 123.118 124.969 103.106 107.23C83.094 89.491 114.192 76.8229 99.8274 66.2268C85.4633 55.6307 103.674 32.0518 108.92 29.9361C108.518 18.4658 132.394 16.9096 137.316 33.949Z" fill="#1A365D"/>
<path d="M172.732 105.542C172.668 105.554 172.603 105.554 172.539 105.542C163.377 101.171 161.847 94.2906 160.37 87.6199C158.962 81.2815 157.52 74.7245 149.747 69.75C138.303 62.4236 140.655 55.7093 142.753 49.7818C144.72 44.1602 146.425 39.2906 136.703 34.4734C136.598 34.4208 136.518 34.3288 136.481 34.2175C136.443 34.1062 136.451 33.9845 136.502 33.8789C136.558 33.7747 136.652 33.6959 136.764 33.6585C136.876 33.6212 136.998 33.6281 137.106 33.6778C147.527 38.8622 145.621 44.3089 143.601 50.079C141.582 55.8491 139.405 62.0477 150.254 68.9981C158.333 74.1737 159.828 80.9056 161.27 87.4276C162.765 94.1856 164.182 100.542 172.95 104.729C173.057 104.78 173.139 104.872 173.178 104.983C173.218 105.095 173.211 105.217 173.16 105.324C173.118 105.398 173.055 105.458 172.979 105.497C172.903 105.536 172.817 105.552 172.732 105.542Z" fill="#1A365D"/>
<path d="M68.7119 103.531C68.7119 103.531 56.2886 141.798 49.1546 169.197C48.28 172.565 47.8509 176.034 47.8782 179.514C48.1492 207.7 48.7524 263.81 48.7524 263.81L55.458 264.728C55.458 264.728 71.9292 203.53 67.8464 180.554C91.1018 139.123 98.0609 117.773 98.0609 117.773L68.7119 103.531Z" fill="#1A365D"/>
<path opacity="0.2" d="M79.6657 135.626L86.1002 145.671C83.46 151.191 80.2718 157.506 76.5358 164.617C77.0168 156.279 76.2506 147.916 74.2627 139.805L79.6657 135.626Z" fill="black"/>
<path d="M72.9259 126.62C69.9009 132.311 71.2473 138.772 74.2285 144.481C79.9287 155.383 93.0864 173.55 99.521 190.424C104.985 204.762 162.022 230.885 168.369 236.148L173.029 231.532C173.029 231.532 134.561 187.32 118.344 184.531C113.632 129.339 97.2916 114.669 97.2916 114.669C85.8475 112.579 78.0053 117.073 72.9259 126.62Z" fill="#1A365D"/>
<path d="M81.9046 64.95C80.5669 68.0536 72.3489 72.7571 76.3005 79.7075C74.0187 86.1946 71.9292 92.6641 68.7119 103.531L99.6434 118.542C102.598 109.205 107.687 99.4135 121.299 81.8233C122.042 80.8588 122.574 79.7489 122.861 78.5656C123.148 77.3822 123.183 76.1518 122.963 74.9542C122.744 73.7565 122.276 72.6182 121.588 71.6132C120.901 70.6082 120.01 69.7588 118.973 69.1202C117.802 68.3946 116.543 67.6514 115.232 66.9433C110.721 64.3394 106.028 62.0634 101.191 60.1328C99.6084 59.5295 97.9473 58.9612 96.3474 58.4454C93.562 57.5477 90.5424 57.716 87.874 58.9178C85.2056 60.1195 83.0784 62.2691 81.9046 64.95Z" fill="#8253F6"/>
<path d="M101.191 60.0981C97.5365 58.5419 94.4241 52.5619 95.8929 47.6748C90.8571 47.9983 84.9209 51.1719 82.8489 55.788C82.0271 60.509 81.9746 69.8986 81.9746 69.8986L101.191 60.0981Z" fill="#8253F6"/>
<path d="M190.077 73.0639L191.345 72.1284C191.887 71.7228 192.257 71.1277 192.38 70.4617C192.503 69.7958 192.371 69.1079 192.009 68.5352L190.261 65.8075C189.97 65.3458 189.546 64.9832 189.045 64.7677C188.544 64.5523 187.989 64.4941 187.454 64.601L186.187 64.8458C185.381 65.0074 184.627 65.3634 183.99 65.883C183.353 66.4026 182.852 67.07 182.532 67.827L181.151 71.053C180.79 71.8973 180.624 72.8118 180.665 73.729C180.706 74.6461 180.953 75.5422 181.387 76.3511L181.929 77.3565C186.038 76.8494 190.077 73.0639 190.077 73.0639Z" fill="#FFC2BC"/>
<path d="M117.951 71.0077L134.317 72.7563C137.036 73.0273 139.755 73.3245 142.448 73.5606L146.461 73.8753C147.763 73.9715 149.197 74.0502 150.089 74.0414C152.511 73.9365 155.335 73.6917 158.001 73.4032L166.219 72.529C171.727 71.9432 177.279 71.3575 182.83 70.9378C183.571 70.8804 184.306 71.0965 184.898 71.5452C185.49 71.9939 185.896 72.6441 186.041 73.3725C186.185 74.101 186.057 74.8571 185.681 75.4976C185.306 76.1381 184.708 76.6185 184.002 76.8478C178.634 78.5964 173.24 80.0826 167.784 81.4377C165.056 82.1197 162.311 82.7491 159.531 83.3436C156.751 83.9381 154.006 84.4889 150.885 84.8561C148.987 85.0309 147.641 85.0397 146.164 85.0659C144.686 85.0921 143.261 85.0659 141.792 85.0659C138.933 85.0047 136.092 84.8998 133.268 84.7162C127.603 84.3665 122.034 83.8419 116.404 83.0551C114.941 82.7074 113.657 81.8333 112.798 80.5997C111.938 79.366 111.563 77.8592 111.743 76.3665C111.924 74.8739 112.648 73.4999 113.776 72.5067C114.905 71.5135 116.36 70.9706 117.864 70.9815L117.951 71.0077Z" fill="#FFC2BC"/>
<path d="M102.957 110.752C104.286 111.626 101.121 117.204 102.328 119.494C103.534 121.785 104.076 122.992 102.975 123.306C101.873 123.621 79.5794 119.066 67.366 109.825C67.142 109.647 66.9651 109.417 66.8508 109.155C66.7365 108.893 66.6882 108.607 66.7103 108.321C67.0775 103.478 69.3331 96.9122 70.7319 96.8161C72.1307 96.7199 98.0352 107.57 102.957 110.752Z" fill="#8253F6"/>
<path opacity="0.4" d="M102.957 110.752C104.286 111.626 101.121 117.204 102.328 119.494C103.534 121.785 104.076 122.992 102.975 123.306C101.873 123.621 79.5794 119.066 67.366 109.825C67.142 109.647 66.9651 109.417 66.8508 109.155C66.7365 108.893 66.6882 108.607 66.7103 108.321C67.0775 103.478 69.3331 96.9122 70.7319 96.8161C72.1307 96.7199 98.0352 107.57 102.957 110.752Z" fill="white"/>
<path d="M121.518 50.4199C118.44 54.5027 113.536 62.3536 115.232 66.9085C115.232 66.9085 104.181 63.5514 93.375 69.5313C93.9433 60.5614 101.156 60.0631 101.156 60.0631C106.777 61.2958 108.465 57.5015 109.287 53.5585L121.518 50.4199Z" fill="#FFC2BC"/>
<path opacity="0.2" d="M116.543 51.7139L109.33 53.5935C109.151 54.5154 108.891 55.4194 108.552 56.295C110.615 56.9507 114.278 56.1202 115.467 54.2055C115.974 53.4474 116.339 52.603 116.543 51.7139Z" fill="black"/>
<path d="M129.745 45.3654C124.412 51.8611 122.383 55.4893 116.403 55.7691C106.174 56.2412 102.415 47.9007 104.959 41.8771C108.002 34.7605 115.45 24.995 123.904 27.0146C132.359 29.0341 135.069 38.8696 129.745 45.3654Z" fill="#FFC2BC"/>
<path d="M115.415 24.8912C115.878 29.9357 125.084 36.9735 128.013 38.6346C124.131 40.4881 122.4 48.7673 129.438 49.4668C136.476 50.1662 142.71 21.6127 115.415 24.8912Z" fill="#1A365D"/>
<path d="M107.879 41.1172C107.879 41.1172 110.642 41.7379 117.688 44.9465C115.94 46.4502 113.64 47.2895 110.039 45.6197C106.437 43.9498 107.879 41.1172 107.879 41.1172Z" fill="white"/>
<path d="M127.62 51.8187C126.965 52.2001 126.237 52.4385 125.484 52.5184C124.731 52.5983 123.969 52.5177 123.249 52.2821C121.43 51.6177 121.876 49.4145 123.52 48.0419C124.997 46.8005 127.716 45.6639 128.993 47.089C130.269 48.514 129.395 50.8396 127.62 51.8187Z" fill="#FFC2BC"/>
<path opacity="0.2" d="M88.6101 79.043C90.4309 83.5609 93.7036 87.3442 97.9123 89.7964C90.3936 88.3451 88.3653 82.3914 88.6101 79.043Z" fill="black"/>
<path d="M115.231 66.9082C119.287 69.6097 130.434 70.6151 134.141 70.8774C134.265 70.8802 134.385 70.9169 134.489 70.9835C134.593 71.0502 134.677 71.1442 134.731 71.2552C134.785 71.3663 134.808 71.4901 134.796 71.6131C134.785 71.7362 134.74 71.8536 134.666 71.9527C132.987 73.7012 127.506 81.4472 127.287 85.329C127.264 85.7188 127.116 86.0908 126.864 86.3888C126.611 86.6868 126.269 86.8948 125.888 86.9813C115.117 89.3331 110.204 88.0567 108.184 85.2765C106.069 82.3652 115.231 66.9082 115.231 66.9082Z" fill="#8253F6"/>
</g>
<defs>
<clipPath id="clip0_3392_2301">
<rect x="41" y="4.63672" width="164" height="148.364" rx="74.1818" fill="white"/>
</clipPath>
</defs>
</svg>
