<svg width="27" height="27" viewBox="0 0 27 27" fill="none" xmlns="http://www.w3.org/2000/svg">
<path d="M19.125 12.375H7.875C7.27826 12.375 6.70597 12.6121 6.28401 13.034C5.86205 13.456 5.625 14.0283 5.625 14.625V21.375C5.625 21.9717 5.86205 22.544 6.28401 22.966C6.70597 23.3879 7.27826 23.625 7.875 23.625H19.125C19.7217 23.625 20.294 23.3879 20.716 22.966C21.1379 22.544 21.375 21.9717 21.375 21.375V14.625C21.375 14.0283 21.1379 13.456 20.716 13.034C20.294 12.6121 19.7217 12.375 19.125 12.375Z" stroke="#0AB9AD" stroke-width="1.125" stroke-linecap="round" stroke-linejoin="round"/>
<path d="M13.5 19.125C13.7984 19.125 14.0845 19.0065 14.2955 18.7955C14.5065 18.5845 14.625 18.2984 14.625 18C14.625 17.7016 14.5065 17.4155 14.2955 17.2045C14.0845 16.9935 13.7984 16.875 13.5 16.875C13.2016 16.875 12.9155 16.9935 12.7045 17.2045C12.4935 17.4155 12.375 17.7016 12.375 18C12.375 18.2984 12.4935 18.5845 12.7045 18.7955C12.9155 19.0065 13.2016 19.125 13.5 19.125Z" stroke="#0AB9AD" stroke-width="1.125" stroke-linecap="round" stroke-linejoin="round"/>
<path d="M9 12.375V7.875C9 6.68153 9.47411 5.53693 10.318 4.69302C11.1619 3.84911 12.3065 3.375 13.5 3.375C14.6935 3.375 15.8381 3.84911 16.682 4.69302C17.5259 5.53693 18 6.68153 18 7.875V12.375" stroke="#0AB9AD" stroke-width="1.125" stroke-linecap="round" stroke-linejoin="round"/>
</svg>
