<svg width="29" height="29" viewBox="0 0 29 29" fill="none" xmlns="http://www.w3.org/2000/svg">
<circle opacity="0.8" cx="14.5" cy="14.5" r="14.5" fill="#8253F6"/>

<path d="M13.0286 21.1951L10.6953 20.0285L3.69531 23.5285V8.36182L10.6953 4.86182L17.6953 8.36182L24.6953 4.86182V16.5285" stroke="white" stroke-width="1.91667" stroke-linecap="round" stroke-linejoin="round"/>
<path d="M10.6953 4.86182V20.0285" stroke="white" stroke-width="1.91667" stroke-linecap="round" stroke-linejoin="round"/>
<path d="M17.6953 8.36182V14.1952" stroke="white" stroke-width="1.91667" stroke-linecap="round" stroke-linejoin="round"/>
<path d="M19.4455 23.5286C20.219 23.5286 20.9609 23.2214 21.5079 22.6744C22.0549 22.1274 22.3621 21.3855 22.3621 20.612C22.3621 19.8384 22.0549 19.0966 21.5079 18.5496C20.9609 18.0026 20.219 17.6953 19.4455 17.6953C18.6719 17.6953 17.9301 18.0026 17.3831 18.5496C16.8361 19.0966 16.5288 19.8384 16.5288 20.612C16.5288 21.3855 16.8361 22.1274 17.3831 22.6744C17.9301 23.2214 18.6719 23.5286 19.4455 23.5286V23.5286Z" stroke="white" stroke-width="1.91667" stroke-linecap="round" stroke-linejoin="round"/>
<path d="M21.7788 22.9453L24.6955 25.862" stroke="white" stroke-width="1.91667" stroke-linecap="round" stroke-linejoin="round"/>
</svg>
