<svg width="23" height="23" viewBox="0 0 23 23" fill="none" xmlns="http://www.w3.org/2000/svg">
<circle cx="11.5" cy="11.5" r="11.5" fill="#F5AC0A"/>
<g clip-path="url(#clip0_2902_2491)">
<path d="M7.34793 7.11719L15.9829 15.7522C16.1468 15.9161 16.2389 16.1384 16.2389 16.3702C16.2389 16.602 16.1468 16.8243 15.9829 16.9882V16.9882C15.819 17.1519 15.5969 17.2439 15.3652 17.2439C15.1335 17.2439 14.9113 17.1519 14.7474 16.9882L12.6374 14.8422C12.4997 14.702 12.4225 14.5133 12.4224 14.3167V14.1867C12.4223 14.0874 12.4025 13.9891 12.3642 13.8975C12.3258 13.8059 12.2696 13.7229 12.1989 13.6532L11.9269 13.4017C11.8345 13.3163 11.7221 13.2556 11.6 13.2251C11.4779 13.1946 11.3502 13.1954 11.2284 13.2272V13.2272C11.0365 13.2774 10.8347 13.2764 10.6433 13.2245C10.4518 13.1726 10.2772 13.0715 10.1369 12.9312L8.13493 10.9287C6.94693 9.74119 6.50993 7.94719 7.34793 7.11719Z" stroke="white" stroke-linecap="round" stroke-linejoin="round"/>
<path d="M15.375 6.75L13.5645 8.5605C13.4251 8.69982 13.3146 8.86522 13.2392 9.04727C13.1638 9.22932 13.125 9.42445 13.125 9.6215V9.9695C13.1249 10.0689 13.0853 10.1642 13.015 10.2345L12.75 10.5" stroke="white" stroke-linecap="round" stroke-linejoin="round"/>
<path d="M13.5 11.25L13.765 10.985C13.7998 10.9501 13.8411 10.9225 13.8865 10.9036C13.932 10.8847 13.9808 10.875 14.03 10.875H14.3785C14.5756 10.875 14.7707 10.8362 14.9527 10.7608C15.1348 10.6854 15.3002 10.5749 15.4395 10.4355L17.25 8.625" stroke="white" stroke-linecap="round" stroke-linejoin="round"/>
<path d="M16.3125 7.6875L14.4375 9.5625" stroke="white" stroke-linecap="round" stroke-linejoin="round"/>
<path d="M10.6874 14.625L8.34992 16.975C8.17412 17.1507 7.93573 17.2494 7.68717 17.2494C7.43861 17.2494 7.20022 17.1507 7.02442 16.975C6.84886 16.7992 6.75024 16.5609 6.75024 16.3125C6.75024 16.0641 6.84886 15.8258 7.02442 15.65L8.99942 13.6875" stroke="white" stroke-linecap="round" stroke-linejoin="round"/>
</g>
<defs>
<clipPath id="clip0_2902_2491">
<rect width="12" height="12" fill="white" transform="translate(6 6)"/>
</clipPath>
</defs>
</svg>
