<svg width="77" height="77" viewBox="0 0 77 77" fill="none" xmlns="http://www.w3.org/2000/svg">
<circle opacity="0.8" cx="38.5" cy="38.5" r="38.5" fill="#F5AC0A"/>
<path d="M28.6959 26.2339L45.9659 43.5039C46.2937 43.8317 46.4778 44.2763 46.4778 44.7399C46.4778 45.2035 46.2937 45.6481 45.9659 45.9759V45.9759C45.6381 46.3034 45.1937 46.4873 44.7304 46.4873C44.267 46.4873 43.8226 46.3034 43.4949 45.9759L39.2749 41.6839C38.9993 41.4034 38.8449 41.026 38.8449 40.6329V40.3729C38.8447 40.1743 38.8051 39.9777 38.7284 39.7946C38.6516 39.6114 38.5393 39.4453 38.3979 39.3059L37.8539 38.8029C37.669 38.6322 37.4441 38.5108 37.2 38.4498C36.9559 38.3888 36.7003 38.3902 36.4569 38.4539V38.4539C36.073 38.5542 35.6695 38.5524 35.2865 38.4485C34.9036 38.3447 34.5545 38.1424 34.2739 37.8619L30.2699 33.8569C27.8939 31.4819 27.0199 27.8939 28.6959 26.2339Z" stroke="white" stroke-linecap="round" stroke-linejoin="round"/>
<path d="M44.75 25.5L41.129 29.121C40.8503 29.3996 40.6292 29.7304 40.4784 30.0945C40.3276 30.4586 40.25 30.8489 40.25 31.243V31.939C40.2498 32.1378 40.1707 32.3285 40.03 32.469L39.5 33" stroke="white" stroke-linecap="round" stroke-linejoin="round"/>
<path d="M41 34.5L41.53 33.97C41.5995 33.9003 41.6822 33.845 41.7731 33.8072C41.864 33.7695 41.9615 33.75 42.06 33.75H42.757C43.1511 33.75 43.5414 33.6724 43.9055 33.5216C44.2696 33.3708 44.6004 33.1497 44.879 32.871L48.5 29.25" stroke="white" stroke-linecap="round" stroke-linejoin="round"/>
<path d="M46.625 27.375L42.875 31.125" stroke="white" stroke-linecap="round" stroke-linejoin="round"/>
<path d="M35.3753 41.25L30.7003 45.95C30.3487 46.3014 29.8719 46.4988 29.3748 46.4988C28.8777 46.4988 28.4009 46.3014 28.0493 45.95C27.6982 45.5984 27.501 45.1219 27.501 44.625C27.501 44.1281 27.6982 43.6516 28.0493 43.3L31.9993 39.375" stroke="white" stroke-linecap="round" stroke-linejoin="round"/>
</svg>
