<svg width="41" height="41" viewBox="0 0 41 41" fill="none" xmlns="http://www.w3.org/2000/svg">
<rect opacity="0.7" width="41" height="41" rx="6" fill="#0AB9AD"/>
<path d="M17.5 18C17.1022 18 16.7206 17.842 16.4393 17.5607C16.158 17.2794 16 16.8978 16 16.5C16 15.0413 16.5795 13.6424 17.6109 12.6109C18.6424 11.5795 20.0413 11 21.5 11C22.9587 11 24.3576 11.5795 25.3891 12.6109C26.4205 13.6424 27 15.0413 27 16.5V27C27 27.5304 26.7893 28.0391 26.4142 28.4142C26.0391 28.7893 25.5304 29 25 29H18C17.4696 29 16.9609 28.7893 16.5858 28.4142C16.2107 28.0391 16 27.5304 16 27V25C16 23.62 16.71 22.556 17.88 21.825L22.304 19.06C23.359 18.4 24 17.744 24 16.5C24 15.837 23.7366 15.2011 23.2678 14.7322C22.7989 14.2634 22.163 14 21.5 14C20.837 14 20.2011 14.2634 19.7322 14.7322C19.2634 15.2011 19 15.837 19 16.5C19 16.8978 18.842 17.2794 18.5607 17.5607C18.2794 17.842 17.8978 18 17.5 18Z" stroke="white" stroke-linecap="round" stroke-linejoin="round"/>
</svg>
