<svg width="23" height="23" viewBox="0 0 23 23" fill="none" xmlns="http://www.w3.org/2000/svg">
<circle cx="11.5" cy="11.5" r="11.5" fill="#618CC9"/>
<path d="M9.3125 9.25C9.06386 9.25 8.8254 9.15123 8.64959 8.97541C8.47377 8.7996 8.375 8.56114 8.375 8.3125C8.375 7.40082 8.73716 6.52648 9.38182 5.88182C10.0265 5.23716 10.9008 4.875 11.8125 4.875C12.7242 4.875 13.5985 5.23716 14.2432 5.88182C14.8878 6.52648 15.25 7.40082 15.25 8.3125V14.875C15.25 15.2065 15.1183 15.5245 14.8839 15.7589C14.6495 15.9933 14.3315 16.125 14 16.125H9.625C9.29348 16.125 8.97554 15.9933 8.74112 15.7589C8.5067 15.5245 8.375 15.2065 8.375 14.875V13.625C8.375 12.7625 8.81875 12.0975 9.55 11.6406L12.315 9.9125C12.9744 9.5 13.375 9.09 13.375 8.3125C13.375 7.8981 13.2104 7.50067 12.9174 7.20765C12.6243 6.91462 12.2269 6.75 11.8125 6.75C11.3981 6.75 11.0007 6.91462 10.7076 7.20765C10.4146 7.50067 10.25 7.8981 10.25 8.3125C10.25 8.56114 10.1512 8.7996 9.97541 8.97541C9.7996 9.15123 9.56114 9.25 9.3125 9.25Z" stroke="white" stroke-linecap="round" stroke-linejoin="round"/>
</svg>
