<svg width="51" height="51" viewBox="0 0 51 51" fill="none" xmlns="http://www.w3.org/2000/svg">
<circle opacity="0.8" cx="25.5" cy="25.5" r="25.5" fill="#F5AC0A"/>
<path d="M32.6831 17.0426L31.8278 17.8979M13.8662 24.8626H15.0881H13.8662ZM24.8631 13.8657V15.0876V13.8657ZM34.6381 24.8626H35.86H34.6381ZM17.0431 17.0426L17.8984 17.8979L17.0431 17.0426Z" stroke="white" stroke-width="1.5" stroke-linecap="round" stroke-linejoin="round"/>
<path d="M21.1967 29.7503C20.1709 28.9809 19.4131 27.9083 19.0308 26.6844C18.6485 25.4605 18.661 24.1473 19.0664 22.9308C19.4719 21.7144 20.2499 20.6564 21.2901 19.9066C22.3303 19.1569 23.5801 18.7534 24.8623 18.7534C26.1446 18.7534 27.3943 19.1569 28.4345 19.9066C29.4747 20.6564 30.2527 21.7144 30.6582 22.9308C31.0636 24.1473 31.0761 25.4605 30.6938 26.6844C30.3115 27.9083 29.5537 28.9809 28.5279 29.7503C28.0509 30.2225 27.6917 30.8004 27.4794 31.4372C27.2671 32.0741 27.2077 32.7519 27.3061 33.4159C27.3061 34.064 27.0486 34.6856 26.5903 35.1439C26.132 35.6022 25.5104 35.8597 24.8623 35.8597C24.2142 35.8597 23.5926 35.6022 23.1343 35.1439C22.676 34.6856 22.4186 34.064 22.4186 33.4159C22.517 32.7519 22.4576 32.074 22.2453 31.4372C22.0331 30.8004 21.6738 30.2225 21.1967 29.7503Z" stroke="white" stroke-width="1.5" stroke-linecap="round" stroke-linejoin="round"/>
<path d="M22.0527 30.9722H27.6734" stroke="white" stroke-width="1.5" stroke-linecap="round" stroke-linejoin="round"/>
</svg>
