<svg width="189" height="155" viewBox="0 0 189 155" fill="none" xmlns="http://www.w3.org/2000/svg">
<g clip-path="url(#clip0_3389_2663)">
<circle cx="58" cy="52" r="53" fill="#EEFBFA"/>
<g opacity="0.5" clip-path="url(#clip1_3389_2663)">
<path d="M274.907 107.278C274.907 107.278 268.45 91.7441 252.406 93.2134C252.406 93.2134 229.555 67.1396 204.413 89.0463C204.413 89.0463 178.143 83.1203 158.464 93.1261C145.343 99.799 140.935 106.939 140.935 106.939L274.903 107.278H274.907Z" fill="#F8FCFF"/>
<path d="M187.196 57.1271C187.196 57.1271 179.784 38.0368 161.316 39.8621C161.316 39.8621 135.047 7.83093 106.083 34.7981C106.083 34.7981 75.854 27.5424 53.1922 39.8691C38.0832 48.088 33 56.8723 33 56.8723L187.196 57.1271Z" fill="#F8FCFF"/>
</g>
<path d="M122.433 62.2021L124.247 76.2694C124.878 80.9255 125.538 85.6211 126.445 89.9708L127.017 92.4521C127.101 92.8003 127.274 93.1205 127.519 93.3813C128.669 94.3102 130.062 94.8838 131.531 95.0322C135.335 95.6945 140.106 95.3288 144.482 94.7752L146.384 100.509C144.026 101.647 141.564 102.554 139.032 103.218C136.385 103.951 133.656 104.343 130.91 104.384C129.363 104.39 127.82 104.231 126.307 103.909C124.532 103.514 122.844 102.794 121.33 101.784C119.612 100.624 118.213 99.0501 117.259 97.2071C116.858 96.4106 116.528 95.5803 116.273 94.7258C116.066 94.0931 115.83 93.4308 115.652 92.8179C114.261 87.9835 113.152 83.0719 112.331 78.1081C111.503 73.2345 110.842 68.4301 110.359 63.4774L122.433 62.2021Z" fill="#BD7E51"/>
<path d="M105.47 52.3852C101.528 58.623 110.319 81.182 110.319 81.182L127.075 76.0909C126.081 69.4299 124.379 62.8947 121.999 56.5965C118.293 47.5314 109.777 45.5444 105.47 52.3852Z" fill="#1A365D"/>
<path d="M117.554 53.4929C119.367 61.9352 122.048 81.5285 117.978 113.202L76.9257 116.029C76.2752 110.276 78.1972 82.5961 74.4517 54.9856C74.3031 53.9367 74.3682 52.8684 74.6432 51.8455C74.9181 50.8225 75.3973 49.8662 76.0515 49.0344C76.7058 48.2026 77.5216 47.5126 78.4495 47.0063C79.3774 46.4999 80.3981 46.1877 81.4498 46.0886C83.2338 45.9205 85.1459 45.792 87.0383 45.7426C92.8702 45.5531 98.7082 45.6983 104.524 46.1776C106.895 46.4647 109.251 46.8739 111.581 47.4034C113.053 47.7383 114.399 48.4902 115.458 49.5697C116.516 50.6492 117.244 52.0109 117.554 53.4929Z" fill="#1A365D"/>
<path d="M89.2567 26.0703C90.2424 31.7446 91.0605 42.1048 87.0391 45.7723C87.0391 45.7723 89.1582 51.5554 99.606 51.8124C109.157 52.0497 104.534 46.2073 104.534 46.2073C98.2951 44.5564 98.571 39.8904 99.7735 35.5308L89.2567 26.0703Z" fill="#BD7E51"/>
<path opacity="0.2" d="M93.5341 29.9355L99.7535 35.5209C99.4619 36.5362 99.2574 37.5747 99.1423 38.625C97.0331 40.523 93.5242 35.5011 93.3271 32.9803C93.2152 31.9611 93.2853 30.9301 93.5341 29.9355Z" fill="#1A365D"/>
<path d="M87.443 45.3669C85.7675 44.1609 81.3222 44.6354 77.291 45.4263C75.2116 45.8365 73.3598 47.0105 72.0982 48.7183C70.8367 50.4262 70.2561 52.5448 70.4703 54.6594C71.7122 67.2339 73.9595 92.5213 73.1513 103.395C79.5481 109.782 91.7404 111.838 91.7404 111.838C91.7404 111.838 98.1274 53.1173 87.443 45.3669Z" fill="#F5AC0A"/>
<path d="M105.618 45.3077C108.311 45.1689 111.002 45.6209 113.503 46.6324C114.736 47.0898 115.838 47.8436 116.713 48.8277C117.587 49.8119 118.208 50.9963 118.52 52.2771C120.442 60.1065 124.029 79.2648 120.866 104.087C114.469 110.474 110.753 109.188 110.753 109.188C110.753 109.188 111.482 61.3026 104.543 47.2255C104.451 47.0309 104.406 46.8168 104.413 46.6012C104.42 46.3856 104.479 46.1749 104.584 45.9868C104.689 45.7987 104.838 45.6388 105.018 45.5207C105.198 45.4025 105.404 45.3294 105.618 45.3077Z" fill="#F5AC0A"/>
<path d="M142.629 95.3679L147.666 92.8174L146.473 101.517C146.473 101.517 142.018 103.553 140.353 99.2232L142.629 95.3679Z" fill="#BD7E51"/>
<path d="M108.989 11.1336C112.882 13.5358 111.157 26.7529 106.623 23.0754C102.089 19.398 106.446 9.5717 108.989 11.1336Z" fill="#1A365D"/>
<path d="M88.7928 17.5686C89.0688 25.22 88.852 29.7081 92.5974 33.7315C98.2451 39.7716 107.727 36.4995 109.738 28.9172C111.541 22.0962 110.773 10.7277 103.39 7.50502C101.766 6.78636 99.9859 6.49621 98.2185 6.66214C96.4512 6.82808 94.7555 7.44457 93.2927 8.45305C91.8299 9.46152 90.6486 10.8285 89.861 12.4239C89.0734 14.0194 88.7057 15.7904 88.7928 17.5686Z" fill="#BD7E51"/>
<path d="M93.4653 17.7861C93.0535 19.0401 92.3441 20.1748 91.398 21.0927C90.4519 22.0106 89.2976 22.684 88.0344 23.0552C85.0085 18.5177 83.8356 16.6493 86.6151 13.4661C85.0775 10.3423 100.936 3.13568 107.314 6.54622C113.691 9.95675 109.876 13.3179 107.028 14.0692C104.55 14.5037 102.014 14.4769 99.5467 13.9901C98.2488 13.7962 96.9244 14.0715 95.8103 14.767C94.6962 15.4624 93.865 16.5326 93.4653 17.7861Z" fill="#1A365D"/>
<path d="M84.4861 23.7569C85.241 25.5161 86.6579 26.9052 88.4287 27.6221C90.8041 28.5415 92.2332 26.4754 91.7798 24.1029C91.3659 21.9676 89.641 18.9129 87.1671 19.0019C84.6931 19.0909 83.5695 21.582 84.4861 23.7569Z" fill="#BD7E51"/>
<path d="M117.978 113.202C117.978 113.202 137.484 173.365 142.205 196.429C147.133 220.421 160.321 294.355 160.321 294.355L148.7 298.903C148.7 298.903 126.031 227.015 119.821 203.803C113.05 178.526 90.9912 115.06 90.9912 115.06L117.978 113.202Z" fill="#1A365D"/>
<path opacity="0.3" d="M99.862 118.995L97.2402 133.26C101.419 145.558 107.018 162.225 111.808 177.231C110.804 157.323 106.776 137.684 99.862 118.995Z" fill="#1A365D"/>
<path d="M103.41 114.21C103.41 114.21 104.238 177.36 100.965 199.731C97.3776 224.217 76.3934 297.855 76.3934 297.855H62.3086C62.3086 297.855 76.7482 227.598 78.0788 203.497C79.5474 177.35 76.9158 116.029 76.9158 116.029L103.41 114.21Z" fill="#1A365D"/>
<path d="M109.422 44.438C109.422 44.438 113.365 77.7228 75.3389 118.995V123.335C75.3389 123.335 91.6413 112.382 103.508 86.2738C116.578 57.487 112.813 46.0592 112.813 46.0592L109.422 44.438Z" fill="#8253F6"/>
<path opacity="0.3" d="M109.422 44.438C109.422 44.438 113.365 77.7228 75.3389 118.995V123.335C75.3389 123.335 91.6413 112.382 103.508 86.2738C116.578 57.487 112.813 46.0592 112.813 46.0592L109.422 44.438Z" fill="#1A365D"/>
<path d="M74.6395 115.505C72.0276 115.851 70.904 118.836 70.214 123.255C69.5241 127.674 66.8234 133.072 75.0042 136.225C83.185 139.379 85.5013 135.632 86.1814 130.185C86.8614 124.738 91.6615 113.281 74.6395 115.505Z" fill="#8253F6"/>
<path opacity="0.3" d="M86.0431 121.061C86.0431 121.061 81.2627 125.43 75.9797 124.57C70.6967 123.71 70.953 120.685 70.953 120.685C70.953 120.685 69.4154 124.432 75.5953 125.895C81.7753 127.358 86.0431 121.061 86.0431 121.061Z" fill="#1A365D"/>
<path opacity="0.3" d="M74.6291 123.058C74.9339 123.058 75.1811 122.505 75.1811 121.823C75.1811 121.14 74.9339 120.587 74.6291 120.587C74.3243 120.587 74.0771 121.14 74.0771 121.823C74.0771 122.505 74.3243 123.058 74.6291 123.058Z" fill="#1A365D"/>
<path d="M160.342 54.0343L144.433 60.8868L123.031 57.8563L101.382 50.8687L91.0163 95.2556L81.5283 137.181L106.866 137.645L133.673 136.255L145.311 130.03L146.534 93.0937L160.342 54.0343Z" fill="#F5AC0A"/>
<path opacity="0.9" d="M160.342 54.0343L144.433 60.8868L123.031 57.8563L101.382 50.8687L91.0163 95.2556L81.5283 137.181L106.866 137.645L133.673 136.255L145.311 130.03L146.534 93.0937L160.342 54.0343Z" fill="white"/>
<path d="M105.657 52.6821L91.6807 95.4769L111.679 100.123L127.006 60.6697L105.657 52.6821Z" fill="#8253F6"/>
<path d="M148.257 64.595L133.995 101.883L111.68 100.124L127.006 60.6704L148.257 64.595Z" fill="#8253F6"/>
<path opacity="0.1" d="M148.257 64.595L133.995 101.883L111.68 100.124L127.006 60.6704L148.257 64.595Z" fill="#1A365D"/>
<path d="M148.256 64.5947L133.994 101.883L149.094 97.6423L164.421 58.1987L148.256 64.5947Z" fill="#8253F6"/>
<path opacity="0.2" d="M148.256 64.5947L133.994 101.883L149.094 97.6423L164.421 58.1987L148.256 64.5947Z" fill="#1A365D"/>
<path d="M84.9883 140.377L91.6808 95.4771L111.679 100.123L107.737 141.712L84.9883 140.377Z" fill="#8253F6"/>
<path d="M134.557 141.317L133.995 101.883L111.68 100.124L107.737 141.712L134.557 141.317Z" fill="#8253F6"/>
<path opacity="0.1" d="M134.557 141.317L133.995 101.883L111.68 100.124L107.737 141.712L134.557 141.317Z" fill="white"/>
<path d="M134.557 141.317L133.995 101.884L149.095 97.6426L147.656 128.851L134.557 141.317Z" fill="#8253F6"/>
<path d="M77.5569 61.0058L73.151 76.0023C72.4315 78.5033 71.7711 80.9945 71.1108 83.4659C70.4504 85.9373 69.9083 88.4087 69.4845 90.7318L69.2282 92.274C69.2282 92.4124 69.1789 92.4618 69.1494 92.4816C69.1198 92.5013 69.0311 92.699 69.4451 93.134C70.0256 93.6857 70.6913 94.1398 71.4163 94.4784C72.3881 94.9523 73.3968 95.3458 74.4324 95.6548C79.2112 96.9744 84.1065 97.8252 89.0494 98.1954L89.4535 104.226C86.6939 104.74 83.9003 105.051 81.0953 105.155C78.2079 105.286 75.3147 105.153 72.4512 104.759C70.8938 104.529 69.3577 104.172 67.8582 103.692C66.09 103.148 64.4245 102.313 62.93 101.22C62.0152 100.543 61.1991 99.7414 60.5053 98.838C59.7221 97.8212 59.1248 96.6732 58.741 95.4472C58.374 94.2405 58.2075 92.9814 58.2482 91.7204V91.2953V91.0086V90.4451L58.3369 89.3083C58.9733 83.7797 59.9809 78.3005 61.353 72.9081C62.654 67.6292 64.1127 62.4985 65.8179 57.3086L77.5569 61.0058Z" fill="#BD7E51"/>
<path d="M72.6583 48.4812C65.4632 50.0432 58.8594 75.8446 58.8594 75.8446L74.6986 83.4367C74.6986 83.4367 80.6124 70.971 83.2934 61.8367C86.1517 52.2576 80.366 46.8106 72.6583 48.4812Z" fill="#1A365D"/>
<path d="M86.2798 98.8876L91.6417 93.8657L93.682 102.624C93.682 102.624 88.8523 106.855 84.9492 103.692L86.2798 98.8876Z" fill="#BD7E51"/>
<path d="M98.5904 93.0454L100.049 101.063L93.6819 102.625L91.6416 93.8659L98.5904 93.0454Z" fill="#BD7E51"/>
<path d="M152.534 94.6561L151.174 102.466L146.473 101.517L147.665 92.8174L152.534 94.6561Z" fill="#BD7E51"/>
<path d="M115.692 7.36689C115.859 7.96991 107.895 10.7478 97.901 13.5553C87.9066 16.3628 79.6666 18.1521 79.4892 17.5095C79.3118 16.867 87.2856 14.1286 97.2899 11.3211C107.294 8.51362 115.534 6.75398 115.692 7.36689Z" fill="#1A365D"/>
<path d="M94.2343 0.456749C88.5176 2.0681 85.0186 7.46564 86.4379 12.5172L107.136 6.68467C105.747 1.63313 99.9609 -1.1546 94.2343 0.456749Z" fill="#8253F6"/>
<path d="M85.8458 12.8735C85.5588 11.5521 85.579 10.1821 85.9049 8.86979C89.1871 7.95043 96.6681 6.89268 99.2702 8.54357C92.9621 10.8271 85.8458 12.8735 85.8458 12.8735Z" fill="#1A365D"/>
<path d="M107.559 6.27919C106.963 4.42287 105.757 2.82366 104.139 1.7417C100.936 2.92797 92.5876 6.99095 91.5625 11.3802C98.0086 9.48212 107.559 6.27919 107.559 6.27919Z" fill="#1A365D"/>
<path d="M96.4315 8.29617C80.1093 12.893 79.3208 16.9461 79.4884 17.5491C79.3208 16.9461 87.2848 14.1682 97.289 11.3607C107.293 8.55319 115.523 6.75401 115.691 7.40646C115.533 6.75401 112.754 3.70925 96.4315 8.29617Z" fill="#8253F6"/>
</g>
<defs>
<clipPath id="clip0_3389_2663">
<rect width="189" height="155" fill="white"/>
</clipPath>
<clipPath id="clip1_3389_2663">
<rect width="273" height="151" fill="white" transform="translate(33 24)"/>
</clipPath>
</defs>
</svg>
