<svg width="185" height="172" viewBox="0 0 185 172" fill="none" xmlns="http://www.w3.org/2000/svg">
<g clip-path="url(#clip0_3389_2525)">
<circle cx="127" cy="64" r="53" fill="#EEFBFA"/>
<g opacity="0.5" clip-path="url(#clip1_3389_2525)">
<path d="M260.907 113.278C260.907 113.278 254.45 97.7441 238.406 99.2134C238.406 99.2134 215.555 73.1396 190.413 95.0463C190.413 95.0463 164.143 89.1203 144.464 99.1261C131.343 105.799 126.935 112.939 126.935 112.939L260.903 113.278H260.907Z" fill="#F8FCFF"/>
<path d="M173.196 63.1271C173.196 63.1271 165.784 44.0368 147.316 45.8621C147.316 45.8621 121.047 13.8309 92.0827 40.7981C92.0827 40.7981 61.854 33.5424 39.1922 45.8691C24.0832 54.088 19 62.8723 19 62.8723L173.196 63.1271Z" fill="#F8FCFF"/>
</g>
<path d="M173.051 156.994C172.664 156.995 172.289 156.855 171.996 156.6L66.1367 65.5954C65.8374 65.306 65.6592 64.9123 65.6387 64.495C65.6182 64.0777 65.7568 63.6682 66.0263 63.3504C66.2958 63.0326 66.6756 62.8305 67.0882 62.7854C67.5008 62.7404 67.915 62.8557 68.2459 63.108L174.106 154.118C174.359 154.335 174.54 154.624 174.624 154.948C174.708 155.272 174.692 155.613 174.577 155.927C174.462 156.241 174.254 156.512 173.981 156.702C173.708 156.893 173.383 156.995 173.051 156.994Z" fill="#8253F6"/>
<path d="M103.684 156.994C103.317 156.993 102.961 156.869 102.672 156.642C102.434 156.457 102.252 156.21 102.145 155.927C102.039 155.644 102.012 155.337 102.069 155.04L112.199 104.078C112.241 103.867 112.323 103.667 112.441 103.489C112.56 103.311 112.712 103.158 112.889 103.038C113.066 102.919 113.265 102.836 113.473 102.795C113.682 102.753 113.897 102.753 114.106 102.795C114.315 102.836 114.514 102.919 114.691 103.038C114.868 103.158 115.02 103.311 115.139 103.489C115.257 103.667 115.339 103.867 115.381 104.078C115.422 104.288 115.422 104.504 115.381 104.715L105.872 152.522L161.107 127.078C161.301 126.983 161.512 126.928 161.728 126.916C161.943 126.904 162.159 126.936 162.362 127.009C162.566 127.083 162.752 127.197 162.911 127.344C163.07 127.491 163.199 127.668 163.288 127.866C163.378 128.064 163.428 128.277 163.435 128.495C163.442 128.712 163.405 128.928 163.328 129.131C163.25 129.334 163.133 129.52 162.984 129.676C162.834 129.833 162.655 129.958 162.456 130.044L104.335 156.824C104.132 156.925 103.91 156.982 103.684 156.994Z" fill="#8253F6"/>
<path d="M67.1909 64.3213H15.415C28.823 87.406 66.0339 135.305 102.919 135.305H148.055C118.901 135.28 80.5989 87.406 67.1909 64.3213Z" fill="#8253F6"/>
<path opacity="0.2" d="M67.1909 64.3213H15.415C28.823 87.406 66.0339 135.305 102.919 135.305H148.055C118.901 135.28 80.5989 87.406 67.1909 64.3213Z" fill="#1A365D"/>
<path d="M74.9097 70.7341L75.2773 70.3397L75.6992 69.8726C75.9824 69.5632 76.2716 69.2659 76.5488 68.914C77.1093 68.2527 77.6637 67.5914 78.2 66.9119C79.2641 65.5599 80.2597 64.1546 81.1829 62.7015C81.6409 61.9795 82.0687 61.2454 82.4664 60.5113C82.8641 59.7772 83.2438 59.031 83.5812 58.2787C84.246 56.8134 84.7706 55.2878 85.148 53.7224L86.1303 57.1138C85.557 56.4149 84.8729 55.8163 84.1055 55.3422C83.1066 54.6795 82.0726 54.0719 81.0081 53.5222C79.9053 52.9458 78.7544 52.3937 77.5793 51.8537L74.042 50.2521L73.9576 50.2096C73.487 49.9957 73.1047 49.6238 72.876 49.1577C72.6473 48.6915 72.5865 48.1599 72.7039 47.6535C72.8212 47.1472 73.1095 46.6976 73.5195 46.3815C73.9295 46.0654 74.4358 45.9024 74.9519 45.9203C76.365 45.9834 77.7733 46.1272 79.1702 46.351C80.5783 46.5741 81.9742 46.8697 83.3523 47.2368C84.7934 47.6223 86.2036 48.1172 87.5705 48.7171C89.2213 49.4179 90.7306 50.4173 92.0237 51.6657C92.4141 52.0586 92.7099 52.5362 92.8885 53.0621C93.0672 53.5879 93.1238 54.1479 93.0542 54.6991L93.006 55.045C92.7159 57.2403 92.1802 59.3957 91.4091 61.4699C90.6696 63.471 89.7624 65.4053 88.6974 67.2517C87.6617 69.0605 86.504 70.7957 85.2324 72.445C84.5936 73.264 83.9488 74.0709 83.2558 74.8717C82.9124 75.26 82.5628 75.6483 82.2013 76.0305L81.6409 76.6008L81.0382 77.2075C80.2136 78.0499 79.0903 78.5279 77.9156 78.5364C76.7408 78.5449 75.6108 78.0833 74.7742 77.253C73.9375 76.4228 73.4627 75.2919 73.4542 74.1092C73.4458 72.9264 73.9043 71.7888 74.729 70.9464L74.9097 70.7341Z" fill="#F5C9B0"/>
<path d="M76.4409 46.0293L71.2584 45.3862L69.541 51.6776C69.541 51.6776 74.7716 53.0306 77.0374 49.627L76.4409 46.0293Z" fill="#F5C9B0"/>
<path d="M67.2148 45.3501L66.5459 50.6223L69.5409 51.6779L71.2583 45.3865L67.2148 45.3501Z" fill="#F5C9B0"/>
<path d="M82.4492 120.319C82.4492 120.319 68.4266 109.308 56.5372 88.0975C55.8744 86.9134 55.4729 85.5994 55.36 84.245C55.2472 82.8906 55.4256 81.5276 55.8831 80.2488C56.3405 78.9701 57.0664 77.8056 58.0112 76.8348C58.956 75.8639 60.0975 75.1095 61.358 74.6228C65.8354 72.8998 70.6562 71.2678 74.5852 70.0059C76.5173 69.379 78.5992 69.4003 80.5182 70.0665C82.4372 70.7328 84.0897 72.008 85.2272 73.7006C90.0842 80.981 94.8689 91.2462 109.777 103.544C109.977 103.707 110.134 103.918 110.233 104.158C110.332 104.397 110.371 104.658 110.345 104.916C110.319 105.174 110.23 105.421 110.086 105.636C109.942 105.851 109.747 106.026 109.518 106.147L82.4492 120.319Z" fill="#8253F6"/>
<path d="M82.4492 120.319C82.4492 120.319 68.4266 109.308 56.5372 88.0975C55.8744 86.9134 55.4729 85.5994 55.36 84.245C55.2472 82.8906 55.4256 81.5276 55.8831 80.2488C56.3405 78.9701 57.0664 77.8056 58.0112 76.8348C58.956 75.8639 60.0975 75.1095 61.358 74.6228C65.8354 72.8998 70.6562 71.2678 74.5852 70.0059C76.5173 69.379 78.5992 69.4003 80.5182 70.0665C82.4372 70.7328 84.0897 72.008 85.2272 73.7006C90.0842 80.981 94.8689 91.2462 109.777 103.544C109.977 103.707 110.134 103.918 110.233 104.158C110.332 104.397 110.371 104.658 110.345 104.916C110.319 105.174 110.23 105.421 110.086 105.636C109.942 105.851 109.747 106.026 109.518 106.147L82.4492 120.319Z" fill="#F5AC0A"/>
<path opacity="0.2" d="M55.4639 85.3431C57.2235 79.7919 58.7421 81.4663 59.435 82.0184C64.8163 86.326 67.6124 95.6205 67.0821 104.035C63.1535 98.9623 59.6044 93.6026 56.4642 88.0004C55.9946 87.1729 55.657 86.2762 55.4639 85.3431Z" fill="#1A365D"/>
<path d="M56.6035 60.1353C59.4056 63.739 63.6841 70.5158 62.3222 74.2288C65.969 75.7894 70.0764 75.8569 73.7718 74.4168C78.4902 72.712 76.9053 71.1043 74.8022 69.9152C69.9091 70.625 68.1735 66.8514 67.348 63.5085L56.6035 60.1353Z" fill="#F5C9B0"/>
<path opacity="0.2" d="M67.3718 63.5385L61.3457 61.6577C61.6553 63.2863 62.2058 64.859 62.9788 66.3232C64.2563 68.2889 67.667 69.3567 70.21 68.8531C68.6493 67.5669 67.8538 65.486 67.3718 63.5385Z" fill="#1A365D"/>
<path d="M69.4864 46.1934C71.6678 47.9588 72.6802 51.9873 71.8968 54.7902C67.9497 48.5231 67.8955 46.6726 67.8955 46.6726L69.4864 46.1934Z" fill="#1A365D"/>
<path d="M55.9582 54.8812C57.3562 60.5842 57.8865 63.9817 61.3274 66.5359C62.4151 67.3896 63.7152 67.9258 65.0853 68.0857C66.4554 68.2456 67.8428 68.0231 69.0957 67.4425C70.3486 66.8618 71.4188 65.9455 72.1892 64.7937C72.9596 63.6419 73.4006 62.299 73.4639 60.9118C73.7591 55.585 71.427 47.1641 65.3829 45.6231C59.3388 44.0821 54.5661 49.1844 55.9582 54.8812Z" fill="#F5C9B0"/>
<path d="M56.9468 60.1289C58.4232 58.0844 59.1463 54.062 58.2786 51.071C61.8942 50.1428 73.0846 49.4875 70.0234 43.4327C66.9621 37.3779 62.7921 40.102 62.7138 42.2679C55.8561 40.2658 51.2642 42.5591 53.1323 44.6946C46.0698 47.267 48.5525 53.0367 50.1193 53.7283C47.6727 56.6647 48.7514 63.2292 52.5719 63.3748C56.3924 63.5204 58.0436 66.4568 60.2009 65.6195C59.7911 63.3869 56.9468 60.1289 56.9468 60.1289Z" fill="#1A365D"/>
<path d="M54.2228 60.9725C55.0566 62.0165 56.251 62.7055 57.5673 62.9018C59.3028 63.1384 59.8572 61.5488 59.1039 60.0503C58.435 58.6974 56.6935 56.9501 55.1086 57.399C53.5238 57.848 53.2165 59.6499 54.2228 60.9725Z" fill="#F5C9B0"/>
<path d="M168.272 153.487L175.124 152.219L158.13 136.469L153.357 143.367L168.272 153.487Z" fill="#F5C9B0"/>
<path d="M167.983 157.224C167.44 155.647 167.856 153.517 166.319 151.084C166.319 151.084 169.935 147.402 171.441 149.022C172.948 150.641 177.624 152.304 183.313 150.993C184.108 150.811 184.349 153.208 182.56 153.827C179.601 154.846 177.413 155.556 174.888 156.429C172.731 157.176 172.345 157.843 170.67 158.553C169.272 159.147 168.531 158.808 167.983 157.224Z" fill="#F5C9B0"/>
<path d="M103.354 109.35C103.354 109.35 125.777 112.384 138.95 117.055C147.693 120.143 164.259 140.844 164.259 140.844L157.558 147.62C157.558 147.62 140.932 136.56 128.735 130.578C107.385 134.825 85.7455 136.233 82.4492 120.337C87.3725 117.043 103.354 109.35 103.354 109.35Z" fill="#1A365D"/>
<path opacity="0.2" d="M135.605 116.782L133.303 132.908C137.015 134.898 140.884 137.155 144.415 139.285L135.605 116.782Z" fill="#1A365D"/>
<path d="M167.663 141.238L158.009 150.799L154.749 147.669L164.674 137.458L167.663 141.238Z" fill="#3B5C89"/>
<path d="M109.982 104.418C109.982 104.418 135.4 96.1848 148.549 100.838C157.292 103.926 149.218 133.266 149.218 133.266L137.31 134.734C137.31 134.734 135.99 123.037 134.9 117.073C124.095 121.623 92.3737 131.27 89.1016 115.374C94.0007 112.11 109.982 104.418 109.982 104.418Z" fill="#1A365D"/>
<path d="M142.058 150.799L147.735 151.054L147.259 131.919L138.931 132.526L142.058 150.799Z" fill="#F5C9B0"/>
<path d="M139.991 154.458C140.467 152.856 142.046 151.382 142.215 148.5C142.215 148.5 147.301 147.663 147.566 149.859C147.831 152.055 150.663 156.162 156.039 158.462C156.786 158.783 155.587 160.889 153.779 160.312C150.766 159.396 148.602 158.674 146.047 157.886C143.866 157.218 143.161 157.528 141.395 157.115C139.937 156.775 139.527 156.065 139.991 154.458Z" fill="#F5C9B0"/>
<path d="M150.417 135.007L137.039 137.112L136.201 132.653L150.176 130.178L150.417 135.007Z" fill="#3B5C89"/>
<path d="M63.8588 83.1046C64.2023 87.0541 64.5398 91.1129 64.9797 95.0686C65.1846 97.0464 65.4497 99.0121 65.7269 100.935C65.9786 102.739 66.347 104.525 66.8297 106.28C66.9191 106.585 67.0237 106.884 67.143 107.178C67.1792 107.275 67.2153 107.342 67.1852 107.306C67.1551 107.269 67.1852 107.336 67.0828 107.202L66.9502 107.069L66.8538 106.978L66.7513 106.905L66.6911 106.869C66.6624 106.848 66.6322 106.83 66.6007 106.814C66.5103 106.778 66.5585 106.814 66.6429 106.863C66.7633 106.925 66.8882 106.977 67.0165 107.02C67.3791 107.156 67.7494 107.269 68.1253 107.36C68.9508 107.566 69.8728 107.736 70.8129 107.882C71.753 108.028 72.7171 108.173 73.6933 108.295C77.5922 108.786 81.6477 109.107 85.6551 109.508H85.6972C86.227 109.567 86.7178 109.817 87.0798 110.211C87.4417 110.605 87.6506 111.117 87.6682 111.653C87.6857 112.19 87.5108 112.714 87.1754 113.132C86.84 113.549 86.3666 113.83 85.8419 113.925C81.7176 114.625 77.5492 115.031 73.3679 115.138C71.1692 115.222 68.9673 115.137 66.7815 114.883C66.1516 114.804 65.5261 114.692 64.9073 114.55C64.5699 114.465 64.2204 114.368 63.8287 114.228C63.3638 114.071 62.9156 113.868 62.4909 113.621C62.3764 113.555 62.2258 113.464 62.0811 113.36L61.8642 113.209L61.6533 113.039L61.4122 112.82C61.3194 112.734 61.2309 112.643 61.1471 112.547C61.0276 112.418 60.915 112.282 60.8096 112.141C60.5227 111.771 60.2648 111.38 60.0383 110.97C59.7019 110.349 59.406 109.707 59.1525 109.047C58.7253 107.943 58.3651 106.815 58.0738 105.668C57.7906 104.582 57.5495 103.52 57.3266 102.458C56.8746 100.341 56.5552 98.2476 56.2419 96.1606C55.6393 91.9744 55.2476 87.8671 55.0367 83.6324C54.9911 82.4711 55.397 81.3376 56.1682 80.4728C56.9395 79.608 58.0152 79.08 59.167 79.0011C60.3187 78.9221 61.4556 79.2983 62.3362 80.0498C63.2168 80.8013 63.7717 81.8689 63.8829 83.0257L63.8588 83.1046Z" fill="#F5C9B0"/>
<path d="M124.662 99.6914L137.262 105.546C138.04 105.904 138.588 107.045 138.064 107.214L102.191 118.499C101.901 118.549 101.605 118.54 101.319 118.473C101.033 118.405 100.764 118.28 100.527 118.105L89.9758 111.722C89.2225 111.267 88.7706 110.23 89.2948 110.078L124.662 99.6914Z" fill="#8253F6"/>
<path opacity="0.4" d="M124.662 99.6914L137.262 105.546C138.04 105.904 138.588 107.045 138.064 107.214L102.191 118.499C101.901 118.549 101.605 118.54 101.319 118.473C101.033 118.405 100.764 118.28 100.527 118.105L89.9758 111.722C89.2225 111.267 88.7706 110.23 89.2948 110.078L124.662 99.6914Z" fill="#1A365D"/>
<path d="M139.72 81.1022L102.75 92.411C102.514 92.4913 102.305 92.6378 102.148 92.8334C101.991 93.0289 101.893 93.2654 101.865 93.5152L100.563 117.273C100.548 117.374 100.56 117.478 100.598 117.572C100.636 117.667 100.699 117.75 100.779 117.812C100.86 117.874 100.956 117.913 101.057 117.925C101.157 117.937 101.26 117.921 101.352 117.88L138.328 106.608C138.565 106.526 138.774 106.378 138.931 106.181C139.087 105.985 139.186 105.748 139.214 105.497L140.516 81.7454C140.54 81.6409 140.534 81.5317 140.499 81.4303C140.464 81.329 140.402 81.2397 140.318 81.1725C140.235 81.1054 140.135 81.0631 140.029 81.0507C139.924 81.0383 139.816 81.0561 139.72 81.1022Z" fill="#8253F6"/>
<path opacity="0.4" d="M101.865 93.485L100.563 117.243C100.548 117.344 100.56 117.447 100.598 117.542C100.636 117.637 100.699 117.72 100.779 117.782C100.86 117.844 100.956 117.883 101.057 117.895C101.157 117.907 101.26 117.891 101.352 117.85L102.75 92.3687C102.512 92.4498 102.302 92.5981 102.145 92.796C101.988 92.9939 101.891 93.233 101.865 93.485Z" fill="#1A365D"/>
<path d="M84.8895 109.338L89.9514 108.343L89.6863 115.016C89.6863 115.016 83.9555 115.514 83.0576 112.863L83.5578 110.63C83.63 110.307 83.7946 110.013 84.0313 109.783C84.268 109.553 84.5664 109.398 84.8895 109.338Z" fill="#F5C9B0"/>
<path d="M93.7421 108.767L95.6343 113.718L89.6865 115.016L89.9517 108.343L93.7421 108.767Z" fill="#F5C9B0"/>
<path d="M121.269 156.994C120.883 156.995 120.511 156.855 120.22 156.6L14.3604 65.5954C14.061 65.306 13.8829 64.9123 13.8623 64.495C13.8418 64.0777 13.9805 63.6682 14.2499 63.3504C14.5194 63.0326 14.8993 62.8305 15.3119 62.7854C15.7245 62.7404 16.1386 62.8557 16.4695 63.108L122.323 154.118C122.576 154.335 122.757 154.624 122.842 154.948C122.926 155.272 122.909 155.613 122.794 155.927C122.679 156.241 122.471 156.512 122.198 156.702C121.925 156.893 121.601 156.995 121.269 156.994Z" fill="#8253F6"/>
<path opacity="0.3" d="M121.269 156.994C120.883 156.995 120.511 156.855 120.22 156.6L14.3604 65.5954C14.061 65.306 13.8829 64.9123 13.8623 64.495C13.8418 64.0777 13.9805 63.6682 14.2499 63.3504C14.5194 63.0326 14.8993 62.8305 15.3119 62.7854C15.7245 62.7404 16.1386 62.8557 16.4695 63.108L122.323 154.118C122.576 154.335 122.757 154.624 122.842 154.948C122.926 155.272 122.909 155.613 122.794 155.927C122.679 156.241 122.471 156.512 122.198 156.702C121.925 156.893 121.601 156.995 121.269 156.994Z" fill="white"/>
<path d="M51.9023 156.994C51.5374 156.992 51.1833 156.868 50.8959 156.642C50.6585 156.457 50.4765 156.209 50.3701 155.926C50.2638 155.644 50.2372 155.337 50.2933 155.04L60.4292 104.078C60.4707 103.867 60.553 103.667 60.6713 103.489C60.7897 103.311 60.9417 103.158 61.1188 103.038C61.2959 102.919 61.4946 102.836 61.7035 102.795C61.9124 102.753 62.1275 102.753 62.3364 102.795C62.5453 102.836 62.744 102.919 62.9211 103.038C63.0982 103.158 63.2503 103.311 63.3687 103.489C63.487 103.667 63.5693 103.867 63.6109 104.078C63.6525 104.288 63.6525 104.504 63.6109 104.715L54.1018 152.522L109.337 127.078C109.531 126.983 109.742 126.928 109.958 126.916C110.173 126.904 110.389 126.936 110.592 127.009C110.796 127.083 110.982 127.197 111.141 127.344C111.3 127.491 111.429 127.668 111.519 127.866C111.608 128.064 111.658 128.277 111.665 128.495C111.672 128.712 111.635 128.928 111.558 129.131C111.48 129.334 111.363 129.52 111.214 129.676C111.064 129.833 110.885 129.958 110.686 130.044L52.5591 156.824C52.3542 156.925 52.1305 156.983 51.9023 156.994Z" fill="#8253F6"/>
<path opacity="0.3" d="M51.9023 156.994C51.5374 156.992 51.1833 156.868 50.8959 156.642C50.6585 156.457 50.4765 156.209 50.3701 155.926C50.2638 155.644 50.2372 155.337 50.2933 155.04L60.4292 104.078C60.4707 103.867 60.553 103.667 60.6713 103.489C60.7897 103.311 60.9417 103.158 61.1188 103.038C61.2959 102.919 61.4946 102.836 61.7035 102.795C61.9124 102.753 62.1275 102.753 62.3364 102.795C62.5453 102.836 62.744 102.919 62.9211 103.038C63.0982 103.158 63.2503 103.311 63.3687 103.489C63.487 103.667 63.5693 103.867 63.6109 104.078C63.6525 104.288 63.6525 104.504 63.6109 104.715L54.1018 152.522L109.337 127.078C109.531 126.983 109.742 126.928 109.958 126.916C110.173 126.904 110.389 126.936 110.592 127.009C110.796 127.083 110.982 127.197 111.141 127.344C111.3 127.491 111.429 127.668 111.519 127.866C111.608 128.064 111.658 128.277 111.665 128.495C111.672 128.712 111.635 128.928 111.558 129.131C111.48 129.334 111.363 129.52 111.214 129.676C111.064 129.833 110.885 129.958 110.686 130.044L52.5591 156.824C52.3542 156.925 52.1305 156.983 51.9023 156.994Z" fill="white"/>
</g>
<defs>
<clipPath id="clip0_3389_2525">
<rect width="185" height="172" fill="white"/>
</clipPath>
<clipPath id="clip1_3389_2525">
<rect width="273" height="151" fill="white" transform="translate(19 30)"/>
</clipPath>
</defs>
</svg>
