<svg width="75" height="72" viewBox="0 0 75 72" fill="none" xmlns="http://www.w3.org/2000/svg">
<circle opacity="0.1" cx="19.5" cy="19.5" r="19.5" fill="#F5AC0A"/>
<path d="M69.1664 34.3164V36.9998C69.1628 43.2893 67.1261 49.4092 63.3602 54.4468C59.5943 59.4843 54.3009 63.1695 48.2695 64.9528C42.238 66.7361 35.7917 66.522 29.8919 64.3423C23.9921 62.1626 18.9549 58.1342 15.5316 52.8579C12.1084 47.5815 10.4824 41.34 10.8962 35.064C11.3101 28.7881 13.7415 22.8141 17.828 18.0329C21.9145 13.2517 27.437 9.91963 33.5719 8.53353C39.7068 7.14742 46.1255 7.78158 51.8705 10.3414" stroke="#F5AC0A" stroke-width="2" stroke-linecap="round" stroke-linejoin="round"/>
<path d="M69.1664 13.6665L39.9998 42.8623L31.2498 34.1123" stroke="#F5AC0A" stroke-width="2" stroke-linecap="round" stroke-linejoin="round"/>
</svg>
