<svg width="35" height="35" viewBox="0 0 35 35" fill="none" xmlns="http://www.w3.org/2000/svg">
<circle cx="17.5" cy="17.5" r="17.5" fill="#0AB9AD"/>
<path d="M13.125 22.625C13.5891 22.625 14.0342 22.4406 14.3624 22.1124C14.6906 21.7842 14.875 21.3391 14.875 20.875C14.875 20.4109 14.6906 19.9658 14.3624 19.6376C14.0342 19.3094 13.5891 19.125 13.125 19.125C12.6609 19.125 12.2158 19.3094 11.8876 19.6376C11.5594 19.9658 11.375 20.4109 11.375 20.875C11.375 21.3391 11.5594 21.7842 11.8876 22.1124C12.2158 22.4406 12.6609 22.625 13.125 22.625Z" stroke="white" stroke-linecap="round" stroke-linejoin="round"/>
<path d="M21.875 22.625C22.3391 22.625 22.7842 22.4406 23.1124 22.1124C23.4406 21.7842 23.625 21.3391 23.625 20.875C23.625 20.4109 23.4406 19.9658 23.1124 19.6376C22.7842 19.3094 22.3391 19.125 21.875 19.125C21.4109 19.125 20.9658 19.3094 20.6376 19.6376C20.3094 19.9658 20.125 20.4109 20.125 20.875C20.125 21.3391 20.3094 21.7842 20.6376 22.1124C20.9658 22.4406 21.4109 22.625 21.875 22.625Z" stroke="white" stroke-linecap="round" stroke-linejoin="round"/>
<path d="M17.5 15.625V11.25" stroke="white" stroke-linecap="round" stroke-linejoin="round"/>
<path d="M11.375 20.875H9.625V15.625L11.375 11.25H19.25L22.75 15.625H23.625C24.0891 15.625 24.5342 15.8094 24.8624 16.1376C25.1906 16.4658 25.375 16.9109 25.375 17.375V20.875H23.625" stroke="white" stroke-linecap="round" stroke-linejoin="round"/>
<path d="M20.125 20.875H14.875" stroke="white" stroke-linecap="round" stroke-linejoin="round"/>
<path d="M9.625 15.625H22.75" stroke="white" stroke-linecap="round" stroke-linejoin="round"/>
</svg>
