<svg width="968" height="153" viewBox="0 0 968 153" fill="none" xmlns="http://www.w3.org/2000/svg">
<path d="M263.551 100.62C264.639 101.841 265.183 103.407 265.183 105.321C265.183 107.238 264.466 108.805 263.029 110.023C261.593 111.243 259.742 111.851 257.479 111.851H255.129C250.863 111.851 246.969 110.74 243.443 108.52C239.917 106.3 237.153 103.277 235.151 99.4448C233.147 95.6152 232.149 91.3068 232.149 86.5188V54.2657H226.141C224.313 54.2657 222.831 53.7439 221.702 52.6985C220.569 51.6543 220.005 50.3485 220.005 48.7819C220.005 47.0412 220.569 45.6469 221.702 44.6032C222.831 43.5589 224.313 43.0365 226.141 43.0365H232.149V24.2333C232.149 22.3193 232.755 20.7527 233.977 19.5319C235.194 18.3145 236.761 17.7039 238.677 17.7039C240.591 17.7039 242.157 18.3145 243.377 19.5319C244.595 20.7527 245.205 22.3193 245.205 24.2333V43.0365H256.305C258.133 43.0365 259.611 43.5589 260.743 44.6032C261.875 45.6469 262.441 47.0412 262.441 48.7819C262.441 50.3485 261.875 51.6543 260.743 52.6985C259.611 53.7439 258.133 54.2657 256.305 54.2657H245.205V86.5188C245.205 90.0005 246.162 92.9172 248.078 95.2677C249.991 97.6177 252.342 98.7939 255.129 98.7939H259.569C261.135 98.7939 262.462 99.4032 263.551 100.62Z" fill="white"/>
<path d="M323.811 41.7303C326.422 43.124 327.728 44.8647 327.728 46.9537C327.728 47.5631 327.683 47.998 327.598 48.26C326.815 51.0469 325.071 52.4381 322.375 52.4381C321.938 52.4381 321.286 52.3516 320.417 52.1767C316.933 51.5693 314.103 51.2631 311.928 51.2631C305.66 51.2631 300.611 52.6985 296.782 55.5719C292.95 58.4443 291.035 62.3193 291.035 67.1928V105.321C291.035 107.411 290.491 109.023 289.403 110.153C288.315 111.284 286.682 111.851 284.507 111.851C282.418 111.851 280.806 111.308 279.677 110.218C278.543 109.131 277.978 107.498 277.978 105.321V46.9537C277.978 44.8647 278.543 43.2548 279.677 42.1219C280.806 40.9923 282.418 40.4245 284.507 40.4245C288.859 40.4245 291.035 42.6016 291.035 46.9537V49.4349C293.649 46.3881 296.867 43.9953 300.699 42.2527C304.528 40.512 308.619 39.6412 312.974 39.6412C317.586 39.6412 321.199 40.3385 323.811 41.7303Z" fill="white"/>
<path d="M341.111 109.958C339.847 108.696 339.218 107.107 339.218 105.191V47.0839C339.218 45.0833 339.847 43.4735 341.111 42.2527C342.373 41.0355 343.962 40.4245 345.878 40.4245C347.879 40.4245 349.489 41.0355 350.709 42.2527C351.927 43.4735 352.537 45.0833 352.537 47.0839V105.191C352.537 107.107 351.927 108.696 350.709 109.958C349.489 111.219 347.879 111.851 345.878 111.851C343.962 111.851 342.373 111.219 341.111 109.958ZM339.806 26.2568C338.109 24.5595 337.261 22.5355 337.261 20.1849C337.261 17.8345 338.109 15.8105 339.806 14.1132C341.503 12.4159 343.527 11.5679 345.878 11.5679C348.229 11.5679 350.253 12.4159 351.95 14.1132C353.647 15.8105 354.495 17.8345 354.495 20.1849C354.495 22.5355 353.647 24.5595 351.95 26.2568C350.253 27.9548 348.229 28.8027 345.878 28.8027C343.527 28.8027 341.503 27.9548 339.806 26.2568Z" fill="white"/>
<path d="M421.545 97.4215C425.071 95.2896 427.856 92.3745 429.903 88.674C431.946 84.9735 432.971 80.8172 432.971 76.2032C432.971 71.5901 431.946 67.4115 429.903 63.6672C427.856 59.9251 425.071 56.9876 421.545 54.8537C418.019 52.7215 414.079 51.6543 409.728 51.6543C405.375 51.6543 401.437 52.7215 397.911 54.8537C394.386 56.9876 391.62 59.9251 389.619 63.6672C387.615 67.4115 386.617 71.5901 386.617 76.2032C386.617 80.8172 387.615 84.9735 389.619 88.674C391.62 92.3745 394.386 95.2896 397.911 97.4215C401.437 99.5552 405.375 100.62 409.728 100.62C414.079 100.62 418.019 99.5552 421.545 97.4215ZM428.074 44.6683C433.601 47.848 437.932 52.1995 441.067 57.7261C444.2 63.2552 445.767 69.4131 445.767 76.2032C445.767 82.9928 444.308 89.1532 441.394 94.6792C438.475 100.209 434.473 104.539 429.381 107.671C424.287 110.805 418.607 112.373 412.339 112.373C407.29 112.373 402.59 111.329 398.237 109.239C393.883 107.149 390.183 104.234 387.138 100.49V135.746C387.138 137.748 386.529 139.357 385.31 140.577C384.091 141.794 382.481 142.405 380.478 142.405C378.563 142.405 376.974 141.794 375.713 140.577C374.45 139.357 373.819 137.748 373.819 135.746V76.2032C373.819 69.4131 375.406 63.2552 378.586 57.7261C381.762 52.1995 386.071 47.848 391.513 44.6683C396.953 41.4918 403.023 39.9027 409.728 39.9027C416.431 39.9027 422.545 41.4918 428.074 44.6683Z" fill="white"/>
<path d="M512.947 56.3559C508.986 59.8383 506.485 64.4955 505.439 70.3277H548.922C548.138 64.4955 545.962 59.8383 542.393 56.3559C538.822 52.8741 534.167 51.1325 528.421 51.1325C522.066 51.1325 516.907 52.8741 512.947 56.3559ZM559.237 79.1413C558.105 80.2314 556.669 80.773 554.93 80.773H505.309C506.265 86.8668 509.03 91.7861 513.601 95.5282C518.171 99.2716 523.763 101.143 530.379 101.143C532.991 101.143 535.71 100.666 538.541 99.7064C541.37 98.7496 543.699 97.5752 545.527 96.182C546.745 95.2246 548.18 94.7454 549.835 94.7454C551.487 94.7454 552.794 95.1804 553.754 96.0501C555.321 97.3564 556.103 98.8382 556.103 100.49C556.103 102.057 555.406 103.363 554.014 104.409C551.054 106.759 547.375 108.674 542.981 110.153C538.585 111.633 534.382 112.373 530.379 112.373C523.241 112.373 516.842 110.829 511.185 107.738C505.525 104.649 501.107 100.36 497.931 94.8757C494.753 89.3913 493.165 83.1689 493.165 76.2033C493.165 69.2397 494.666 62.994 497.67 57.4653C500.674 51.9377 504.853 47.6293 510.206 44.5386C515.559 41.4496 521.631 39.9028 528.421 39.9028C535.123 39.9028 540.911 41.3835 545.787 44.3429C550.662 47.3028 554.406 51.4383 557.018 56.7471C559.63 62.0575 560.934 68.1517 560.934 75.0282C560.934 76.6825 560.369 78.0528 559.237 79.1413Z" fill="white"/>
<path d="M634.586 43.4927C635.194 44.4078 635.499 45.4312 635.499 46.5619C635.499 47.3452 635.282 48.1739 634.847 49.0422L607.163 107.411C605.859 110.283 603.854 111.719 601.158 111.719C599.677 111.719 598.458 111.393 597.501 110.74C596.542 110.088 595.673 108.977 594.89 107.411L567.207 49.0422C566.859 48.3468 566.685 47.563 566.685 46.6922C566.685 44.3427 567.903 42.5588 570.342 41.339C571.126 40.9042 572.039 40.6859 573.083 40.6859C574.127 40.6859 575.127 40.9692 576.087 41.5343C577.043 42.102 577.784 42.9056 578.307 43.9499L601.027 92.9171L623.487 43.9499C624.009 42.9056 624.768 42.102 625.771 41.5343C626.77 40.9692 627.838 40.6859 628.971 40.6859C630.1 40.6859 631.102 40.9042 631.975 41.339C633.103 41.8614 633.977 42.5786 634.586 43.4927Z" fill="white"/>
<path d="M686.751 97.4877C690.275 95.3981 693.019 92.5049 694.978 88.8028C696.935 85.1049 697.915 80.9033 697.915 76.2033C697.915 71.5028 696.935 67.2809 694.978 63.5367C693.019 59.7944 690.275 56.8777 686.751 54.7882C683.226 52.6986 679.243 51.6544 674.803 51.6544C670.363 51.6544 666.381 52.6986 662.855 54.7882C659.33 56.8777 656.566 59.7944 654.565 63.5367C652.559 67.2809 651.561 71.5028 651.561 76.2033C651.561 80.9033 652.559 85.1049 654.565 88.8028C656.566 92.5049 659.33 95.3981 662.855 97.4877C666.381 99.5762 670.363 100.621 674.803 100.621C679.243 100.621 683.226 99.5762 686.751 97.4877ZM656.131 107.738C650.646 104.649 646.379 100.36 643.334 94.8757C640.285 89.3913 638.765 83.1689 638.765 76.2033C638.765 69.1517 640.285 62.8845 643.334 57.4001C646.379 51.9148 650.646 47.6293 656.131 44.5386C661.614 41.4496 667.838 39.9028 674.803 39.9028C681.679 39.9028 687.838 41.4496 693.279 44.5386C698.718 47.6293 702.986 51.9148 706.077 57.4001C709.165 62.8845 710.711 69.1517 710.711 76.2033C710.711 83.1689 709.189 89.3913 706.142 94.8757C703.094 100.36 698.85 104.649 693.41 107.738C687.969 110.829 681.766 112.373 674.803 112.373C667.838 112.373 661.614 110.829 656.131 107.738Z" fill="white"/>
<path d="M733.887 108.782C730.885 106.738 728.554 103.865 726.902 100.165C725.247 96.4641 724.421 92.3079 724.421 87.6933V16.3985C724.421 14.4852 725.03 12.9172 726.249 11.6985C727.467 10.4799 729.034 9.8692 730.95 9.8692C732.863 9.8692 734.431 10.4799 735.651 11.6985C736.87 12.9172 737.479 14.4852 737.479 16.3985V87.6933C737.479 90.9147 738.087 93.5699 739.307 95.6595C740.525 97.748 742.093 98.7939 744.007 98.7939H747.271C749.013 98.7939 750.426 99.4032 751.515 100.62C752.603 101.841 753.149 103.407 753.149 105.321C753.149 107.238 752.321 108.805 750.666 110.023C749.013 111.243 746.881 111.851 744.267 111.851H744.007C740.265 111.851 736.89 110.829 733.887 108.782Z" fill="white"/>
<path d="M816.346 43.4927C816.954 44.4078 817.261 45.4312 817.261 46.5619C817.261 47.3452 817.042 48.1739 816.607 49.0422L788.926 107.411C787.619 110.283 785.615 111.719 782.918 111.719C781.437 111.719 780.219 111.393 779.263 110.74C778.303 110.088 777.434 108.977 776.651 107.411L748.969 49.0422C748.619 48.3468 748.446 47.563 748.446 46.6922C748.446 44.3427 749.663 42.5588 752.101 41.339C752.885 40.9042 753.801 40.6859 754.845 40.6859C755.889 40.6859 756.889 40.9692 757.849 41.5343C758.805 42.102 759.545 42.9056 760.067 43.9499L782.787 92.9171L805.247 43.9499C805.769 42.9056 806.531 42.102 807.533 41.5343C808.533 40.9692 809.598 40.6859 810.731 40.6859C811.862 40.6859 812.863 40.9042 813.734 41.339C814.865 41.8614 815.735 42.5786 816.346 43.4927Z" fill="white"/>
<path d="M840.307 56.3559C836.344 59.8383 833.843 64.4955 832.799 70.3277H876.281C875.497 64.4955 873.321 59.8383 869.753 56.3559C866.182 52.8741 861.526 51.1325 855.779 51.1325C849.426 51.1325 844.266 52.8741 840.307 56.3559ZM886.597 79.1413C885.465 80.2314 884.027 80.773 882.287 80.773H832.667C833.625 86.8668 836.389 91.7861 840.961 95.5282C845.531 99.2716 851.122 101.143 857.739 101.143C860.35 101.143 863.07 100.666 865.899 99.7064C868.727 98.7496 871.058 97.5752 872.886 96.182C874.103 95.2246 875.541 94.7454 877.195 94.7454C878.847 94.7454 880.154 95.1804 881.111 96.0501C882.679 97.3564 883.462 98.8382 883.462 100.49C883.462 102.057 882.764 103.363 881.374 104.409C878.412 106.759 874.734 108.674 870.339 110.153C865.942 111.633 861.742 112.373 857.739 112.373C850.599 112.373 844.202 110.829 838.543 107.738C832.883 104.649 828.467 100.36 825.291 94.8757C822.111 89.3913 820.525 83.1689 820.525 76.2033C820.525 69.2397 822.026 62.994 825.03 57.4653C828.034 51.9377 832.211 47.6293 837.565 44.5386C842.919 41.4496 848.99 39.9028 855.779 39.9028C862.483 39.9028 868.27 41.3835 873.147 44.3429C878.021 47.3028 881.764 51.4383 884.376 56.7471C886.987 62.0575 888.294 68.1517 888.294 75.0282C888.294 76.6825 887.726 78.0528 886.597 79.1413Z" fill="white"/>
<path d="M943.331 97.4216C946.858 95.2897 949.619 92.3512 951.623 88.6074C953.625 84.8653 954.626 80.6872 954.626 76.0725C954.626 71.459 953.625 67.3038 951.623 63.6022C949.619 59.9028 946.858 56.9877 943.331 54.8538C939.806 52.7216 935.866 51.6544 931.514 51.6544C927.161 51.6544 923.223 52.7216 919.698 54.8538C916.171 56.9877 913.385 59.9028 911.339 63.6022C909.294 67.3038 908.271 71.459 908.271 76.0725C908.271 80.6872 909.294 84.8653 911.339 88.6074C913.385 92.3512 916.171 95.2897 919.698 97.4216C923.223 99.5553 927.161 100.621 931.514 100.621C935.866 100.621 939.806 99.5553 943.331 97.4216ZM965.595 11.6987C966.814 12.9173 967.423 14.528 967.423 16.5293V76.0725C967.423 82.8626 965.834 89.0216 962.657 94.5492C959.478 100.078 955.169 104.43 949.73 107.607C944.289 110.786 938.217 112.373 931.514 112.373C924.811 112.373 918.695 110.786 913.167 107.607C907.639 104.43 903.31 100.078 900.175 94.5492C897.042 89.0216 895.475 82.8626 895.475 76.0725C895.475 69.282 896.931 63.1246 899.85 57.596C902.765 52.0684 906.77 47.7377 911.862 44.6033C916.954 41.4689 922.635 39.9028 928.902 39.9028C933.95 39.9028 938.651 40.9471 943.005 43.0367C947.357 45.1252 951.055 48.0434 954.103 51.7856V16.5293C954.103 14.528 954.734 12.9173 955.997 11.6987C957.259 10.48 958.847 9.86931 960.763 9.86931C962.765 9.86931 964.375 10.48 965.595 11.6987Z" fill="white"/>
<path d="M50.9855 10.6039C54.3193 12.6066 57.5323 14.8133 60.612 17.2173C76.8645 29.9063 85.962 45.6189 90.9317 57.6563C95.9005 45.6189 104.997 29.9069 121.251 17.2173C124.332 14.8133 127.544 12.6066 130.878 10.6039C125.595 11.9919 120.469 13.8719 115.591 16.2239C107.535 20.1101 100.137 25.2527 93.6016 31.5079L90.9317 34.0653L88.2614 31.5095C81.7256 25.2527 74.327 20.1101 66.2724 16.2239C61.3943 13.8719 56.2672 11.9919 50.9855 10.6039ZM90.9317 83.2246L87.2213 70.3773C84.0765 59.4861 75.8199 38.8897 55.8593 23.3063C46.6109 16.0853 36.0661 10.8133 24.5156 7.63728L0 0.895952L25.412 0.0546111C40.7865 -0.458722 56.0756 2.73194 69.6276 9.26794C77.3339 12.9839 84.4844 17.7546 90.9317 23.4689C97.3776 17.7546 104.529 12.9866 112.235 9.26794C125.787 2.73061 141.071 -0.464056 156.451 0.0546111L181.862 0.895952L157.347 7.63728C145.798 10.8133 135.253 16.0853 126.004 23.3063C106.042 38.8902 97.786 59.4871 94.6417 70.3767L90.9317 83.2246Z" fill="white"/>
<path d="M90.9317 152.276C56.8188 152.276 29.0651 124.523 29.0651 90.4097C29.0651 69.5185 39.5079 50.1831 56.9989 38.6863L62.8125 47.5331C48.3093 57.0655 39.6505 73.0941 39.6505 90.4097C39.6505 118.686 62.6552 141.689 90.9317 141.689C119.208 141.689 142.213 118.686 142.213 90.4097C142.213 73.0941 133.554 57.0655 119.051 47.5331L124.864 38.6863C142.355 50.1831 152.798 69.5201 152.798 90.4097C152.798 124.523 125.044 152.276 90.9317 152.276Z" fill="white"/>
<path d="M90.9317 130.778C69.7303 130.778 52.4812 113.531 52.4812 92.3289C52.4812 79.3445 58.9708 67.3283 69.8407 60.183L75.6536 69.0294C67.7724 74.2091 63.0661 82.9201 63.0661 92.3289C63.0661 107.694 75.5667 120.194 90.9317 120.194C106.296 120.194 118.796 107.694 118.796 92.3289C118.796 82.919 114.091 74.2091 106.208 69.0294L112.022 60.183C122.892 67.3274 129.382 79.3445 129.382 92.3289C129.382 113.531 112.133 130.778 90.9317 130.778Z" fill="white"/>
</svg>
