<svg width="60" height="60" viewBox="0 0 60 60" fill="none" xmlns="http://www.w3.org/2000/svg">
<circle cx="30" cy="30" r="30" fill="white"/>
<path d="M21.0491 17.298C21.7716 17.732 22.4679 18.2102 23.1353 18.7312C26.6574 21.481 28.6289 24.8861 29.7059 27.4947C30.7827 24.8861 32.754 21.4811 36.2765 18.7312C36.9442 18.2102 37.6402 17.732 38.3628 17.298C37.2179 17.5987 36.107 18.0062 35.0499 18.5159C33.3041 19.3581 31.7008 20.4725 30.2845 21.8281L29.7059 22.3823L29.1273 21.8284C27.7109 20.4725 26.1075 19.3581 24.362 18.5159C23.3048 18.0062 22.1937 17.5987 21.0491 17.298ZM29.7059 33.0357L28.9019 30.2515C28.2203 27.8913 26.431 23.4278 22.1053 20.0507C20.1011 18.4858 17.8159 17.3433 15.3128 16.6551L10 15.1941L15.5071 15.0118C18.8389 14.9006 22.1522 15.592 25.0891 17.0084C26.7591 17.8137 28.3087 18.8476 29.7059 20.0859C31.1028 18.8476 32.6526 17.8143 34.3226 17.0084C37.2595 15.5917 40.5717 14.8994 43.9047 15.0118L49.4116 15.1941L44.0989 16.6551C41.5961 17.3433 39.3109 18.4858 37.3065 20.0507C32.9805 23.4279 31.1913 27.8915 30.5099 30.2514L29.7059 33.0357Z" fill="#46C0A9"/>
<path d="M29.7055 48.0005C22.3129 48.0005 16.2983 41.9861 16.2983 34.5933C16.2983 30.066 18.5614 25.8758 22.3519 23.3843L23.6118 25.3015C20.4688 27.3673 18.5923 30.8408 18.5923 34.5933C18.5923 40.7211 23.5777 45.7061 29.7055 45.7061C35.8333 45.7061 40.8188 40.7211 40.8188 34.5933C40.8188 30.8408 38.9423 27.3673 35.7993 25.3015L37.0591 23.3843C40.8496 25.8758 43.1127 30.0663 43.1127 34.5933C43.1127 41.9861 37.0981 48.0005 29.7055 48.0005Z" fill="#F4A21A"/>
<path d="M29.7055 43.3417C25.1109 43.3417 21.3728 39.6041 21.3728 35.0094C21.3728 32.1955 22.7792 29.5914 25.1348 28.043L26.3945 29.9601C24.6866 31.0826 23.6667 32.9704 23.6667 35.0094C23.6667 38.3391 26.3757 41.048 29.7055 41.048C33.0351 41.048 35.744 38.3391 35.744 35.0094C35.744 32.9701 34.7243 31.0826 33.016 29.9601L34.276 28.043C36.6316 29.5912 38.0381 32.1955 38.0381 35.0094C38.0381 39.6041 34.3 43.3417 29.7055 43.3417Z" fill="#46C0A9"/>
</svg>
