<svg width="48" height="48" viewBox="0 0 48 48" fill="none" xmlns="http://www.w3.org/2000/svg">
<circle cx="24" cy="24" r="24" fill="white"/>
<path d="M16.8393 13.8384C17.4173 14.1856 17.9743 14.5681 18.5082 14.9849C21.3259 17.1848 22.9032 19.9089 23.7647 21.9958C24.6262 19.9089 26.2032 17.1849 29.0212 14.9849C29.5553 14.5681 30.1122 14.1856 30.6902 13.8384C29.7743 14.079 28.8856 14.4049 28.0399 14.8127C26.6432 15.4864 25.3607 16.378 24.2276 17.4625L23.7647 17.9058L23.3018 17.4627C22.1687 16.378 20.886 15.4864 19.4896 14.8127C18.6439 14.4049 17.755 14.079 16.8393 13.8384ZM23.7647 26.4286L23.1215 24.2012C22.5763 22.313 21.1448 18.7422 17.6843 16.0406C16.0809 14.7887 14.2527 13.8747 12.2502 13.324L8 12.1553L12.4057 12.0094C15.0711 11.9204 17.7218 12.4736 20.0713 13.6067C21.4073 14.251 22.647 15.0781 23.7647 16.0688C24.8823 15.0781 26.1221 14.2514 27.4581 13.6067C29.8076 12.4734 32.4574 11.9195 35.1238 12.0094L39.5293 12.1553L35.2791 13.324C33.2769 13.8747 31.4487 14.7887 29.8452 16.0406C26.3844 18.7423 24.9531 22.3132 24.4079 24.2011L23.7647 26.4286Z" fill="#46C0A9"/>
<path d="M23.7645 38.4005C17.8503 38.4005 13.0387 33.589 13.0387 27.6748C13.0387 24.0529 14.8492 20.7007 17.8816 18.7075L18.8895 20.2413C16.375 21.8939 14.8739 24.6728 14.8739 27.6748C14.8739 32.577 18.8622 36.565 23.7645 36.565C28.6667 36.565 32.655 32.577 32.655 27.6748C32.655 24.6728 31.1538 21.8939 28.6395 20.2413L29.6473 18.7075C32.6797 20.7007 34.4902 24.0531 34.4902 27.6748C34.4902 33.589 29.6785 38.4005 23.7645 38.4005Z" fill="#F4A21A"/>
<path d="M23.7644 34.6736C20.0887 34.6736 17.0983 31.6835 17.0983 28.0077C17.0983 25.7566 18.2234 23.6733 20.1079 22.4346L21.1156 23.9683C19.7493 24.8663 18.9334 26.3765 18.9334 28.0077C18.9334 30.6715 21.1006 32.8386 23.7644 32.8386C26.4281 32.8386 28.5952 30.6715 28.5952 28.0077C28.5952 26.3763 27.7795 24.8663 26.4128 23.9683L27.4208 22.4346C29.3053 23.6732 30.4305 25.7566 30.4305 28.0077C30.4305 31.6835 27.44 34.6736 23.7644 34.6736Z" fill="#46C0A9"/>
</svg>
