<svg width="182" height="153" viewBox="0 0 182 153" fill="none" xmlns="http://www.w3.org/2000/svg">
<path d="M50.9855 10.6039C54.3193 12.6066 57.5323 14.8133 60.612 17.2173C76.8645 29.9063 85.962 45.6189 90.9317 57.6563C95.9005 45.6189 104.997 29.9069 121.251 17.2173C124.332 14.8133 127.544 12.6066 130.878 10.6039C125.595 11.9919 120.469 13.8719 115.591 16.2239C107.535 20.1101 100.137 25.2527 93.6016 31.5079L90.9317 34.0653L88.2614 31.5095C81.7256 25.2527 74.327 20.1101 66.2724 16.2239C61.3943 13.8719 56.2672 11.9919 50.9855 10.6039ZM90.9317 83.2246L87.2213 70.3773C84.0765 59.4861 75.8199 38.8897 55.8593 23.3063C46.6109 16.0853 36.0661 10.8133 24.5156 7.63728L0 0.895952L25.412 0.0546111C40.7865 -0.458722 56.0756 2.73194 69.6276 9.26794C77.3339 12.9839 84.4844 17.7546 90.9317 23.4689C97.3776 17.7546 104.529 12.9866 112.235 9.26794C125.787 2.73061 141.071 -0.464056 156.451 0.0546111L181.862 0.895952L157.347 7.63728C145.798 10.8133 135.253 16.0853 126.004 23.3063C106.042 38.8902 97.786 59.4871 94.6417 70.3767L90.9317 83.2246Z" fill="#46C0A9"/>
<path d="M90.9317 152.276C56.8188 152.276 29.0651 124.523 29.0651 90.4097C29.0651 69.5185 39.5079 50.1831 56.9989 38.6863L62.8125 47.5331C48.3093 57.0655 39.6505 73.0941 39.6505 90.4097C39.6505 118.686 62.6552 141.689 90.9317 141.689C119.208 141.689 142.213 118.686 142.213 90.4097C142.213 73.0941 133.554 57.0655 119.051 47.5331L124.864 38.6863C142.355 50.1831 152.798 69.5201 152.798 90.4097C152.798 124.523 125.044 152.276 90.9317 152.276Z" fill="#F4A21A"/>
<path d="M90.9317 130.778C69.7303 130.778 52.4812 113.531 52.4812 92.3289C52.4812 79.3445 58.9708 67.3283 69.8407 60.183L75.6536 69.0294C67.7724 74.2091 63.0661 82.9201 63.0661 92.3289C63.0661 107.694 75.5667 120.194 90.9317 120.194C106.296 120.194 118.796 107.694 118.796 92.3289C118.796 82.919 114.091 74.2091 106.208 69.0294L112.022 60.183C122.892 67.3274 129.382 79.3445 129.382 92.3289C129.382 113.531 112.133 130.778 90.9317 130.778Z" fill="#46C0A9"/>
</svg>
