<svg width="945" height="389" viewBox="0 0 945 389" fill="none" xmlns="http://www.w3.org/2000/svg">
<path d="M55.0511 335.537C56.4255 337.08 57.1145 339.061 57.1145 341.48C57.1145 343.901 56.2073 345.884 54.3907 347.422C52.5745 348.965 50.236 349.733 47.3751 349.733H44.4036C39.0104 349.733 34.0869 348.331 29.6303 345.524C25.1735 342.719 21.6787 338.896 19.1484 334.052C16.6145 329.21 15.3516 323.764 15.3516 317.71V276.937H7.75781C5.44636 276.937 3.57396 276.277 2.14584 274.956C0.713541 273.636 0 271.985 0 270.005C0 267.804 0.713541 266.043 2.14584 264.722C3.57396 263.401 5.44636 262.741 7.75781 262.741H15.3516V238.971C15.3516 236.552 16.1197 234.571 17.6631 233.028C19.2021 231.489 21.1823 230.717 23.6052 230.717C26.0251 230.717 28.0052 231.489 29.5469 233.028C31.0869 234.571 31.8584 236.552 31.8584 238.971V262.741H45.8896C48.2005 262.741 50.0703 263.401 51.5016 264.722C52.9307 266.043 53.6473 267.804 53.6473 270.005C53.6473 271.985 52.9307 273.636 51.5016 274.956C50.0703 276.277 48.2005 276.937 45.8896 276.937H31.8584V317.71C31.8584 322.113 33.0677 325.798 35.4896 328.77C37.9088 331.741 40.8803 333.228 44.4036 333.228H50.0156C51.9973 333.228 53.6735 333.998 55.0511 335.537Z" fill="#46C0A9"/>
<path d="M131.229 261.091C134.529 262.852 136.181 265.053 136.181 267.693C136.181 268.464 136.125 269.013 136.016 269.345C135.027 272.868 132.823 274.627 129.413 274.627C128.86 274.627 128.036 274.517 126.937 274.296C122.534 273.528 118.957 273.141 116.207 273.141C108.284 273.141 101.901 274.956 97.0599 278.588C92.2145 282.22 89.7959 287.119 89.7959 293.28V341.48C89.7959 344.122 89.1084 346.16 87.7328 347.588C86.3557 349.019 84.2917 349.733 81.5427 349.733C78.9011 349.733 76.8636 349.048 75.4349 347.67C74.0036 346.296 73.2891 344.233 73.2891 341.48V267.693C73.2891 265.053 74.0036 263.017 75.4349 261.585C76.8636 260.157 78.9011 259.44 81.5427 259.44C87.0443 259.44 89.7959 262.192 89.7959 267.693V270.831C93.0973 266.979 97.1683 263.955 102.012 261.751C106.853 259.551 112.023 258.451 117.529 258.451C123.359 258.451 127.927 259.332 131.229 261.091Z" fill="#46C0A9"/>
<path d="M153.099 347.341C151.503 345.746 150.705 343.737 150.705 341.315V267.858C150.705 265.329 151.503 263.293 153.099 261.751C154.695 260.212 156.703 259.44 159.125 259.44C161.655 259.44 163.691 260.212 165.232 261.751C166.772 263.293 167.543 265.329 167.543 267.858V341.315C167.543 343.737 166.772 345.746 165.232 347.341C163.691 348.937 161.655 349.733 159.125 349.733C156.703 349.733 154.695 348.937 153.099 347.341ZM151.449 241.529C149.304 239.384 148.231 236.825 148.231 233.853C148.231 230.883 149.304 228.324 151.449 226.179C153.595 224.032 156.153 222.959 159.125 222.959C162.096 222.959 164.655 224.032 166.801 226.179C168.947 228.324 170.02 230.883 170.02 233.853C170.02 236.825 168.947 239.384 166.801 241.529C164.655 243.676 162.096 244.748 159.125 244.748C156.153 244.748 153.595 243.676 151.449 241.529Z" fill="#46C0A9"/>
<path d="M254.781 331.493C259.239 328.797 262.759 325.113 265.347 320.434C267.929 315.757 269.225 310.504 269.225 304.67C269.225 298.839 267.929 293.556 265.347 288.822C262.759 284.092 259.239 280.379 254.781 277.68C250.324 274.985 245.344 273.636 239.843 273.636C234.339 273.636 229.361 274.985 224.904 277.68C220.447 280.379 216.952 284.092 214.421 288.822C211.888 293.556 210.625 298.839 210.625 304.67C210.625 310.504 211.888 315.757 214.421 320.434C216.952 325.113 220.447 328.797 224.904 331.493C229.361 334.191 234.339 335.537 239.843 335.537C245.344 335.537 250.324 334.191 254.781 331.493ZM263.035 264.804C270.023 268.824 275.497 274.325 279.46 281.312C283.42 288.301 285.403 296.085 285.403 304.67C285.403 313.253 283.557 321.04 279.872 328.027C276.184 335.016 271.124 340.491 264.687 344.452C258.248 348.413 251.068 350.395 243.143 350.395C236.76 350.395 230.817 349.073 225.316 346.433C219.812 343.791 215.136 340.105 211.285 335.373V379.943C211.285 382.472 210.515 384.508 208.973 386.049C207.432 387.589 205.397 388.36 202.865 388.36C200.444 388.36 198.435 387.589 196.841 386.049C195.245 384.508 194.448 382.472 194.448 379.943V304.67C194.448 296.085 196.455 288.301 200.472 281.312C204.488 274.325 209.936 268.824 216.815 264.804C223.692 260.789 231.367 258.78 239.843 258.78C248.315 258.78 256.045 260.789 263.035 264.804Z" fill="#46C0A9"/>
<path d="M370.329 279.579C365.32 283.981 362.157 289.869 360.837 297.241H415.805C414.815 289.869 412.064 283.981 407.552 279.579C403.039 275.179 397.153 272.976 389.889 272.976C381.856 272.976 375.335 275.179 370.329 279.579ZM428.847 308.384C427.416 309.762 425.599 310.448 423.4 310.448H360.672C361.881 318.151 365.376 324.369 371.155 329.1C376.932 333.834 384.001 336.198 392.365 336.198C395.668 336.198 399.105 335.595 402.683 334.382C406.257 333.174 409.203 331.687 411.515 329.925C413.053 328.716 414.869 328.111 416.961 328.111C419.051 328.111 420.701 328.661 421.915 329.76C423.895 331.411 424.885 333.284 424.885 335.374C424.885 337.353 424.003 339.005 422.244 340.325C418.501 343.296 413.852 345.719 408.296 347.588C402.737 349.46 397.425 350.395 392.365 350.395C383.341 350.395 375.252 348.443 368.1 344.535C360.945 340.629 355.361 335.208 351.347 328.275C347.327 321.343 345.32 313.475 345.32 304.67C345.32 295.867 347.219 287.97 351.016 280.981C354.812 273.994 360.095 268.548 366.861 264.64C373.631 260.735 381.305 258.78 389.889 258.78C398.363 258.78 405.68 260.652 411.844 264.393C418.007 268.135 422.74 273.363 426.04 280.074C429.343 286.788 430.992 294.492 430.992 303.184C430.992 305.276 430.276 307.01 428.847 308.384Z" fill="#F4A21A"/>
<path d="M524.099 263.319C524.867 264.475 525.255 265.769 525.255 267.199C525.255 268.188 524.979 269.236 524.429 270.335L489.433 344.123C487.784 347.753 485.249 349.568 481.841 349.568C479.969 349.568 478.428 349.156 477.219 348.331C476.007 347.507 474.908 346.103 473.917 344.123L438.921 270.335C438.481 269.456 438.261 268.464 438.261 267.363C438.261 264.393 439.803 262.137 442.884 260.596C443.875 260.046 445.029 259.77 446.351 259.77C447.671 259.77 448.935 260.128 450.147 260.844C451.357 261.561 452.293 262.576 452.953 263.897L481.676 325.799L510.068 263.897C510.728 262.576 511.691 261.561 512.957 260.844C514.22 260.128 515.569 259.77 517.001 259.77C518.429 259.77 519.696 260.046 520.799 260.596C522.227 261.256 523.328 262.164 524.099 263.319Z" fill="#F4A21A"/>
<path d="M590.044 331.576C594.501 328.935 597.969 325.279 600.444 320.599C602.92 315.923 604.159 310.612 604.159 304.67C604.159 298.728 602.92 293.391 600.444 288.657C597.969 283.927 594.501 280.239 590.044 277.598C585.588 274.956 580.553 273.636 574.941 273.636C569.328 273.636 564.295 274.956 559.837 277.598C555.38 280.239 551.885 283.927 549.356 288.657C546.821 293.391 545.559 298.728 545.559 304.67C545.559 310.612 546.821 315.923 549.356 320.599C551.885 325.279 555.38 328.935 559.837 331.576C564.295 334.217 569.328 335.537 574.941 335.537C580.553 335.537 585.588 334.217 590.044 331.576ZM551.336 344.535C544.403 340.629 539.009 335.208 535.159 328.275C531.304 321.343 529.381 313.475 529.381 304.67C529.381 295.756 531.304 287.834 535.159 280.9C539.009 273.965 544.403 268.548 551.336 264.64C558.268 260.735 566.136 258.78 574.941 258.78C583.633 258.78 591.419 260.735 598.299 264.64C605.175 268.548 610.568 273.965 614.475 280.9C618.38 287.834 620.336 295.756 620.336 304.67C620.336 313.475 618.409 321.343 614.557 328.275C610.704 335.208 605.34 340.629 598.464 344.535C591.584 348.443 583.744 350.395 574.941 350.395C566.136 350.395 558.268 348.443 551.336 344.535Z" fill="#F4A21A"/>
<path d="M649.635 345.855C645.837 343.27 642.892 339.639 640.803 334.96C638.711 330.284 637.665 325.029 637.665 319.196V229.067C637.665 226.648 638.435 224.667 639.976 223.124C641.517 221.584 643.497 220.813 645.919 220.813C648.339 220.813 650.32 221.584 651.861 223.124C653.403 224.667 654.173 226.648 654.173 229.067V319.196C654.173 323.268 654.941 326.624 656.484 329.265C658.024 331.905 660.005 333.228 662.427 333.228H666.553C668.753 333.228 670.54 333.998 671.917 335.537C673.293 337.08 673.981 339.061 673.981 341.48C673.981 343.901 672.935 345.884 670.845 347.422C668.753 348.965 666.059 349.733 662.756 349.733H662.427C657.693 349.733 653.429 348.443 649.635 345.855Z" fill="#F4A21A"/>
<path d="M753.875 263.319C754.643 264.475 755.029 265.769 755.029 267.199C755.029 268.188 754.753 269.236 754.204 270.335L719.209 344.123C717.559 347.753 715.025 349.568 711.616 349.568C709.744 349.568 708.204 349.156 706.995 348.331C705.783 347.507 704.684 346.103 703.692 344.123L668.697 270.335C668.256 269.456 668.037 268.464 668.037 267.363C668.037 264.393 669.577 262.137 672.659 260.596C673.649 260.046 674.805 259.77 676.127 259.77C677.447 259.77 678.711 260.128 679.923 260.844C681.133 261.561 682.069 262.576 682.729 263.897L711.451 325.799L739.844 263.897C740.504 262.576 741.467 261.561 742.732 260.844C743.996 260.128 745.345 259.77 746.776 259.77C748.205 259.77 749.471 260.046 750.573 260.596C752.001 261.256 753.103 262.164 753.875 263.319Z" fill="#F4A21A"/>
<path d="M784.165 279.579C779.156 283.981 775.993 289.869 774.673 297.241H829.641C828.651 289.869 825.9 283.981 821.388 279.579C816.875 275.179 810.988 272.976 803.725 272.976C795.691 272.976 789.171 275.179 784.165 279.579ZM842.683 308.384C841.251 309.762 839.435 310.448 837.235 310.448H774.508C775.717 318.151 779.212 324.369 784.991 329.1C790.768 333.834 797.837 336.198 806.201 336.198C809.503 336.198 812.941 335.595 816.519 334.382C820.093 333.174 823.039 331.687 825.351 329.925C826.889 328.716 828.705 328.111 830.797 328.111C832.887 328.111 834.536 328.661 835.748 329.76C837.731 331.411 838.72 333.284 838.72 335.374C838.72 337.353 837.839 339.005 836.08 340.325C832.337 343.296 827.687 345.719 822.132 347.588C816.573 349.46 811.261 350.395 806.201 350.395C797.177 350.395 789.088 348.443 781.936 344.535C774.781 340.629 769.197 335.208 765.183 328.275C761.163 321.343 759.156 313.475 759.156 304.67C759.156 295.867 761.055 287.97 764.852 280.981C768.648 273.994 773.931 268.548 780.697 264.64C787.467 260.735 795.141 258.78 803.725 258.78C812.197 258.78 819.516 260.652 825.68 264.393C831.841 268.135 836.575 273.363 839.876 280.074C843.177 286.788 844.828 294.492 844.828 303.184C844.828 305.276 844.111 307.01 842.683 308.384Z" fill="#F4A21A"/>
<path d="M914.405 331.493C918.861 328.798 922.355 325.084 924.887 320.351C927.416 315.622 928.684 310.339 928.684 304.505C928.684 298.674 927.416 293.419 924.887 288.74C922.355 284.064 918.861 280.379 914.405 277.68C909.948 274.986 904.968 273.636 899.467 273.636C893.963 273.636 888.984 274.986 884.527 277.68C880.071 280.379 876.547 284.064 873.963 288.74C871.375 293.419 870.083 298.674 870.083 304.505C870.083 310.339 871.375 315.622 873.963 320.351C876.547 325.084 880.071 328.798 884.527 331.493C888.984 334.191 893.963 335.537 899.467 335.537C904.968 335.537 909.948 334.191 914.405 331.493ZM942.549 223.124C944.089 224.667 944.86 226.701 944.86 229.233V304.505C944.86 313.088 942.852 320.875 938.836 327.861C934.816 334.851 929.369 340.353 922.493 344.369C915.615 348.388 907.939 350.395 899.467 350.395C890.991 350.395 883.26 348.388 876.273 344.369C869.284 340.353 863.811 334.851 859.849 327.861C855.887 320.875 853.907 313.088 853.907 304.505C853.907 295.92 855.747 288.136 859.436 281.146C863.123 274.16 868.185 268.684 874.623 264.723C881.06 260.76 888.241 258.78 896.164 258.78C902.545 258.78 908.488 260.1 913.992 262.741C919.493 265.382 924.169 269.07 928.024 273.801V229.233C928.024 226.701 928.82 224.667 930.416 223.124C932.011 221.584 934.02 220.813 936.441 220.813C938.972 220.813 941.007 221.584 942.549 223.124Z" fill="#F4A21A"/>
<path d="M421.932 13.4079C426.147 15.9373 430.208 18.7279 434.101 21.7666C454.648 37.8079 466.148 57.6706 472.431 72.8879C478.712 57.6706 490.212 37.8093 510.759 21.7666C514.653 18.7279 518.715 15.9373 522.929 13.4079C516.252 15.1599 509.771 17.5373 503.604 20.5119C493.42 25.4239 484.068 31.9253 475.807 39.8333L472.431 43.0653L469.055 39.8333C460.793 31.9253 451.44 25.4239 441.257 20.5119C435.091 17.5373 428.609 15.1599 421.932 13.4079ZM472.431 105.212L467.74 88.9693C463.764 75.2013 453.327 49.1639 428.093 29.4639C416.403 20.3359 403.071 13.6719 388.469 9.65593L357.479 1.13327L389.603 0.0692771C409.039 -0.578723 428.367 3.45459 445.499 11.7173C455.24 16.4159 464.28 22.4453 472.431 29.6693C480.58 22.4453 489.62 16.4173 499.361 11.7173C516.493 3.45326 535.816 -0.584056 555.257 0.0692771L587.381 1.13327L556.391 9.65593C541.789 13.6719 528.459 20.3359 516.768 29.4639C491.533 49.1653 481.096 75.2026 477.121 88.9693L472.431 105.212Z" fill="#46C0A9"/>
<path d="M472.431 192.502C429.307 192.502 394.221 157.418 394.221 114.293C394.221 87.8838 407.423 63.4411 429.535 48.9078L436.884 60.0905C418.549 72.1411 407.603 92.4038 407.603 114.293C407.603 150.04 436.684 179.121 472.431 179.121C508.177 179.121 537.259 150.04 537.259 114.293C537.259 92.4038 526.312 72.1411 507.977 60.0905L515.327 48.9078C537.439 63.4411 550.64 87.8851 550.64 114.293C550.64 157.418 515.555 192.502 472.431 192.502Z" fill="#F4A21A"/>
<path d="M472.431 165.327C445.628 165.327 423.823 143.523 423.823 116.72C423.823 100.307 432.027 85.1147 445.768 76.0827L453.117 87.2653C443.153 93.8147 437.204 104.827 437.204 116.72C437.204 136.144 453.007 151.945 472.431 151.945C491.855 151.945 507.656 136.144 507.656 116.72C507.656 104.825 501.708 93.8147 491.743 87.2653L499.092 76.0827C512.833 85.1133 521.037 100.307 521.037 116.72C521.037 143.523 499.232 165.327 472.431 165.327Z" fill="#46C0A9"/>
</svg>
