<svg width="18" height="17" viewBox="0 0 18 17" fill="none" xmlns="http://www.w3.org/2000/svg">
<path d="M13.5 3.54199H4.5C4.10218 3.54199 3.72064 3.69125 3.43934 3.95692C3.15804 4.2226 3 4.58294 3 4.95866V13.4587C3 13.8344 3.15804 14.1947 3.43934 14.4604C3.72064 14.7261 4.10218 14.8753 4.5 14.8753H13.5C13.8978 14.8753 14.2794 14.7261 14.5607 14.4604C14.842 14.1947 15 13.8344 15 13.4587V4.95866C15 4.58294 14.842 4.2226 14.5607 3.95692C14.2794 3.69125 13.8978 3.54199 13.5 3.54199V3.54199Z" stroke="#0AB9AD" stroke-linecap="round" stroke-linejoin="round"/>
<path d="M12 2.125V4.95833" stroke="#0AB9AD" stroke-linecap="round" stroke-linejoin="round"/>
<path d="M6 2.125V4.95833" stroke="#0AB9AD" stroke-linecap="round" stroke-linejoin="round"/>
<path d="M3 7.79199H15" stroke="#0AB9AD" stroke-linecap="round" stroke-linejoin="round"/>
<path d="M8.25 10.625H9" stroke="#0AB9AD" stroke-linecap="round" stroke-linejoin="round"/>
<path d="M9 10.625V12.75" stroke="#0AB9AD" stroke-linecap="round" stroke-linejoin="round"/>
</svg>
