<svg width="15" height="15" viewBox="0 0 15 15" fill="none" xmlns="http://www.w3.org/2000/svg">
<path d="M11.25 3.125H3.75C3.41848 3.125 3.10054 3.2567 2.86612 3.49112C2.6317 3.72554 2.5 4.04348 2.5 4.375V11.875C2.5 12.2065 2.6317 12.5245 2.86612 12.7589C3.10054 12.9933 3.41848 13.125 3.75 13.125H11.25C11.5815 13.125 11.8995 12.9933 12.1339 12.7589C12.3683 12.5245 12.5 12.2065 12.5 11.875V4.375C12.5 4.04348 12.3683 3.72554 12.1339 3.49112C11.8995 3.2567 11.5815 3.125 11.25 3.125V3.125Z" stroke="#8C8E92" stroke-linecap="round" stroke-linejoin="round"/>
<path d="M10 1.875V4.375" stroke="#8C8E92" stroke-linecap="round" stroke-linejoin="round"/>
<path d="M5 1.875V4.375" stroke="#8C8E92" stroke-linecap="round" stroke-linejoin="round"/>
<path d="M2.5 6.875H12.5" stroke="#8C8E92" stroke-linecap="round" stroke-linejoin="round"/>
<path d="M6.875 9.375H7.5" stroke="#8C8E92" stroke-linecap="round" stroke-linejoin="round"/>
<path d="M7.5 9.375V11.25" stroke="#8C8E92" stroke-linecap="round" stroke-linejoin="round"/>
</svg>
