<svg width="21" height="22" viewBox="0 0 21 22" fill="none" xmlns="http://www.w3.org/2000/svg">
<path d="M14.6125 7.33333C14.4383 6.81563 14.1203 6.36438 13.6992 6.03766C13.2782 5.71093 12.7735 5.52368 12.25 5.5H8.75C8.05381 5.5 7.38613 5.78973 6.89384 6.30546C6.40156 6.82118 6.125 7.52065 6.125 8.25C6.125 8.97935 6.40156 9.67882 6.89384 10.1945C7.38613 10.7103 8.05381 11 8.75 11H12.25C12.9462 11 13.6139 11.2897 14.1062 11.8055C14.5984 12.3212 14.875 13.0207 14.875 13.75C14.875 14.4793 14.5984 15.1788 14.1062 15.6945C13.6139 16.2103 12.9462 16.5 12.25 16.5H8.75C8.22653 16.4763 7.7218 16.2891 7.30076 15.9623C6.87973 15.6356 6.56167 15.1844 6.3875 14.6667" stroke="#0AB9AD" stroke-width="1.2" stroke-linecap="round" stroke-linejoin="round"/>
<path d="M10.5 16.5V19.25M10.5 2.75V5.5V2.75Z" stroke="#0AB9AD" stroke-width="1.2" stroke-linecap="round" stroke-linejoin="round"/>
</svg>
