<svg width="18" height="18" viewBox="0 0 18 18" fill="none" xmlns="http://www.w3.org/2000/svg">
<path d="M12.525 6C12.3757 5.57643 12.1031 5.20722 11.7422 4.9399C11.3813 4.67258 10.9487 4.51937 10.5 4.5H7.5C6.90326 4.5 6.33097 4.73705 5.90901 5.15901C5.48705 5.58097 5.25 6.15326 5.25 6.75C5.25 7.34674 5.48705 7.91903 5.90901 8.34099C6.33097 8.76295 6.90326 9 7.5 9H10.5C11.0967 9 11.669 9.23705 12.091 9.65901C12.5129 10.081 12.75 10.6533 12.75 11.25C12.75 11.8467 12.5129 12.419 12.091 12.841C11.669 13.2629 11.0967 13.5 10.5 13.5H7.5C7.05131 13.4806 6.61868 13.3274 6.2578 13.0601C5.89691 12.7928 5.62429 12.4236 5.475 12" stroke="#8C8E92" stroke-width="1.2" stroke-linecap="round" stroke-linejoin="round"/>
<path d="M9 13.5V15.75M9 2.25V4.5V2.25Z" stroke="#8C8E92" stroke-width="1.2" stroke-linecap="round" stroke-linejoin="round"/>
</svg>
