<svg width="35" height="35" viewBox="0 0 35 35" fill="none" xmlns="http://www.w3.org/2000/svg">
<circle cx="17.5" cy="17.5" r="17.5" fill="#0AB9AD"/>
<path d="M17.5 19.0835C17.8119 19.0835 18.1207 19.0221 18.4089 18.9027C18.697 18.7834 18.9588 18.6084 19.1794 18.3879C19.3999 18.1673 19.5749 17.9055 19.6942 17.6174C19.8136 17.3292 19.875 17.0204 19.875 16.7085C19.875 16.3966 19.8136 16.0878 19.6942 15.7996C19.5749 15.5115 19.3999 15.2497 19.1794 15.0291C18.9588 14.8086 18.697 14.6336 18.4089 14.5143C18.1207 14.3949 17.8119 14.3335 17.5 14.3335C16.8701 14.3335 16.266 14.5837 15.8206 15.0291C15.3752 15.4745 15.125 16.0786 15.125 16.7085C15.125 17.3384 15.3752 17.9425 15.8206 18.3879C16.266 18.8333 16.8701 19.0835 17.5 19.0835V19.0835Z" stroke="white" stroke-linecap="round" stroke-linejoin="round"/>
<path d="M21.9784 21.1866L18.6194 24.5456C18.3225 24.8422 17.92 25.0088 17.5004 25.0088C17.0807 25.0088 16.6782 24.8422 16.3813 24.5456L13.0215 21.1866C12.1358 20.3008 11.5326 19.1723 11.2883 17.9438C11.044 16.7152 11.1694 15.4418 11.6488 14.2846C12.1281 13.1274 12.9399 12.1382 13.9814 11.4423C15.0229 10.7464 16.2474 10.375 17.5 10.375C18.7526 10.375 19.977 10.7464 21.0185 11.4423C22.06 12.1382 22.8718 13.1274 23.3512 14.2846C23.8305 15.4418 23.956 16.7152 23.7116 17.9438C23.4673 19.1723 22.8641 20.3008 21.9784 21.1866V21.1866Z" stroke="white" stroke-linecap="round" stroke-linejoin="round"/>
</svg>
