<svg width="16" height="15" viewBox="0 0 16 15" fill="none" xmlns="http://www.w3.org/2000/svg">
<path d="M4.33301 4.375H11.6663" stroke="#0AB9AD" stroke-linecap="round" stroke-linejoin="round"/>
<path d="M4.33301 10.625H11.6663" stroke="#0AB9AD" stroke-linecap="round" stroke-linejoin="round"/>
<path d="M4 12.5V11.25C4 10.2554 4.42143 9.30161 5.17157 8.59835C5.92172 7.89509 6.93913 7.5 8 7.5C9.06087 7.5 10.0783 7.89509 10.8284 8.59835C11.5786 9.30161 12 10.2554 12 11.25V12.5C12 12.6658 11.9298 12.8247 11.8047 12.9419C11.6797 13.0592 11.5101 13.125 11.3333 13.125H4.66667C4.48986 13.125 4.32029 13.0592 4.19526 12.9419C4.07024 12.8247 4 12.6658 4 12.5Z" stroke="#0AB9AD" stroke-linecap="round" stroke-linejoin="round"/>
<path d="M4 2.5V3.75C4 4.74456 4.42143 5.69839 5.17157 6.40165C5.92172 7.10491 6.93913 7.5 8 7.5C9.06087 7.5 10.0783 7.10491 10.8284 6.40165C11.5786 5.69839 12 4.74456 12 3.75V2.5C12 2.33424 11.9298 2.17527 11.8047 2.05806C11.6797 1.94085 11.5101 1.875 11.3333 1.875H4.66667C4.48986 1.875 4.32029 1.94085 4.19526 2.05806C4.07024 2.17527 4 2.33424 4 2.5V2.5Z" stroke="#0AB9AD" stroke-linecap="round" stroke-linejoin="round"/>
</svg>
