<svg width="13" height="13" viewBox="0 0 13 13" fill="none" xmlns="http://www.w3.org/2000/svg">
<path d="M3.52081 3.7915H9.47915" stroke="#8C8E92" stroke-linecap="round" stroke-linejoin="round"/>
<path d="M3.52081 9.2085H9.47915" stroke="#8C8E92" stroke-linecap="round" stroke-linejoin="round"/>
<path d="M3.25 10.8333V9.75C3.25 8.88805 3.59241 8.0614 4.2019 7.4519C4.8114 6.84241 5.63805 6.5 6.5 6.5C7.36195 6.5 8.1886 6.84241 8.7981 7.4519C9.40759 8.0614 9.75 8.88805 9.75 9.75V10.8333C9.75 10.977 9.69293 11.1148 9.59135 11.2164C9.48977 11.3179 9.35199 11.375 9.20833 11.375H3.79167C3.64801 11.375 3.51023 11.3179 3.40865 11.2164C3.30707 11.1148 3.25 10.977 3.25 10.8333Z" stroke="#8C8E92" stroke-linecap="round" stroke-linejoin="round"/>
<path d="M3.25 2.16667V3.25C3.25 4.11195 3.59241 4.9386 4.2019 5.5481C4.8114 6.15759 5.63805 6.5 6.5 6.5C7.36195 6.5 8.1886 6.15759 8.7981 5.5481C9.40759 4.9386 9.75 4.11195 9.75 3.25V2.16667C9.75 2.02301 9.69293 1.88523 9.59135 1.78365C9.48977 1.68207 9.35199 1.625 9.20833 1.625H3.79167C3.64801 1.625 3.51023 1.68207 3.40865 1.78365C3.30707 1.88523 3.25 2.02301 3.25 2.16667V2.16667Z" stroke="#8C8E92" stroke-linecap="round" stroke-linejoin="round"/>
</svg>
