<svg width="19" height="19" viewBox="0 0 19 19" fill="none" xmlns="http://www.w3.org/2000/svg">
<path d="M9.5 1.5835V6.72933L11.875 8.091" stroke="#0AB9AD" stroke-linecap="round" stroke-linejoin="round"/>
<path d="M7.91669 3.1665L9.50002 3.95817L11.0834 3.1665" stroke="#0AB9AD" stroke-linecap="round" stroke-linejoin="round"/>
<path d="M16.3558 5.54004L11.8995 8.11296L11.9075 10.8505" stroke="#0AB9AD" stroke-linecap="round" stroke-linejoin="round"/>
<path d="M14.193 4.96045L14.2991 6.72745L15.7763 7.70278" stroke="#0AB9AD" stroke-linecap="round" stroke-linejoin="round"/>
<path d="M16.3558 13.4567L11.8996 10.8838L9.53247 12.2597" stroke="#0AB9AD" stroke-linecap="round" stroke-linejoin="round"/>
<path d="M15.7763 11.2939L14.2991 12.2693L14.193 14.0363" stroke="#0AB9AD" stroke-linecap="round" stroke-linejoin="round"/>
<path d="M9.5 17.4167V12.2708L7.125 10.9092" stroke="#0AB9AD" stroke-linecap="round" stroke-linejoin="round"/>
<path d="M11.0834 15.8332L9.50002 15.0415L7.91669 15.8332" stroke="#0AB9AD" stroke-linecap="round" stroke-linejoin="round"/>
<path d="M2.64417 13.4599L7.10046 10.887L7.09254 8.14941" stroke="#0AB9AD" stroke-linecap="round" stroke-linejoin="round"/>
<path d="M4.80703 14.0392L4.70094 12.2722L3.22369 11.2969" stroke="#0AB9AD" stroke-linecap="round" stroke-linejoin="round"/>
<path d="M2.64417 5.54346L7.10046 8.11637L9.46754 6.74046" stroke="#0AB9AD" stroke-linecap="round" stroke-linejoin="round"/>
<path d="M3.22369 7.7062L4.70094 6.73087L4.80703 4.96387" stroke="#0AB9AD" stroke-linecap="round" stroke-linejoin="round"/>
</svg>
