<svg width="180" height="120" viewBox="0 0 180 120" fill="none" xmlns="http://www.w3.org/2000/svg">
<rect opacity="0.2" width="180" height="120" rx="6" fill="#0AB9AD"/>
<path d="M78.333 53.3333C77.0069 53.3333 75.7352 52.8065 74.7975 51.8689C73.8598 50.9312 73.333 49.6594 73.333 48.3333C73.333 43.471 75.2645 38.8079 78.7027 35.3697C82.1409 31.9315 86.804 30 91.6663 30C96.5286 30 101.192 31.9315 104.63 35.3697C108.068 38.8079 110 43.471 110 48.3333V83.3333C110 85.1014 109.297 86.7971 108.047 88.0474C106.797 89.2976 105.101 90 103.333 90H79.9997C78.2316 90 76.5359 89.2976 75.2856 88.0474C74.0354 86.7971 73.333 85.1014 73.333 83.3333V76.6667C73.333 72.0667 75.6997 68.52 79.5997 66.0833L94.3463 56.8667C97.863 54.6667 99.9997 52.48 99.9997 48.3333C99.9997 46.1232 99.1217 44.0036 97.5589 42.4408C95.9961 40.878 93.8765 40 91.6663 40C89.4562 40 87.3366 40.878 85.7738 42.4408C84.211 44.0036 83.333 46.1232 83.333 48.3333C83.333 49.6594 82.8062 50.9312 81.8685 51.8689C80.9309 52.8065 79.6591 53.3333 78.333 53.3333Z" stroke="white" stroke-linecap="round" stroke-linejoin="round"/>
</svg>
