<svg width="41" height="41" viewBox="0 0 41 41" fill="none" xmlns="http://www.w3.org/2000/svg">
<circle cx="20.5" cy="20.5" r="20.5" fill="white"/>
<g clip-path="url(#clip0_193_6941)">
<path d="M13.1637 12.7999L26.7804 26.4166C27.0389 26.6751 27.1841 27.0256 27.1841 27.3911C27.1841 27.7567 27.0389 28.1072 26.7804 28.3657V28.3657C26.522 28.6239 26.1716 28.7689 25.8063 28.7689C25.4409 28.7689 25.0905 28.6239 24.8321 28.3657L21.5048 24.9816C21.2876 24.7605 21.1658 24.4629 21.1658 24.1529V23.9479C21.1656 23.7913 21.1344 23.6364 21.0739 23.4919C21.0134 23.3475 20.9248 23.2166 20.8133 23.1066L20.3844 22.71C20.2386 22.5755 20.0613 22.4797 19.8688 22.4316C19.6764 22.3836 19.4749 22.3847 19.2829 22.4349V22.4349C18.9802 22.514 18.6621 22.5125 18.3602 22.4307C18.0582 22.3488 17.7829 22.1893 17.5617 21.9681L14.4047 18.8103C12.5313 16.9377 11.8422 14.1087 13.1637 12.7999Z" stroke="#0AB9AD" stroke-linecap="round" stroke-linejoin="round"/>
<path d="M25.822 12.2211L22.967 15.0761C22.7473 15.2958 22.5729 15.5567 22.454 15.8438C22.3351 16.1308 22.2739 16.4385 22.274 16.7493V17.298C22.2738 17.4548 22.2114 17.6051 22.1005 17.7159L21.6826 18.1346" stroke="#0AB9AD" stroke-linecap="round" stroke-linejoin="round"/>
<path d="M22.8652 19.3173L23.2831 18.8994C23.338 18.8445 23.4031 18.8009 23.4748 18.7711C23.5465 18.7413 23.6234 18.726 23.701 18.726H24.2506C24.5613 18.726 24.869 18.6648 25.1561 18.5459C25.4432 18.427 25.704 18.2527 25.9237 18.0329L28.7787 15.1779" stroke="#0AB9AD" stroke-linecap="round" stroke-linejoin="round"/>
<path d="M27.3005 13.6995L24.3438 16.6563" stroke="#0AB9AD" stroke-linecap="round" stroke-linejoin="round"/>
<path d="M18.4303 24.6394L14.7442 28.3452C14.467 28.6223 14.0911 28.7779 13.6991 28.7779C13.3072 28.7779 12.9313 28.6223 12.654 28.3452C12.3772 28.068 12.2217 27.6922 12.2217 27.3005C12.2217 26.9087 12.3772 26.5329 12.654 26.2558L15.7685 23.161" stroke="#0AB9AD" stroke-linecap="round" stroke-linejoin="round"/>
</g>
<defs>
<clipPath id="clip0_193_6941">
<rect width="18.9231" height="18.9231" fill="white" transform="translate(11.0381 11.0385)"/>
</clipPath>
</defs>
</svg>
