<svg xmlns="http://www.w3.org/2000/svg" width="227" height="47" fill="black"><path fill="#000" d="M12.657 10.263a3.353 3.353 0 0 0-2.799 3.828l3.515 22.61A3.353 3.353 0 1 0 20 35.672l-3.514-22.61a3.353 3.353 0 0 0-3.829-2.798m11.067 2.329c-1.83.286-3.082 2-2.797 3.83l2.248 14.421a3.353 3.353 0 1 0 6.626-1.033L27.553 15.39a3.353 3.353 0 0 0-3.829-2.797m10.378-5.937a3.353 3.353 0 0 0-2.799 3.828l3.515 22.61a3.353 3.353 0 0 0 6.627-1.03L37.93 9.455a3.353 3.353 0 0 0-3.828-2.798m11.709 5.368a3.353 3.353 0 0 0-2.799 3.828l1.223 7.868a3.353 3.353 0 0 0 3.828 2.799h.001a3.353 3.353 0 0 0 2.798-3.829l-1.223-7.868a3.353 3.353 0 0 0-3.828-2.798M3.314 21.132a3.353 3.353 0 0 0-2.8 3.828l1.223 7.868a3.353 3.353 0 1 0 6.627-1.03L7.142 23.93a3.353 3.353 0 0 0-3.828-2.798m81.331-9.182L74.451 34.92a.41.41 0 0 1-.375.245h-7.584a.41.41 0 0 1-.394-.298L59.54 11.896a.41.41 0 0 1 .394-.523h6.92a.41.41 0 0 1 .404.346l2.75 16.803a.41.41 0 0 0 .79.076c1.492-4.177 5.675-15.124 6.38-16.96a.41.41 0 0 1 .383-.263h6.712a.412.412 0 0 1 .372.574m19.395 23.086h-6.089a.41.41 0 0 1-.408-.453l.304-2.944h-.092a8.68 8.68 0 0 1-7.46 3.975q-3.444 0-5.217-1.954t-1.438-5.21q.713-6.888 8.979-7.95l6.181-.812a.41.41 0 0 0 .359-.38q.188-3.546-3.833-3.546c-2.68.027-5.305.755-7.615 2.113a.409.409 0 0 1-.604-.404l.461-4.458a.41.41 0 0 1 .232-.331 20.7 20.7 0 0 1 4.107-1.288 22.8 22.8 0 0 1 4.88-.601q10.123 0 9.081 10.102l-1.423 13.776a.41.41 0 0 1-.405.365m-5.504-9.614a1.27 1.27 0 0 0-1.425-1.392l-2.768.352q-3.608.462-3.89 3.212a2.41 2.41 0 0 0 .654 2.046 3.04 3.04 0 0 0 2.263.797 4.8 4.8 0 0 0 3.5-1.42 5.7 5.7 0 0 0 1.666-3.595m18.587 9.614h-6.477a.41.41 0 0 1-.39-.283.4.4 0 0 1-.019-.17L113.77.368a.41.41 0 0 1 .409-.368h6.477a.41.41 0 0 1 .391.283.4.4 0 0 1 .018.17l-3.533 34.214a.41.41 0 0 1-.409.368m28.415-9.751h-14.66a.41.41 0 0 0-.411.408q.088 4.745 5.965 4.745c2.235.027 4.444-.49 6.435-1.507a.413.413 0 0 1 .553.162.4.4 0 0 1 .055.203l-.062 4.308a.41.41 0 0 1-.23.367c-2.3 1.096-5.567 1.645-8.95 1.645q-5.733 0-8.57-3.178t-2.251-8.862q.61-5.893 4.384-9.337a12.62 12.62 0 0 1 8.769-3.444q5.176 0 7.69 3.075 2.514 3.074 1.969 8.343l-.276 2.705a.41.41 0 0 1-.41.367m-6.316-4.484a.414.414 0 0 0 .411-.379q.335-4.705-3.622-4.705a4.4 4.4 0 0 0-3.189 1.453 7.3 7.3 0 0 0-1.799 3.114.406.406 0 0 0 .397.515zm19.342 3.186-1.103 10.68a.41.41 0 0 1-.408.368h-6.642a.41.41 0 0 1-.39-.283q-.027-.082-.018-.17l3.337-32.319a.41.41 0 0 1 .408-.368h11.323q12.523 0 11.436 10.56a11.38 11.38 0 0 1-4.429 8.078q-3.911 3.085-9.92 3.085h-3.19a.41.41 0 0 0-.404.369m1.652-15.993-.982 9.51a.41.41 0 0 0 .242.417.4.4 0 0 0 .166.035h2.48q5.964 0 6.504-5.223.528-5.107-5.435-5.107h-2.565a.41.41 0 0 0-.41.368m35.896 27.042h-6.089a.41.41 0 0 1-.39-.283q-.027-.084-.018-.17l.304-2.944h-.092a8.68 8.68 0 0 1-7.46 3.975q-3.442 0-5.217-1.954-1.773-1.953-1.438-5.21.711-6.888 8.979-7.95l6.181-.812a.41.41 0 0 0 .358-.38q.189-3.546-3.832-3.546c-2.68.027-5.306.755-7.616 2.113a.407.407 0 0 1-.566-.187.4.4 0 0 1-.036-.217l.459-4.458a.41.41 0 0 1 .232-.331 20.7 20.7 0 0 1 4.107-1.288 22.8 22.8 0 0 1 4.881-.601q10.122 0 9.079 10.102l-1.422 13.776a.41.41 0 0 1-.404.365m-5.501-9.614.03-.292a1.03 1.03 0 0 0-.308-.85 1.04 1.04 0 0 0-.857-.287l-3.057.39q-3.607.462-3.892 3.212a2.42 2.42 0 0 0 .656 2.045 3.04 3.04 0 0 0 2.263.797 4.8 4.8 0 0 0 3.499-1.42 5.7 5.7 0 0 0 1.666-3.595m35.978-14.053a.41.41 0 0 1 .371.588l-11.971 24.972q-4.42 9.22-11.396 9.22a9.1 9.1 0 0 1-3.391-.503.42.42 0 0 1-.277-.386l-.035-4.843q0-.105.049-.198a.41.41 0 0 1 .533-.173c.78.361 1.631.544 2.491.535a4.48 4.48 0 0 0 4.203-2.658l.948-1.793a3.14 3.14 0 0 0 .227-2.378l-6.637-21.853a.4.4 0 0 1 .063-.364.41.41 0 0 1 .33-.166h7.196a.41.41 0 0 1 .402.329c.454 2.317 3.156 16.122 3.183 17.234h.092q.435-1.596 1.085-3.119l5.847-14.19a.41.41 0 0 1 .379-.254z"/></svg>