<svg width="26" height="26" viewBox="0 0 26 26" fill="none" xmlns="http://www.w3.org/2000/svg">
<path d="M15.8599 11.1109L21.0913 9.70905C21.3662 9.63543 21.6528 9.61666 21.9349 9.65383C22.217 9.69099 22.4891 9.78336 22.7355 9.92565C22.9819 10.0679 23.1979 10.2574 23.3711 10.4831C23.5443 10.7089 23.6713 10.9666 23.7449 11.2414C23.8186 11.5163 23.8373 11.8029 23.8002 12.0851C23.763 12.3672 23.6706 12.6392 23.5283 12.8856C23.386 13.132 23.1966 13.348 22.9708 13.5212C22.7451 13.6944 22.4874 13.8214 22.2126 13.895L6.51615 18.1005L1.69531 12.6633L4.83373 11.8215L7.4879 13.3545L10.6274 12.5127L6.5714 5.74838L9.71089 4.90771L15.8588 11.1109H15.8599Z" stroke="#F5AC0A" stroke-width="1.91667" stroke-linecap="round" stroke-linejoin="round"/>
<path d="M3.25 22.75H22.75" stroke="#F5AC0A" stroke-width="1.91667" stroke-linecap="round" stroke-linejoin="round"/>
</svg>
