<?xml version="1.0" encoding="UTF-8"?>
<svg id="Layer_1" xmlns="http://www.w3.org/2000/svg" version="1.1" width="108" height="23" viewBox="0 0 108 23">
  <!-- Generator: Adobe Illustrator 29.7.1, SVG Export Plug-In . SVG Version: 2.1.1 Build 8)  -->
  <defs>
    <style>
      .st0 {
        fill: #1d3361;
      }
    </style>
  </defs>
  <g id="Celebrity_Logo">
    <g id="CEL_Logo">
      <path class="st0" d="M41.6,23h0Z"/>
      <path class="st0" d="M41.6,23l10.9-12L42.7,0h7.5l6.2,6.8,6.2-6.8h7.5l-9.9,11,10.9,12h-7.7l-7-7.8-7,7.8h-7.8Z"/>
      <path class="st0" d="M4.4,8.3c1.1,0,1.6.6,1.8,1.5h1.3c-.2-1.6-1.5-2.5-3.1-2.5s-3.5,1.8-3.5,3.9,1.3,3.9,3.5,3.9,3-1.2,3.1-3h-1.3c0,1.1-.7,1.9-1.9,1.9s-2.2-1.4-2.2-2.8.7-2.8,2.2-2.8h.1Z"/>
      <path class="st0" d="M9.4,12.5c0,.8.5,1.6,1.4,1.6s1.1-.3,1.3-.9h1.1c-.3,1.2-1.2,1.8-2.4,1.8-1.7,0-2.6-1.2-2.6-2.8s1-2.8,2.6-2.8,2.7,1.5,2.5,3.1h-3.9ZM12.1,11.7c0-.7-.6-1.4-1.3-1.4s-1.4.6-1.4,1.4h2.8-.1Z"/>
      <path class="st0" d="M15.4,7.4h-1.2v7.4h1.2v-7.4Z"/>
      <path class="st0" d="M17.4,12.5c0,.8.5,1.6,1.4,1.6s1.1-.3,1.3-.9h1.1c-.3,1.2-1.2,1.8-2.4,1.8-1.7,0-2.6-1.2-2.6-2.8s1-2.8,2.6-2.8,2.7,1.5,2.5,3.1h-3.9ZM20.2,11.7c0-.7-.6-1.4-1.3-1.4s-1.4.6-1.4,1.4h2.8-.1Z"/>
      <path class="st0" d="M23.4,7.4h-1.2v7.4h1.1v-.7h0c.4.7,1.1.9,1.9.9,1.6,0,2.3-1.4,2.3-2.8s-.8-2.9-2.5-2.9-1.3.3-1.6.8h0s0-2.7,0-2.7ZM23.4,12.2c0-1.1.5-1.9,1.5-1.9s1.5.9,1.5,1.9-.4,1.9-1.5,1.9-1.5-.8-1.5-1.9Z"/>
      <path class="st0" d="M28.6,9.5h1.1v1h0c.1-.6.8-1.2,1.6-1.2s.3,0,.4,0h0v1.1h-.4c-.8,0-1.4.7-1.4,1.8v2.6h-1.2v-5.4h-.1Z"/>
      <path class="st0" d="M33.8,7.4h-1.2v1.1h1.2v-1.1Z"/>
      <path class="st0" d="M33.8,9.5h-1.2v5.4h1.2v-5.4Z"/>
      <path class="st0" d="M34.8,9.5h.9v-1.6h1.2v1.6h1.1v.9h-1.1v2.9c0,.5,0,.7.6.7s.3,0,.5,0v.9h-.7c-1.2,0-1.5-.5-1.5-1.4v-3.2h-.9v-.9h0Z"/>
      <path class="st0" d="M40,9.5h-1.3l2,5.3v.4c-.3.5-.4.8-1,.8s-.3,0-.4,0h0v1h.8c1.2,0,1.5-.8,1.8-1.7h0c0-.1,2.1-5.8,2.1-5.8h-1.2l-1.4,4h0l-1.4-4h.1Z"/>
      <path class="st0" d="M74.1,9.8c-.2-.9-.8-1.5-1.8-1.5-1.6,0-2.2,1.4-2.2,2.8s.7,2.8,2.2,2.8,1.8-.9,1.9-1.9h1.3c0,1.8-1.4,3-3.1,3s-3.5-1.8-3.5-3.9,1.3-3.9,3.5-3.9,3,.9,3.1,2.5h-1.4Z"/>
      <path class="st0" d="M77.5,9.5h-1.1v5.4h1.2v-2.6c0-1.2.6-1.8,1.5-1.8s.3,0,.4,0h0v-1.1h-.4c-.7,0-1.4.6-1.6,1.2h0v-1h0Z"/>
      <path class="st0" d="M85.2,14.8h-1.2v-.7h0c-.3.5-.9.9-1.5.9-1.4,0-2-.7-2-2.1v-3.4h1.2v3.3c0,.9.4,1.3,1,1.3,1,0,1.3-.6,1.3-1.5v-3.1h1.2v5.4h0Z"/>
      <path class="st0" d="M87.8,7.4h-1.2v1.1h1.2v-1.1Z"/>
      <path class="st0" d="M87.8,9.5h-1.2v5.4h1.2v-5.4Z"/>
      <path class="st0" d="M90.2,13.1c0,.7.6.9,1.2.9s1.2,0,1.2-.7-.7-.7-1.4-.8h-.4c-.9-.2-1.7-.5-1.7-1.6s1.3-1.5,2.2-1.5,2.1.5,2.2,1.6h-1.2c0-.6-.6-.7-1.1-.7s-1,0-1,.6.6.6,1.4.8h.4c.9.2,1.7.5,1.7,1.6s-1.3,1.7-2.4,1.7-2.3-.6-2.4-1.9h1.3Z"/>
      <path class="st0" d="M97,14c-1,0-1.4-.7-1.4-1.6h3.9c.2-1.6-.8-3.1-2.5-3.1s-2.6,1.3-2.6,2.8.9,2.8,2.6,2.8,2.2-.7,2.4-1.8h-1.1c-.2.6-.6.9-1.3.9ZM97,10.3c.8,0,1.3.7,1.3,1.4h-2.8c0-.8.6-1.4,1.4-1.4h0Z"/>
      <path class="st0" d="M101.6,13.1c0,.7.6.9,1.2.9s1.2,0,1.2-.7-.7-.7-1.4-.8h-.4c-.9-.2-1.7-.5-1.7-1.6s1.3-1.5,2.2-1.5,2.1.5,2.2,1.6h-1.2c0-.6-.6-.7-1.1-.7s-1,0-1,.6.6.6,1.4.8h.4c.9.2,1.7.5,1.7,1.6s-1.3,1.7-2.4,1.7-2.4-.6-2.4-1.9h1.3Z"/>
    </g>
  </g>
</svg>