<svg width="366" height="91" viewBox="0 0 366 91" fill="none" xmlns="http://www.w3.org/2000/svg">
<path d="M56.1227 0.612915C43.766 0.612915 33.964 7.24212 29.9237 17.0147C32.2751 17.1254 34.5167 17.5293 36.5227 18.2503C38.9784 6.87393 47.7562 2.95487 54.7756 2.95487C69.9118 2.95487 75.6966 16.4021 75.6966 28.8668C75.6966 43.7488 66.6627 50.5483 57.1528 50.5483C44.7103 50.5483 38.5747 41.3328 36.5904 31.9315C36.4473 31.9713 36.3118 31.9998 36.1677 32.0409C33.7147 32.742 31.1561 33.15 28.6462 33.2557C31.2866 44.2065 41.1717 52.8898 56.1218 52.8898C71.4169 52.8898 83.6196 41.7855 83.6196 26.5248C83.6196 13.2289 74.4285 0.612915 56.1227 0.612915Z" fill="#202944"/>
<path d="M134.314 39.3667C132.577 43.7402 128.271 49.9665 118.526 49.9665C106.138 49.9665 96.0914 41.3685 96.0914 25.802C96.0914 10.4582 105.911 3.26839 117.469 3.26839C128.422 3.26839 131.822 9.04963 132.955 14.0909C133.484 14.5354 134.616 14.4613 134.995 13.9423C134.39 9.42098 134.013 4.75018 133.936 3.04567C133.257 3.11976 132.728 2.97113 131.822 2.74977C128.271 1.78525 122.531 0.970713 118.452 0.970713C110.595 0.970713 103.57 3.04567 98.0549 7.27103C92.3144 11.6446 88.5373 18.6862 88.5373 26.9142C88.5373 36.4763 93.2202 43.2221 99.2638 47.2988C104.779 50.931 111.275 52.2646 118.073 52.2646C122.908 52.2646 128.347 51.1528 130.008 50.5596C130.839 50.2637 131.746 49.9669 132.652 49.8183C133.785 48.4106 135.75 43.518 136.279 39.664C135.976 39.144 134.843 38.9963 134.314 39.3667Z" fill="#202944"/>
<path d="M179.552 40.4785C177.587 44.3334 175.548 46.927 174.188 47.6688C172.526 48.4847 170.336 48.7806 164.519 48.7806C157.872 48.7806 156.286 47.9656 155.378 47.0756C154.169 45.8152 153.943 43.2948 153.943 39.3667V28.9156C153.943 26.9879 154.169 26.9138 156.436 26.9138H160.817C163.764 26.9138 165.576 26.9879 166.634 27.2842C168.145 27.6556 168.673 28.7674 168.976 30.1019L169.656 32.9927C170.034 33.4373 171.318 33.4373 171.62 32.9182C171.62 31.2878 171.318 28.4701 171.318 25.8024C171.318 22.9861 171.62 20.0953 171.62 18.3162C171.318 17.7963 170.034 17.7963 169.656 18.2422L169.052 21.2812C168.673 23.1334 168.145 23.5789 167.239 23.8748C166.332 24.1716 163.99 24.3193 160.818 24.3193H156.436C154.17 24.3193 153.943 24.3193 153.943 22.2443V7.41921C153.943 4.60291 153.943 4.45428 156.209 4.45428H161.649C164.973 4.45428 167.39 4.52836 168.976 4.89881C172.904 5.86288 173.584 8.45692 174.717 11.9405C175.094 12.3859 176.303 12.2373 176.605 11.7928C176.303 8.531 175.85 3.19385 175.397 1.93343C174.49 2.15615 170.034 2.15615 165.199 2.15615H150.998C149.487 2.15615 148.051 2.15615 146.616 2.08206C145.181 2.08206 143.745 2.00751 142.084 1.93343C141.63 2.15615 141.479 3.49066 141.932 3.78657L143.141 3.9352C147.598 4.45382 147.749 5.56562 147.749 13.2745V39.9594C147.749 47.7424 147.372 48.8542 143.066 49.2247L140.573 49.4474C140.12 49.8919 140.271 51.0778 140.724 51.3005C145.181 51.1519 147.749 51.0778 150.998 51.0778H157.796C161.196 51.0778 164.519 51.0778 167.918 51.1519C171.242 51.1519 174.642 51.2264 178.041 51.3005C179.023 49.2988 180.911 43.5916 181.44 40.9967C181.138 40.3294 180.08 40.108 179.552 40.4785Z" fill="#202944"/>
<path d="M280.054 2.1566C277.183 2.1566 274.614 2.08251 271.14 1.93388C270.535 2.1566 270.46 3.34248 270.988 3.78702L272.272 3.93565C275.294 4.3061 276.503 4.75018 276.957 5.41744C278.391 7.64193 278.468 17.2772 278.468 20.7612V36.6245C278.468 38.1808 278.468 39.3667 278.165 39.7367H278.014C274.464 36.1786 270.687 32.1019 265.55 26.3206L258.223 18.2413C255.805 15.4981 246.816 5.71425 245.305 1.93343C244.323 2.08206 243.039 2.15615 241.831 2.15615C240.471 2.15615 236.467 2.15615 233.294 1.93343C232.69 2.23023 232.69 3.34203 233.143 3.78657L234.427 3.9352C236.241 4.15701 238.054 4.67654 239.111 5.71425C240.697 7.41876 240.773 8.97509 240.773 11.0514V32.4737C240.773 36.0318 240.849 45.0739 239.791 47.7429C239.413 48.5588 238.204 49.0774 236.467 49.2247L234.427 49.4474C233.975 49.8919 234.05 50.9305 234.578 51.3005C237.222 51.1519 239.261 51.0778 242.434 51.0778C245.229 51.0778 247.873 51.1519 251.273 51.3005C251.802 50.9301 251.877 50.0401 251.423 49.4474L249.082 49.2247C247.194 49.0774 245.758 48.6315 245.229 47.817C244.02 45.5934 243.87 35.9572 243.87 32.4732V16.314C243.87 14.0904 243.945 12.3859 244.247 11.4959H244.398C245.984 13.1264 251.121 19.2049 253.16 21.5025L270.686 41.0712C277.258 48.4097 279.448 51.0037 280.355 52.2637C281.186 52.2637 281.64 51.8933 281.791 51.4492C281.564 49.5215 281.564 40.7008 281.564 38.4776V20.7612C281.564 17.3517 281.413 8.16101 282.697 5.49198C282.999 4.89881 284.509 4.3061 286.927 3.93565L287.985 3.78702C288.438 3.34248 288.438 2.30523 287.833 1.93388C285.265 2.08251 283.302 2.1566 280.054 2.1566Z" fill="#202944"/>
<path d="M310.591 3.93565L312.48 3.78702C312.934 3.49111 312.783 2.1566 312.329 1.93388C308.552 2.08251 305.983 2.1566 302.962 2.1566C299.79 2.1566 297.221 2.08251 293.444 1.93388C292.991 2.1566 292.841 3.49111 293.293 3.78702L295.182 3.93565C299.638 4.3061 299.79 5.56607 299.79 13.4236V39.8112C299.79 47.6688 299.639 48.706 295.182 49.2251L293.293 49.4478C292.841 49.8924 292.991 51.0783 293.444 51.301C297.221 51.1524 299.79 51.0783 302.962 51.0783C305.983 51.0783 308.552 51.1524 312.329 51.301C312.783 51.0783 312.934 49.7447 312.48 49.4478L310.591 49.2251C306.135 48.7065 305.983 47.6688 305.983 39.8112V13.4236C305.983 5.56607 306.135 4.3061 310.591 3.93565Z" fill="#202944"/>
<path d="M229.578 49.2251C226.331 48.8547 225.348 47.7433 223.157 41.3689L212.808 11.5705C211.675 8.30874 210.467 4.89926 209.484 1.63797C209.334 1.11934 208.805 0.970713 208.352 0.970713C207.521 1.93388 206.237 3.26839 204.424 3.78702C204.65 4.9729 204.198 6.38196 203.139 9.04963L195.434 29.0628C192.262 37.3649 190.146 42.183 188.787 45.5934C187.729 48.2615 186.067 49.0769 184.254 49.2247L181.761 49.4474C181.309 49.8178 181.459 51.0037 181.912 51.3005C183.952 51.2264 186.672 51.0778 189.165 51.0778C192.715 51.1519 195.057 51.1519 197.02 51.3005C197.7 51.0037 197.7 49.8174 197.171 49.4474L194.678 49.2247C192.866 49.0774 192.488 48.6315 192.488 47.7429C192.488 46.927 193.017 44.9266 194.149 41.5903L196.794 33.8073C197.323 32.2509 197.775 32.0282 199.664 32.0282H211.071C213.337 32.0282 213.639 32.2509 214.168 33.8814L217.492 43.9621C218.096 45.7411 218.474 47.0756 218.474 47.8915C218.474 48.632 217.416 49.0774 215.83 49.2251L213.639 49.4478C213.111 49.8183 213.186 51.0042 213.79 51.301C215.981 51.2269 218.851 51.0783 222.477 51.0783C225.877 51.0783 228.52 51.1524 231.617 51.301C231.995 51.0042 232.146 49.8178 231.617 49.4478L229.578 49.2251ZM210.089 29.0633H200.798C198.683 29.0633 198.608 28.9901 199.212 27.2842L203.971 14.3868C204.801 12.1632 205.557 10.3841 205.784 10.0142H205.934C206.387 10.9032 207.067 12.905 207.672 14.684L211.751 26.7656C212.431 28.7674 212.28 29.0633 210.089 29.0633Z" fill="#202944"/>
<path d="M365.657 49.4478L363.618 49.2251C360.37 48.8547 359.388 47.7433 357.197 41.3689L346.848 11.5705C345.715 8.30874 344.506 4.89926 343.524 1.63797C343.374 1.11934 342.845 0.970713 342.391 0.970713C341.561 1.93388 340.277 3.26839 338.464 3.78702C338.69 4.9729 338.237 6.38196 337.179 9.04963L329.474 29.0628C326.302 37.3649 324.186 42.183 322.827 45.5934C321.769 48.2615 320.107 49.0769 318.294 49.2247L315.801 49.4474C315.348 49.8178 315.499 51.0037 315.953 51.3005C317.992 51.2264 320.712 51.0778 323.205 51.0778C326.755 51.1519 329.097 51.1519 331.06 51.3005C331.74 51.0037 331.74 49.8174 331.212 49.4474L328.718 49.2247C326.906 49.0774 326.528 48.6315 326.528 47.7429C326.528 46.927 327.057 44.9266 328.19 41.5903L330.834 33.8073C331.363 32.2509 331.815 32.0282 333.704 32.0282H345.111C347.377 32.0282 347.68 32.2509 348.208 33.8814L351.532 43.9621C352.136 45.7411 352.514 47.0756 352.514 47.8915C352.514 48.632 351.457 49.0774 349.87 49.2251L347.679 49.4478C347.151 49.8183 347.226 51.0042 347.83 51.301C350.021 51.2269 352.891 51.0783 356.517 51.0783C359.917 51.0783 362.56 51.1524 365.657 51.301C366.036 51.0042 366.186 49.8178 365.657 49.4478ZM344.129 29.0633H334.837C332.723 29.0633 332.647 28.9901 333.251 27.2842L338.011 14.3868C338.841 12.1632 339.597 10.3841 339.823 10.0142H339.974C340.427 10.9032 341.108 12.905 341.711 14.684L345.791 26.7656C346.471 28.7674 346.319 29.0633 344.129 29.0633Z" fill="#202944"/>
<path d="M36.4594 22.505C36.2824 22.4951 36.1149 22.4756 35.9347 22.4689L36.4594 22.505Z" fill="white"/>
<path d="M25.775 23.5251C26.6231 23.339 27.4589 23.1691 28.2695 23.0327C31.0698 22.5601 33.6375 22.3812 35.9347 22.4689C36.1149 22.4756 36.2824 22.4951 36.4594 22.505C38.4189 22.618 40.1895 22.9125 41.701 23.4131L41.7249 23.3792C40.577 22.2254 39.1635 21.3146 37.5712 20.6212C37.1246 20.4264 36.6663 20.2466 36.1926 20.0867C34.0688 19.3702 31.6903 19.0034 29.2124 18.9487C26.0328 18.8787 22.6916 19.3219 19.5129 20.2304C13.5488 21.9353 8.28203 22.4124 4.08457 21.9539C2.6115 21.793 1.26443 21.522 0.0731564 21.1411L0 21.2482C4.80529 25.914 14.0677 26.7408 22.1718 24.425C23.4096 24.0708 24.6036 23.7822 25.775 23.5251Z" fill="#007DC3"/>
<path d="M36.4594 25.3493C36.2576 25.3882 36.0571 25.4343 35.8557 25.4767C35.0677 25.6425 34.2828 25.8277 33.5093 26.0487C31.5652 26.6039 29.6988 27.0236 27.9146 27.3294C27.183 27.4546 26.4763 27.5476 25.7745 27.633C21.097 28.204 17.0942 27.9262 14.0695 26.9585L13.9964 27.0669C15.0111 28.0522 16.2335 28.8559 17.5928 29.5056C20.6279 30.9557 24.3819 31.5923 28.2826 31.4739C30.9086 31.3944 33.5964 30.9788 36.1682 30.2433C36.2057 30.2325 36.2409 30.2257 36.2779 30.2148C42.4289 28.4674 47.7869 27.9384 52.0102 28.4439C53.3563 28.6052 54.5937 28.8659 55.6973 29.2318L55.7213 29.1952C51.5202 24.9744 43.8248 23.9367 36.4594 25.3493Z" fill="#007DC3"/>
<path d="M118.991 72.256C118.386 71.4351 117.599 70.8357 116.628 70.458C115.658 70.0817 114.708 69.8919 113.78 69.8919C112.593 69.8919 111.514 70.1069 110.544 70.5393C109.573 70.973 108.737 71.5657 108.035 72.3197C107.334 73.0769 106.795 73.9614 106.417 74.9756C106.04 75.9894 105.851 77.0908 105.851 78.2785C105.851 79.5299 106.034 80.6728 106.401 81.7087C106.768 82.7451 107.291 83.636 107.971 84.3805C108.65 85.125 109.465 85.7037 110.414 86.1134C111.363 86.5232 112.431 86.7288 113.619 86.7288C114.848 86.7288 115.937 86.4848 116.887 86.0001C117.836 85.514 118.602 84.8715 119.184 84.0728L122.453 86.3714C121.439 87.6449 120.199 88.6334 118.732 89.335C117.264 90.0348 115.549 90.3872 113.586 90.3872C111.795 90.3872 110.15 90.089 108.65 89.4963C107.151 88.9031 105.862 88.071 104.783 87.003C103.704 85.935 102.863 84.6615 102.259 83.1837C101.654 81.7047 101.352 80.0706 101.352 78.2789C101.352 76.4443 101.671 74.7877 102.307 73.3086C102.943 71.8309 103.817 70.5714 104.928 69.5355C106.039 68.5009 107.35 67.7022 108.86 67.1411C110.371 66.58 112.011 66.2977 113.78 66.2977C114.513 66.2977 115.279 66.3695 116.078 66.5082C116.875 66.65 117.641 66.8651 118.375 67.1569C119.108 67.447 119.799 67.8088 120.446 68.2407C121.093 68.6726 121.643 69.1908 122.097 69.7948L118.991 72.256Z" fill="#202944"/>
<path d="M134.686 66.8801H142.648C143.727 66.8801 144.773 66.9935 145.787 67.2198C146.801 67.4462 147.701 67.8193 148.489 68.3375C149.276 68.8557 149.907 69.5347 150.382 70.3781C150.857 71.2198 151.094 72.2448 151.094 73.4533C151.094 75.1158 150.625 76.4711 149.687 77.5165C148.748 78.5637 147.47 79.2698 145.852 79.638L151.968 89.8036H147.049L141.742 80.0911H138.765V89.8036H134.686V66.8801ZM142.098 76.7553C142.681 76.7553 143.263 76.7123 143.845 76.626C144.428 76.5398 144.951 76.3776 145.415 76.1399C145.879 75.9023 146.262 75.563 146.564 75.1199C146.866 74.6785 147.017 74.1106 147.017 73.4208C147.017 72.7942 146.876 72.2828 146.596 71.8825C146.316 71.484 145.96 71.1651 145.528 70.9275C145.096 70.6898 144.606 70.529 144.056 70.4414C143.506 70.3551 142.972 70.3122 142.454 70.3122H138.765V76.7553H142.098Z" fill="#202944"/>
<path d="M183.004 81.3849C183.004 82.7669 182.766 84.0138 182.293 85.1247C181.818 86.2374 181.17 87.1811 180.351 87.9572C179.53 88.7352 178.559 89.3347 177.438 89.7552C176.316 90.1763 175.097 90.3864 173.781 90.3864C172.466 90.3864 171.245 90.1758 170.123 89.7552C169.002 89.3342 168.025 88.7352 167.195 87.9572C166.364 87.1811 165.717 86.2374 165.253 85.1247C164.788 84.0138 164.558 82.7669 164.558 81.3849V66.8806H168.635V81.2241C168.635 81.8936 168.722 82.5568 168.894 83.215C169.066 83.8733 169.352 84.4615 169.751 84.9796C170.151 85.4978 170.679 85.9184 171.338 86.2423C171.995 86.5658 172.81 86.7284 173.781 86.7284C174.753 86.7284 175.566 86.5658 176.224 86.2423C176.882 85.9189 177.41 85.4978 177.81 84.9796C178.209 84.4615 178.495 83.8733 178.667 83.215C178.84 82.5568 178.926 81.8936 178.926 81.2241V66.8806H183.004V81.3849Z" fill="#202944"/>
<path d="M197.568 66.8801H201.645V89.8027H197.568V66.8801Z" fill="#202944"/>
<path d="M228.085 71.672C227.654 71.1123 227.045 70.6424 226.258 70.2629C225.469 69.8866 224.677 69.6969 223.879 69.6969C223.404 69.6969 222.929 69.7561 222.454 69.8753C221.979 69.9932 221.549 70.178 221.16 70.4251C220.772 70.6736 220.453 70.9975 220.206 71.396C219.957 71.7976 219.833 72.276 219.833 72.8371C219.833 73.3553 219.941 73.7984 220.156 74.1648C220.371 74.533 220.669 74.8456 221.047 75.1036C221.423 75.3634 221.882 75.5897 222.422 75.7844C222.96 75.9773 223.555 76.1716 224.201 76.3663C224.934 76.6039 225.694 76.875 226.483 77.1758C227.27 77.4785 227.992 77.8774 228.652 78.373C229.31 78.8704 229.848 79.497 230.269 80.251C230.69 81.0082 230.9 81.9469 230.9 83.0678C230.9 84.2984 230.673 85.3727 230.221 86.2893C229.767 87.2073 229.163 87.9681 228.408 88.5721C227.652 89.1761 226.768 89.6306 225.755 89.9319C224.74 90.2346 223.672 90.3864 222.55 90.3864C221.062 90.3864 219.606 90.1108 218.181 89.5605C216.758 89.0089 215.592 88.1944 214.687 87.1151L217.6 84.3955C218.161 85.1734 218.909 85.7888 219.848 86.2414C220.787 86.6941 221.709 86.9204 222.616 86.9204C223.089 86.9204 223.575 86.8612 224.072 86.7433C224.568 86.6236 225.016 86.4244 225.416 86.1438C225.814 85.8633 226.137 85.5127 226.386 85.0917C226.633 84.6706 226.759 84.1479 226.759 83.5213C226.759 82.9173 226.617 82.415 226.337 82.0152C226.057 81.6167 225.679 81.2706 225.206 80.9788C224.731 80.6888 224.17 80.4353 223.521 80.2185C222.874 80.0034 222.195 79.7771 221.483 79.5395C220.792 79.3226 220.102 79.0642 219.412 78.7615C218.722 78.4602 218.101 78.06 217.551 77.5644C217.001 77.067 216.553 76.458 216.207 75.7343C215.863 75.0123 215.69 74.1097 215.69 73.0309C215.69 71.8658 215.933 70.8629 216.418 70.0199C216.904 69.1782 217.54 68.4816 218.329 67.9318C219.116 67.382 220.011 66.9723 221.014 66.7012C222.018 66.432 223.037 66.2964 224.073 66.2964C225.238 66.2964 226.419 66.502 227.617 66.9117C228.813 67.3228 229.854 67.9381 230.74 68.7577L228.085 71.672Z" fill="#202944"/>
<path d="M244.687 66.8801H259.867V70.4414H248.765V76.2692H259.284V79.7012H248.765V86.1764H260.448V89.8027H244.687V66.8801Z" fill="#202944"/>
<path d="M285.82 71.672C285.389 71.1123 284.78 70.6424 283.993 70.2629C283.204 69.8866 282.412 69.6969 281.614 69.6969C281.139 69.6969 280.664 69.7561 280.189 69.8753C279.714 69.9932 279.284 70.178 278.895 70.4251C278.506 70.6736 278.188 70.9975 277.941 71.396C277.692 71.7976 277.568 72.276 277.568 72.8371C277.568 73.3553 277.676 73.7984 277.891 74.1648C278.106 74.533 278.404 74.8456 278.781 75.1036C279.158 75.3634 279.616 75.5897 280.157 75.7844C280.695 75.9773 281.29 76.1716 281.936 76.3663C282.669 76.6039 283.429 76.875 284.218 77.1758C285.005 77.4785 285.727 77.8774 286.387 78.373C287.045 78.8704 287.583 79.497 288.004 80.251C288.425 81.0082 288.635 81.9469 288.635 83.0678C288.635 84.2984 288.408 85.3727 287.956 86.2893C287.502 87.2073 286.898 87.9681 286.143 88.5721C285.387 89.1761 284.503 89.6306 283.49 89.9319C282.475 90.2346 281.407 90.3864 280.285 90.3864C278.797 90.3864 277.341 90.1108 275.916 89.5605C274.493 89.0089 273.327 88.1944 272.422 87.1151L275.335 84.3955C275.895 85.1734 276.644 85.7888 277.583 86.2414C278.521 86.6941 279.444 86.9204 280.351 86.9204C280.824 86.9204 281.31 86.8612 281.807 86.7433C282.302 86.6236 282.75 86.4244 283.151 86.1438C283.549 85.8633 283.872 85.5127 284.121 85.0917C284.368 84.6706 284.494 84.1479 284.494 83.5213C284.494 82.9173 284.352 82.415 284.072 82.0152C283.791 81.6167 283.414 81.2706 282.941 80.9788C282.466 80.6888 281.905 80.4353 281.256 80.2185C280.609 80.0034 279.93 79.7771 279.218 79.5395C278.527 79.3226 277.837 79.0642 277.147 78.7615C276.457 78.4602 275.835 78.06 275.286 77.5644C274.736 77.067 274.288 76.458 273.942 75.7343C273.598 75.0123 273.424 74.1097 273.424 73.0309C273.424 71.8658 273.668 70.8629 274.153 70.0199C274.639 69.1782 275.275 68.4816 276.063 67.9318C276.851 67.382 277.746 66.9723 278.749 66.7012C279.752 66.432 280.772 66.2964 281.808 66.2964C282.973 66.2964 284.154 66.502 285.352 66.9117C286.548 67.3228 287.589 67.9381 288.475 68.7577L285.82 71.672Z" fill="#202944"/>
<path d="M297.97 66.5015C298.751 66.5015 299.516 66.7021 300.26 67.1037C301.005 67.5053 301.586 68.0795 302.001 68.8268C302.416 69.574 302.625 70.3533 302.625 71.1647C302.625 71.9674 302.42 72.7395 302.01 73.4809C301.601 74.2222 301.026 74.7978 300.288 75.2071C299.549 75.6168 298.776 75.8214 297.97 75.8214C297.163 75.8214 296.39 75.6168 295.651 75.2071C294.912 74.7973 294.337 74.2217 293.926 73.4809C293.514 72.74 293.308 71.9674 293.308 71.1647C293.308 70.3537 293.518 69.574 293.935 68.8268C294.353 68.0795 294.935 67.5049 295.679 67.1037C296.424 66.7026 297.188 66.5015 297.97 66.5015ZM297.97 67.2736C297.315 67.2736 296.679 67.4417 296.059 67.7769C295.439 68.1125 294.955 68.5923 294.605 69.2162C294.255 69.8401 294.08 70.4897 294.08 71.1647C294.08 71.836 294.252 72.4793 294.596 73.0946C294.94 73.7103 295.42 74.1901 296.037 74.5339C296.655 74.8777 297.299 75.0498 297.97 75.0498C298.64 75.0498 299.285 74.8782 299.902 74.5339C300.519 74.1901 300.999 73.7103 301.341 73.0946C301.683 72.4793 301.853 71.8355 301.853 71.1647C301.853 70.4893 301.679 69.8396 301.332 69.2162C300.984 68.5928 300.499 68.113 299.878 67.7769C299.256 67.4412 298.62 67.2736 297.97 67.2736ZM295.926 73.7402V68.7247H297.649C298.238 68.7247 298.663 68.7712 298.927 68.8638C299.19 68.9564 299.4 69.1182 299.557 69.3486C299.713 69.5794 299.791 69.8243 299.791 70.0836C299.791 70.4504 299.661 70.7694 299.399 71.0409C299.138 71.3124 298.791 71.4651 298.359 71.4981C298.536 71.5721 298.678 71.6607 298.785 71.7637C298.986 71.9616 299.233 72.2927 299.526 72.758L300.137 73.7402H299.149L298.705 72.9496C298.355 72.3279 298.073 71.939 297.859 71.7822C297.711 71.667 297.495 71.6092 297.211 71.6092H296.735V73.7402H295.926ZM296.735 70.9175H297.717C298.186 70.9175 298.506 70.8475 298.677 70.7075C298.848 70.5674 298.933 70.3822 298.933 70.1518C298.933 70.0036 298.892 69.8708 298.81 69.7533C298.727 69.6359 298.613 69.5487 298.467 69.4909C298.321 69.4335 298.05 69.4046 297.655 69.4046H296.735V70.9175Z" fill="#202944"/>
</svg>
