<?xml version="1.0" encoding="utf-8"?>
<svg viewBox="0 0 213 32" version="1.1" xmlns="http://www.w3.org/2000/svg">
  <title>NCL Logo White</title>
  <desc>Created with Sketch.</desc>
  <g id="NCL-Logo-White" stroke="none" stroke-width="1" fill="none" fill-rule="evenodd">
    <g>
      <g>
        <path d="M36.2557986,0.764363636 L0,0.764363636 L0,31.3490909 C0,31.3490909 3.23134812,28.3636364 7.67163481,28.0727273 C14.0223788,27.6530909 16.6474403,30.7541818 22.6732321,31.7825455 C30.0409966,33.0370909 34.854215,28.5083636 35.9802799,27.1985455 C36.2557986,26.8610909 36.210727,26.7738182 36.2427133,26.696 L36.2557986,26.5978182 C36.2572526,26.5978182 36.2557986,0.764363636 36.2557986,0.764363636 Z" id="Fill-1" fill="#217AAA"/>
        <path d="M3.43562457,25.7898182 C4.65255973,25.1505455 5.73209898,24.8254545 8.29027986,24.6778182 C14.4738225,24.3178182 16.7812014,26.6138182 22.6296143,27.5214545 C27.2283788,28.2341818 29.820727,27.2072727 31.7777099,25.9541818 C32.8158123,25.2894545 32.5402935,25.4647273 33.0840614,25.0101818 C33.5667645,24.608 33.6830785,24.3265455 33.6132901,24.0465455 C33.5922082,23.9629091 33.5013379,23.9629091 33.3268669,24.0792727 C33.188744,24.1687273 32.9234027,24.3454545 32.9234027,24.3454545 C28.3217304,27.5570909 22.287215,25.6690909 17.0181911,24.0152727 C12.1155563,22.4770909 6.09412628,23.1505455 3.36947099,25.0923636 C3.36947099,25.0923636 3.04524573,25.3010909 2.8155256,25.6516364 C2.74064846,25.7672727 2.56545051,26.2385455 2.78135836,26.1389091 C3.03143345,26.024 3.23280205,25.8821818 3.43562457,25.7898182" id="Fill-3" fill="#FFFFFE"/>
        <polyline id="Fill-4" fill="#FFFFFE" points="10.5962048 17.8 5.38243003 10.952 5.38243003 17.8 3.04379181 17.8 3.04379181 7.02690909 5.22904096 7.02690909 10.2741604 13.6589091 10.2741604 7.02690909 12.6127986 7.02690909 12.6127986 17.8 10.5962048 17.8"/>
        <path d="M19.6476143,17.984 C16.478785,17.984 14.1263345,15.5381818 14.1263345,12.4443636 L14.1263345,12.4130909 C14.1263345,9.35054545 16.4329863,6.84218182 19.7384846,6.84218182 C21.7688908,6.84218182 22.984372,7.52 23.9853993,8.504 L22.4776792,10.2443636 C21.6467611,9.48872727 20.8005768,9.02836364 19.7232184,9.02836364 C17.9101741,9.02836364 16.6023686,10.5352727 16.6023686,12.3818182 L16.6023686,12.4130909 C16.6023686,14.2596364 17.8789147,15.7985455 19.7232184,15.7985455 C20.9539659,15.7985455 21.7078259,15.3069091 22.5540102,14.5367273 L24.0624573,16.0610909 C22.9545666,17.2458182 21.7238191,17.984 19.6476143,17.984" id="Fill-5" fill="#FFFFFE"/>
        <polyline id="Fill-6" fill="#FFFFFE" points="25.6283345 17.8 25.6283345 7.02690909 27.9982321 7.02690909 27.9982321 15.6450909 33.3661229 15.6450909 33.3661229 17.8 25.6283345 17.8"/>
        <polyline id="Fill-7" points="53.9551536 16.9898182 46.0836041 6.65163636 46.0836041 16.9898182 42.5549283 16.9898182 42.5549283 0.728727273 45.8502491 0.728727273 53.4680887 10.7410909 53.4680887 0.728727273 56.9974915 0.728727273 56.9974915 16.9898182 53.9551536 16.9898182" style="fill: rgb(0, 0, 0);"/>
        <path d="M76.041,8.85963636 C76.041,6.07127273 73.9975085,3.74836364 71.1180102,3.74836364 C68.2385119,3.74836364 66.242273,6.02690909 66.242273,8.81381818 L66.242273,8.85963636 C66.242273,11.648 68.2843106,13.9701818 71.1652628,13.9701818 C74.0433072,13.9701818 76.041,11.6930909 76.041,8.90618182 L76.041,8.85963636 Z M71.1180102,17.2698182 C66.1019693,17.2698182 62.5035051,13.5287273 62.5035051,8.90618182 L62.5035051,8.85963636 C62.5035051,4.23563636 66.1484949,0.450181818 71.1652628,0.450181818 C76.1798498,0.450181818 79.779041,4.192 79.779041,8.81381818 L79.779041,8.85963636 C79.779041,13.4814545 76.1340512,17.2698182 71.1180102,17.2698182 Z" id="Fill-8" style="fill: rgb(0, 0, 0);"/>
        <path d="M94.7755495,6.28 C94.7755495,4.74690909 93.7076416,3.95709091 91.9672935,3.95709091 L88.4131741,3.95709091 L88.4131741,8.62763636 L92.034901,8.62763636 C93.77743,8.62763636 94.7755495,7.69890909 94.7755495,6.328 L94.7755495,6.28 Z M94.7057611,16.9898182 L91.222884,11.7869091 L88.4131741,11.7869091 L88.4131741,16.9898182 L84.8379727,16.9898182 L84.8379727,0.728727273 L92.268256,0.728727273 C96.1000751,0.728727273 98.3987304,2.74981818 98.3987304,6.09672727 L98.3987304,6.14181818 C98.3987304,8.76727273 96.9833345,10.416 94.9143993,11.1832727 L98.8857952,16.9898182 L94.7057611,16.9898182 Z" id="Fill-9" style="fill: rgb(0, 0, 0);"/>
        <polyline id="Fill-10" points="121.461614 17.1076364 118.350942 17.1076364 114.681962 6.46763636 111.011529 17.1076364 107.900857 17.1076364 102.351952 0.728727273 106.182317 0.728727273 109.548881 11.7403636 113.19387 0.682909091 116.259471 0.682909091 119.905188 11.7403636 123.271751 0.728727273 127.010519 0.728727273 121.461614 17.1076364" style="fill: rgb(0, 0, 0);"/>
        <polyline id="Fill-11" points="131.293782 16.9898182 131.293782 0.728727273 143.556184 0.728727273 143.556184 3.91054545 134.846447 3.91054545 134.846447 7.20872727 142.509358 7.20872727 142.509358 10.392 134.846447 10.392 134.846447 13.808 143.671044 13.808 143.671044 16.9898182 131.293782 16.9898182" style="fill: rgb(0, 0, 0);"/>
        <path d="M156.311468,17.2698182 C151.251082,17.2698182 147.767478,13.7156364 147.767478,8.90618182 L147.767478,8.85963636 C147.767478,4.23563636 151.366669,0.450181818 156.290386,0.450181818 C159.215683,0.450181818 160.98002,1.24 162.675297,2.68072727 L160.42244,5.39927273 C159.16843,4.35345455 158.053997,3.74836364 156.172618,3.74836364 C153.571546,3.74836364 151.505519,6.048 151.505519,8.81381818 L151.505519,8.85963636 C151.505519,11.8334545 153.550464,14.0152727 156.429962,14.0152727 C157.729044,14.0152727 158.890003,13.6916364 159.795799,13.0414545 L159.795799,10.7170909 L156.196608,10.7170909 L156.196608,7.62909091 L163.25614,7.62909091 L163.25614,14.6901818 C161.583399,16.1061818 159.284744,17.2698182 156.311468,17.2698182" id="Fill-12" style="fill: rgb(0, 0, 0);"/>
        <polygon id="Fill-13" points="168.83485 16.9898182 172.410051 16.9898182 172.410051 0.728727273 168.83485 0.728727273" style="fill: rgb(0, 0, 0);"/>
        <path d="M185.376154,4.91054545 L183.216348,10.1832727 L187.535959,10.1832727 L185.376154,4.91054545 Z M190.298416,16.9898182 L188.468652,13.344 L181.939802,13.344 L180.453164,16.9898182 L176.807447,16.9898182 L183.773201,0.613818182 L187.069976,0.613818182 L194.037184,16.9898182 L190.298416,16.9898182 Z" id="Fill-14" style="fill: rgb(0, 0, 0);"/>
        <polyline id="Fill-15" points="209.685051 16.9898182 201.813502 6.65163636 201.813502 16.9898182 198.284099 16.9898182 198.284099 0.728727273 201.580874 0.728727273 209.196532 10.7410909 209.196532 0.728727273 212.726662 0.728727273 212.726662 16.9898182 209.685051 16.9898182" style="fill: rgb(0, 0, 0);"/>
        <path d="M46.6055631,31.0683636 C44.2131297,31.0683636 42.4357065,29.2218182 42.4357065,26.888 L42.4357065,26.8632727 C42.4357065,24.5512727 44.1789625,22.656 46.6753515,22.656 C48.2085154,22.656 49.125942,23.1687273 49.881256,23.912 L48.7428328,25.2247273 C48.1161911,24.656 47.4779181,24.3069091 46.6637201,24.3069091 C45.2941229,24.3069091 44.3069078,25.4458182 44.3069078,26.8407273 L44.3069078,26.8632727 C44.3069078,28.2567273 45.2708601,29.4203636 46.6637201,29.4203636 C47.5942321,29.4203636 48.1619898,29.048 48.8009898,28.4676364 L49.939413,29.6167273 C49.1034061,30.5127273 48.1750751,31.0683636 46.6055631,31.0683636" id="Fill-16" style="fill: rgb(0, 0, 0);"/>
        <path d="M57.4976416,25.5738182 C57.4976416,24.8050909 56.9647782,24.4116364 56.0931502,24.4116364 L54.315727,24.4116364 L54.315727,26.7483636 L56.1273174,26.7483636 C56.9989454,26.7483636 57.4976416,26.2829091 57.4976416,25.5963636 L57.4976416,25.5738182 Z M57.4634744,30.9301818 L55.7209454,28.328 L54.315727,28.328 L54.315727,30.9301818 L52.5266724,30.9301818 L52.5266724,22.7985455 L56.2436314,22.7985455 C58.1606314,22.7985455 59.310686,23.8065455 59.310686,25.48 L59.310686,25.5025455 C59.310686,26.8167273 58.6018976,27.6421818 57.5667031,28.0254545 L59.5549454,30.9301818 L57.4634744,30.9301818 Z" id="Fill-17" style="fill: rgb(0, 0, 0);"/>
        <path d="M65.4753276,31.0581818 C63.2900785,31.0581818 61.9561024,29.8378182 61.9561024,27.4443636 L61.9561024,22.7985455 L63.7437031,22.7985455 L63.7437031,27.3978182 C63.7437031,28.7229091 64.4066928,29.408 65.4985904,29.408 C66.5904881,29.408 67.2520239,28.7454545 67.2520239,27.456 L67.2520239,22.7985455 L69.0410785,22.7985455 L69.0410785,27.3861818 C69.0410785,29.848 67.6576689,31.0581818 65.4753276,31.0581818" id="Fill-18" style="fill: rgb(0, 0, 0);"/>
        <polygon id="Fill-19" points="72.1052253 30.9309091 73.8942799 30.9309091 73.8942799 22.7985455 72.1052253 22.7985455" style="fill: rgb(0, 0, 0);"/>
        <path d="M79.9782287,31.0450909 C78.7467543,31.0450909 77.5043754,30.6167273 76.5280648,29.744 L77.5857952,28.4770909 C78.3163925,29.0821818 79.0833379,29.4661818 80.0116689,29.4661818 C80.7444471,29.4661818 81.1864403,29.176 81.1864403,28.7003636 L81.1864403,28.6763636 C81.1864403,28.2232727 80.9080137,27.9898182 79.5493208,27.6421818 C77.9107474,27.2232727 76.8530171,26.7701818 76.8530171,25.1563636 L76.8530171,25.1309091 C76.8530171,23.656 78.0386928,22.6792727 79.699802,22.6792727 C80.8840239,22.6792727 81.8945017,23.0509091 82.7196041,23.7141818 L81.7898191,25.0625455 C81.0693993,24.5621818 80.3613379,24.2596364 79.6772662,24.2596364 C78.9895597,24.2596364 78.6304403,24.5738182 78.6304403,24.9687273 L78.6304403,24.9927273 C78.6304403,25.5272727 78.9793823,25.7018182 80.3838737,26.0610909 C82.0340785,26.4916364 82.9638635,27.0836364 82.9638635,28.5025455 L82.9638635,28.5243636 C82.9638635,30.1403636 81.7316621,31.0450909 79.9782287,31.0450909" id="Fill-20" style="fill: rgb(0, 0, 0);"/>
        <polyline id="Fill-21" points="85.6783413 30.9301818 85.6783413 22.7985455 91.8109966 22.7985455 91.8109966 24.3876364 87.4550375 24.3876364 87.4550375 26.0385455 91.2883106 26.0385455 91.2883106 27.6305455 87.4550375 27.6305455 87.4550375 29.3396364 91.8691536 29.3396364 91.8691536 30.9301818 85.6783413 30.9301818" style="fill: rgb(0, 0, 0);"/>
        <polyline id="Fill-22" points="99.2638157 30.9301818 99.2638157 22.7985455 101.05287 22.7985455 101.05287 29.3025455 105.106413 29.3025455 105.106413 30.9301818 99.2638157 30.9301818" style="fill: rgb(0, 0, 0);"/>
        <polygon id="Fill-23" points="107.693672 30.9309091 109.482 30.9309091 109.482 22.7985455 107.693672 22.7985455" style="fill: rgb(0, 0, 0);"/>
        <polyline id="Fill-24" points="118.37784 30.9301818 114.440611 25.76 114.440611 30.9301818 112.675546 30.9301818 112.675546 22.7985455 114.325751 22.7985455 118.135034 27.8050909 118.135034 22.7985455 119.900099 22.7985455 119.900099 30.9301818 118.37784 30.9301818" style="fill: rgb(0, 0, 0);"/>
        <polyline id="Fill-25" points="123.009317 30.9301818 123.009317 22.7985455 129.1427 22.7985455 129.1427 24.3876364 124.786741 24.3876364 124.786741 26.0385455 128.620741 26.0385455 128.620741 27.6305455 124.786741 27.6305455 124.786741 29.3396364 129.200857 29.3396364 129.200857 30.9301818 123.009317 30.9301818" style="fill: rgb(0, 0, 0);"/>
        <path d="M133.628058,24.3003636 C133.511017,24.2334545 133.322734,24.2 133.063935,24.2 L132.666287,24.2 L132.666287,25.1621818 L133.088652,25.1621818 C133.284205,25.1621818 133.433959,25.1403636 133.535007,25.1025455 C133.714567,25.0305455 133.807618,24.8901818 133.807618,24.6865455 C133.807618,24.496 133.745826,24.3650909 133.628058,24.3003636 Z M133.126454,23.8821818 C133.454314,23.8821818 133.695666,23.9141818 133.849055,23.9774545 C134.123119,24.0930909 134.258334,24.3163636 134.258334,24.6487273 C134.258334,24.8865455 134.172553,25.0596364 134.002444,25.1709091 C133.908666,25.2305455 133.782901,25.2749091 133.617154,25.3003636 C133.827973,25.3316364 133.977,25.4218182 134.072959,25.5621818 C134.170372,25.7018182 134.215444,25.8378182 134.215444,25.9709091 L134.215444,26.1650909 C134.215444,26.2254545 134.219078,26.2916364 134.221986,26.3621818 C134.227802,26.4327273 134.234345,26.4785455 134.246703,26.4996364 L134.26415,26.5338182 L133.827973,26.5338182 C133.824338,26.5250909 133.820703,26.5149091 133.819249,26.5069091 C133.816341,26.4989091 133.814887,26.488 133.81416,26.4763636 L133.803983,26.3912727 L133.803983,26.1810909 C133.803983,25.8756364 133.719655,25.6749091 133.553181,25.5745455 C133.454314,25.5192727 133.279116,25.4894545 133.033403,25.4894545 L132.666287,25.4894545 L132.666287,26.5338182 L132.197396,26.5338182 L132.197396,23.8821818 L133.126454,23.8821818 Z M131.705969,23.7483636 C131.303232,24.1512727 131.101863,24.6421818 131.101863,25.2181818 C131.101863,25.7949091 131.301778,26.2894545 131.703061,26.6967273 C132.105799,27.1047273 132.595044,27.3098182 133.171526,27.3098182 C133.745826,27.3098182 134.253973,27.0501818 134.641444,26.6967273 C135.06599,26.3098182 135.246276,25.7949091 135.246276,25.2181818 C135.246276,24.6421818 135.044908,24.1512727 134.641444,23.7483636 C134.234345,23.3389091 133.745826,23.1352727 133.171526,23.1352727 C132.599406,23.1352727 132.11016,23.3389091 131.705969,23.7483636 Z M134.882068,26.928 C134.41027,27.4 133.840331,27.6370909 133.171526,27.6370909 C132.504901,27.6370909 131.934962,27.4 131.466799,26.928 C130.998635,26.4567273 130.766007,25.8843636 130.766007,25.2130909 C130.766007,24.5512727 131.00227,23.9825455 131.472614,23.5105455 C131.940051,23.04 132.507809,22.8058182 133.171526,22.8058182 C133.840331,22.8058182 134.41027,23.04 134.882068,23.5105455 C135.351686,23.9803636 135.588676,24.5469091 135.588676,25.2130909 C135.588676,25.8843636 135.351686,26.4530909 134.882068,26.928 Z" id="Fill-26" style="fill: rgb(0, 0, 0);"/>
      </g>
    </g>
  </g>
</svg>