<svg width="175" height="35" viewBox="0 0 175 35" fill="none" xmlns="http://www.w3.org/2000/svg">
  <path d="M41.9633 27.1367L39.32 23.5711C39.1871 23.3652 38.9976 23.203 38.7746 23.1045C38.5517 23.006 38.3051 22.9755 38.0652 23.0167V22.5967H42.3322V23.0167C41.8302 23.0167 41.5557 23.0328 41.5557 23.2463C41.5557 23.3863 41.6188 23.4605 41.8774 23.8168L43.7443 26.3366L45.6584 23.7076C45.7616 23.587 45.8342 23.4429 45.8698 23.2876C45.8698 23.058 45.501 23.0076 45.0622 23.0076V22.5876H47.6661V23.0076C46.7953 23.0076 46.6858 23.0706 45.9717 24.0765L43.9405 26.8882V29.4857C43.9405 30.0562 44.1208 30.1192 45.0227 30.1192V30.5392H40.8812V30.1192C41.7824 30.1192 41.9633 30.0555 41.9633 29.4857V27.1367Z" fill="black"/>
  <path d="M49.5148 24.4944C49.5906 24.3789 49.634 24.2449 49.6403 24.1066C49.6346 24.0308 49.6091 23.9579 49.5663 23.8953C49.5236 23.8327 49.4651 23.7827 49.397 23.7503C49.8923 23.3801 50.3401 22.9491 50.7301 22.4673C50.7925 22.4673 50.8556 22.5464 50.9887 22.7921L54.3066 29.2464C54.6754 29.9589 54.8716 30.1094 55.5614 30.1094V30.5294H51.2944V30.1094C52.118 30.1094 52.369 30.0303 52.369 29.7693C52.2777 29.3016 52.079 28.8621 51.7887 28.4862H48.2122C47.9695 28.8054 47.8103 29.1812 47.7491 29.5789C47.7491 29.8876 48.0548 30.1017 48.8237 30.1017V30.5217H45.9792V30.1017C46.7321 30.1017 47.0378 29.7455 47.5405 28.6682L49.5148 24.4944ZM49.946 24.6925L48.3848 28.0347H51.5696L49.946 24.6925Z" fill="black"/>
  <path d="M63.6351 27.7941V30.7402H63.3578C63.2191 30.3839 63.0361 30.2019 62.7616 30.2019C61.8465 30.4899 60.9016 30.6705 59.9456 30.7402C59.3959 30.7712 58.8456 30.6901 58.3275 30.5019C57.8095 30.3136 57.3343 30.0219 56.9302 29.6443C56.5262 29.2666 56.2017 28.8106 55.9759 28.3036C55.7502 27.7966 55.6278 27.2488 55.6162 26.693C55.6162 24.2383 57.3577 22.3687 60.1577 22.3687C61.0338 22.4515 61.9036 22.5918 62.7616 22.7887C62.8791 22.7851 62.9942 22.7539 63.0977 22.6975C63.2013 22.6411 63.2903 22.5611 63.3578 22.4639H63.6351V24.9508H63.3141C62.6867 23.7609 61.8 22.7887 60.365 22.7887C58.8357 22.7887 57.7611 23.945 57.7611 26.5586C57.7611 29.4018 59.0943 30.3279 60.2867 30.3279C61.5886 30.3279 62.6243 29.2353 63.3141 27.7941H63.6351Z" fill="black"/>
  <path d="M71.7454 26.6222H67.737V29.4808C67.737 30.0513 67.9172 30.1143 68.7332 30.1143V30.5343H64.7803V30.1143C65.5879 30.1143 65.7765 30.0506 65.7765 29.4808V23.6411C65.7765 23.0706 65.5962 23.0076 64.7803 23.0076V22.5876H68.7256V23.0076C67.9179 23.0076 67.7294 23.0706 67.7294 23.6411V26.0643H71.7378V23.6411C71.7378 23.0706 71.5575 23.0076 70.7416 23.0076V22.5876H74.6869V23.0076C73.8792 23.0076 73.6907 23.0706 73.6907 23.6411V29.478C73.6907 30.0485 73.8709 30.1115 74.6869 30.1115V30.5315H70.7423V30.1115C71.5499 30.1115 71.7385 30.0478 71.7385 29.478V26.6194L71.7454 26.6222Z" fill="black"/>
  <path d="M78.3028 23.3828C78.3119 23.3256 78.3074 23.267 78.2897 23.2119C78.272 23.1568 78.2416 23.1067 78.201 23.0657C78.1604 23.0247 78.1108 22.994 78.0562 22.9761C78.0016 22.9583 77.9436 22.9537 77.8869 22.9628C77.3553 23.0442 76.8516 23.2556 76.4196 23.5786C75.9876 23.9017 75.6405 24.3266 75.4085 24.8163L75.1028 24.7057L75.5735 22.3777H75.8952C76.0126 22.4427 76.1361 22.4957 76.264 22.5358C76.3982 22.5802 76.5387 22.6017 76.6799 22.5995H81.8793C82.1515 22.5926 82.4179 22.5191 82.6558 22.3854H82.9775L83.4482 24.7134L83.1424 24.824C82.9105 24.3344 82.5634 23.9094 82.1313 23.5863C81.6993 23.2633 81.1956 23.0519 80.6641 22.9705C80.6074 22.9614 80.5494 22.9659 80.4948 22.9838C80.4402 23.0017 80.3906 23.0324 80.35 23.0734C80.3094 23.1143 80.279 23.1644 80.2613 23.2196C80.2436 23.2747 80.2391 23.3333 80.2481 23.3905V29.4886C80.2481 30.059 80.4284 30.122 81.2443 30.122V30.542H77.299V30.122C78.1067 30.122 78.2952 30.0583 78.2952 29.4886V23.3828H78.3028Z" fill="black"/>
  <path d="M95.5587 27.7941V30.7402H95.2814C95.1427 30.3839 94.9597 30.2019 94.6852 30.2019C93.7701 30.4899 92.8252 30.6705 91.8692 30.7402C91.3194 30.7712 90.7692 30.6901 90.2511 30.5019C89.7331 30.3136 89.2578 30.0219 88.8538 29.6443C88.4498 29.2666 88.1253 28.8106 87.8995 28.3036C87.6737 27.7966 87.5514 27.2488 87.5398 26.693C87.5398 24.2383 89.2813 22.3687 92.0813 22.3687C92.9574 22.4515 93.8272 22.5918 94.6852 22.7887C94.8027 22.785 94.9178 22.7538 95.0213 22.6974C95.1248 22.641 95.2138 22.5611 95.2814 22.4639H95.5587V24.9508H95.2377C94.6103 23.7609 93.7236 22.7887 92.2886 22.7887C90.7593 22.7887 89.6847 23.945 89.6847 26.5586C89.6847 29.4018 91.0178 30.3279 92.2102 30.3279C93.5122 30.3279 94.5479 29.2353 95.2377 27.7941H95.5587Z" fill="black"/>
  <path d="M100.877 22.377C101.435 22.3473 101.994 22.434 102.517 22.6318C103.041 22.8295 103.518 23.1341 103.92 23.5264C104.322 23.9188 104.639 24.3905 104.852 24.9122C105.066 25.4339 105.17 25.9943 105.159 26.5586C105.159 29.3542 102.987 30.7401 100.877 30.7401C100.319 30.77 99.7606 30.6833 99.237 30.4856C98.7134 30.2879 98.2358 29.9834 97.8339 29.591C97.432 29.1986 97.1146 28.7269 96.9013 28.2052C96.688 27.6834 96.5835 27.1229 96.5943 26.5586C96.5943 23.763 98.7669 22.377 100.877 22.377ZM100.877 30.3755C102.344 30.3755 103.019 29.0455 103.019 26.5586C103.019 24.0716 102.344 22.7417 100.877 22.7417C99.4103 22.7417 98.7358 24.0716 98.7358 26.5586C98.7358 29.0455 99.4103 30.3755 100.877 30.3755Z" fill="black"/>
  <path d="M106.752 23.6411C106.752 23.0706 106.572 23.0076 105.756 23.0076V22.5876H109.701V23.0076C108.894 23.0076 108.705 23.0706 108.705 23.6411V29.5571C108.705 29.961 108.87 30.1115 109.745 30.1115C111.627 30.1115 112.333 29.8182 113.419 28.2111H113.788L113.192 30.5315H105.756V30.1115C106.563 30.1115 106.752 30.0478 106.752 29.478V23.6411Z" fill="black"/>
  <path d="M115.301 23.6411C115.301 23.0706 115.121 23.0076 114.305 23.0076V22.5876H118.25V23.0076C117.443 23.0076 117.254 23.0706 117.254 23.6411V29.5571C117.254 29.961 117.419 30.1115 118.294 30.1115C120.176 30.1115 120.882 29.8182 121.968 28.2111H122.337L121.741 30.5315H114.305V30.1115C115.113 30.1115 115.301 30.0478 115.301 29.478V23.6411Z" fill="black"/>
  <path d="M123.898 23.6411C123.898 23.0706 123.717 23.0076 122.901 23.0076V22.5876H129.843L130.619 24.7652H130.298C129.873 24.1774 129.308 23.7078 128.656 23.4003C128.003 23.0928 127.283 22.9574 126.565 23.0069C125.984 23.0069 125.843 23.0699 125.843 23.5137V26.198H126.361C127.812 26.198 128.337 25.7627 128.659 24.5881H128.981V28.1278H128.659C128.431 27.003 127.788 26.6152 126.361 26.6152H125.843V29.625C125.843 29.9498 125.981 30.1003 127.035 30.1003C127.722 30.1715 128.413 30.0272 129.015 29.6871C129.617 29.347 130.101 28.8277 130.4 28.1999H130.769L130.158 30.5203H122.901V30.1003C123.709 30.1003 123.898 30.0373 123.898 29.4668V23.6411Z" fill="black"/>
  <path d="M139.593 27.7941V30.7402H139.316C139.177 30.3839 138.994 30.2019 138.719 30.2019C137.804 30.4899 136.859 30.6705 135.903 30.7402C135.354 30.7712 134.803 30.6901 134.285 30.5019C133.767 30.3136 133.292 30.0219 132.888 29.6443C132.484 29.2666 132.159 28.8106 131.934 28.3036C131.708 27.7966 131.586 27.2488 131.574 26.693C131.574 24.2383 133.315 22.3687 136.115 22.3687C136.992 22.4515 137.861 22.5918 138.719 22.7887C138.837 22.7851 138.952 22.7539 139.056 22.6975C139.159 22.6411 139.248 22.5611 139.316 22.4639H139.593V24.9508H139.271C138.644 23.7609 137.757 22.7887 136.322 22.7887C134.793 22.7887 133.718 23.945 133.718 26.5586C133.718 29.4018 135.051 30.3279 136.244 30.3279C137.546 30.3279 138.581 29.2353 139.271 27.7941H139.593Z" fill="black"/>
  <path d="M143.828 23.3828C143.837 23.3256 143.833 23.267 143.815 23.2119C143.798 23.1568 143.767 23.1067 143.727 23.0657C143.686 23.0247 143.636 22.994 143.582 22.9761C143.527 22.9583 143.469 22.9537 143.413 22.9628C142.881 23.0442 142.377 23.2556 141.945 23.5786C141.513 23.9017 141.166 24.3266 140.934 24.8163L140.628 24.7057L141.099 22.3777H141.421C141.538 22.4427 141.662 22.4956 141.79 22.5358C141.924 22.5802 142.064 22.6017 142.206 22.5995H147.405C147.677 22.5925 147.944 22.5191 148.181 22.3854H148.503L148.974 24.7134L148.668 24.824C148.436 24.3344 148.089 23.9094 147.657 23.5863C147.225 23.2633 146.721 23.0519 146.19 22.9705C146.133 22.9614 146.075 22.9659 146.02 22.9838C145.966 23.0017 145.916 23.0324 145.876 23.0734C145.835 23.1143 145.805 23.1644 145.787 23.2196C145.769 23.2747 145.765 23.3333 145.774 23.3905V29.4886C145.774 30.059 145.954 30.122 146.77 30.122V30.542H142.825V30.122C143.632 30.122 143.821 30.0583 143.821 29.4886V23.3828H143.828Z" fill="black"/>
  <path d="M150.785 23.6411C150.785 23.0706 150.605 23.0076 149.789 23.0076V22.5876H153.734V23.0076C152.927 23.0076 152.738 23.0706 152.738 23.6411V29.478C152.738 30.0485 152.918 30.1115 153.734 30.1115V30.5315H149.789V30.1115C150.597 30.1115 150.785 30.0478 150.785 29.478V23.6411Z" fill="black"/>
  <path d="M158.818 22.377C159.376 22.3473 159.935 22.434 160.458 22.6318C160.982 22.8295 161.459 23.1341 161.861 23.5264C162.263 23.9188 162.58 24.3905 162.793 24.9122C163.007 25.4339 163.111 25.9943 163.1 26.5586C163.1 29.3542 160.928 30.7401 158.818 30.7401C156.708 30.7401 154.535 29.3465 154.535 26.5586C154.535 23.7707 156.708 22.377 158.818 22.377ZM158.818 30.3755C160.285 30.3755 160.96 29.0455 160.96 26.5586C160.96 24.0716 160.285 22.7417 158.818 22.7417C157.351 22.7417 156.677 24.0716 156.677 26.5586C156.677 29.0455 157.351 30.3755 158.818 30.3755Z" fill="black"/>
  <path d="M171.25 24.0876C171.25 23.1455 170.717 23.0027 169.995 23.0027V22.5828H172.843V23.0027C172.325 23.0027 171.803 23.1133 171.803 24.0953V30.7401H171.348L165.214 23.7314V28.9664C165.214 29.9085 165.505 30.1066 166.406 30.1066V30.5266H163.555V30.1066C164.332 30.1066 164.653 29.9561 164.653 28.3644V23.9294C164.653 23.1294 164.515 23.0027 163.579 23.0027V22.5828H166.653L171.242 27.8968V24.0876H171.25Z" fill="black"/>
  <path d="M173.399 15.5514L168.802 10.2317H165.72V10.6517C166.653 10.6517 166.795 10.7784 166.795 11.5785V16.0211C166.795 17.6128 166.473 17.771 165.686 17.771V18.1909H168.54V17.771C167.639 17.771 167.348 17.5729 167.348 16.6224V11.3727L173.497 18.3975H173.96V11.7373C173.96 10.7476 174.478 10.6363 175 10.6363V10.2163H172.145V10.6363C172.867 10.6363 173.4 10.7763 173.4 11.7212V15.5542L173.399 15.5514Z" fill="black"/>
  <path d="M160.63 10.0066C158.512 10.0066 156.339 11.4002 156.339 14.2063C156.327 14.7724 156.431 15.3349 156.644 15.8587C156.857 16.3824 157.175 16.8561 157.578 17.2502C157.981 17.6443 158.459 17.9504 158.984 18.1492C159.51 18.3481 160.07 18.4356 160.63 18.4061C162.747 18.4061 164.92 17.0125 164.92 14.2063C164.92 11.4002 162.747 10.0066 160.63 10.0066ZM160.63 18.0211C159.155 18.0211 158.48 16.6912 158.48 14.1959C158.48 11.7005 159.155 10.3706 160.63 10.3706C162.104 10.3706 162.779 11.7005 162.779 14.1959C162.779 16.6912 162.104 18.0211 160.63 18.0211Z" fill="black"/>
  <path d="M150.401 17.1267C150.401 17.6972 150.221 17.7602 149.405 17.7602V18.1802H153.357V17.7602C152.541 17.7602 152.36 17.6972 152.36 17.1267V11.0133C152.351 10.9561 152.356 10.8975 152.374 10.8424C152.391 10.7873 152.422 10.7371 152.462 10.6962C152.503 10.6552 152.552 10.6245 152.607 10.6067C152.662 10.5888 152.72 10.5842 152.776 10.5933C153.31 10.6745 153.816 10.8866 154.249 11.2111C154.683 11.5356 155.031 11.9626 155.263 12.4545L155.569 12.3439L155.09 10.0075H154.769C154.53 10.1455 154.26 10.219 153.985 10.221H148.769C148.627 10.2233 148.487 10.202 148.353 10.158C148.225 10.1178 148.101 10.0648 147.984 9.99976H147.662L147.184 12.3362L147.49 12.4468C147.723 11.9559 148.072 11.5299 148.505 11.2056C148.938 10.8813 149.443 10.6685 149.976 10.5856C150.033 10.5765 150.091 10.5811 150.146 10.5989C150.2 10.6168 150.25 10.6475 150.29 10.6885C150.331 10.7295 150.361 10.7795 150.379 10.8347C150.397 10.8898 150.401 10.9484 150.392 11.0056V17.1275L150.401 17.1267Z" fill="black"/>
  <path d="M140.902 17.1266C140.902 17.6971 140.722 17.76 139.906 17.76V18.18H147.358L147.954 15.8597H147.585C146.495 17.4696 145.789 17.76 143.907 17.76C143.036 17.76 142.867 17.6018 142.867 17.2057V11.2707C142.867 10.7003 143.047 10.6373 143.863 10.6373V10.2173H139.912V10.6373C140.728 10.6373 140.908 10.701 140.908 11.2707V17.1231L140.902 17.1266Z" fill="black"/>
  <path d="M137.89 16.9599L136.588 14.9167C136.497 14.7152 136.353 14.5424 136.172 14.4169C135.991 14.2915 135.78 14.2179 135.561 14.2042V14.1727C136.832 14.0936 137.6 13.4279 137.6 12.4382C137.6 11.4324 136.714 10.2207 134.165 10.2207H130.213V10.6407C131.029 10.6407 131.209 10.7044 131.209 11.2741V17.1265C131.209 17.697 131.029 17.7599 130.213 17.7599V18.18H134.165V17.7599C133.349 17.7599 133.168 17.6963 133.168 17.1265V14.3386C134 14.3386 134.29 14.4491 134.502 14.8453L136.345 18.1715H139.059V17.7516C138.596 17.7593 138.361 17.7116 137.89 16.9599ZM133.859 13.9662H133.166V10.6407H133.613C135.236 10.6407 135.636 11.5989 135.636 12.3115C135.65 12.5449 135.612 12.7784 135.525 12.9952C135.438 13.2119 135.305 13.4065 135.135 13.5649C134.964 13.7233 134.761 13.8415 134.54 13.911C134.319 13.9806 134.085 13.9996 133.856 13.9669L133.859 13.9662Z" fill="black"/>
  <path d="M128.023 16.8972L124.695 10.4268C124.557 10.1811 124.499 10.1021 124.437 10.1021C124.047 10.5839 123.599 11.0149 123.104 11.3851C123.173 11.4161 123.232 11.4658 123.275 11.5287C123.318 11.5915 123.343 11.6651 123.347 11.7414C123.341 11.8797 123.297 12.0136 123.222 12.1291L121.229 16.3289C120.72 17.4138 120.413 17.7701 119.668 17.7701V18.1901H122.523V17.7701C121.754 17.7701 121.448 17.5566 121.448 17.2472C121.509 16.8468 121.668 16.4682 121.911 16.1462H125.496C125.789 16.5205 125.988 16.9607 126.076 17.4292C126.076 17.6903 125.833 17.7701 125.002 17.7701V18.1901H129.276V17.7701C128.583 17.7624 128.39 17.6119 128.022 16.8987L128.023 16.8972ZM122.085 15.6695L123.646 12.3272L125.269 15.6695H122.085Z" fill="black"/>
  <path d="M118.227 15.44C117.534 16.8812 116.494 17.9822 115.191 17.9822C113.999 17.9822 112.657 17.0555 112.657 14.2024C112.657 11.5888 113.732 10.4226 115.261 10.4226C116.704 10.4226 117.59 11.397 118.218 12.5925H118.539V10.0979H118.262C118.195 10.1951 118.106 10.2751 118.002 10.3315C117.899 10.3879 117.783 10.4191 117.666 10.4226C116.808 10.2258 115.938 10.0855 115.062 10.0027C112.254 10.0027 110.505 11.8716 110.505 14.3347C110.516 14.8916 110.639 15.4403 110.865 15.9483C111.091 16.4563 111.417 16.9131 111.821 17.2915C112.226 17.6698 112.702 17.9621 113.221 18.1507C113.74 18.3394 114.292 18.4206 114.842 18.3896C115.801 18.3196 116.748 18.139 117.666 17.8513C117.943 17.8513 118.129 18.0333 118.262 18.3896H118.539V15.4358L118.227 15.44Z" fill="black"/>
  <path d="M93.9192 18.1795H100.79L101.622 15.7801H101.3C100.147 17.3242 99.4417 17.81 98.3117 17.81H96.3824L101.363 10.445V10.2288H94.6014L93.8638 12.4539H94.141C95.0423 11.25 95.9997 10.6403 97.0527 10.6403H98.8649L93.931 17.9024V18.1824L93.9192 18.1795Z" fill="black"/>
  <path d="M87.8172 17.1267C87.8172 17.6972 87.637 17.7602 86.821 17.7602V18.1802H90.7726V17.7602C89.9566 17.7602 89.7764 17.6972 89.7764 17.1267V11.0133C89.7673 10.9561 89.7719 10.8975 89.7896 10.8424C89.8073 10.7873 89.8377 10.7371 89.8783 10.6962C89.9188 10.6552 89.9685 10.6245 90.023 10.6067C90.0776 10.5888 90.1357 10.5842 90.1923 10.5933C90.726 10.6745 91.2318 10.8866 91.6653 11.2111C92.0989 11.5356 92.447 11.9626 92.679 12.4545L92.9848 12.3439L92.5064 10.0075H92.1847C91.9455 10.1445 91.6757 10.2179 91.4007 10.221H86.1846C86.0435 10.2234 85.9029 10.202 85.7687 10.158C85.6408 10.1178 85.5173 10.0648 85.3999 9.99976H85.0782L84.5999 12.3362L84.9056 12.4468C85.139 11.9559 85.4875 11.5298 85.9208 11.2055C86.3541 10.8812 86.8592 10.6684 87.3923 10.5856C87.449 10.5765 87.507 10.5811 87.5616 10.5989C87.6162 10.6168 87.6658 10.6475 87.7064 10.6885C87.747 10.7295 87.7774 10.7795 87.7951 10.8347C87.8128 10.8898 87.8173 10.9484 87.8082 11.0056V17.1275L87.8172 17.1267Z" fill="black"/>
  <path d="M80.6642 17.1266C80.6642 17.6971 80.4839 17.76 79.668 17.76V18.18H83.6195V17.76C82.8036 17.76 82.6233 17.6964 82.6233 17.1266V11.2707C82.6233 10.7003 82.8036 10.6373 83.6195 10.6373V10.2173H79.668V10.6373C80.4839 10.6373 80.6642 10.701 80.6642 11.2707V17.1231V17.1266Z" fill="black"/>
  <path d="M77.4718 16.9599L76.1698 14.9167C76.0785 14.7152 75.9347 14.5424 75.7537 14.4169C75.5728 14.2915 75.3615 14.2179 75.1424 14.2042V14.1727C76.4132 14.0936 77.182 13.4279 77.182 12.4382C77.182 11.4324 76.2953 10.2207 73.7462 10.2207H69.7947V10.6407C70.6106 10.6407 70.7909 10.7044 70.7909 11.2741V17.1265C70.7909 17.697 70.6106 17.7599 69.7947 17.7599V18.18H73.7462V17.7599C72.9303 17.7599 72.75 17.6963 72.75 17.1265V14.3386C73.5819 14.3386 73.8717 14.4491 74.0831 14.8453L75.9265 18.1715H78.6406V17.7516C78.1699 17.7593 77.9425 17.7116 77.4718 16.9599ZM73.4405 13.9662H72.7472V10.6407H73.1944C74.818 10.6407 75.218 11.5989 75.218 12.3115C75.231 12.5447 75.1926 12.778 75.1056 12.9946C75.0187 13.2111 74.8853 13.4054 74.7151 13.5637C74.5449 13.722 74.342 13.8402 74.1212 13.9099C73.9003 13.9796 73.6669 13.9991 73.4377 13.9669L73.4405 13.9662Z" fill="black"/>
  <path d="M57.2509 17.1269C57.2509 17.6974 57.0706 17.7604 56.2546 17.7604V18.1804H63.5338L64.146 15.86H63.7771C63.4777 16.4893 62.9929 17.0096 62.3891 17.3499C61.7853 17.6901 61.0921 17.8334 60.4045 17.7604C59.3459 17.7604 59.2121 17.6022 59.2121 17.2774V14.2599H59.7299C61.1573 14.2599 61.8007 14.6477 62.0281 15.7802H62.3497V12.2321H62.0357C61.714 13.4123 61.1962 13.842 59.7376 13.842H59.2121V11.1493C59.2121 10.6978 59.3507 10.6348 59.9337 10.6348C60.6546 10.5863 61.376 10.7228 62.0305 11.0316C62.6851 11.3403 63.2516 11.8114 63.6773 12.4008H63.999L63.2149 10.2148H56.2546V10.6348C57.0706 10.6348 57.2509 10.6985 57.2509 11.2683V17.129V17.1269Z" fill="black"/>
  <path d="M52.0424 17.1266C52.0424 17.6971 51.8622 17.76 51.0462 17.76V18.18H54.9977V17.76C54.1818 17.76 54.0015 17.6964 54.0015 17.1266V11.2707C54.0015 10.7003 54.1818 10.6373 54.9977 10.6373V10.2173H51.0462V10.6373C51.8622 10.6373 52.0424 10.701 52.0424 11.2707V13.7024H48.0264V11.2707C48.0264 10.7003 48.2066 10.6373 49.0226 10.6373V10.2173H45.071V10.6373C45.887 10.6373 46.0672 10.701 46.0672 11.2707V17.1231C46.0672 17.6936 45.887 17.7565 45.071 17.7565V18.1765H49.0226V17.7565C48.2066 17.7565 48.0264 17.6929 48.0264 17.1231V14.2532H52.0424V17.1231V17.1266Z" fill="black"/>
  <path d="M39.1244 17.1265C39.1244 17.697 38.9441 17.76 38.1282 17.76V18.1799H42.0797V17.76C41.2638 17.76 41.0835 17.697 41.0835 17.1265V11.013C41.0745 10.9558 41.079 10.8973 41.0967 10.8422C41.1144 10.787 41.1448 10.7369 41.1854 10.6959C41.226 10.6549 41.2756 10.6243 41.3302 10.6064C41.3848 10.5885 41.4428 10.584 41.4995 10.5931C42.0331 10.6743 42.5389 10.8864 42.9725 11.2109C43.406 11.5354 43.7541 11.9623 43.9862 12.4543L44.2919 12.3437L43.8136 10.0072H43.4933C43.254 10.1442 42.9842 10.2177 42.7092 10.2207H37.4925C37.3513 10.2231 37.2108 10.2018 37.0765 10.1577C36.9487 10.1175 36.8251 10.0645 36.7077 9.99951H36.3944L35.916 12.343L36.2217 12.4536C36.4538 11.9616 36.8019 11.5347 37.2354 11.2102C37.669 10.8857 38.1748 10.6736 38.7084 10.5924C38.7651 10.5833 38.8231 10.5878 38.8777 10.6057C38.9323 10.6236 38.9819 10.6543 39.0225 10.6952C39.0631 10.7362 39.0935 10.7863 39.1112 10.8414C39.1289 10.8966 39.1334 10.9551 39.1244 11.0124V17.1265Z" fill="black"/>
  <path d="M104.147 14.7769H106.782L107.891 13.167H105.257L104.147 14.7769Z" fill="black"/>
  <path d="M6.73549 32.2268C6.73549 32.0567 7.18471 31.6031 7.29702 31.6031C7.35317 31.6031 7.8024 32.0567 7.8024 32.2268C7.66446 32.4414 7.49391 32.6327 7.29702 32.7937C7.18471 32.7937 6.73549 32.2835 6.73549 32.2268ZM15.4511 32.2268C15.4511 32.0567 15.9003 31.6031 16.0133 31.6031C16.0694 31.6031 16.5187 32.0567 16.5187 32.2268C16.3807 32.4413 16.2102 32.6327 16.0133 32.7937C15.901 32.7937 15.4511 32.2835 15.4511 32.2268ZM11.0614 32.2268C11.0614 32.0567 11.5106 31.6031 11.6229 31.6031C11.6791 31.6031 12.1283 32.0567 12.1283 32.2268C11.9903 32.4413 11.8198 32.6327 11.6229 32.7937C11.5106 32.7937 11.0614 32.2835 11.0614 32.2268ZM6.17395 33.1367H8.36466C8.40211 33.139 8.4396 33.1332 8.47467 33.1197C8.50974 33.1063 8.54157 33.0854 8.5681 33.0587C8.59463 33.0319 8.61524 32.9997 8.62856 32.9643C8.64189 32.9289 8.64762 32.891 8.6454 32.8532V31.6024C8.64762 31.5646 8.64189 31.5267 8.62856 31.4913C8.61524 31.4559 8.59463 31.4238 8.5681 31.397C8.54157 31.3702 8.50974 31.3494 8.47467 31.3359C8.4396 31.3225 8.40211 31.3167 8.36466 31.3189C7.91543 31.3189 6.84779 31.3756 6.17395 31.4323C6.14382 31.4298 6.11349 31.4339 6.08509 31.4444C6.0567 31.4549 6.03091 31.4715 6.00952 31.4931C5.98814 31.5147 5.97168 31.5407 5.96129 31.5694C5.95089 31.5981 5.94683 31.6287 5.94936 31.6591V32.9071C5.94683 32.9375 5.95089 32.9682 5.96129 32.9968C5.97168 33.0255 5.98814 33.0515 6.00952 33.0731C6.03091 33.0947 6.0567 33.1114 6.08509 33.1218C6.11349 33.1323 6.14382 33.1365 6.17395 33.1339V33.1367ZM4.71606 32.3381C4.71606 32.2247 5.05295 31.8845 5.10911 31.8845C5.16526 31.8845 5.50219 32.2247 5.50219 32.3381C5.50924 32.3944 5.50431 32.4517 5.48776 32.506C5.47121 32.5602 5.4434 32.6104 5.40619 32.653C5.36897 32.6956 5.32321 32.7297 5.27193 32.7531C5.22064 32.7765 5.16503 32.7886 5.10877 32.7886C5.0525 32.7886 4.99689 32.7765 4.94561 32.7531C4.89433 32.7297 4.84856 32.6956 4.81135 32.653C4.77414 32.6104 4.74632 32.5602 4.72977 32.506C4.71322 32.4517 4.7083 32.3944 4.71534 32.3381H4.71606ZM9.04196 32.2247C9.04196 32.1113 9.37885 31.7711 9.435 31.7711C9.49116 31.7711 9.82809 32.1113 9.82809 32.2247C9.83513 32.281 9.83021 32.3383 9.81366 32.3926C9.79711 32.4469 9.76934 32.497 9.73212 32.5396C9.69491 32.5822 9.64915 32.6163 9.59787 32.6397C9.54658 32.6631 9.49093 32.6752 9.43466 32.6752C9.3784 32.6752 9.32279 32.6631 9.27151 32.6397C9.22022 32.6163 9.17446 32.5822 9.13725 32.5396C9.10003 32.497 9.07222 32.4469 9.05567 32.3926C9.03912 32.3383 9.03419 32.281 9.04124 32.2247H9.04196ZM12.6933 33.1892C12.7308 33.1914 12.7682 33.1857 12.8033 33.1722C12.8384 33.1587 12.8703 33.1379 12.8968 33.1112C12.9233 33.0844 12.9439 33.0522 12.9573 33.0168C12.9706 32.9814 12.9763 32.9435 12.9741 32.9057V31.5457C12.9763 31.5079 12.9706 31.47 12.9573 31.4346C12.9439 31.3992 12.9233 31.3671 12.8968 31.3403C12.8703 31.3135 12.8384 31.2927 12.8033 31.2792C12.7682 31.2658 12.7308 31.26 12.6933 31.2622H10.5588C10.5213 31.26 10.4838 31.2658 10.4488 31.2792C10.4137 31.2927 10.3818 31.3135 10.3553 31.3403C10.3288 31.3671 10.3082 31.3992 10.2949 31.4346C10.2816 31.47 10.2758 31.5079 10.278 31.5457V32.9071C10.2758 32.9449 10.2816 32.9828 10.2949 33.0182C10.3082 33.0536 10.3288 33.0858 10.3553 33.1126C10.3818 33.1393 10.4137 33.1601 10.4488 33.1736C10.4838 33.1871 10.5213 33.1929 10.5588 33.1906L12.6933 33.1892ZM17.083 33.1325C17.1131 33.1351 17.1435 33.1309 17.1719 33.1204C17.2003 33.11 17.2261 33.0933 17.2474 33.0717C17.2688 33.0502 17.2853 33.0241 17.2957 32.9954C17.3061 32.9668 17.3101 32.9361 17.3076 32.9057V31.6591C17.3101 31.6287 17.3061 31.5981 17.2957 31.5694C17.2853 31.5407 17.2688 31.5147 17.2474 31.4931C17.2261 31.4715 17.2003 31.4549 17.1719 31.4444C17.1435 31.4339 17.1131 31.4298 17.083 31.4323C16.4092 31.3756 15.3415 31.3189 14.8923 31.3189C14.8549 31.3167 14.8174 31.3225 14.7823 31.3359C14.7472 31.3494 14.7154 31.3702 14.6889 31.397C14.6623 31.4238 14.6417 31.4559 14.6284 31.4913C14.6151 31.5267 14.6093 31.5646 14.6116 31.6024V32.8504C14.6093 32.8882 14.6151 32.9261 14.6284 32.9615C14.6417 32.9969 14.6623 33.0291 14.6889 33.0559C14.7154 33.0826 14.7472 33.1035 14.7823 33.1169C14.8174 33.1304 14.8549 33.1362 14.8923 33.1339L17.083 33.1325ZM18.5437 32.3381C18.5507 32.3944 18.5458 32.4517 18.5293 32.506C18.5127 32.5602 18.4849 32.6104 18.4477 32.653C18.4105 32.6956 18.3647 32.7297 18.3134 32.7531C18.2621 32.7765 18.2065 32.7886 18.1503 32.7886C18.094 32.7886 18.0384 32.7765 17.9871 32.7531C17.9358 32.7297 17.8901 32.6956 17.8528 32.653C17.8156 32.6104 17.7878 32.5602 17.7713 32.506C17.7547 32.4517 17.7498 32.3944 17.7568 32.3381C17.7568 32.2247 18.0938 31.8845 18.1499 31.8845C18.2061 31.8845 18.543 32.2247 18.543 32.3381H18.5437ZM14.2178 32.2247C14.2248 32.281 14.2199 32.3383 14.2034 32.3926C14.1868 32.4469 14.159 32.497 14.1218 32.5396C14.0846 32.5822 14.0388 32.6163 13.9875 32.6397C13.9362 32.6631 13.8806 32.6752 13.8244 32.6752C13.7681 32.6752 13.7125 32.6631 13.6612 32.6397C13.6099 32.6163 13.5641 32.5822 13.5269 32.5396C13.4897 32.497 13.4619 32.4469 13.4454 32.3926C13.4288 32.3383 13.4239 32.281 13.4309 32.2247C13.4309 32.1113 13.7679 31.7711 13.824 31.7711C13.8802 31.7711 14.2171 32.1113 14.2171 32.2247H14.2178ZM8.47696 5.89085H8.5331C8.81387 6.96878 10.05 7.08077 10.3307 8.3302L10.2746 8.3869C9.65689 7.47695 8.81388 7.36566 8.47696 6.91209C8.30849 6.6853 8.30849 6.40181 8.47696 5.89085ZM10.5567 20.4199C10.5567 22.1782 9.09604 22.9726 7.5792 22.9726C9.54527 20.8174 8.02841 17.6977 9.93624 15.6553C9.76778 17.4703 10.5539 19.1718 10.5539 20.4199H10.5567ZM19.8907 25.2412C21.9704 25.2412 23.0367 24.1632 23.0367 22.5183C23.0398 22.1891 22.9827 21.8621 22.8682 21.5538C22.4009 21.9171 21.8288 22.1162 21.2391 22.1208C20.9862 22.1373 20.7327 22.1011 20.4944 22.0144C20.256 21.9277 20.0378 21.7924 19.8535 21.6169C19.6692 21.4413 19.5227 21.2294 19.423 20.9942C19.3234 20.759 19.2728 20.5056 19.2744 20.2498C19.2744 18.4915 21.1281 17.5836 21.1281 15.5986C21.1534 15.3148 21.0734 15.0316 20.9035 14.8041C21.5983 13.9338 21.9928 12.8584 22.0273 11.7411C22.032 10.8024 21.7366 9.88724 21.185 9.13165L22.0862 9.58522C21.8469 8.65959 21.4266 7.79165 20.8501 7.03248C20.8501 7.03248 21.2994 7.25926 21.5247 7.14587C21.0747 6.91908 20.4009 6.06794 20.4009 4.53643C20.4009 3.00492 20.064 2.15657 17.1426 1.6435C16.7704 0.982029 16.2485 0.418855 15.6195 0C14.9235 0.294099 14.2479 0.635287 13.5973 1.02124C13.5973 1.02124 12.7543 1.07794 12.4188 1.07794C12.0413 1.04283 11.6661 0.986039 11.295 0.907845C11.0699 0.931477 10.8525 1.00464 10.6584 1.12218C10.4642 1.23973 10.298 1.3988 10.1712 1.5882C9.30432 1.62245 8.4408 1.71717 7.58682 1.87169C7.02528 1.98508 6.68558 2.43865 6.29459 3.4032L3.54099 4.9347C3.03561 5.21819 2.69867 5.38828 2.69867 5.84465C2.77163 6.25923 2.94527 6.64908 3.20406 6.97928C3.48482 8.68088 3.76558 8.96436 4.15935 8.96436C4.27306 8.95526 4.3858 8.93629 4.49629 8.90767C4.6782 9.13182 4.82932 9.37974 4.94553 9.64472C4.4963 9.87151 3.93405 9.36124 3.2602 9.36124C3.13399 9.35094 3.00702 9.36659 2.88696 9.40725C2.76691 9.4479 2.65625 9.51272 2.5617 9.59777C2.46716 9.68283 2.39069 9.78636 2.3369 9.9021C2.2831 10.0178 2.25313 10.1434 2.24876 10.2712C2.24876 10.498 2.36105 10.5547 2.47335 10.5547C2.64182 10.5547 2.8103 10.498 3.20338 10.498C3.70876 10.498 4.10459 10.9515 4.88866 10.9515C5.16942 10.9515 5.33788 10.8948 5.45019 10.9515C5.05712 11.235 4.8325 11.4051 4.94481 11.8027C5.11327 12.5397 5.78781 13.3909 6.12335 13.3909C6.39132 13.3655 6.65541 13.3084 6.9102 13.2208L6.57326 13.5043C4.32573 15.4327 4.83183 17.5885 4.83183 19.7437C4.83183 21.3886 4.38259 22.4099 3.09036 22.4099C2.51507 22.3632 1.95645 22.1922 1.45239 21.9084C0.948331 21.6246 0.510645 21.2346 0.168997 20.765C0.0504596 21.1893 -0.00627533 21.6288 0.000549964 22.0697C0.000549964 24.0548 1.79814 25.3595 3.59575 25.3595C4.99185 25.3962 6.35226 24.9114 7.41626 23.9981C10.6184 23.9414 11.6299 21.7862 11.6299 21.7862C13.1467 23.9981 15.9558 23.828 16.405 23.828C17.3375 24.7425 18.5879 25.2516 19.8879 25.2461L19.8907 25.2412ZM20.1153 13.2159C20.1153 15.5958 17.0816 15.882 17.0816 18.2073C17.0816 19.1173 17.3624 19.7388 17.1939 20.3072C17.5092 19.9703 17.7405 19.5624 17.8685 19.1173C17.8685 20.8755 18.7697 22.9173 21.0706 22.9173C21.5242 22.9262 21.9713 22.8085 22.3628 22.5771C22.3152 23.0573 22.0822 23.4992 21.7142 23.807C21.3462 24.1149 20.8728 24.264 20.3967 24.222C18.0397 24.222 15.9024 22.237 15.9024 18.5524C15.869 17.8365 16.0448 17.1265 16.4078 16.5106C16.4078 16.5106 15.284 17.1343 15.1717 19.1201C14.8904 18.6586 14.7354 18.1302 14.7225 17.5885C14.7225 14.7523 18.1492 15.7736 20.116 13.2208L20.1153 13.2159ZM17.4719 2.48765C19.5517 2.94122 19.2695 4.30264 19.6626 5.26718C19.0669 4.54087 18.3657 3.90983 17.5828 3.3955C17.6498 3.08815 17.6101 2.7669 17.4705 2.48555L17.4719 2.48765ZM4.87964 8.15731C5.04435 8.1041 5.21351 8.06615 5.38503 8.04392C5.49129 8.35409 5.51072 8.68785 5.44118 9.00846C5.34182 9.0061 5.24453 8.9796 5.15747 8.93119C5.07041 8.88279 4.99618 8.81392 4.94108 8.73041C4.88599 8.64689 4.85162 8.5512 4.84093 8.45144C4.83024 8.35168 4.84352 8.25079 4.87964 8.15731ZM6.05818 9.86731C5.83357 10.2075 5.66512 10.6618 4.99059 10.6618C4.31605 10.6618 3.7545 10.1515 3.30527 10.1515C3.08065 10.1515 2.96834 10.2082 2.85603 10.2082C2.74373 10.2082 2.68758 10.1515 2.68758 10.0948C2.68758 9.9247 2.9122 9.75461 3.24912 9.75461C3.63134 9.81504 4.00745 9.90992 4.37291 10.0381C5.1029 10.2649 5.55143 9.64122 5.83359 9.41443C6.07943 9.18814 6.40223 9.06629 6.73481 9.07425C7.07345 9.07516 7.40483 9.1735 7.69011 9.35774C7.20723 9.45249 6.74847 9.64539 6.34172 9.9247C6.17326 9.86801 6.11713 9.81131 6.06098 9.86801L6.05818 9.86731ZM6.67587 10.6044C6.60392 10.6807 6.51653 10.7405 6.41962 10.7796C6.32271 10.8188 6.21858 10.8363 6.11433 10.8311C6.05222 10.6087 6.05222 10.3732 6.11433 10.1508C6.33895 10.1508 6.67587 10.3209 6.67587 10.6044ZM3.08067 23.0832C5.72127 23.0832 5.6651 20.0202 5.6651 18.999C5.6651 14.4044 7.0135 13.2698 10.1595 11.795C12.5165 10.6604 14.6538 10.2068 14.6538 7.93752C14.6538 7.14307 14.4292 6.29262 13.5301 6.29262C13.7496 6.54365 13.8696 6.86769 13.867 7.20257C13.8588 7.45697 13.8016 7.70731 13.6985 7.93962C13.7026 7.67616 13.624 7.41815 13.4739 7.20257C13.1932 7.65614 13.2493 8.3372 13.0808 8.62068C13.0808 8.62068 12.9685 8.90416 12.1796 9.30104C12.1796 9.30104 12.0673 9.41443 12.4604 9.41443C12.4604 9.41443 13.4157 9.41443 13.7526 9.01756C13.4718 9.81201 13.1349 10.0955 12.6289 10.0955C12.3481 10.0955 11.8988 10.0388 11.5051 10.0388C10.8312 10.0388 9.25824 10.379 8.63986 11.4569C8.10108 12.1789 7.32389 12.682 6.4492 12.875C6.05612 12.875 5.49386 11.9651 5.49386 11.5703C5.49386 11.1167 6.2807 11.4002 6.89839 10.7759C7.90985 9.75461 8.30295 9.52783 9.37056 9.52783C9.37056 9.52783 9.98825 9.52783 9.42671 8.96086L7.68524 7.31596C7.61169 7.21867 7.5187 7.1381 7.41228 7.07949C7.30586 7.02088 7.18839 6.98555 7.06756 6.97578C6.95525 6.97578 6.73063 7.03248 6.22456 7.48605C5.63591 7.50571 5.05951 7.66084 4.53928 7.93962C4.37082 8.05302 4.2585 8.16641 4.14619 8.16641C3.97773 8.16641 3.75311 7.25646 3.75311 7.08847C3.75311 6.6349 4.25849 6.35142 4.25849 6.06723C4.25585 6.01738 4.23864 5.96943 4.20903 5.92944C4.17942 5.88945 4.13873 5.85921 4.09212 5.84255L3.36214 6.18273C3.36214 6.18273 2.96906 5.72916 3.41829 5.50237C3.41829 5.50237 4.54206 4.87871 6.67659 3.85747C6.78889 4.48113 6.95732 4.59452 7.46339 4.53783L7.2388 4.59452L7.1265 4.76461C7.41248 4.80201 7.70318 4.7629 7.9695 4.65122C8.25027 4.53783 8.58718 4.53783 8.64333 4.48113C8.69948 4.42443 8.86793 4.25434 8.86793 4.19765C8.6406 4.21667 8.41524 4.2546 8.19409 4.31104C8.53102 4.08425 8.69948 3.91417 8.69948 3.80077C8.69357 3.75778 8.67384 3.71794 8.64333 3.68738C8.47487 3.68738 8.36255 3.80077 8.19409 3.74408C8.12864 3.7146 8.0728 3.667 8.03305 3.60679C7.9933 3.54658 7.97127 3.47623 7.9695 3.4039C7.9695 3.2905 8.08181 3.17711 8.47488 3.17711H8.75563C8.75563 2.95032 8.19411 2.83693 7.9695 2.83693C7.61631 2.85829 7.27157 2.95491 6.95801 3.12041C6.98858 2.96896 7.05592 2.82754 7.15392 2.7088C7.25192 2.59006 7.37752 2.49772 7.51954 2.44005C8.55503 2.23141 9.60983 2.13636 10.6655 2.15657C12.6878 2.15657 14.2046 3.91486 14.4854 3.91486C14.5977 3.91486 14.71 3.80147 14.5415 3.68808C13.8115 3.17781 13.363 2.77813 13.363 2.26996C13.363 2.09987 13.363 1.02194 15.6667 0.625062C16.6781 1.47621 17.0151 2.09987 17.0151 2.66684C17.0151 3.63138 15.9474 3.74478 15.8365 4.14165C18.4771 4.31174 20.4432 7.82833 20.4432 9.58732C20.4432 12.7637 17.4657 14.0671 15.6119 14.4653C18.3087 12.4236 19.3195 10.3811 19.3195 8.96296C19.3195 6.637 17.2397 5.27628 16.735 4.9921C17.6719 5.98653 18.1948 7.30628 18.1957 8.67878C18.2136 9.23149 18.1123 9.78153 17.8989 10.2908C17.6855 10.8001 17.3649 11.2565 16.9596 11.6284C17.1462 11.2602 17.2425 10.8521 17.2404 10.4385C17.2403 10.2668 17.2214 10.0957 17.1842 9.9282C16.1166 12.481 13.6451 14.2392 13.4767 16.3944C13.324 15.9181 13.2482 15.4202 13.2521 14.9196C13.2567 13.8307 13.6565 12.7813 14.3758 11.97C12.1845 13.5015 11.6791 15.2598 11.6791 16.6212C11.6827 17.4475 11.8749 18.2618 12.2406 19.0011C12.1489 18.3219 12.1679 17.6322 12.2968 16.9593C12.4227 18.1712 12.8355 19.3347 13.5005 20.3516C14.1654 21.3685 15.063 22.2089 16.1173 22.8018C11.5106 22.8018 9.6007 17.2428 11.5106 13.7262C8.30848 14.5773 7.91543 17.9259 7.85927 19.8522C7.67617 19.0522 7.58198 18.234 7.57848 17.4129C7.57848 13.953 10.4437 13.0451 12.5783 12.0806C15.7242 10.6625 17.0151 9.52783 17.0151 7.48605C17.0151 5.33088 14.4868 3.96946 12.633 4.36634L13.3068 5.0467C13.3941 5.12992 13.4881 5.20577 13.5876 5.27348C15.5537 6.29472 15.8352 7.42865 15.8352 8.10971C15.8352 9.9247 13.8129 10.8892 12.3522 11.5129C7.63324 13.5547 6.79028 14.4625 6.79028 17.4122C6.79028 19.5673 7.40794 22.9712 5.16111 23.2547C5.32957 23.5382 6.11641 23.6516 6.11641 23.6516C5.48377 24.1703 4.68268 24.4331 3.86887 24.3886C3.25225 24.4434 2.63583 24.2814 2.12394 23.93C1.61204 23.5786 1.23611 23.0594 1.05981 22.4603C1.65654 22.8685 2.36125 23.0858 3.08207 23.0839L3.08067 23.0832ZM15.3921 3.50889L15.5606 3.62228C15.5606 3.62228 16.5721 3.16871 16.5721 2.43235C16.5699 2.20468 16.4906 1.9846 16.3474 1.80869C16.2351 1.80869 16.2351 2.03548 16.2351 2.14887C16.2345 2.20574 16.222 2.26183 16.1984 2.31348C16.1748 2.36513 16.1407 2.41118 16.0983 2.44863C16.056 2.48608 16.0062 2.51408 15.9524 2.53082C15.8985 2.54755 15.8418 2.55264 15.7859 2.54575C15.6252 2.53582 15.4737 2.46694 15.3598 2.35208C15.2459 2.23722 15.1776 2.0843 15.1675 1.92208C15.1872 1.68765 15.2441 1.45793 15.336 1.24173C15.3362 1.23423 15.3349 1.22677 15.3321 1.2198C15.3293 1.21284 15.3252 1.20651 15.32 1.20121C15.3147 1.1959 15.3085 1.19173 15.3016 1.18895C15.2947 1.18617 15.2873 1.18484 15.2798 1.18503C14.3786 1.52521 14.3245 1.92208 14.3245 2.20627C14.3245 2.60314 14.493 3.00072 15.3921 3.51099V3.50889ZM4.5441 5.83415C4.5795 5.89531 4.62827 5.94753 4.68666 5.98682C4.74504 6.02612 4.81151 6.05147 4.88104 6.06094C5.12278 5.86119 5.2828 5.57821 5.33028 5.26648C5.04951 5.32318 4.54343 5.43657 4.54343 5.83345L4.5441 5.83415ZM22.8106 24.733L22.6422 24.6763C22.3831 25.0132 22.0508 25.2856 21.671 25.4725C21.2912 25.6594 20.874 25.7558 20.4515 25.7543L20.3954 25.8676C20.9008 26.3779 20.7884 27.5125 20.1707 27.5125C19.7777 27.5125 19.6092 27.1724 19.5531 26.8889L19.4408 26.8322C19.1872 27.0073 18.9434 27.1966 18.7107 27.3992C18.7174 27.7611 18.755 28.1217 18.8231 28.4771H18.9354C18.9881 28.3694 19.0767 28.2839 19.1856 28.2357C19.2946 28.1875 19.4169 28.1796 19.531 28.2135C19.6452 28.2473 19.7438 28.3208 19.8096 28.4208C19.8754 28.5209 19.9041 28.6412 19.8907 28.7606C19.8919 28.9122 19.8614 29.0624 19.8011 29.2012C19.7408 29.3401 19.6521 29.4645 19.5408 29.5663C19.4295 29.6681 19.2981 29.745 19.1553 29.7919C19.0125 29.8388 18.8615 29.8547 18.7121 29.8385C17.8691 29.8385 17.1392 29.4416 17.1392 28.5338C17.1399 28.2646 17.2206 28.0018 17.3707 27.7793C17.5209 27.5569 17.7336 27.385 17.9814 27.2858V27.1724C17.5778 26.8539 17.2511 26.4471 17.0261 25.9824H16.9138C16.5909 26.3797 16.1619 26.6751 15.6778 26.8336V26.947C15.839 27.0992 15.9672 27.2836 16.0542 27.4884C16.1412 27.6932 16.1851 27.9141 16.1831 28.1369C16.1831 28.874 15.5648 29.3268 14.2732 29.3268C13.3179 29.3268 12.3633 29.0434 12.3633 28.0788C12.3545 27.9771 12.3669 27.8746 12.3997 27.7781C12.4325 27.6815 12.485 27.5929 12.5538 27.5181C12.6225 27.4432 12.7061 27.3837 12.799 27.3435C12.8919 27.3032 12.9922 27.2831 13.0933 27.2844C13.2603 27.2824 13.425 27.3229 13.5724 27.4021C13.7197 27.4814 13.8449 27.5969 13.9363 27.7379H14.0486C14.2597 27.4444 14.505 27.1777 14.7793 26.9435V26.8301C14.498 26.5818 14.2521 26.2953 14.0486 25.9789H13.9363C13.8239 26.1431 13.6723 26.276 13.4955 26.3652C13.3187 26.4544 13.1224 26.497 12.9249 26.4892C12.8541 26.4964 12.7826 26.4886 12.715 26.4663C12.6473 26.444 12.5851 26.4076 12.5322 26.3596C12.4793 26.3115 12.437 26.2528 12.4079 26.1873C12.3788 26.1217 12.3637 26.0508 12.3633 25.9789C12.3633 25.4687 12.981 25.2419 13.4871 25.069V24.9556C12.6827 24.601 12.0407 23.9528 11.6895 23.1406H11.5772C11.226 23.9528 10.584 24.6011 9.77956 24.9556V25.069C10.2849 25.2391 10.9033 25.4659 10.9033 25.9789C10.9029 26.0507 10.8877 26.1217 10.8585 26.1872C10.8294 26.2527 10.7871 26.3113 10.7342 26.3593C10.6814 26.4074 10.6192 26.4437 10.5516 26.4661C10.484 26.4884 10.4126 26.4963 10.3418 26.4892C10.1443 26.497 9.94804 26.4544 9.77122 26.3652C9.5944 26.276 9.44276 26.1431 9.33036 25.9789H9.21802C9.01453 26.2953 8.76867 26.5818 8.48736 26.8301V26.9435C8.76171 27.1776 9.00701 27.4444 9.21802 27.7379H9.33036C9.42181 27.5969 9.54696 27.4814 9.6943 27.4021C9.84164 27.3229 10.0064 27.2824 10.1733 27.2844C10.2744 27.2831 10.3747 27.3032 10.4676 27.3435C10.5606 27.3837 10.6442 27.4432 10.7129 27.5181C10.7817 27.5929 10.8342 27.6815 10.867 27.7781C10.8998 27.8746 10.9122 27.9771 10.9033 28.0788C10.9033 29.0434 9.94804 29.3268 8.99343 29.3268C7.7012 29.3268 7.08351 28.8733 7.08351 28.1369C7.08158 27.9141 7.12553 27.6932 7.21252 27.4884C7.29951 27.2836 7.42767 27.0992 7.58889 26.947V26.8336C7.10475 26.675 6.67577 26.3796 6.35281 25.9824H6.24119C6.0162 26.4471 5.68954 26.854 5.28589 27.1724V27.2858C5.53388 27.3849 5.74674 27.5567 5.89701 27.7792C6.04728 28.0017 6.12806 28.2645 6.12889 28.5338C6.12889 29.4437 5.39821 29.8385 4.55591 29.8385C4.40659 29.8547 4.25558 29.8388 4.11277 29.7919C3.96996 29.745 3.83855 29.6681 3.72725 29.5663C3.61595 29.4645 3.52725 29.3401 3.46695 29.2012C3.40664 29.0624 3.37612 28.9122 3.37737 28.7606C3.36395 28.6412 3.39265 28.5209 3.45844 28.4208C3.52423 28.3208 3.62289 28.2473 3.73703 28.2135C3.85117 28.1796 3.97347 28.1875 4.08243 28.2357C4.19138 28.2839 4.27999 28.3694 4.33267 28.4771H4.44496C4.51311 28.1217 4.55072 27.7611 4.5573 27.3992C4.32438 27.1966 4.08042 27.0073 3.8266 26.8322L3.71431 26.8889C3.65815 27.1724 3.4897 27.5125 3.09662 27.5125C2.47893 27.5125 2.3666 26.3779 2.87198 25.8676L2.81584 25.7543C2.39334 25.7558 1.97613 25.6594 1.59634 25.4725C1.21654 25.2856 0.88431 25.0132 0.625172 24.6763L0.456682 24.733L2.81376 30.1787C2.81376 30.1787 2.30837 30.4055 2.42068 30.8024C2.64529 31.5968 3.3219 32.6173 3.3219 33.8654C3.3219 34.3756 3.26575 34.4323 3.26575 34.6598C3.26575 34.8873 3.43422 35 3.65883 35H19.6217C19.8463 35 20.0148 34.8866 20.0148 34.6598C20.0148 34.433 19.9586 34.3763 19.9586 33.8654C19.9586 32.6173 20.6332 31.5968 20.8599 30.8024C20.9722 30.4055 20.4668 30.1787 20.4668 30.1787L22.81 24.7309L22.8106 24.733ZM11.6229 33.7016C7.24086 33.7016 4.31951 33.6449 4.31951 33.6449L3.70182 31.265C8.95623 30.5087 14.2903 30.5087 19.5447 31.265L18.927 33.6449C18.9354 33.6449 16.0154 33.7016 11.6236 33.7016H11.6229Z" fill="black"/>
</svg>
