<svg width="21" height="21" viewBox="0 0 21 21" fill="none" xmlns="http://www.w3.org/2000/svg">
<path d="M18.375 15.75V8.75" stroke="#f5ac0a" stroke-linecap="round" stroke-linejoin="round"/>
<path d="M2.625 12.25H18.375" stroke="#f5ac0a" stroke-linecap="round" stroke-linejoin="round"/>
<path d="M18.375 8.75C18.375 8.28587 18.1906 7.84075 17.8624 7.51256C17.5342 7.18437 17.0891 7 16.625 7H9.625V12.25" stroke="#f5ac0a" stroke-linecap="round" stroke-linejoin="round"/>
<path d="M2.625 6.125V15.75" stroke="#f5ac0a" stroke-linecap="round" stroke-linejoin="round"/>
<path d="M6.125 9.625C6.35706 9.625 6.57962 9.53281 6.74372 9.36872C6.90781 9.20462 7 8.98206 7 8.75C7 8.51794 6.90781 8.29538 6.74372 8.13128C6.57962 7.96719 6.35706 7.875 6.125 7.875C5.89294 7.875 5.67038 7.96719 5.50628 8.13128C5.34219 8.29538 5.25 8.51794 5.25 8.75C5.25 8.98206 5.34219 9.20462 5.50628 9.36872C5.67038 9.53281 5.89294 9.625 6.125 9.625Z" stroke="#f5ac0a" stroke-linecap="round" stroke-linejoin="round"/>
</svg>
