<svg width="18" height="18" viewBox="0 0 18 18" fill="none" xmlns="http://www.w3.org/2000/svg">
<path d="M2.25 10.4999C2.8725 10.9821 3.80775 11.2634 4.875 11.2499C5.94225 11.2634 6.8775 10.9821 7.5 10.4999C8.1225 10.0191 9.05775 9.73788 10.125 9.74988C11.1922 9.73788 12.1275 10.0191 12.75 10.4999" stroke="#f5ac0a" stroke-linecap="round" stroke-linejoin="round"/>
<path d="M6.00003 2.25C5.76266 2.42038 5.57033 2.64598 5.43966 2.90732C5.309 3.16866 5.24391 3.45788 5.25003 3.75C5.24391 4.04212 5.309 4.33134 5.43966 4.59268C5.57033 4.85402 5.76266 5.07962 6.00003 5.25" stroke="#f5ac0a" stroke-linecap="round" stroke-linejoin="round"/>
<path d="M9.00003 2.25C8.76266 2.42038 8.57033 2.64598 8.43967 2.90732C8.309 3.16866 8.24391 3.45788 8.25003 3.75C8.24397 4.04211 8.30909 4.33131 8.43975 4.59264C8.57042 4.85397 8.76271 5.07958 9.00003 5.25" stroke="#f5ac0a" stroke-linecap="round" stroke-linejoin="round"/>
<path d="M2.25 7.5H12.75V11.25C12.75 12.4435 12.2759 13.5881 11.432 14.432C10.5881 15.2759 9.44347 15.75 8.25 15.75H6.75C5.55653 15.75 4.41193 15.2759 3.56802 14.432C2.72411 13.5881 2.25 12.4435 2.25 11.25V7.5Z" stroke="#f5ac0a" stroke-linecap="round" stroke-linejoin="round"/>
<path d="M12.5595 12.5443C12.8945 12.6981 13.262 12.7672 13.63 12.7457C13.9979 12.7241 14.3549 12.6124 14.6696 12.4206C14.9842 12.2287 15.247 11.9625 15.4346 11.6453C15.6223 11.3281 15.7292 10.9697 15.7459 10.6015C15.7626 10.2333 15.6886 9.86666 15.5304 9.53378C15.3722 9.2009 15.1347 8.91197 14.8387 8.6924C14.5427 8.47283 14.1973 8.32933 13.8328 8.27453C13.4683 8.21972 13.096 8.25529 12.7485 8.37809" stroke="#f5ac0a" stroke-linecap="round" stroke-linejoin="round"/>
</svg>
