<svg width="16" height="16" viewBox="0 0 16 16" fill="none" xmlns="http://www.w3.org/2000/svg">
<path d="M13.3102 5.68071C13.3255 5.56471 13.3335 5.44871 13.3335 5.33337C13.3335 3.74737 11.9048 2.47471 10.3195 2.69004C9.8575 1.86804 8.9775 1.33337 8.00016 1.33337C7.02283 1.33337 6.14283 1.86804 5.68083 2.69004C4.09216 2.47471 2.66683 3.74737 2.66683 5.33337C2.66683 5.44871 2.67483 5.56471 2.69016 5.68071C1.86816 6.14337 1.3335 7.02337 1.3335 8.00004C1.3335 8.97671 1.86816 9.85671 2.69016 10.3194C2.67478 10.4345 2.66699 10.5505 2.66683 10.6667C2.66683 12.2527 4.09216 13.522 5.68083 13.31C6.14283 14.132 7.02283 14.6667 8.00016 14.6667C8.9775 14.6667 9.8575 14.132 10.3195 13.31C11.9048 13.522 13.3335 12.2527 13.3335 10.6667C13.3335 10.5514 13.3255 10.4354 13.3102 10.3194C14.1322 9.85671 14.6668 8.97671 14.6668 8.00004C14.6668 7.02337 14.1322 6.14337 13.3102 5.68071Z" fill="#F5AC0A"/>
<path d="M5.64697 8.07432L7.15958 9.41179L10.3529 6.58826" stroke="white" stroke-width="1.5"/>
</svg>
