<svg width="53" height="53" viewBox="0 0 53 53" fill="none" xmlns="http://www.w3.org/2000/svg">
<circle cx="26.5" cy="26.5" r="26.5" fill="#F5AC0A"/>
<path d="M23.125 17.625H20.875C20.2783 17.625 19.706 17.8621 19.284 18.284C18.8621 18.706 18.625 19.2783 18.625 19.875V33.375C18.625 33.9717 18.8621 34.544 19.284 34.966C19.706 35.3879 20.2783 35.625 20.875 35.625H32.125C32.7217 35.625 33.294 35.3879 33.716 34.966C34.1379 34.544 34.375 33.9717 34.375 33.375V19.875C34.375 19.2783 34.1379 18.706 33.716 18.284C33.294 17.8621 32.7217 17.625 32.125 17.625H29.875" stroke="#1A365D" stroke-width="1.5" stroke-linecap="round" stroke-linejoin="round"/>
<path d="M27.625 15.375H25.375C24.7783 15.375 24.206 15.6121 23.784 16.034C23.3621 16.456 23.125 17.0283 23.125 17.625C23.125 18.2217 23.3621 18.794 23.784 19.216C24.206 19.6379 24.7783 19.875 25.375 19.875H27.625C28.2217 19.875 28.794 19.6379 29.216 19.216C29.6379 18.794 29.875 18.2217 29.875 17.625C29.875 17.0283 29.6379 16.456 29.216 16.034C28.794 15.6121 28.2217 15.375 27.625 15.375Z" stroke="#1A365D" stroke-width="1.5" stroke-linecap="round" stroke-linejoin="round"/>
<path d="M23.125 25.5H23.1363" stroke="#1A365D" stroke-width="1.5" stroke-linecap="round" stroke-linejoin="round"/>
<path d="M27.625 25.5H29.875" stroke="#1A365D" stroke-width="1.5" stroke-linecap="round" stroke-linejoin="round"/>
<path d="M23.125 30H23.1363" stroke="#1A365D" stroke-width="1.5" stroke-linecap="round" stroke-linejoin="round"/>
<path d="M27.625 30H29.875" stroke="#1A365D" stroke-width="1.5" stroke-linecap="round" stroke-linejoin="round"/>
</svg>
