<svg width="53" height="53" viewBox="0 0 53 53" fill="none" xmlns="http://www.w3.org/2000/svg">
<circle cx="26.5" cy="26.5" r="26.5" fill="#F5AC0A"/>
<path d="M35.2497 16.292H17.7497C16.9761 16.292 16.2343 16.5993 15.6873 17.1463C15.1403 17.6932 14.833 18.4351 14.833 19.2087V36.7087C14.833 37.4822 15.1403 38.2241 15.6873 38.7711C16.2343 39.318 16.9761 39.6253 17.7497 39.6253H35.2497C36.0232 39.6253 36.7651 39.318 37.3121 38.7711C37.859 38.2241 38.1663 37.4822 38.1663 36.7087V19.2087C38.1663 18.4351 37.859 17.6932 37.3121 17.1463C36.7651 16.5993 36.0232 16.292 35.2497 16.292Z" stroke="#1A365D" stroke-width="1.125" stroke-linecap="round" stroke-linejoin="round"/>
<path d="M32.333 13.375V19.2083" stroke="#1A365D" stroke-width="1.125" stroke-linecap="round" stroke-linejoin="round"/>
<path d="M20.667 13.375V19.2083" stroke="#1A365D" stroke-width="1.125" stroke-linecap="round" stroke-linejoin="round"/>
<path d="M14.833 25.042H38.1663" stroke="#1A365D" stroke-width="1.125" stroke-linecap="round" stroke-linejoin="round"/>
<path d="M25.042 30.875H26.5003" stroke="#1A365D" stroke-width="1.125" stroke-linecap="round" stroke-linejoin="round"/>
<path d="M26.5 30.875V35.25" stroke="#1A365D" stroke-width="1.125" stroke-linecap="round" stroke-linejoin="round"/>
</svg>
