<svg id="Layer_1" enable-background="new 0 0 468 468" height="512" viewBox="0 0 468 468" width="512" xmlns="http://www.w3.org/2000/svg"><g><g><path d="m195.032 254.458h78.024v24h-78.024z"/><path d="m206.735 204.368h54.617v24h-54.617z"/><path d="m218.439 154.277h31.21v24h-31.21z"/></g><g><path d="m203.771 468h-175.713c-15.442 0-28.004-12.563-28.004-28.007v-115.658c0-15.443 12.562-28.007 28.004-28.007h24.818l13.148-28.272c1.968-4.232 6.213-6.939 10.881-6.939h78.02c4.668 0 8.912 2.707 10.881 6.94l13.147 28.271h24.818c15.442 0 28.004 12.563 28.004 28.007v115.658c0 15.444-12.562 28.007-28.004 28.007zm-175.713-147.672c-2.208 0-4.004 1.798-4.004 4.007v115.658c0 2.209 1.796 4.007 4.004 4.007h175.713c2.208 0 4.004-1.798 4.004-4.007v-115.658c0-2.209-1.796-4.007-4.004-4.007h-32.472c-4.668 0-8.912-2.707-10.881-6.94l-13.147-28.271h-62.713l-13.148 28.272c-1.968 4.232-6.213 6.939-10.881 6.939z"/><path d="m175.408 250.287-22.415-8.578c2.39-6.244 4.781-12.608 7.107-18.916l22.517 8.305c-2.36 6.399-4.786 12.855-7.209 19.189z"/><path d="m251.623 35.268c-2.067-8.79-4.034-17.455-5.854-25.819-1.197-5.505-6.062-9.436-11.696-9.449-.01 0-.02 0-.03 0-5.62 0-10.49 3.902-11.712 9.392-1.872 8.443-3.809 16.869-5.942 25.813-20.305 9.276-28.171 38.572-14.612 56.855-10.458 37.91-22.379 75.858-35.502 112.89l22.622 8.016c12.289-34.68 23.554-70.152 33.56-105.656 24.428 7.949 50.929-11.5 50.494-37.284 0-15.149-8.684-28.298-21.328-34.758zm-17.679 49.77c-8.275 0-15.007-6.734-15.007-15.013 0-8.277 6.732-15.012 15.007-15.012s15.007 6.734 15.007 15.012c0 8.279-6.732 15.013-15.007 15.013z"/><path d="m399.095 466.797h-83.272c-8.602.258-14.791-9.663-10.778-17.275 5.326-10.882 8.027-22.589 8.027-34.797 0-36.974-25.059-68.672-60.939-77.083l5.477-23.367c45.541 10.052 80.131 53.716 79.461 100.45 0 9.623-1.291 19.012-3.851 28.072h46.58c-50.977-99.726-96.559-204.528-127.715-312.205l23.012-6.813c32.059 112.035 81.807 221.98 134.761 325.711 4.043 7.615-2.147 17.565-10.763 17.307z"/><g><path d="m115.915 432.598c-28.345 0-51.406-23.072-51.406-51.432s23.061-51.433 51.406-51.433 51.406 23.072 51.406 51.433c-.001 28.359-23.061 51.432-51.406 51.432zm0-78.865c-15.112 0-27.406 12.307-27.406 27.433s12.294 27.432 27.406 27.432 27.406-12.306 27.406-27.432-12.294-27.433-27.406-27.433z"/><path d="m170.358 334.21h23.847v24h-23.847z"/></g></g><g><g><path d="m380.01 216.903c-2.456 0-4.91-.752-7-2.253-3.307-2.375-80.991-58.925-80.991-125.235.001-49.304 39.473-89.415 87.991-89.415s87.99 40.111 87.99 89.415c0 68.988-77.895 123.119-81.21 125.39-2.045 1.4-4.413 2.098-6.78 2.098zm0-192.903c-35.285 0-63.991 29.345-63.991 65.415 0 43.813 46.318 85.841 64.134 100.384 17.819-14.049 63.847-54.761 63.847-100.384 0-36.07-28.706-65.415-63.99-65.415z"/><path d="m380.01 129.748c-23.195 0-42.067-19.035-42.067-42.434s18.872-42.434 42.067-42.434 42.067 19.036 42.067 42.435-18.872 42.433-42.067 42.433zm0-60.868c-9.962 0-18.067 8.27-18.067 18.435 0 10.164 8.105 18.434 18.067 18.434s18.067-8.27 18.067-18.434c0-10.166-8.105-18.435-18.067-18.435z"/></g><path d="m118.282 168.357h-65.294c-29.213 0-52.98-23.794-52.98-53.041-.472-25.013 18.827-47.916 43.316-52.144 5.101-20.752 23.886-36.221 46.122-36.221 28.498-.226 51.116 25.81 47.057 54.009 16.428 7.118 27.323 23.302 27.323 41.803 0 25.14-20.431 45.594-45.544 45.594zm-65.355-82.084c-15.465-.257-29.297 13.449-28.919 29.042 0 16.014 13.001 29.042 28.98 29.042h65.293c11.88 0 21.545-9.688 21.545-21.595.158-11.899-9.361-20.593-20.726-21.972-7.196-1.477-11.42-10.003-8.238-16.623 7.147-15.05-4.728-33.574-21.417-33.217-12.877 0-23.413 10.5-23.487 23.405.106 6.843-6.255 12.565-13.031 11.918z"/></g></g></svg>