<?xml version="1.0" encoding="iso-8859-1"?>
<!-- Uploaded to: SVG Repo, www.svgrepo.com, Generator: SVG Repo Mixer Tools -->
<!DOCTYPE svg PUBLIC "-//W3C//DTD SVG 1.1//EN" "http://www.w3.org/Graphics/SVG/1.1/DTD/svg11.dtd">
<svg fill="#000000" version="1.1" id="Capa_1" xmlns="http://www.w3.org/2000/svg" xmlns:xlink="http://www.w3.org/1999/xlink" 
	 width="800px" height="800px" viewBox="0 0 60.207 60.206"
	 xml:space="preserve">
<g>
	<path d="M51.751,23.435V5.474h-7.106v25.975h-4.083V19.958H30.103v-7.862h-9.197v18.442h-2.282v-5.742H7.902v-7.862H0v7.862v5.742
		v24.195h16.371h2.253h2.282h7.561h1.636h5.268h5.191h19.645V38.826v-7.377v-8.015H51.751z M4.843,26.899H2.239v-6.183h2.604V26.899
		z M11.093,38.92H8.489V28.439h2.604V38.92z M15.39,34.623h-2.604v-6.184h2.604V34.623z M25.155,29.991h-2.604v-6.183h2.604V29.991z
		 M25.155,21.104h-2.604V14.92h2.604V21.104z M29.583,38.632h-2.604V32.45h2.604V38.632z M34.4,29.991h-2.604v-6.183H34.4V29.991z
		 M49.113,35.54h-2.604v-6.184h2.604V35.54z M49.113,24.195h-2.604v-6.183h2.604V24.195z M49.113,13.885h-2.604V7.703h2.604V13.885z
		 M54.582,40.779h-2.604V30.3h2.604V40.779z"/>
</g>
</svg>