<?xml version="1.0" encoding="utf-8"?>
<!-- Generator: Adobe Illustrator 27.5.0, SVG Export Plug-In . SVG Version: 6.00 Build 0)  -->
<svg version="1.1" xmlns="http://www.w3.org/2000/svg" xmlns:xlink="http://www.w3.org/1999/xlink" x="0px" y="0px"
	 viewBox="0 0 750 500" style="enable-background:new 0 0 750 500;" xml:space="preserve">
<g id="BACKGROUND">
	<rect style="fill:#EDF0F7;" width="750" height="500"/>
</g>
<g id="OBJECTS">
	<g>
		<g>
			<path style="fill:#373D52;" d="M627.817,268.051l-1.708-0.014l-5.344-0.068l-14.707-17.809l-4.551,0.369l-13.832-8.706
				l-7.394,0.328l-18.93-17.7l3.157-7.586l-9.636-11.208l-9.294-1.394l-0.67-3.239l-4.633-1.449l-7.873-15.923l-5.535-14.871
				l-1.708-9.13l-9.978-4.934l-1.9-2.118l-5.399-6.041l-18.233,20.119l-12.561,6.397l-13.053,17.987l7.613,14.133l24.684,19.012
				l2.077,4.688l6.547,3.649l5.741,11.85l10.278,5.481l13.094,14.283l-19.805-10.319l0.943,3.157l2.884,6.834l-6.615-5.221
				l-6.615-1.613l10.005,18.848l-16.388-15.65l-7.736-12.26l-5.125-3.964l-0.246,4.155l-23.823-26.092l-7.709-1.9l-8.611-6.588
				L437,199.452l-8.953-9.54l-5.084,0.437l-11.549-8.529l5.781,11.126l-10.757-7.449l1.927,6.356l-15.622-8.351l0.902-6.588
				l-2.501-5.864l-1.749,0.67l2.46-8.119l-2.802,2.775l-0.56-5.823l-3.909-1.353l3.13-0.957l-0.342-11.358l-13.08-9.075
				l-1.052,7.394l-3.964,5.112l1.367-11.604l2.775-4.715l-2.925-2.214l-2.98,3.458l-7.709-11.085l5.891-16.921l-2.351,1.23
				l0.314-8.884l-3.198,2.898l-4.961,9.786l-15.062,20.01l-12,8.419l-7.804,16.798v0.014l-1.134,2.447l-12.342,20.229
				l-18.014,14.474l-8.146,10.989l12.861,11.194l20.598-9.417c4.989,3.786,9.964,7.572,14.953,11.358l51.569,37.778l25.586,13.641
				l14.57-0.328l50.353,38.926l16.798,12.984l4.715-1.9l3.663,3.349l10.593,3.827l9.814,5.631l17.714-15.089l6.233-13.518
				l15.363,22.648l4.551-2.118l4.552,5.973l10.524-8.406l5.344-9.335l3.69,0.383l3.444-4.005l4.797,1.654l9.65,14.447l10.319,6.438
				l5.016,7.025l3.731-7.545l3.13,2.857l5.713,0.396l3.253,4.333l1.955,0.342l0.342-2.556l2.939,4.442l2.064-0.765l56.134-20.994
				L627.817,268.051z M516.779,209.266l2.761-7.681l2.898-4.032l3.841,0.793L516.779,209.266z M368.1,175.602l-3.923-7.189
				l-4.046-4.223l-1.831,3.021l0.847,7.804l-7.162-6.246l-4.757,10.456l-0.437-4.059l3.882-8.597l0.055-5.098l-6.123-8.802
				l1.039-7.763l5.932-11.372l8.269,8.283l0.328,4.948l4.21,5.084l0.984,8.788l4.346,7.258L368.1,175.602z M406.138,217.74
				l-10.483-5.522l-5.085-3.499l-3.964,0.82l-6.574-5.781l-4.442-1.654l-0.41-2.706l-2.009-2.747l5.754-11.208l-0.055-9.404
				l5.481-5.727l-2.87,7.408l2.091,3.472l4.264,10.634l2.843,1.135l9.308,10.306l0.642,3.745l7.681,7.996l10.265,10.415
				L406.138,217.74z M555.131,219.954l4.128-4.278l-4.128,8.898V219.954z M557.496,276.512l-2.993-1.75l-3.458-6.151l-5.522-1.039
				l1.859,5.631l-3.663-1.49l-4.961,2.583l3.868-4.756l-0.765-4.237l10.374-3.977l15.595,24.329L557.496,276.512z M591.57,300.909
				l-7.053-4.538l6.793,2.474l-9.554-9.814l13.217,7.668l8.87,10.866L591.57,300.909z"/>
		</g>
		<g>
			<path style="fill:#292F44;" d="M639.326,341.052l-46.58,17.413l-29.29,4.839l-43.573,10.169l-53.975,16.374l-52.621-11.522
				l-18.165,8.638l-11.604-11.358l-71.866,28.744l-92.491-44.967l-45.391,11.877l-17.673-8.16l-15.281,4.674l-13.723-7.927
				l-20.515,5.918l-13.641-7.176l-15.24,3.253c0,0-24.397-2.433-23.96-2.775c5.29-2.296,10.634-4.524,16.005-6.643l4.606-9.896
				l28.839-18.971l16.525-26.106l26.584-31.354l13.176,0.191l8.228-5.085l32.215-35.919l7.613,0.014l33.5-33.172l2.201,54.822
				l11.18,42.165l22.962,18.807l-4.879-35.66l-11.194-10.06l-14.584-24.725l21.951,18.821l-15.185-32.42l12.479,11.686
				l-5.823-14.338l-8.474-12.93l5.877,3.923l3.704-2.146l2.556,1.066l4.1-2.392l8.939-5.208l3.69,17.85l5.126,4.798l8.201-9.349
				l20.598-9.417c-0.219,0.492-0.287,20.762-0.287,20.762l25.737,31.45l3.267,18.739l0.041,0.246l-4.907,16.962l22.429,15.773
				l-0.806-17.632l-5.686-5.207l-9.526-17.768l13.791,12.246l-13.408-35.099l-1.394-10.073l26.502,26.652l12.711,13.176
				l24.479,17.741l-7.203-18.834l12.698-0.929l6.82,1.79l30.807,26.885l-8.064-14.105l29.031,18.602l16.798,12.984l4.715-1.9
				l3.663,3.349l10.593,3.827l9.814,5.631l17.714-15.089l6.233-13.518l15.363,22.648l4.551-2.118l4.552,5.973l10.524-8.406
				l5.344-9.335l3.69,0.383l3.444-4.005l4.797,1.654l9.65,14.447l10.319,6.438l5.016,7.025l3.731-7.545l3.13,2.857l5.713,0.396
				l3.253,4.333l1.955,0.342l0.342-2.556L639.326,341.052z"/>
		</g>
		<path style="fill:#FFFFFF;" d="M518.091,263.828l-2.884-6.834l-0.943-3.157l19.805,10.319l-13.094-14.283l-10.278-5.481
			l-5.741-11.85l-6.547-3.649l-2.077-4.688l-24.684-19.012l-7.613-14.133l-9.95-18.506l-7.203-8.283l-7.558-15.923l-18.001-13.053
			l-9.991-13.422l-8.72-13.764l-21.349-14.597l-0.383,6.028l7.517,4.51l0.656,9.021l0.875,3.718l2.569,4.005l-3.991-0.314
			l-0.97-3.636l-11.932-12.916l-4.92-1.353l-0.041-0.014l-2.105-0.588l-4.879-2.392l-0.314,8.884l2.351-1.23l-5.891,16.921
			l7.709,11.085l2.98-3.458l2.925,2.214l-2.775,4.715l-1.367,11.604l3.964-5.112l1.052-7.394l13.08,9.075l0.342,11.358l-3.13,0.957
			l3.909,1.353l0.56,5.823l2.802-2.775l-2.46,8.119l1.749-0.67l2.501,5.864l-0.902,6.588l15.622,8.351l-1.927-6.356l10.757,7.449
			l-5.781-11.126l11.549,8.529l5.084-0.437l8.953,9.54l8.228,14.092l8.611,6.588l7.709,1.9l23.823,26.092l0.246-4.155l5.125,3.964
			l7.736,12.26l16.388,15.65l-10.005-18.848l6.615,1.613L518.091,263.828z M425.655,182.49l-20.994-20.064l-4.524-10.552
			l-8.775-8.146l-5.249-10.292l8.816,6.26l-3.034-7.75l10.893,8.16l8.556,11.317l14.338,12.342L425.655,182.49z"/>
		<polygon style="fill:#FFFFFF;" points="626.109,268.038 620.765,267.969 606.058,250.16 601.507,250.529 587.675,241.823 
			580.28,242.151 561.35,224.451 564.508,216.865 554.872,205.657 545.578,204.263 544.908,201.024 540.274,199.575 
			532.402,183.652 526.866,168.781 525.158,159.651 515.18,154.717 513.28,152.599 520.265,147.91 544.224,167.1 565.574,203.17 
			573.009,203.785 588.508,227.813 599.948,237.148 607.206,243.777 		"/>
		<g>
			<polygon style="fill:#373D52;" points="392.497,120.793 388.506,120.479 387.536,116.843 375.603,103.927 370.683,102.574 
				381.262,93.512 380.879,99.54 388.397,104.05 389.053,113.071 389.927,116.789 			"/>
		</g>
		<polygon style="fill:#EDF0F7;" points="369.713,167.893 368.1,175.602 364.177,168.412 360.131,164.189 358.3,167.21 
			359.147,175.014 351.985,168.768 347.229,179.224 346.792,175.164 350.673,166.567 350.728,161.469 344.605,152.667 
			345.643,144.904 351.575,133.532 359.844,141.815 360.172,146.762 364.382,151.847 365.366,160.635 		"/>
		<polygon style="fill:#EDF0F7;" points="418.575,225.421 406.138,217.74 395.654,212.218 390.57,208.719 386.606,209.539 
			380.032,203.758 375.59,202.104 375.18,199.398 373.171,196.65 378.925,185.443 378.87,176.039 384.351,170.312 381.481,177.72 
			383.572,181.192 387.836,191.825 390.679,192.96 399.987,203.266 400.629,207.01 408.311,215.006 		"/>
		<g>
			<polygon style="fill:#373D52;" points="425.683,163.765 425.655,182.49 404.661,162.426 400.137,151.874 391.363,143.728 
				386.114,133.436 394.93,139.696 391.896,131.946 402.789,140.106 411.345,151.423 			"/>
		</g>
		<path style="fill:#FFFFFF;" d="M471.484,308.795l-50.353-38.926l-14.57,0.328l-25.586-13.641l-51.569-37.778
			c-4.989-3.786-9.964-7.572-14.953-11.358c-0.219,0.492-0.287,20.762-0.287,20.762l25.737,31.45l3.267,18.739l0.041,0.246
			l-4.907,16.962l22.429,15.773l-0.806-17.632l-5.686-5.207l-9.526-17.768l13.791,12.246l-13.408-35.099l-1.394-10.073
			l26.502,26.652l12.711,13.176l24.479,17.741l-7.203-18.834l12.698-0.929l6.82,1.79l30.807,26.885l-8.064-14.105L471.484,308.795z"
			/>
		<polygon style="fill:#FFFFFF;" points="567.829,285.656 557.496,276.512 554.503,274.762 551.045,268.612 545.523,267.573 
			547.382,273.204 543.719,271.714 538.757,274.298 542.625,269.541 541.86,265.304 552.234,261.327 		"/>
		<polygon style="fill:#FFFFFF;" points="603.844,307.565 591.57,300.909 584.517,296.371 591.31,298.845 581.756,289.032 
			594.973,296.699 		"/>
		<polygon style="fill:#FFFFFF;" points="559.259,215.676 555.131,224.574 555.131,219.954 		"/>
		<polygon style="fill:#FFFFFF;" points="526.278,198.345 516.779,209.266 519.54,201.584 522.438,197.552 		"/>
		<polygon style="fill:#FFFFFF;" points="272.493,272.261 261.299,262.202 246.715,237.476 268.666,256.297 253.481,223.877 
			265.96,235.563 260.137,221.225 251.663,208.295 257.54,212.218 261.244,210.072 263.8,211.138 267.9,208.746 241.029,192.126 
			243.23,246.948 254.41,289.114 277.372,307.921 		"/>
		<polygon style="fill:#FFFFFF;" points="320.631,157.505 319.497,159.952 307.155,180.18 289.14,194.655 280.994,205.644 
			293.856,216.838 285.655,226.187 280.529,221.389 276.839,203.539 289.837,184.581 		"/>
	</g>
</g>
</svg>
