<?xml version="1.0" standalone="no"?>
<!DOCTYPE svg PUBLIC "-//W3C//DTD SVG 20010904//EN"
 "http://www.w3.org/TR/2001/REC-SVG-20010904/DTD/svg10.dtd">
<svg version="1.0" xmlns="http://www.w3.org/2000/svg"
 width="1280.000000pt" height="778.000000pt" viewBox="0 0 1280.000000 778.000000"
 preserveAspectRatio="xMidYMid meet">
<metadata>
Created by potrace 1.15, written by Peter Selinger 2001-2017
</metadata>
<g transform="translate(0.000000,778.000000) scale(0.100000,-0.100000)"
fill="#000000" stroke="none">
<path d="M10756 7770 c-375 -59 -1237 -360 -2316 -810 -279 -116 -404 -179
-459 -230 -31 -29 -44 -54 -75 -145 -58 -178 -56 -190 99 -605 129 -345 298
-747 493 -1177 42 -91 57 -135 49 -140 -6 -4 -752 -402 -1657 -885 -905 -482
-1652 -882 -1660 -887 -13 -9 26 4 120 41 14 5 77 23 140 39 276 72 607 79
809 17 36 -11 161 -65 276 -120 351 -168 455 -204 620 -214 162 -11 300 27
742 204 381 153 497 184 688 186 200 2 342 -37 775 -209 157 -62 330 -126 385
-142 95 -27 110 -28 300 -28 151 1 219 5 278 18 138 31 267 88 363 162 l42 31
-779 1714 c-529 1166 -775 1716 -767 1721 6 4 79 33 162 64 83 32 345 131 581
222 481 184 554 209 809 283 360 103 428 143 469 275 30 97 30 271 -1 364 -38
116 -115 202 -213 236 -54 20 -194 27 -273 15z"/>
<path d="M11698 5470 c-359 -61 -650 -329 -764 -706 -26 -83 -27 -102 -28
-274 0 -173 2 -191 27 -275 59 -194 143 -332 282 -463 108 -102 208 -163 345
-208 274 -92 571 -49 820 119 63 43 198 181 243 249 273 415 223 952 -122
1294 -141 141 -284 217 -483 258 -81 17 -238 19 -320 6z"/>
<path d="M626 4479 c-78 -13 -168 -63 -225 -124 -89 -98 -128 -211 -118 -348
18 -259 188 -364 1104 -683 738 -257 1052 -351 1484 -444 l145 -31 90 39 c200
88 419 149 619 172 231 26 324 5 720 -158 66 -27 154 -57 195 -67 86 -19 277
-23 355 -7 71 15 168 53 158 62 -9 8 -629 259 -1108 448 -436 172 -747 290
-1286 487 -245 90 -616 227 -825 305 -616 231 -910 323 -1124 349 -94 12 -114
12 -184 0z"/>
<path d="M3810 2653 c-130 -21 -252 -59 -510 -158 -347 -134 -501 -175 -650
-175 -147 0 -276 36 -663 184 -184 71 -277 95 -388 103 -165 11 -347 -30 -698
-157 -234 -85 -330 -111 -476 -130 -83 -11 -240 -11 -275 0 -13 4 -15 -46 -18
-402 l-2 -407 22 -13 c15 -9 59 -13 128 -12 185 1 322 31 566 120 373 136 525
174 697 175 164 0 225 -16 623 -170 432 -166 578 -159 1119 54 295 117 442
159 595 170 161 13 301 -19 640 -145 249 -92 357 -120 491 -127 168 -9 287 14
639 122 561 173 692 170 1280 -25 341 -113 510 -147 680 -137 149 9 259 39
585 157 571 207 708 208 1335 7 463 -149 613 -174 826 -143 154 23 225 42 564
156 162 55 326 105 364 111 39 6 114 9 175 6 131 -6 193 -27 397 -131 125 -65
165 -80 247 -97 98 -19 280 -26 346 -13 l31 7 0 414 c0 391 -1 415 -17 408
-62 -24 -278 -13 -412 21 -31 8 -132 52 -226 99 -189 95 -286 125 -402 125
-112 0 -202 -22 -508 -125 -647 -218 -728 -218 -1375 -16 -421 132 -554 158
-755 148 -174 -9 -238 -26 -745 -207 -414 -147 -570 -142 -1125 40 -282 93
-421 127 -557 140 -202 19 -321 -2 -764 -135 -267 -81 -388 -106 -518 -107
-144 -1 -234 17 -429 84 -95 33 -235 81 -313 108 -77 27 -177 56 -223 64 -76
15 -238 19 -301 9z"/>
<path d="M3615 1161 c-112 -24 -209 -56 -497 -165 -125 -47 -278 -101 -340
-119 -106 -30 -122 -32 -268 -31 -177 0 -214 9 -480 111 -271 103 -417 150
-506 163 -177 26 -389 -16 -734 -143 -235 -87 -296 -105 -425 -128 -118 -20
-297 -25 -339 -9 l-26 10 0 -414 c0 -474 -13 -424 110 -433 79 -6 252 15 370
44 36 9 142 44 236 79 410 149 535 178 729 171 156 -6 194 -16 491 -131 537
-208 630 -206 1219 19 353 135 479 168 650 167 162 0 226 -17 700 -186 152
-54 249 -76 366 -83 169 -9 295 15 658 127 539 166 684 162 1261 -30 307 -103
474 -140 631 -140 161 0 297 34 644 160 338 123 461 152 641 152 181 0 318
-29 694 -148 418 -133 604 -168 788 -145 140 17 259 49 577 156 340 114 410
129 554 122 131 -6 192 -26 396 -131 124 -63 168 -80 250 -97 112 -24 312 -29
358 -11 l27 12 -2 407 c-3 356 -5 408 -18 405 -61 -14 -199 -12 -300 2 -127
19 -194 43 -327 115 -163 88 -296 130 -414 131 -102 0 -219 -29 -519 -130
-354 -120 -473 -149 -636 -157 -194 -9 -315 15 -734 146 -413 129 -568 159
-754 147 -171 -11 -242 -31 -746 -209 -413 -146 -563 -141 -1123 42 -373 122
-463 141 -658 141 -180 0 -290 -23 -665 -139 -263 -81 -379 -104 -524 -104
-180 0 -188 2 -710 185 -183 64 -252 79 -390 83 -97 4 -145 0 -215 -14z"/>
</g>
</svg>
