<svg width="158" height="179" viewBox="0 0 158 179" fill="none" xmlns="http://www.w3.org/2000/svg">
<path fill-rule="evenodd" clip-rule="evenodd" d="M66.1833 52.2188C68.6426 51.2418 71.4415 50.568 74.5471 50.2559C75.389 50.1731 76.0015 49.4229 75.9191 48.5806C75.8334 47.7412 75.0827 47.1258 74.2438 47.2086C70.829 47.5516 67.7543 48.2988 65.0529 49.3739C64.266 49.6831 63.8833 50.5744 64.1959 51.3613C64.508 52.1453 65.3993 52.5309 66.1833 52.2188Z" fill="#D7DADE"/>
<path fill-rule="evenodd" clip-rule="evenodd" d="M82.05 50.1975C85.6701 50.4699 88.9835 50.5282 92.0092 50.3994C92.8545 50.366 93.513 49.6521 93.4763 48.8069C93.4425 47.9616 92.7261 47.3065 91.8838 47.3398C88.9653 47.4628 85.771 47.4045 82.2798 47.1409C81.4375 47.0796 80.7025 47.7107 80.6383 48.5525C80.5741 49.3983 81.2076 50.1333 82.05 50.1975Z" fill="#D7DADE"/>
<path fill-rule="evenodd" clip-rule="evenodd" d="M100.278 49.4928C103.849 48.8225 106.878 47.8297 109.422 46.6082C110.185 46.2407 110.507 45.3249 110.139 44.5654C109.775 43.8029 108.859 43.4815 108.096 43.8455C105.763 44.9667 102.985 45.8702 99.7116 46.4857C98.8815 46.642 98.3332 47.4412 98.4895 48.2742C98.6458 49.1042 99.4479 49.6491 100.278 49.4928Z" fill="#D7DADE"/>
<path fill-rule="evenodd" clip-rule="evenodd" d="M115.664 42.3549C118.408 39.7055 120.02 36.6552 120.745 33.553C120.938 32.7294 120.424 31.9052 119.603 31.7126C118.779 31.5195 117.955 32.034 117.762 32.8548C117.162 35.4302 115.814 37.9537 113.539 40.1499C112.93 40.7374 112.911 41.7086 113.499 42.3147C114.087 42.9243 115.055 42.9429 115.664 42.3549Z" fill="#D7DADE"/>
<path fill-rule="evenodd" clip-rule="evenodd" d="M120.016 23.0089C118.8 19.7813 116.739 17.0402 114.228 15.3066C113.533 14.8288 112.58 15.0037 112.1 15.6986C111.619 16.3939 111.793 17.3494 112.492 17.8301C114.522 19.23 116.167 21.4718 117.149 24.0869C117.447 24.8773 118.329 25.2781 119.122 24.9811C119.912 24.6842 120.313 23.7993 120.016 23.0089Z" fill="#D7DADE"/>
<path fill-rule="evenodd" clip-rule="evenodd" d="M80.1178 15.3003C81.7995 7.41135 88.5002 3.57416 93.3326 3.54623C94.9192 3.53741 96.2942 3.9108 97.0076 4.8663C97.4305 5.43274 97.5589 6.19223 97.3967 7.12323C97.2526 7.95623 97.8132 8.74954 98.6462 8.8936C99.4792 9.03766 100.272 8.4771 100.416 7.6441C100.747 5.73016 100.33 4.19547 99.4605 3.03515C98.2449 1.40247 96.0154 0.468536 93.3174 0.483726C87.4345 0.517536 79.1687 5.05935 77.1229 14.6633C76.945 15.49 77.4718 16.3019 78.2989 16.4793C79.1255 16.6572 79.9404 16.127 80.1178 15.3003Z" fill="#D7DADE"/>
<path fill-rule="evenodd" clip-rule="evenodd" d="M77.1348 15.3068C79.208 24.8618 87.4429 29.382 93.3106 29.4188C96.2173 29.4345 98.5723 28.353 99.7238 26.4822C100.419 25.3552 100.722 23.9185 100.398 22.1638C99.9992 20.0049 98.5782 17.2393 95.6048 13.9563C95.0379 13.3287 94.0672 13.2797 93.4425 13.8461C92.8148 14.416 92.7658 15.3837 93.3351 16.0114C95.4054 18.2992 96.6338 20.2499 97.1723 21.8885C97.58 23.138 97.5707 24.139 97.1175 24.8775C96.7073 25.5419 95.9723 25.9432 95.0869 26.1637C93.9756 26.4391 92.6433 26.4175 91.2375 26.1206C86.7446 25.1715 81.5938 21.4136 80.1296 14.6575C79.9493 13.8309 79.1345 13.3071 78.3078 13.485C77.4807 13.6653 76.9569 14.4801 77.1348 15.3068Z" fill="#D7DADE"/>
<path fill-rule="evenodd" clip-rule="evenodd" d="M78.2158 18.0449H98.7194C100.41 18.0449 101.782 16.6729 101.782 14.9824C101.782 13.2919 100.41 11.9199 98.7194 11.9199H78.2158C76.5253 11.9199 75.1533 13.2919 75.1533 14.9824C75.1533 16.6729 76.5253 18.0449 78.2158 18.0449Z" fill="#AAADB3"/>
<path fill-rule="evenodd" clip-rule="evenodd" d="M16.2188 137.592V154.77C16.2188 158.151 18.436 161.131 21.6761 162.102C33.9812 165.795 68.5934 176.18 76.8014 178.639C78.2346 179.071 79.7659 179.071 81.1986 178.639C89.4066 176.18 124.019 165.795 136.324 162.102C139.564 161.131 141.781 158.151 141.781 154.77C141.781 146.593 141.781 130.279 141.781 130.279C141.781 129.434 141.095 128.748 140.25 128.748C139.405 128.748 138.719 129.434 138.719 130.279V154.77C138.719 156.797 137.386 158.586 135.445 159.171C123.14 162.861 88.5246 173.246 80.3201 175.708C79.4596 175.966 78.5409 175.966 77.6799 175.708L22.5551 159.171C20.6135 158.586 19.2812 156.797 19.2812 154.77V137.592C19.2812 136.747 18.5952 136.061 17.75 136.061C16.9047 136.061 16.2188 136.747 16.2188 137.592Z" fill="#D7DADE"/>
<path fill-rule="evenodd" clip-rule="evenodd" d="M12.6539 102.895C12.6539 102.895 4.89969 114.391 0.936815 120.265C0.131402 121.46 -0.0676851 122.966 0.40394 124.329C0.872527 125.692 1.95357 126.758 3.32557 127.202L58.4351 145.108C60.3829 145.739 62.5114 145.01 63.66 143.316C67.7667 137.253 80.2681 118.811 80.2681 118.811C80.5371 118.412 80.6047 117.91 80.4484 117.454C80.2926 116.998 79.9309 116.642 79.4713 116.495L18.2216 96.6195C17.4192 96.3593 16.5556 96.8003 16.2922 97.6058C16.0319 98.408 16.4729 99.2718 17.2783 99.535L76.5896 118.78L61.1243 141.599C60.7416 142.162 60.0311 142.407 59.3818 142.196L4.2719 124.289C3.81556 124.139 3.45419 123.787 3.29803 123.331C3.14181 122.878 3.20919 122.375 3.47565 121.977L15.1928 104.606C15.6674 103.905 15.4807 102.953 14.7793 102.481C14.0811 102.007 13.1287 102.193 12.6539 102.895Z" fill="#D7DADE"/>
<path fill-rule="evenodd" clip-rule="evenodd" d="M131.065 99.4461L78.5284 116.495C77.7228 116.755 77.2818 117.619 77.542 118.424C77.8056 119.227 78.669 119.668 79.4711 119.408L132.008 102.362C132.814 102.101 133.255 101.235 132.995 100.432C132.731 99.6269 131.868 99.1859 131.065 99.4461Z" fill="#D7DADE"/>
<path fill-rule="evenodd" clip-rule="evenodd" d="M82.0686 125.208C82.0686 125.208 90.9528 138.316 94.3397 143.316C95.4882 145.01 97.6168 145.739 99.5646 145.108C108.596 142.174 143.04 130.981 154.674 127.202C156.046 126.758 157.127 125.692 157.596 124.329C158.068 122.966 157.868 121.46 157.063 120.265C152.261 113.145 141.521 97.2197 141.521 97.2197C141.046 96.5215 140.093 96.3348 139.392 96.8066C138.694 97.281 138.507 98.2335 138.979 98.9347C138.979 98.9347 149.722 114.857 154.524 121.977C154.79 122.375 154.858 122.878 154.702 123.331C154.545 123.787 154.184 124.139 153.728 124.289L98.6179 142.196C97.9691 142.407 97.2586 142.162 96.8754 141.599L84.6044 123.49C84.1296 122.789 83.177 122.608 82.4758 123.083C81.7776 123.554 81.5938 124.51 82.0686 125.208Z" fill="#D7DADE"/>
<path fill-rule="evenodd" clip-rule="evenodd" d="M27.5256 96.5055L79.4749 79.5946C79.9311 79.4442 80.2927 79.089 80.4485 78.6328C80.6049 78.1766 80.5372 77.6743 80.2648 77.276C80.2648 77.276 69.2643 61.0971 65.4394 55.471C64.2908 53.7834 62.1657 53.0548 60.2209 53.6859L5.10811 71.592C3.73611 72.0393 2.65507 73.1021 2.18345 74.4678C1.71486 75.8305 1.91395 77.3343 2.71936 78.5318C7.14161 85.0885 16.4792 98.934 16.4792 98.934C16.9539 99.6322 17.9063 99.8194 18.6076 99.3446C19.3059 98.8727 19.4927 97.9206 19.0211 97.219C19.0211 97.219 9.68045 83.3765 5.2582 76.8198C4.9887 76.4185 4.92436 75.9196 5.08057 75.463C5.23673 75.0097 5.59811 74.6545 6.05445 74.5045L61.167 56.598C61.8163 56.3868 62.5239 56.6318 62.9065 57.1923L76.5869 77.3127L26.5793 93.593C25.7739 93.8536 25.3359 94.72 25.5962 95.5226C25.8596 96.3247 26.7232 96.7657 27.5256 96.5055Z" fill="#D7DADE"/>
<path fill-rule="evenodd" clip-rule="evenodd" d="M78.5249 79.5952L139.775 99.5318C140.424 99.743 141.138 99.5015 141.521 98.9345C141.521 98.9345 150.858 85.0891 155.28 78.5324C156.086 77.3348 156.285 75.831 155.817 74.4683C155.345 73.1027 154.264 72.0399 152.892 71.5925L97.779 53.6865C95.8342 53.0553 93.709 53.784 92.5605 55.4715L81.8481 71.225C81.3733 71.9262 81.5541 72.8788 82.2523 73.3536C82.9535 73.8284 83.9061 73.6476 84.3804 72.9493L95.0933 57.1929C95.476 56.6323 96.1835 56.3873 96.8328 56.5985L151.946 74.5051C152.402 74.655 152.763 75.0103 152.919 75.4635C153.075 75.9202 153.011 76.419 152.742 76.8203L139.625 96.264L79.4745 76.6826C78.669 76.419 77.8056 76.86 77.5449 77.6656C77.2818 78.4682 77.7228 79.3316 78.5249 79.5952Z" fill="#D7DADE"/>
<path fill-rule="evenodd" clip-rule="evenodd" d="M125.388 98.0712L79.0001 113.12L32.6123 98.0712L79.0001 82.9699L125.388 98.0712Z" fill="#AAADB3"/>
<path fill-rule="evenodd" clip-rule="evenodd" d="M63.6808 77.9958C62.8572 76.835 62.1496 75.6683 61.5557 74.5016C61.173 73.748 60.2513 73.4481 59.4977 73.8337C58.7446 74.2169 58.4442 75.1386 58.8269 75.8917C59.4855 77.1873 60.2695 78.4829 61.1853 79.772C61.6753 80.461 62.6308 80.6202 63.3197 80.1332C64.0087 79.6437 64.1713 78.6847 63.6808 77.9958Z" fill="#D7DADE"/>
<path fill-rule="evenodd" clip-rule="evenodd" d="M59.4336 68.1318C59.1577 66.3859 59.1455 64.6802 59.3875 63.0451C59.51 62.2087 58.9313 61.431 58.0954 61.3085C57.259 61.186 56.4813 61.7647 56.3559 62.6006C56.0741 64.5303 56.083 66.5452 56.4078 68.6066C56.5396 69.4425 57.3236 70.0119 58.1596 69.8806C58.9926 69.7488 59.5649 68.9648 59.4336 68.1318Z" fill="#D7DADE"/>
</svg>
