<svg width="196" height="196" viewBox="0 0 196 196" fill="none" xmlns="http://www.w3.org/2000/svg">
<path d="M144.303 148.163L126.763 159.029C127.892 160.141 128.927 160.971 130.002 161.121C131.124 161.278 132.436 160.704 134.193 158.945C136.871 156.263 139.345 154.326 142.941 153.006C144.899 152.288 146.954 151.069 145.081 149.014L144.303 148.163ZM48.5648 126.478L118.424 94.6986C122.909 92.6582 124.1 93.0704 127.996 96.2948L162.029 124.449C162.796 125.084 162.544 125.041 163.416 124.532L167.717 122.02C171.04 120.227 172.309 119.394 169.095 116.854L128.149 84.4856C124.465 81.5732 124.115 80.8051 119.663 82.6858L111.437 86.1614L43.8163 115.134C42.2106 115.823 39.5973 116.914 40.2821 118.908C40.892 120.649 45.0704 124.413 47.0857 126.273C47.8623 126.99 47.5753 126.929 48.5627 126.48L48.5648 126.478ZM161.209 124.876L127.413 96.9192C123.882 93.9973 122.967 93.5686 118.866 95.4338L49.1896 127.131C48.1092 127.622 48.3606 127.472 49.2956 128.365L85.0363 162.465C87.9772 165.406 91.0611 166.888 94.9477 164.558L161.069 125.902C162.008 125.353 162.029 125.555 161.209 124.876ZM38.1942 109.404L113.545 77.1177C118.312 75.0761 118.357 74.6568 118.841 69.7018L123.668 20.2698C123.794 18.9846 123.942 19.1799 122.666 19.5396L42.9205 41.9531C37.9453 43.3515 37.022 44.6725 37.0851 50.1338C37.0851 69.4169 37.259 88.7042 37.259 107.988C37.2292 110.024 37.0816 109.909 38.1942 109.404ZM124.541 20.096L119.686 69.8055C119.15 75.2893 118.832 75.7791 113.662 77.9944L38.5278 110.186C37.4819 110.612 37.1996 110.591 37.4093 111.614C37.5296 112.198 37.6487 112.718 37.8619 113.142C38.1823 113.777 38.7148 114.205 39.564 114.345C40.8028 114.551 41.8188 113.723 42.9826 113.233L110.299 84.7931L118.957 81.084C120.217 80.5444 121.853 79.95 122.579 78.797C123.338 77.5928 123.425 75.4071 123.575 73.8739L128.646 21.9476C128.742 20.9601 129.252 18.9042 127.931 18.5732C127.396 18.4398 126.653 18.4851 125.698 18.6947C124.435 18.9711 124.664 18.8472 124.541 20.0931L124.541 20.096ZM35.6876 111.599C35.5423 110.51 35.528 109.278 35.5566 107.957L35.3827 50.1483C35.3112 44.0271 36.6155 41.9557 42.3604 40.3417L122.334 17.8639C123.118 17.6436 123.935 17.3851 124.719 17.1838C126.125 16.8229 126.685 16.9003 125.873 16.2416C123.954 14.686 123.125 14.3298 120.07 15.1339L38.0531 38.349C33.1017 39.751 31.3767 41.5139 31.4435 47.2801L31.4816 101.259C31.5042 103.768 31.185 106.182 32.7847 108.346L35.3611 111.834C36.0043 112.704 35.7971 112.422 35.6863 111.601L35.6876 111.599ZM37.5315 36.7238L119.609 13.4909C123.863 12.4261 124.512 12.8418 127.749 15.5944C128.78 16.4699 129.887 17.2596 130.323 18.608C130.695 19.7574 130.441 21.0308 130.326 22.2242L125.263 74.0621C125.095 75.7868 124.998 77.8642 124.213 79.3626C123.759 80.2298 123.631 79.8248 124.632 80.1512C126.281 80.6884 127.874 82.0998 129.239 83.179L170.179 115.541C172.204 117.142 173.169 117.851 172.976 120.645C172.876 122.098 172.735 123.483 172.564 124.885C172.393 126.274 172.187 127.714 171.956 129.266C171.662 131.425 169.293 132.682 167.369 133.872L150.174 144.523C152.157 146.497 153.734 148.542 154.068 150.705C154.422 152.998 153.417 155.298 150.126 157.576L138.245 165.798C134.265 168.552 130.861 168.926 127.969 168.078C125.046 167.22 122.623 165.068 120.689 162.787L93.8763 179.396C89.5121 182.303 85.2559 180.382 81.8971 177.073L44.5068 140.445C42.3544 138.336 40.3628 136.878 39.8148 133.657L37.8173 121.893C37.5064 120.066 37.5374 118.666 37.9102 117.562C38.3593 116.231 38.3902 116.427 37.298 115.834C36.2474 115.265 35.1385 114.387 33.9962 112.839L31.4198 109.352C29.4806 106.726 29.8094 104.275 29.7832 101.264L29.7451 47.2856C29.67 40.8464 31.8021 38.3402 37.5326 36.7179L37.5315 36.7238ZM101.469 168.715L110.839 162.932C111.684 162.408 111.515 160.815 110.277 161.572L100.709 167.426C99.8024 167.98 100.073 169.581 101.469 168.715ZM111.734 164.381L102.364 170.164C99.0524 172.217 96.9594 167.725 99.823 165.973L109.391 160.119C112.574 158.172 114.725 162.526 111.734 164.381ZM154.659 136.674L163.433 131.233C164.28 130.708 164.337 128.999 163.309 129.628L153.9 135.385C153.23 135.795 153.103 137.639 154.659 136.674ZM164.326 132.68L155.552 138.121C152.064 140.284 150.371 135.547 153.012 133.931L162.42 128.174C165.399 126.352 167.207 130.893 164.326 132.68ZM123.063 157.567C122.228 156.734 119.412 158.435 120.235 159.48C120.779 160.295 121.605 161.271 122.26 162.013C123.924 163.898 125.971 165.721 128.445 166.447C130.877 167.161 133.788 166.813 137.273 164.401L149.155 156.179C151.803 154.345 152.63 152.616 152.375 150.963C152.106 149.212 150.678 147.424 148.886 145.651L146.233 143.031C145.362 142.191 142.713 143.886 143.578 144.846L146.337 147.869C149.123 150.926 146.711 153.439 143.522 154.609C140.163 155.842 137.896 157.641 135.395 160.148C133.2 162.346 131.415 163.042 129.762 162.811C127.02 162.427 124.92 159.453 123.061 157.569L123.063 157.567ZM125.563 157.769L143.134 146.884L142.32 145.989C139.874 143.289 145.047 139.517 147.415 141.803L148.926 143.296L166.692 132.292C168.695 130.948 170.04 130.456 170.264 129.022C170.489 127.509 170.692 126.092 170.866 124.681C170.934 124.125 170.997 123.575 171.054 123.026C171.223 121.402 171.328 121.76 170.151 122.548C169.679 122.864 169.144 123.183 168.547 123.506L95.8118 166.022C91.1985 168.784 87.4049 167.186 83.8613 163.698L46.7088 128.25C44.6648 126.3 42.4624 124.403 40.5614 122.325C39.1142 120.744 39.2714 120.283 39.6705 122.628L41.4965 133.379C41.9467 136.031 43.9085 137.478 45.7011 139.233L83.0915 175.862C86.0634 178.788 89.0794 180.29 92.9923 177.944L119.612 161.456C119.557 161.386 118.899 160.533 118.899 160.533C116.628 157.647 122.142 154.078 124.298 156.389C124.289 156.397 125.38 157.561 125.567 157.768L125.563 157.769Z" fill="#D7DADE"/>
</svg>
