<?xml version="1.0" standalone="no"?>
<!DOCTYPE svg PUBLIC "-//W3C//DTD SVG 20010904//EN"
 "http://www.w3.org/TR/2001/REC-SVG-20010904/DTD/svg10.dtd">
<svg version="1.0" xmlns="http://www.w3.org/2000/svg"
 width="640.000000pt" height="1280.000000pt" viewBox="0 0 640.000000 1280.000000"
 preserveAspectRatio="xMidYMid meet">
<metadata>
Created by potrace 1.15, written by Peter Selinger 2001-2017
</metadata>
<g transform="translate(0.000000,1280.000000) scale(0.100000,-0.100000)"
fill="#000000" stroke="none">
<path d="M2697 12784 c-37 -20 -47 -50 -47 -137 0 -59 -4 -75 -22 -94 -20 -22
-23 -38 -29 -191 -7 -161 -7 -168 14 -197 21 -29 22 -37 19 -265 -1 -129 -7
-431 -12 -670 -5 -239 -14 -680 -20 -980 -15 -783 -23 -851 -115 -997 -49 -77
-73 -102 -182 -189 -208 -167 -306 -275 -433 -479 -98 -156 -168 -380 -190
-604 -14 -144 -14 -7385 0 -7535 12 -125 52 -322 75 -366 29 -56 44 -60 218
-60 103 0 156 -3 152 -10 -4 -7 355 -10 1070 -10 715 0 1074 3 1070 10 -4 6
47 10 147 10 168 0 191 6 220 56 25 43 65 248 78 401 8 91 10 1208 8 3858 l-3
3730 -32 110 c-112 391 -267 625 -578 874 -188 151 -266 279 -294 481 -6 48
-16 345 -21 680 -6 327 -15 896 -21 1263 -10 609 -10 670 5 686 13 15 16 46
16 193 0 159 -2 176 -19 192 -15 13 -20 35 -23 94 -4 87 -21 130 -58 149 -19
10 -136 13 -495 12 -401 0 -474 -2 -498 -15z"/>
</g>
</svg>
