<?xml version="1.0" standalone="no"?>
<!DOCTYPE svg PUBLIC "-//W3C//DTD SVG 20010904//EN"
 "http://www.w3.org/TR/2001/REC-SVG-20010904/DTD/svg10.dtd">
<svg version="1.0" xmlns="http://www.w3.org/2000/svg"
 width="1235.000000pt" height="1280.000000pt" viewBox="0 0 1235.000000 1280.000000"
 preserveAspectRatio="xMidYMid meet">
<metadata>
Created by potrace 1.15, written by Peter Selinger 2001-2017
</metadata>
<g transform="translate(0.000000,1280.000000) scale(0.100000,-0.100000)"
fill="#000000" stroke="none">
<path d="M8120 12710 c-394 -100 -1114 -283 -1837 -466 -274 -69 -499 -127
-499 -127 -1 -1 20 -103 48 -227 27 -124 114 -544 194 -934 160 -784 216
-1043 305 -1404 303 -1235 712 -2151 1323 -2962 234 -311 445 -548 768 -866
l235 -230 96 -195 c521 -1062 912 -2203 1077 -3139 49 -282 64 -428 64 -645 0
-226 -13 -308 -65 -413 -41 -83 -53 -91 -559 -347 -420 -213 -537 -284 -597
-363 -50 -66 -46 -101 30 -247 l62 -120 55 -9 c103 -16 582 -11 755 7 214 24
531 70 805 118 182 32 257 50 390 96 567 193 942 360 1423 635 138 79 158 93
154 112 -3 11 -18 82 -32 156 -15 74 -36 152 -46 173 -23 44 -86 92 -143 109
-68 21 -316 14 -576 -15 -586 -67 -665 -70 -742 -31 -138 70 -301 286 -445
592 -399 845 -751 2408 -843 3742 l-12 165 40 140 c201 710 260 1473 176 2300
-58 575 -188 1190 -403 1901 -107 356 -188 603 -399 1214 -206 597 -344 1018
-408 1238 -21 72 -40 132 -43 131 -3 0 -161 -40 -351 -89z"/>
<path d="M3120 12053 c-12 -43 -150 -463 -305 -933 -404 -1220 -503 -1562
-614 -2115 -224 -1125 -171 -2175 165 -3263 l35 -113 -11 -177 c-68 -1071
-282 -2181 -575 -2982 -170 -464 -336 -750 -494 -852 -44 -28 -47 -28 -191
-28 -81 0 -247 7 -371 16 -123 9 -300 16 -394 17 -192 1 -262 -13 -317 -62
-31 -28 -32 -29 -40 -157 -4 -71 -6 -134 -4 -140 3 -6 66 -52 141 -103 215
-143 579 -316 997 -474 298 -113 403 -146 563 -176 550 -104 833 -134 1254
-135 l294 -1 44 130 c50 150 56 211 26 270 -45 87 -148 151 -475 295 -437 194
-551 249 -590 287 -156 152 -166 604 -27 1298 166 828 507 1818 934 2710 l76
160 141 139 c744 741 1250 1694 1602 3021 103 389 170 703 406 1900 49 253
112 551 139 662 42 177 46 203 32 207 -9 3 -240 68 -513 145 -274 78 -720 204
-990 280 -803 227 -888 251 -902 251 -8 0 -22 -31 -36 -77z"/>
</g>
</svg>
