<svg width="24" height="24" viewBox="0 0 24 24" fill="none" xmlns="http://www.w3.org/2000/svg">
  <path d="M12 2C9.24 2 7 4.24 7 7C7 9.76 9.24 12 12 12C14.76 12 17 9.76 17 7C17 4.24 14.76 2 12 2Z" stroke="currentColor" stroke-width="2" stroke-linecap="round" stroke-linejoin="round"/>
  <path d="M12 12V22" stroke="currentColor" stroke-width="2" stroke-linecap="round" stroke-linejoin="round"/>
  <path d="M8 18C8 18 9 16 12 16C15 16 16 18 16 18" stroke="currentColor" stroke-width="2" stroke-linecap="round" stroke-linejoin="round"/>
  <path d="M18 14C20 14 22 15.5 22 17.5V20H2V17.5C2 15.5 4 14 6 14" stroke="currentColor" stroke-width="2" stroke-linecap="round" stroke-linejoin="round"/>
</svg>
