<?xml version="1.0" standalone="no"?>
<!DOCTYPE svg PUBLIC "-//W3C//DTD SVG 20010904//EN"
 "http://www.w3.org/TR/2001/REC-SVG-20010904/DTD/svg10.dtd">
<svg version="1.0" xmlns="http://www.w3.org/2000/svg"
 width="1016.000000pt" height="1280.000000pt" viewBox="0 0 1016.000000 1280.000000"
 preserveAspectRatio="xMidYMid meet">
<metadata>
Created by potrace 1.15, written by Peter Selinger 2001-2017
</metadata>
<g transform="translate(0.000000,1280.000000) scale(0.100000,-0.100000)"
fill="#000000" stroke="none">
<path d="M4553 12778 c-40 -20 -47 -21 -93 -9 -64 16 -69 13 -124 -98 -58
-118 -101 -229 -130 -338 -28 -108 -31 -113 -56 -113 -40 0 -48 110 -24 341 4
44 2 59 -11 72 -22 23 -67 21 -97 -3 -42 -33 -52 -93 -53 -325 -1 -180 -5
-223 -24 -305 -19 -79 -24 -139 -30 -355 -6 -205 -11 -269 -25 -304 -9 -24
-32 -139 -52 -254 -19 -115 -53 -305 -75 -421 -64 -333 -68 -367 -84 -611 -8
-126 -21 -291 -30 -366 l-17 -137 27 -78 c24 -68 28 -100 35 -273 6 -123 19
-254 35 -351 14 -85 32 -238 40 -339 25 -303 67 -520 140 -731 92 -261 97
-283 103 -382 4 -86 2 -100 -16 -130 -12 -18 -103 -114 -202 -212 -329 -326
-464 -512 -516 -716 -23 -88 -23 -226 0 -324 13 -58 17 -104 14 -170 -5 -94
-10 -110 -74 -261 l-39 -90 -6 -355 c-4 -251 -11 -386 -22 -460 -9 -58 -28
-240 -42 -405 -13 -165 -27 -315 -31 -333 -14 -69 4 -67 -604 -67 -388 0 -564
-4 -610 -12 -36 -7 -153 -20 -260 -28 -313 -25 -344 -32 -590 -123 -406 -150
-414 -162 -374 -602 8 -96 13 -197 9 -225 -4 -33 0 -68 11 -105 13 -44 17
-106 19 -305 2 -265 2 -265 85 -845 56 -389 64 -504 56 -780 -6 -247 -19 -336
-56 -411 -41 -81 -117 -145 -205 -171 -78 -23 -342 -49 -427 -43 -79 6 -88 5
-107 -14 -12 -12 -21 -29 -21 -40 0 -30 79 -101 150 -135 l65 -31 595 -3 c553
-2 597 -1 630 15 64 33 76 136 31 263 -35 100 -54 312 -48 530 8 252 29 409
92 680 59 254 69 443 39 713 -19 172 -42 283 -94 451 -42 135 -50 205 -25 226
24 20 143 30 220 19 147 -22 412 -98 634 -183 467 -180 687 -213 1339 -202
207 3 418 9 467 12 l91 6 108 -72 c59 -40 157 -119 218 -176 156 -148 365
-297 765 -547 291 -182 442 -268 663 -374 118 -57 223 -115 265 -147 133 -102
194 -122 400 -136 404 -28 867 -144 1262 -316 59 -26 205 -79 323 -119 118
-40 240 -84 271 -98 31 -14 85 -28 120 -32 144 -17 336 -101 434 -190 46 -42
46 -43 39 -93 l-6 -50 48 -15 c130 -41 311 -57 671 -60 310 -2 288 -9 351 96
38 62 52 150 30 178 -31 38 -198 107 -348 144 -36 9 -107 37 -157 62 -61 30
-111 48 -145 51 -59 6 -127 42 -258 137 -102 74 -459 319 -731 501 -289 193
-480 282 -730 338 -128 28 -199 40 -576 90 -144 20 -282 43 -307 51 -100 34
-338 188 -476 308 -82 72 -138 134 -249 275 -80 101 -167 179 -304 274 -128
87 -223 166 -304 251 -139 146 -201 264 -312 592 -82 240 -118 312 -181 366
-94 82 -229 171 -336 224 -134 66 -198 127 -249 238 -56 120 -95 307 -95 450
0 138 59 301 181 503 49 82 95 120 136 112 29 -6 39 -35 20 -56 -27 -29 -21
-44 44 -107 65 -65 64 -62 44 -160 -6 -26 2 -46 45 -115 28 -47 66 -100 85
-117 33 -32 38 -33 117 -33 146 1 242 49 404 203 89 83 108 97 137 97 23 0 41
8 57 25 13 14 57 41 97 61 54 26 101 61 182 137 60 56 126 117 147 134 34 31
36 35 28 70 -4 21 -8 70 -8 108 1 60 9 91 57 215 30 80 60 170 65 200 34 179
30 169 107 266 25 32 30 45 27 86 -4 78 -3 101 4 147 4 30 1 59 -11 96 -18 51
-18 51 25 336 23 156 56 336 72 399 16 63 36 140 44 170 18 74 18 295 -1 401
-17 95 -39 168 -85 284 -28 71 -31 87 -25 143 l7 62 -38 16 c-26 11 -53 14
-88 10 -74 -9 -141 12 -326 103 -156 78 -165 81 -233 81 -67 0 -73 2 -151 51
-45 29 -101 68 -126 88 -76 63 -79 62 -158 -33 -20 -25 -26 -27 -65 -20 -67
12 -80 8 -118 -37 l-35 -42 -38 14 c-35 13 -40 12 -79 -11 -34 -20 -55 -25
-115 -25 -99 0 -107 -10 -114 -142 -6 -107 -49 -258 -79 -276 -34 -21 -66 1
-113 76 -65 105 -124 233 -140 307 -14 59 -29 147 -73 420 -21 131 -20 351 1
470 23 127 32 456 17 630 -7 74 -21 207 -31 294 -25 202 -25 334 0 589 41 416
43 422 215 534 123 80 155 104 270 198 44 36 116 84 159 106 44 22 86 45 93
51 22 18 15 55 -14 78 -24 19 -38 21 -94 18 -54 -3 -84 -12 -175 -57 -61 -29
-119 -51 -129 -50 -10 2 -27 16 -38 31 l-20 27 29 97 c16 56 45 123 67 158 93
148 177 359 177 443 0 66 -24 93 -85 93 -43 0 -45 1 -69 49 -35 68 -55 74
-123 39z"/>
</g>
</svg>
