<svg width="26" height="26" viewBox="0 0 26 26" fill="none" xmlns="http://www.w3.org/2000/svg">
<circle opacity="0.8" cx="13" cy="13" r="13" fill="#F5AC0A"/>
<path d="M14.1917 7.6377V10.021C14.1917 10.1791 14.2544 10.3306 14.3662 10.4423C14.4779 10.5541 14.6295 10.6169 14.7875 10.6169H17.1708" stroke="white" stroke-width="1.5" stroke-linecap="round" stroke-linejoin="round"/>
<path d="M15.9793 18.3627H10.021C9.70496 18.3627 9.40186 18.2371 9.17838 18.0137C8.9549 17.7902 8.82935 17.4871 8.82935 17.171V8.82936C8.82935 8.51331 8.9549 8.21021 9.17838 7.98673C9.40186 7.76325 9.70496 7.6377 10.021 7.6377H14.1918L17.171 10.6169V17.171C17.171 17.4871 17.0455 17.7902 16.822 18.0137C16.5985 18.2371 16.2954 18.3627 15.9793 18.3627Z" stroke="white" stroke-width="1.5" stroke-linecap="round" stroke-linejoin="round"/>
</svg>
