<svg width="26" height="26" viewBox="0 0 26 26" fill="none" xmlns="http://www.w3.org/2000/svg">
<circle opacity="0.8" cx="13" cy="13" r="13" fill="#F5AC0A"/>
<path d="M15.0833 11.3756L18.2294 10.544C18.3946 10.5003 18.567 10.4892 18.7367 10.5112C18.9063 10.5333 19.0699 10.5881 19.2181 10.6725C19.3663 10.7569 19.4962 10.8693 19.6003 11.0032C19.7045 11.1371 19.7809 11.29 19.8252 11.453C19.8694 11.6161 19.8807 11.7861 19.8584 11.9535C19.836 12.1208 19.7805 12.2822 19.6949 12.4283C19.6093 12.5745 19.4954 12.7026 19.3596 12.8054C19.2239 12.9081 19.0689 12.9835 18.9036 13.0272L9.46429 15.5219L6.56519 12.2965L8.45253 11.7971L10.0487 12.7065L11.9367 12.2071L9.49751 8.19449L11.3855 7.6958L15.0827 11.3756H15.0833Z" stroke="white" stroke-width="1.5" stroke-linecap="round" stroke-linejoin="round"/>
<path d="M7.3479 18.6523H19.087" stroke="white" stroke-width="1.5" stroke-linecap="round" stroke-linejoin="round"/>
</svg>
