<svg width="37" height="37" viewBox="0 0 37 37" fill="none" xmlns="http://www.w3.org/2000/svg">
<circle cx="18.1801" cy="18.8685" r="18.1264" fill="#EEFBFA"/>
<path d="M21.4335 10.9678H13.997C13.0109 10.9678 12.0652 11.3595 11.3679 12.0568C10.6705 12.7541 10.2788 13.6999 10.2788 14.686V22.1225C10.2788 23.1086 10.6705 24.0543 11.3679 24.7516C12.0652 25.4489 13.0109 25.8407 13.997 25.8407H21.4335C22.4196 25.8407 23.3654 25.4489 24.0627 24.7516C24.76 24.0543 25.1517 23.1086 25.1517 22.1225V14.686C25.1517 13.6999 24.76 12.7541 24.0627 12.0568C23.3654 11.3595 22.4196 10.9678 21.4335 10.9678Z" stroke="#0AB9AD" stroke-width="1.39434" stroke-linecap="round" stroke-linejoin="round"/>
<path d="M17.7154 21.1926C18.455 21.1926 19.1643 20.8988 19.6873 20.3758C20.2103 19.8528 20.5041 19.1435 20.5041 18.4039C20.5041 17.6643 20.2103 16.955 19.6873 16.432C19.1643 15.909 18.455 15.6152 17.7154 15.6152C16.9758 15.6152 16.2665 15.909 15.7435 16.432C15.2206 16.955 14.9268 17.6643 14.9268 18.4039C14.9268 19.1435 15.2206 19.8528 15.7435 20.3758C16.2665 20.8988 16.9758 21.1926 17.7154 21.1926Z" stroke="#0AB9AD" stroke-width="1.39434" stroke-linecap="round" stroke-linejoin="round"/>
</svg>
