<svg width="38" height="37" viewBox="0 0 38 37" fill="none" xmlns="http://www.w3.org/2000/svg">
<circle cx="18.984" cy="18.8685" r="18.1264" fill="#EEFBFA"/>
<path d="M24.0966 10.9678H12.9419C12.4488 10.9678 11.9759 11.1636 11.6273 11.5123C11.2786 11.8609 11.0828 12.3338 11.0828 12.8269V23.9816C11.0828 24.4746 11.2786 24.9475 11.6273 25.2962C11.9759 25.6448 12.4488 25.8407 12.9419 25.8407H24.0966C24.5896 25.8407 25.0625 25.6448 25.4112 25.2962C25.7598 24.9475 25.9557 24.4746 25.9557 23.9816V12.8269C25.9557 12.3338 25.7598 11.8609 25.4112 11.5123C25.0625 11.1636 24.5896 10.9678 24.0966 10.9678Z" stroke="#0AB9AD" stroke-width="1.39434" stroke-linecap="round" stroke-linejoin="round"/>
<path d="M14.801 17.4746V22.1224" stroke="#0AB9AD" stroke-width="1.39434" stroke-linecap="round" stroke-linejoin="round"/>
<path d="M14.801 14.6855V14.6955" stroke="#0AB9AD" stroke-width="1.39434" stroke-linecap="round" stroke-linejoin="round"/>
<path d="M18.5193 22.1224V17.4746" stroke="#0AB9AD" stroke-width="1.39434" stroke-linecap="round" stroke-linejoin="round"/>
<path d="M22.2375 22.1224V19.3337C22.2375 18.8407 22.0416 18.3678 21.693 18.0191C21.3443 17.6705 20.8715 17.4746 20.3784 17.4746C19.8853 17.4746 19.4125 17.6705 19.0638 18.0191C18.7152 18.3678 18.5193 18.8407 18.5193 19.3337" stroke="#0AB9AD" stroke-width="1.39434" stroke-linecap="round" stroke-linejoin="round"/>
</svg>
