<svg width="53" height="52" viewBox="0 0 53 52" fill="none" xmlns="http://www.w3.org/2000/svg">
<circle cx="26.4683" cy="26" r="26" fill="#F5AC0A"/>
<path d="M19 19V35" stroke="#1A365D" stroke-width="1.5" stroke-linecap="round" stroke-linejoin="round"/>
<path d="M33 19V28" stroke="#1A365D" stroke-width="1.5" stroke-linecap="round" stroke-linejoin="round"/>
<path d="M19 19.0001C19.9346 18.084 21.1912 17.5708 22.5 17.5708C23.8088 17.5708 25.0654 18.084 26 19.0001C26.9346 19.9162 28.1912 20.4294 29.5 20.4294C30.8088 20.4294 32.0654 19.9162 33 19.0001" stroke="#1A365D" stroke-width="1.5" stroke-linecap="round" stroke-linejoin="round"/>
<path d="M19 28.0001C19.9346 27.084 21.1912 26.5708 22.5 26.5708C23.8088 26.5708 25.0654 27.084 26 28.0001C26.9346 28.9162 28.1912 29.4294 29.5 29.4294C30.8088 29.4294 32.0654 28.9162 33 28.0001" stroke="#1A365D" stroke-width="1.5" stroke-linecap="round" stroke-linejoin="round"/>
</svg>
