<svg width="53" height="52" viewBox="0 0 53 52" fill="none" xmlns="http://www.w3.org/2000/svg">
<circle cx="26.4683" cy="26" r="26" fill="#F5AC0A"/>
<path d="M33.5001 27.5756C33.9916 27.095 34.3782 26.5177 34.6355 25.8802C34.8928 25.2427 35.0153 24.5588 34.9951 23.8716C34.9656 22.8351 34.6147 21.8335 33.9908 21.0053C33.367 20.1771 32.5011 19.5633 31.5131 19.2489C30.525 18.9346 29.4637 18.9351 28.4759 19.2506C27.4882 19.566 26.623 20.1807 26.0001 21.0096C25.5883 20.4556 25.0663 19.9929 24.4669 19.6505C23.8676 19.3082 23.2038 19.0936 22.5174 19.0204C21.8311 18.9472 21.137 19.0169 20.4789 19.2251C19.8208 19.4333 19.2129 19.7755 18.6935 20.2302C18.1742 20.6848 17.7546 21.2421 17.4612 21.8669C17.1678 22.4917 17.007 23.1705 16.9888 23.8605C16.9706 24.5505 17.0955 25.2369 17.3556 25.8762C17.6157 26.5156 18.0054 27.0942 18.5001 27.5756L26.0001 35.0036L33.5001 27.5756Z" stroke="#1A365D" stroke-width="1.5" stroke-linejoin="round"/>
</svg>
