<svg width="41" height="41" viewBox="0 0 41 41" fill="none" xmlns="http://www.w3.org/2000/svg">
<circle cx="20.5" cy="20.5" r="20.5" fill="white"/>
<g clip-path="url(#clip0_3428_2916)">
<path d="M13.1256 11.1273L26.7423 27.5725C27.0008 27.8847 27.146 28.308 27.146 28.7495C27.146 29.1909 27.0008 29.6143 26.7423 29.9265V29.9265C26.4839 30.2383 26.1335 30.4135 25.7682 30.4135C25.4028 30.4135 25.0525 30.2383 24.794 29.9265L21.4667 25.8394C21.2495 25.5724 21.1277 25.213 21.1277 24.8386V24.591C21.1275 24.4019 21.0963 24.2148 21.0358 24.0403C20.9753 23.8659 20.8867 23.7078 20.7752 23.575L20.3463 23.096C20.2005 22.9335 20.0232 22.8179 19.8308 22.7598C19.6383 22.7017 19.4368 22.7031 19.2448 22.7637V22.7637C18.9421 22.8593 18.624 22.8575 18.3221 22.7586C18.0201 22.6597 17.7449 22.4671 17.5236 22.2L14.3666 18.3862C12.4932 16.1247 11.8041 12.708 13.1256 11.1273Z" stroke="#0AB9AD" stroke-linecap="round" stroke-linejoin="round"/>
<path d="M25.784 10.4283L22.9289 13.8764C22.7092 14.1417 22.5349 14.4567 22.4159 14.8035C22.297 15.1502 22.2358 15.5218 22.2359 15.8971V16.5598C22.2357 16.7492 22.1733 16.9307 22.0624 17.0645L21.6445 17.5701" stroke="#0AB9AD" stroke-linecap="round" stroke-linejoin="round"/>
<path d="M22.8262 18.9985L23.2441 18.4938C23.2989 18.4275 23.364 18.3748 23.4357 18.3388C23.5074 18.3029 23.5843 18.2844 23.6619 18.2843H24.2115C24.5222 18.2844 24.8299 18.2105 25.117 18.0669C25.4041 17.9233 25.6649 17.7127 25.8846 17.4473L28.7396 13.9993" stroke="#0AB9AD" stroke-linecap="round" stroke-linejoin="round"/>
<path d="M27.2614 12.2139L24.3047 15.7848" stroke="#0AB9AD" stroke-linecap="round" stroke-linejoin="round"/>
<path d="M18.3922 25.4262L14.7062 29.9017C14.4289 30.2364 14.053 30.4244 13.6611 30.4244C13.2691 30.4244 12.8932 30.2364 12.6159 29.9017C12.3391 29.567 12.1836 29.1132 12.1836 28.64C12.1836 28.1669 12.3391 27.7131 12.6159 27.3783L15.7304 23.6407" stroke="#0AB9AD" stroke-linecap="round" stroke-linejoin="round"/>
</g>
<defs>
<clipPath id="clip0_3428_2916">
<rect width="18.9231" height="22.8538" fill="white" transform="translate(11 9)"/>
</clipPath>
</defs>
</svg>
