<svg width="40" height="40" viewBox="0 0 40 40" fill="none" xmlns="http://www.w3.org/2000/svg">
<circle opacity="0.8" cx="20" cy="20" r="20" fill="#F5AC0A"/>
<path d="M25.6333 13.3667L24.9625 14.0375M10.875 19.5H11.8333H10.875ZM19.5 10.875V11.8333V10.875ZM27.1667 19.5H28.125H27.1667ZM13.3667 13.3667L14.0375 14.0375L13.3667 13.3667Z" stroke="white" stroke-width="1.5" stroke-linecap="round" stroke-linejoin="round"/>
<path d="M16.6247 23.3335C15.8201 22.7301 15.2258 21.8888 14.926 20.9289C14.6261 19.9689 14.6359 18.939 14.9539 17.9849C15.2719 17.0308 15.8821 16.201 16.6979 15.613C17.5138 15.0249 18.494 14.7085 19.4997 14.7085C20.5054 14.7085 21.4856 15.0249 22.3014 15.613C23.1173 16.201 23.7274 17.0308 24.0454 17.9849C24.3635 18.939 24.3732 19.9689 24.0734 20.9289C23.7735 21.8888 23.1792 22.7301 22.3747 23.3335C22.0005 23.7039 21.7188 24.1571 21.5523 24.6566C21.3858 25.1561 21.3392 25.6877 21.4163 26.2085C21.4163 26.7168 21.2144 27.2043 20.855 27.5638C20.4955 27.9232 20.008 28.1252 19.4997 28.1252C18.9913 28.1252 18.5038 27.9232 18.1444 27.5638C17.7849 27.2043 17.583 26.7168 17.583 26.2085C17.6602 25.6877 17.6136 25.156 17.4472 24.6566C17.2807 24.1571 16.9989 23.7038 16.6247 23.3335Z" stroke="white" stroke-width="1.5" stroke-linecap="round" stroke-linejoin="round"/>
<path d="M17.2959 24.2915H21.7042" stroke="white" stroke-width="1.5" stroke-linecap="round" stroke-linejoin="round"/>
</svg>
