<svg width="35" height="35" viewBox="0 0 35 35" fill="none" xmlns="http://www.w3.org/2000/svg">
<circle cx="17.5" cy="17.5" r="17.5" fill="#0AB9AD"/>
<g clip-path="url(#clip0_1694_2308)">
<path d="M11.6849 10.3965L22.4787 21.1902C22.6835 21.3951 22.7986 21.673 22.7986 21.9627C22.7986 22.2525 22.6835 22.5304 22.4787 22.7352V22.7352C22.2738 22.9399 21.9961 23.0549 21.7065 23.0549C21.4169 23.0549 21.1391 22.9399 20.9343 22.7352L18.2968 20.0527C18.1246 19.8775 18.0281 19.6416 18.028 19.3959V19.2334C18.0279 19.1092 18.0032 18.9864 17.9552 18.8719C17.9073 18.7574 17.8371 18.6536 17.7487 18.5665L17.4087 18.2521C17.2931 18.1454 17.1526 18.0695 17 18.0314C16.8474 17.9933 16.6877 17.9942 16.5355 18.034V18.034C16.2956 18.0967 16.0434 18.0956 15.8041 18.0306C15.5647 17.9657 15.3465 17.8393 15.1712 17.664L12.6687 15.1609C11.1837 13.6765 10.6374 11.434 11.6849 10.3965Z" stroke="white" stroke-linecap="round" stroke-linejoin="round"/>
<path d="M21.7188 9.9375L19.4556 12.2006C19.2814 12.3748 19.1433 12.5815 19.049 12.8091C18.9547 13.0367 18.9062 13.2806 18.9062 13.5269V13.9619C18.9061 14.0862 18.8567 14.2053 18.7687 14.2931L18.4375 14.625" stroke="white" stroke-linecap="round" stroke-linejoin="round"/>
<path d="M19.375 15.5625L19.7062 15.2313C19.7497 15.1877 19.8013 15.1531 19.8582 15.1295C19.915 15.1059 19.976 15.0938 20.0375 15.0938H20.4731C20.7194 15.0938 20.9633 15.0453 21.1909 14.951C21.4185 14.8567 21.6252 14.7186 21.7994 14.5444L24.0625 12.2812" stroke="white" stroke-linecap="round" stroke-linejoin="round"/>
<path d="M22.8906 11.1094L20.5469 13.4531" stroke="white" stroke-linecap="round" stroke-linejoin="round"/>
<path d="M15.859 19.7812L12.9371 22.7188C12.7173 22.9384 12.4194 23.0618 12.1087 23.0618C11.798 23.0618 11.5 22.9384 11.2802 22.7188C11.0608 22.499 10.9375 22.2012 10.9375 21.8906C10.9375 21.5801 11.0608 21.2822 11.2802 21.0625L13.749 18.6094" stroke="white" stroke-linecap="round" stroke-linejoin="round"/>
</g>
<defs>
<clipPath id="clip0_1694_2308">
<rect width="15" height="15" fill="white" transform="translate(10 9)"/>
</clipPath>
</defs>
</svg>
