<svg width="35" height="35" viewBox="0 0 35 35" fill="none" xmlns="http://www.w3.org/2000/svg">
<circle cx="17.5" cy="17.5" r="17.5" fill="#0AB9AD"/>
<path d="M13.791 15.1667C13.4263 15.1667 13.0766 15.0218 12.8187 14.7639C12.5609 14.5061 12.416 14.1563 12.416 13.7917C12.416 12.4545 12.9472 11.1722 13.8927 10.2267C14.8382 9.28117 16.1205 8.75 17.4577 8.75C18.7948 8.75 20.0772 9.28117 21.0227 10.2267C21.9682 11.1722 22.4993 12.4545 22.4993 13.7917V23.4167C22.4993 23.9029 22.3062 24.3692 21.9624 24.713C21.6186 25.0568 21.1522 25.25 20.666 25.25H14.2493C13.7631 25.25 13.2968 25.0568 12.953 24.713C12.6092 24.3692 12.416 23.9029 12.416 23.4167V21.5833C12.416 20.3183 13.0668 19.343 14.1393 18.6729L18.1947 16.1383C19.1618 15.5333 19.7493 14.932 19.7493 13.7917C19.7493 13.1839 19.5079 12.601 19.0781 12.1712C18.6484 11.7414 18.0655 11.5 17.4577 11.5C16.8499 11.5 16.267 11.7414 15.8372 12.1712C15.4075 12.601 15.166 13.1839 15.166 13.7917C15.166 14.1563 15.0212 14.5061 14.7633 14.7639C14.5054 15.0218 14.1557 15.1667 13.791 15.1667Z" stroke="white" stroke-linecap="round" stroke-linejoin="round"/>
</svg>
