<svg width="35" height="35" viewBox="0 0 35 35" fill="none" xmlns="http://www.w3.org/2000/svg">
<circle cx="17.5" cy="17.5" r="17.5" fill="#1A365D"/>
<path d="M13.792 15.1667C13.4273 15.1667 13.0776 15.0218 12.8197 14.7639C12.5619 14.5061 12.417 14.1563 12.417 13.7917C12.417 12.4545 12.9482 11.1722 13.8937 10.2267C14.8392 9.28117 16.1215 8.75 17.4587 8.75C18.7958 8.75 20.0782 9.28117 21.0237 10.2267C21.9692 11.1722 22.5003 12.4545 22.5003 13.7917V23.4167C22.5003 23.9029 22.3072 24.3692 21.9634 24.713C21.6195 25.0568 21.1532 25.25 20.667 25.25H14.2503C13.7641 25.25 13.2978 25.0568 12.954 24.713C12.6101 24.3692 12.417 23.9029 12.417 23.4167V21.5833C12.417 20.3183 13.0678 19.343 14.1403 18.6729L18.1957 16.1383C19.1627 15.5333 19.7503 14.932 19.7503 13.7917C19.7503 13.1839 19.5089 12.601 19.0791 12.1712C18.6493 11.7414 18.0664 11.5 17.4587 11.5C16.8509 11.5 16.268 11.7414 15.8382 12.1712C15.4084 12.601 15.167 13.1839 15.167 13.7917C15.167 14.1563 15.0221 14.5061 14.7643 14.7639C14.5064 15.0218 14.1567 15.1667 13.792 15.1667Z" stroke="white" stroke-linecap="round" stroke-linejoin="round"/>
</svg>
