<svg width="35" height="35" viewBox="0 0 35 35" fill="none" xmlns="http://www.w3.org/2000/svg">
<circle cx="17.5" cy="17.5" r="17.5" fill="#1A365D"/>
<path d="M19.8843 14.7019L23.9042 13.6393C24.1154 13.5835 24.3357 13.5693 24.5525 13.5975C24.7692 13.6257 24.9783 13.6957 25.1676 13.8035C25.357 13.9114 25.5229 14.055 25.656 14.2261C25.7891 14.3972 25.8867 14.5925 25.9433 14.8009C25.9999 15.0092 26.0143 15.2265 25.9857 15.4403C25.9572 15.6542 25.8862 15.8604 25.7769 16.0471C25.6675 16.2339 25.522 16.3976 25.3485 16.5289C25.175 16.6602 24.977 16.7565 24.7658 16.8123L12.7044 20L9 15.8786L11.4116 15.2406L13.4511 16.4025L15.8636 15.7645L12.7469 10.6372L15.1593 10L19.8835 14.7019H19.8843Z" stroke="white" stroke-linecap="round" stroke-linejoin="round"/>
<path d="M10 24H25" stroke="white" stroke-linecap="round" stroke-linejoin="round"/>
</svg>
