<svg width="40" height="40" viewBox="0 0 40 40" fill="none" xmlns="http://www.w3.org/2000/svg">
<circle opacity="0.8" cx="20" cy="20" r="20" fill="#0AB9AD"/>
<path d="M21.8333 11.75V15.4167C21.8333 15.6598 21.9298 15.8929 22.1017 16.0648C22.2736 16.2368 22.5068 16.3333 22.7499 16.3333H26.4166" stroke="white" stroke-width="1.5" stroke-linecap="round" stroke-linejoin="round"/>
<path d="M24.5833 28.25H15.4166C14.9304 28.25 14.464 28.0568 14.1202 27.713C13.7764 27.3692 13.5833 26.9029 13.5833 26.4167V13.5833C13.5833 13.0971 13.7764 12.6308 14.1202 12.287C14.464 11.9432 14.9304 11.75 15.4166 11.75H21.8333L26.4166 16.3333V26.4167C26.4166 26.9029 26.2234 27.3692 25.8796 27.713C25.5358 28.0568 25.0695 28.25 24.5833 28.25Z" stroke="white" stroke-width="1.5" stroke-linecap="round" stroke-linejoin="round"/>
</svg>
