<svg width="40" height="40" viewBox="0 0 40 40" fill="none" xmlns="http://www.w3.org/2000/svg">
<circle opacity="0.8" cx="20" cy="20" r="20" fill="#3A70BB"/>
<path d="M22.75 13.5835V15.4168" stroke="white" stroke-width="1.5" stroke-linecap="round" stroke-linejoin="round"/>
<path d="M22.75 19.0835V20.9168" stroke="white" stroke-width="1.5" stroke-linecap="round" stroke-linejoin="round"/>
<path d="M22.75 24.5835V26.4168" stroke="white" stroke-width="1.5" stroke-linecap="round" stroke-linejoin="round"/>
<path d="M13.5833 13.5835H26.4167C26.9029 13.5835 27.3692 13.7767 27.713 14.1205C28.0568 14.4643 28.25 14.9306 28.25 15.4168V18.1668C27.7638 18.1668 27.2975 18.36 26.9536 18.7038C26.6098 19.0476 26.4167 19.5139 26.4167 20.0002C26.4167 20.4864 26.6098 20.9527 26.9536 21.2965C27.2975 21.6403 27.7638 21.8335 28.25 21.8335V24.5835C28.25 25.0697 28.0568 25.536 27.713 25.8799C27.3692 26.2237 26.9029 26.4168 26.4167 26.4168H13.5833C13.0971 26.4168 12.6308 26.2237 12.287 25.8799C11.9432 25.536 11.75 25.0697 11.75 24.5835V21.8335C12.2362 21.8335 12.7025 21.6403 13.0464 21.2965C13.3902 20.9527 13.5833 20.4864 13.5833 20.0002C13.5833 19.5139 13.3902 19.0476 13.0464 18.7038C12.7025 18.36 12.2362 18.1668 11.75 18.1668V15.4168C11.75 14.9306 11.9432 14.4643 12.287 14.1205C12.6308 13.7767 13.0971 13.5835 13.5833 13.5835" stroke="white" stroke-width="1.5" stroke-linecap="round" stroke-linejoin="round"/>
</svg>
