<svg width="40" height="40" viewBox="0 0 40 40" fill="none" xmlns="http://www.w3.org/2000/svg">
<circle opacity="0.8" cx="20" cy="20" r="20" fill="#D35050"/>
<path d="M19.5 22.875V22.8833" stroke="white" stroke-width="1.5" stroke-linecap="round" stroke-linejoin="round"/>
<path d="M19.5 18.125V19.7083" stroke="white" stroke-width="1.5" stroke-linecap="round" stroke-linejoin="round"/>
<path d="M13.9583 26.0419H25.0416C25.2999 26.0401 25.5539 25.9751 25.7813 25.8526C26.0088 25.7301 26.2028 25.5538 26.3464 25.3391C26.4901 25.1244 26.579 24.8778 26.6055 24.6208C26.632 24.3638 26.5952 24.1043 26.4983 23.8648L20.8774 14.1669C20.7405 13.9194 20.5398 13.7131 20.2962 13.5695C20.0525 13.4259 19.7749 13.3501 19.492 13.3501C19.2092 13.3501 18.9315 13.4259 18.6879 13.5695C18.4443 13.7131 18.2435 13.9194 18.1066 14.1669L12.4858 23.8648C12.3907 24.0988 12.353 24.3522 12.3759 24.6037C12.3987 24.8552 12.4813 25.0976 12.6169 25.3107C12.7525 25.5238 12.9371 25.7014 13.1553 25.8285C13.3735 25.9557 13.619 26.0289 13.8712 26.0419" stroke="white" stroke-width="1.5" stroke-linecap="round" stroke-linejoin="round"/>
</svg>
