<svg width="40" height="40" viewBox="0 0 40 40" fill="none" xmlns="http://www.w3.org/2000/svg">
<circle opacity="0.8" cx="20" cy="20" r="20" fill="#F5AC0A"/>
<path d="M25.6333 13.3667L24.9625 14.0375M10.875 19.5H11.8333H10.875ZM19.5 10.875V11.8333V10.875ZM27.1667 19.5H28.125H27.1667ZM13.3667 13.3667L14.0375 14.0375L13.3667 13.3667Z" stroke="white" stroke-width="1.5" stroke-linecap="round" stroke-linejoin="round"/>
<path d="M16.6249 23.3335C15.8204 22.7301 15.2261 21.8888 14.9262 20.9289C14.6263 19.9689 14.6361 18.939 14.9541 17.9849C15.2722 17.0308 15.8823 16.201 16.6982 15.613C17.514 15.0249 18.4942 14.7085 19.4999 14.7085C20.5056 14.7085 21.4858 15.0249 22.3017 15.613C23.1175 16.201 23.7277 17.0308 24.0457 17.9849C24.3637 18.939 24.3735 19.9689 24.0736 20.9289C23.7738 21.8888 23.1795 22.7301 22.3749 23.3335C22.0008 23.7039 21.719 24.1571 21.5525 24.6566C21.3861 25.1561 21.3395 25.6877 21.4166 26.2085C21.4166 26.7168 21.2147 27.2043 20.8552 27.5638C20.4958 27.9232 20.0083 28.1252 19.4999 28.1252C18.9916 28.1252 18.5041 27.9232 18.1446 27.5638C17.7852 27.2043 17.5833 26.7168 17.5833 26.2085C17.6604 25.6877 17.6139 25.156 17.4474 24.6566C17.2809 24.1571 16.9991 23.7038 16.6249 23.3335Z" stroke="white" stroke-width="1.5" stroke-linecap="round" stroke-linejoin="round"/>
<path d="M17.2959 24.2915H21.7042" stroke="white" stroke-width="1.5" stroke-linecap="round" stroke-linejoin="round"/>
</svg>
