<svg width="111" height="111" viewBox="0 0 111 111" fill="none" xmlns="http://www.w3.org/2000/svg">
<circle opacity="0.6" cx="55.3021" cy="55.3021" r="55.3021" fill="#0AB9AD"/>
<path d="M38.5804 45.5049H46.8705L53.9336 37.3689C54.1431 37.1325 54.4255 37 54.7197 37C55.0139 37 55.2962 37.1325 55.5057 37.3689C55.6103 37.4878 55.693 37.6295 55.7489 37.7857C55.8048 37.9418 55.8328 38.1091 55.8312 38.2779V71.7159C55.8304 71.9714 55.7632 72.221 55.6382 72.4327C55.5131 72.6445 55.3359 72.8089 55.1291 72.9052C54.9222 73.0014 54.695 73.025 54.4763 72.9731C54.2577 72.9212 54.0575 72.7961 53.9011 72.6137L46.9291 65.8635H38.5804C37.6308 65.8635 36.7201 65.4317 36.0487 64.6633C35.3772 63.8948 35 62.8525 35 61.7657V49.5989C35 48.5121 35.3772 47.4699 36.0487 46.7014C36.7201 45.9329 37.6308 45.5012 38.5804 45.5012V45.5049ZM59.7761 51.0928C59.7203 50.9401 59.6926 50.7757 59.6949 50.6102C59.6972 50.4446 59.7295 50.2814 59.7896 50.1308C59.8498 49.9802 59.9365 49.8455 60.0443 49.7351C60.1522 49.6247 60.2789 49.5411 60.4163 49.4895C60.5538 49.438 60.6991 49.4195 60.8431 49.4353C60.9871 49.4512 61.1267 49.501 61.2531 49.5816C61.3795 49.6622 61.4899 49.7719 61.5774 49.9038C61.6649 50.0356 61.7277 50.1868 61.7616 50.3477C62.1533 51.9555 62.3246 53.6232 62.2694 55.2912C62.2401 57.0644 62.0155 58.8078 61.5761 59.8397C61.5196 59.9888 61.4372 60.1232 61.3341 60.2349C61.2309 60.3466 61.109 60.4332 60.9758 60.4895C60.8426 60.5458 60.7008 60.5706 60.559 60.5625C60.4172 60.5543 60.2783 60.5134 60.1506 60.4421C60.023 60.3709 59.9093 60.2707 59.8164 60.1478C59.7236 60.0249 59.6534 59.8817 59.6102 59.7269C59.567 59.572 59.5516 59.4088 59.565 59.247C59.5785 59.0852 59.6204 58.9282 59.6883 58.7855C59.991 58.0702 60.1537 56.703 60.1765 55.2539C60.2266 53.8579 60.0916 52.4612 59.7761 51.1114V51.0928ZM65.1923 46.6225C65.0852 46.3261 65.0854 45.9931 65.1929 45.6969C65.3003 45.4007 65.5062 45.1655 65.7651 45.0429C66.0241 44.9204 66.315 44.9207 66.5738 45.0436C66.8326 45.1666 67.0382 45.4022 67.1452 45.6986C68.1217 48.3733 68.6457 51.7447 68.6913 55.0937C68.7368 58.4427 68.3104 61.6949 67.3893 64.3212C67.338 64.468 67.262 64.6017 67.1655 64.7149C67.0691 64.828 66.9541 64.9183 66.8271 64.9805C66.7002 65.0428 66.5638 65.0758 66.4257 65.0778C66.2876 65.0797 66.1505 65.0505 66.0223 64.9918C65.894 64.9331 65.7772 64.846 65.6783 64.7356C65.5795 64.6252 65.5006 64.4936 65.4462 64.3483C65.3918 64.203 65.3629 64.0469 65.3612 63.8889C65.3596 63.7308 65.3851 63.5739 65.4364 63.4271C66.2469 61.0765 66.6212 58.1037 66.5723 55.1012C66.5235 52.0986 66.0581 49.0066 65.1793 46.6038L65.1923 46.6225ZM70.4294 42.8115C70.3695 42.6696 70.3347 42.5157 70.3268 42.3584C70.319 42.2011 70.3383 42.0436 70.3836 41.8948C70.429 41.7461 70.4994 41.609 70.5911 41.4915C70.6827 41.3739 70.7936 41.2781 70.9176 41.2096C71.0416 41.1412 71.1761 41.1013 71.3135 41.0923C71.4509 41.0833 71.5886 41.1054 71.7185 41.1573C71.981 41.2621 72.1963 41.4819 72.3172 41.7684C74.063 46.0164 74.9783 50.649 74.9992 55.3433C75.0285 59.8956 74.2278 64.4292 72.4832 68.2961C72.3537 68.5791 72.1313 68.7917 71.8648 68.8871C71.5984 68.9825 71.3098 68.9528 71.0624 68.8046C70.8151 68.6564 70.6294 68.4018 70.5461 68.0968C70.4627 67.7919 70.4887 67.4616 70.6182 67.1785C72.2065 63.6656 72.9324 59.5193 72.8966 55.3433C72.8802 51.0036 72.036 46.7203 70.4229 42.7929L70.4294 42.8115ZM47.3327 48.0753H38.5804C38.2273 48.0763 37.8888 48.237 37.6388 48.5224C37.3888 48.8078 37.2476 49.1948 37.2459 49.5989V61.7731C37.2476 62.1773 37.3888 62.5642 37.6388 62.8496C37.8888 63.1351 38.2273 63.2958 38.5804 63.2968H47.336C47.336 63.2968 47.987 63.5538 48.0553 63.606L53.6049 68.9592V41.3922L48.1888 47.6246C48.083 47.766 47.9517 47.8795 47.8039 47.9573C47.6562 48.0351 47.4954 48.0754 47.3327 48.0753Z" fill="white"/>
</svg>
