<svg width="111" height="111" viewBox="0 0 111 111" fill="none" xmlns="http://www.w3.org/2000/svg">
<circle opacity="0.6" cx="55.3021" cy="55.3021" r="55.3021" fill="#0AB9AD"/>
<path d="M64.5589 54.5453V68.298C64.5589 69.015 64.2044 69.6187 63.6595 70.0549C63.0835 70.516 62.3081 70.7749 61.5 70.776V70.7715C60.7593 70.7711 60.008 70.5557 59.4022 70.0807L51.7845 65.0446L42.6752 72.5314C41.9151 73.1537 40.6782 73.1565 39.9133 72.538C39.1485 71.9194 39.1451 70.9129 39.9053 70.2906L62.0905 52.0562L64.5589 50.0203V50.0279L71.6622 44.1894C72.4224 43.5671 73.6593 43.5644 74.4241 44.1829C75.1889 44.8014 75.1923 45.8079 74.4321 46.4302L64.5589 54.5453ZM53.7952 63.392L61.2259 68.3045C61.2754 68.3359 61.3232 68.3703 61.3685 68.4078C61.4108 68.4426 61.4586 68.4591 61.5 68.4591V68.4546C61.5322 68.4546 61.5643 68.4494 61.5922 68.4402C61.6231 68.4302 61.6485 68.4174 61.6646 68.4047C61.6895 68.3847 61.706 68.3486 61.706 68.298V56.89L53.7952 63.392ZM40.4417 64.7413C39.0889 64.5465 37.8735 64.0127 36.9378 63.2516C35.7424 62.2799 35 60.9413 35 59.4705V49.6713C35 48.2002 35.7424 46.8619 36.9378 45.8902C38.1304 44.9205 39.7763 44.3189 41.583 44.3189H51.3585L59.3405 37.7445C59.9607 37.231 60.7373 37 61.5 37C61.8989 37 62.2953 37.0647 62.6625 37.1866C63.0343 37.3103 63.3729 37.4917 63.6595 37.7208C64.2035 38.1569 64.5589 38.7596 64.5589 39.4776V44.9426C64.1139 45.2421 63.7353 45.5267 63.5026 45.7191L61.706 47.2009V39.4776C61.706 39.427 61.6895 39.3909 61.6646 39.3709C61.6489 39.3582 61.6235 39.3461 61.5922 39.3358C61.5629 39.3262 61.5316 39.3213 61.5 39.3214C61.4543 39.3214 61.407 39.3361 61.3685 39.3678L53.035 46.2316C52.7731 46.4815 52.3835 46.6402 51.9487 46.6402H41.583C40.5551 46.6402 39.6202 46.9813 38.9438 47.5314C38.2708 48.0783 37.8528 48.8359 37.8528 49.6713V59.4705C37.8528 60.3063 38.2708 61.0635 38.9438 61.6104C39.6202 62.1605 40.5551 62.5016 41.583 62.5016H43.1571L40.4417 64.7413Z" fill="white"/>
</svg>
