<svg width="375" height="270" viewBox="0 0 375 270" fill="none" xmlns="http://www.w3.org/2000/svg">
<g opacity="0.5" clip-path="url(#clip0_1569_1930)">
<path d="M292.906 118.278C292.906 118.278 286.45 102.744 270.406 104.214C270.406 104.214 247.555 78.1399 222.413 100.047C222.413 100.047 196.143 94.1205 176.464 104.126C163.343 110.799 158.934 117.94 158.934 117.94L292.903 118.278H292.906Z" fill="#F8FCFF"/>
<path d="M205.196 68.1271C205.196 68.1271 197.784 49.0368 179.316 50.8621C179.316 50.8621 153.047 18.8309 124.083 45.7981C124.083 45.7981 93.854 38.5424 71.1922 50.8691C56.0832 59.088 51 67.8723 51 67.8723L205.196 68.1271Z" fill="#F8FCFF"/>
<path d="M240.286 76.681C240.286 76.681 243.655 68.3958 251.703 69.3206C251.703 69.3206 263.394 55.5142 275.851 67.4884C275.851 67.4884 289.098 64.5289 298.906 70.064C305.444 73.7564 307.604 77.6268 307.604 77.6268L240.29 76.6845L240.286 76.681Z" fill="#F8FCFF"/>
</g>
<g clip-path="url(#clip1_1569_1930)">
<path d="M213.893 18.1985L215.708 16.802C216.489 16.2056 217.467 15.9253 218.446 16.0171C219.424 16.1088 220.332 16.5658 220.989 17.2971L224.125 20.7757C224.652 21.365 224.988 22.0998 225.09 22.8836C225.192 23.6674 225.055 24.4638 224.696 25.1683L223.897 26.8441C223.351 27.9049 222.554 28.8165 221.577 29.5001C220.599 30.1837 219.469 30.6185 218.285 30.767L213.207 31.4144C211.883 31.5832 210.539 31.4517 209.273 31.0298C208.007 30.6078 206.852 29.9061 205.895 28.9769L204.701 27.8343C206.999 22.3372 213.893 18.1985 213.893 18.1985Z" fill="#FFC2BC"/>
<path d="M154.25 100.147L154.338 98.4075L154.44 96.8206C154.529 95.7796 154.643 94.7385 154.757 93.7102C154.986 91.6536 155.303 89.6223 155.646 87.5783C156.352 83.5052 157.285 79.4745 158.439 75.505C159.594 71.478 161.019 67.5335 162.705 63.6982C164.398 59.7624 166.424 55.9781 168.76 52.3866C169.533 51.2108 170.404 50.1023 171.363 49.0731C172.175 48.1717 172.975 47.41 173.775 46.6609C175.349 45.201 176.924 43.8679 178.485 42.5857C181.621 40.0466 184.833 37.698 188.032 35.4128C194.435 30.8994 201.062 26.713 207.888 22.8697C208.821 22.3467 209.913 22.1814 210.959 22.4045C212.006 22.6275 212.935 23.2239 213.574 24.0821C214.213 24.9403 214.518 26.0017 214.432 27.0681C214.346 28.1346 213.874 29.1332 213.106 29.8776C207.608 35.2097 201.946 40.4275 196.475 45.6453C193.732 48.1844 191.041 50.8885 188.464 53.4911C187.194 54.7606 185.925 56.1063 184.833 57.3886C184.3 58.0234 183.766 58.6581 183.335 59.2294C183.008 59.6251 182.719 60.0501 182.471 60.499C179.328 66.6902 176.941 73.2374 175.362 79.9992C174.524 83.4396 173.813 86.9436 173.242 90.4729C172.95 92.2376 172.709 94.0022 172.48 95.7669L172.175 98.4075L172.036 99.6771L171.934 100.832V101.277C171.714 103.57 170.605 105.685 168.845 107.172C167.085 108.658 164.814 109.398 162.517 109.232C160.219 109.066 158.077 108.009 156.549 106.285C155.021 104.561 154.228 102.308 154.338 100.007L154.25 100.147Z" fill="#FFC2BC"/>
<path d="M232.974 58.0368C254.658 76.3309 226.055 93.3301 246.228 112.919C266.401 132.508 281.509 146.626 264.966 166.329C251.649 182.185 212.357 190.209 183.297 164.45C154.237 138.691 199.395 120.295 178.536 104.908C157.677 89.5215 184.122 55.2819 191.739 52.2096C191.155 35.5532 225.826 33.2934 232.974 58.0368Z" fill="#1A365D"/>
<path d="M284.403 162C284.311 162.018 284.216 162.018 284.124 162C270.819 155.653 268.597 145.661 266.452 135.975C264.408 126.77 262.313 117.249 251.027 110.025C234.409 99.3864 237.824 89.6363 240.871 81.0288C243.727 72.8656 246.203 65.7943 232.085 58.7991C231.933 58.7227 231.816 58.5892 231.762 58.4275C231.707 58.2659 231.718 58.0891 231.793 57.9358C231.875 57.7846 232.01 57.6701 232.173 57.6158C232.336 57.5615 232.514 57.5716 232.669 57.6438C247.802 65.1722 245.035 73.0814 242.102 81.4604C239.169 89.8394 236.008 98.8405 251.763 108.933C263.494 116.449 265.665 126.225 267.759 135.695C269.93 145.509 271.987 154.738 284.721 160.82C284.875 160.894 284.995 161.026 285.052 161.188C285.109 161.35 285.099 161.528 285.025 161.683C284.964 161.791 284.872 161.878 284.762 161.935C284.651 161.991 284.527 162.014 284.403 162Z" fill="#1A365D"/>
<path d="M133.353 159.08C133.353 159.08 115.313 214.648 104.953 254.436C103.683 259.327 103.06 264.363 103.1 269.416C103.493 310.346 104.369 391.826 104.369 391.826L114.107 393.159C114.107 393.159 138.025 304.291 132.096 270.927C165.866 210.763 175.972 179.761 175.972 179.761L133.353 159.08Z" fill="#1A365D"/>
<path opacity="0.2" d="M149.26 205.686L158.604 220.273C154.77 228.288 150.141 237.458 144.715 247.784C145.414 235.676 144.301 223.533 141.415 211.754L149.26 205.686Z" fill="black"/>
<path d="M139.472 192.608C135.079 200.872 137.035 210.254 141.364 218.544C149.641 234.376 168.748 260.757 178.092 285.259C186.026 306.079 268.851 344.013 278.068 351.656L284.835 344.953C284.835 344.953 228.975 280.752 205.425 276.702C198.582 196.556 174.854 175.253 174.854 175.253C158.236 172.219 146.848 178.744 139.472 192.608Z" fill="#1A365D"/>
<path d="M152.51 103.055C150.568 107.561 138.634 114.392 144.372 124.484C141.059 133.904 138.025 143.299 133.353 159.079L178.269 180.878C182.56 167.319 189.949 153.1 209.716 127.557C210.795 126.156 211.568 124.545 211.984 122.826C212.401 121.108 212.451 119.321 212.133 117.582C211.814 115.843 211.134 114.19 210.136 112.73C209.138 111.271 207.844 110.038 206.339 109.11C204.638 108.057 202.81 106.977 200.905 105.949C194.355 102.168 187.541 98.8628 180.516 96.0594C178.218 95.1834 175.806 94.3582 173.483 93.6091C169.438 92.3055 165.053 92.5499 161.179 94.295C157.304 96.0401 154.215 99.1616 152.51 103.055Z" fill="#8253F6"/>
<path d="M180.517 96.009C175.21 93.7492 170.69 85.0655 172.823 77.9688C165.511 78.4385 156.89 83.0469 153.882 89.7501C152.688 96.6057 152.612 110.241 152.612 110.241L180.517 96.009Z" fill="#8253F6"/>
<path d="M309.591 114.836L311.432 113.478C312.219 112.889 312.756 112.025 312.935 111.058C313.114 110.091 312.921 109.092 312.397 108.26L309.858 104.299C309.436 103.629 308.82 103.102 308.092 102.789C307.365 102.476 306.559 102.392 305.782 102.547L303.941 102.903C302.771 103.137 301.676 103.654 300.751 104.409C299.826 105.163 299.1 106.132 298.635 107.232L296.629 111.916C296.105 113.142 295.864 114.47 295.924 115.802C295.983 117.134 296.341 118.435 296.972 119.61L297.759 121.07C303.726 120.333 309.591 114.836 309.591 114.836Z" fill="#FFC2BC"/>
<path d="M204.854 111.852L228.62 114.391C232.568 114.785 236.516 115.216 240.426 115.559L246.254 116.016C248.145 116.156 250.227 116.27 251.522 116.257C255.039 116.105 259.14 115.75 263.012 115.331L274.945 114.061C282.943 113.21 291.005 112.36 299.067 111.751C300.142 111.667 301.21 111.981 302.069 112.633C302.929 113.284 303.519 114.228 303.729 115.286C303.938 116.344 303.753 117.442 303.207 118.372C302.661 119.302 301.793 120 300.768 120.333C292.973 122.872 285.14 125.03 277.218 126.998C273.257 127.988 269.27 128.902 265.233 129.765C261.196 130.629 257.21 131.428 252.678 131.962C249.923 132.216 247.968 132.228 245.822 132.266C243.676 132.304 241.607 132.266 239.474 132.266C235.323 132.177 231.197 132.025 227.096 131.759C218.87 131.251 210.783 130.489 202.607 129.346C200.483 128.841 198.619 127.572 197.371 125.781C196.123 123.989 195.578 121.801 195.84 119.634C196.102 117.466 197.153 115.471 198.792 114.029C200.431 112.586 202.544 111.798 204.727 111.814L204.854 111.852Z" fill="#FFC2BC"/>
<path d="M183.081 169.566C185.011 170.835 180.415 178.935 182.167 182.261C183.919 185.587 184.706 187.339 183.106 187.796C181.507 188.253 149.133 181.639 131.398 168.22C131.073 167.961 130.816 167.627 130.65 167.247C130.484 166.866 130.414 166.45 130.446 166.036C130.979 159.003 134.254 149.469 136.286 149.329C138.317 149.189 175.934 164.944 183.081 169.566Z" fill="#8253F6"/>
<path opacity="0.4" d="M183.081 169.566C185.011 170.835 180.415 178.935 182.167 182.261C183.919 185.587 184.706 187.339 183.106 187.796C181.507 188.253 149.133 181.639 131.398 168.22C131.073 167.961 130.816 167.627 130.65 167.247C130.484 166.866 130.414 166.45 130.446 166.036C130.979 159.003 134.254 149.469 136.286 149.329C138.317 149.189 175.934 164.944 183.081 169.566Z" fill="white"/>
<path d="M210.033 81.9551C205.565 87.8838 198.442 99.2843 200.905 105.899C200.905 105.899 184.858 101.024 169.167 109.707C169.992 96.6818 180.466 95.9582 180.466 95.9582C188.629 97.7482 191.079 92.2384 192.272 86.5127L210.033 81.9551Z" fill="#FFC2BC"/>
<path opacity="0.2" d="M202.81 83.8337L192.336 86.5633C192.077 87.9019 191.698 89.2147 191.206 90.4861C194.202 91.4383 199.522 90.2322 201.248 87.4519C201.985 86.3511 202.514 85.1249 202.81 83.8337Z" fill="black"/>
<path d="M221.98 74.6161C214.236 84.0488 211.29 89.3174 202.607 89.7237C187.753 90.4092 182.294 78.2978 185.988 69.5506C190.406 59.2166 201.223 45.0358 213.499 47.9684C225.776 50.9011 229.711 65.1834 221.98 74.6161Z" fill="#FFC2BC"/>
<path d="M201.172 44.8848C201.845 52.21 215.213 62.4299 219.466 64.842C213.829 67.5334 211.316 79.556 221.536 80.5716C231.755 81.5873 240.807 40.124 201.172 44.8848Z" fill="#1A365D"/>
<path d="M190.229 68.4463C190.229 68.4463 194.24 69.3477 204.473 74.0069C201.934 76.1905 198.595 77.4093 193.364 74.9844C188.134 72.5596 190.229 68.4463 190.229 68.4463Z" fill="white"/>
<path d="M218.895 83.9861C217.944 84.5399 216.887 84.8861 215.793 85.0021C214.699 85.1181 213.593 85.0011 212.547 84.659C209.907 83.6941 210.554 80.4949 212.941 78.5017C215.086 76.6989 219.035 75.0485 220.888 77.1179C222.742 79.1872 221.472 82.5642 218.895 83.9861Z" fill="#FFC2BC"/>
<path opacity="0.2" d="M162.248 123.52C164.892 130.08 169.644 135.574 175.756 139.135C164.838 137.027 161.892 128.382 162.248 123.52Z" fill="black"/>
<path d="M200.905 105.898C206.796 109.821 222.983 111.281 228.366 111.662C228.545 111.666 228.72 111.719 228.871 111.816C229.022 111.913 229.144 112.049 229.222 112.211C229.301 112.372 229.334 112.552 229.317 112.73C229.3 112.909 229.235 113.08 229.127 113.223C226.69 115.763 218.73 127.011 218.412 132.647C218.38 133.214 218.164 133.754 217.798 134.186C217.431 134.619 216.934 134.921 216.381 135.047C200.74 138.462 193.606 136.608 190.673 132.571C187.601 128.344 200.905 105.898 200.905 105.898Z" fill="#8253F6"/>
</g>
<defs>
<clipPath id="clip0_1569_1930">
<rect width="273" height="151" fill="white" transform="translate(51 35)"/>
</clipPath>
<clipPath id="clip1_1569_1930">
<rect width="226" height="254" fill="white" transform="translate(87 16)"/>
</clipPath>
</defs>
</svg>
