<svg width="375" height="270" viewBox="0 0 375 270" fill="none" xmlns="http://www.w3.org/2000/svg">
<g clip-path="url(#clip0_1569_1934)">
<g opacity="0.5" clip-path="url(#clip1_1569_1934)">
<path d="M299.906 118.278C299.906 118.278 293.449 102.744 277.406 104.214C277.406 104.214 254.554 78.1399 229.412 100.047C229.412 100.047 203.143 94.1205 183.464 104.126C170.343 110.799 165.934 117.94 165.934 117.94L299.903 118.278H299.906Z" fill="#F8FCFF"/>
<path d="M212.196 68.1271C212.196 68.1271 204.784 49.0368 186.316 50.8621C186.316 50.8621 160.047 18.8309 131.083 45.7981C131.083 45.7981 100.854 38.5424 78.1922 50.8691C63.0832 59.088 58 67.8723 58 67.8723L212.196 68.1271Z" fill="#F8FCFF"/>
<path d="M247.286 76.6813C247.286 76.6813 250.655 68.396 258.703 69.3209C258.703 69.3209 270.394 55.5144 282.851 67.4886C282.851 67.4886 296.098 64.5291 305.906 70.0642C312.444 73.7566 314.604 77.627 314.604 77.627L247.29 76.6847L247.286 76.6813Z" fill="#F8FCFF"/>
</g>
<path d="M212.51 114.938L215.547 138.443C216.604 146.224 217.71 154.07 219.229 161.338L220.186 165.484C220.327 166.066 220.617 166.601 221.028 167.037C222.953 168.589 225.287 169.547 227.747 169.795C234.119 170.902 242.109 170.291 249.438 169.366L252.624 178.947C248.674 180.848 244.55 182.364 240.309 183.473C235.876 184.699 231.305 185.354 226.707 185.422C224.116 185.431 221.532 185.166 218.997 184.629C216.024 183.968 213.198 182.764 210.661 181.078C207.785 179.139 205.441 176.509 203.843 173.43C203.172 172.099 202.62 170.711 202.192 169.283C201.846 168.226 201.449 167.119 201.152 166.095C198.822 158.017 196.964 149.81 195.589 141.516C194.203 133.372 193.096 125.344 192.288 117.068L212.51 114.938Z" fill="#BD7E51"/>
<path d="M184.1 98.5341C177.497 108.957 192.222 146.653 192.222 146.653L220.285 138.146C218.619 127.015 215.769 116.095 211.784 105.571C205.577 90.4235 191.314 87.1033 184.1 98.5341Z" fill="#1A365D"/>
<path d="M204.338 100.385C207.376 114.492 211.866 147.231 205.048 200.157L136.293 204.881C135.203 195.267 138.422 149.015 132.149 102.879C131.9 101.126 132.009 99.3413 132.47 97.632C132.93 95.9227 133.733 94.3247 134.829 92.9348C135.924 91.5449 137.291 90.392 138.845 89.5459C140.399 88.6998 142.108 88.1781 143.87 88.0124C146.858 87.7316 150.06 87.5169 153.23 87.4343C162.997 87.1176 172.775 87.3603 182.515 88.1611C186.487 88.641 190.432 89.3247 194.335 90.2094C196.801 90.7691 199.054 92.0255 200.828 93.8293C202.601 95.6331 203.819 97.9084 204.338 100.385Z" fill="#1A365D"/>
<path d="M156.944 54.5627C158.595 64.0444 159.965 81.3558 153.23 87.4842C153.23 87.4842 156.779 97.1475 174.278 97.577C190.274 97.9734 182.532 88.211 182.532 88.211C172.082 85.4524 172.544 77.6556 174.558 70.371L156.944 54.5627Z" fill="#BD7E51"/>
<path opacity="0.2" d="M164.109 61.0215L174.525 70.3544C174.037 72.051 173.694 73.7863 173.502 75.5413C169.969 78.7128 164.092 70.3214 163.762 66.1092C163.574 64.4061 163.692 62.6833 164.109 61.0215Z" fill="#1A365D"/>
<path d="M153.907 86.8064C151.101 84.7912 143.655 85.5841 136.904 86.9056C133.421 87.5911 130.32 89.5528 128.207 92.4065C126.094 95.2602 125.121 98.8004 125.48 102.334C127.56 123.345 131.324 165.6 129.97 183.77C140.684 194.441 161.104 197.877 161.104 197.877C161.104 197.877 171.801 99.757 153.907 86.8064Z" fill="#F5AC0A"/>
<path d="M184.347 86.708C188.858 86.4759 193.365 87.2313 197.554 88.9214C199.619 89.6857 201.464 90.9453 202.929 92.5898C204.394 94.2343 205.434 96.2134 205.956 98.3535C209.175 111.436 215.184 143.449 209.885 184.927C199.171 195.598 192.948 193.451 192.948 193.451C192.948 193.451 194.17 113.435 182.548 89.9125C182.392 89.5874 182.318 89.2296 182.329 88.8693C182.341 88.509 182.439 88.1569 182.616 87.8427C182.792 87.5284 183.042 87.2613 183.343 87.0638C183.644 86.8663 183.989 86.7442 184.347 86.708Z" fill="#F5AC0A"/>
<path d="M246.335 170.357L254.77 166.095L252.773 180.631C252.773 180.631 245.311 184.034 242.521 176.799L246.335 170.357Z" fill="#BD7E51"/>
<path d="M189.993 29.604C196.513 33.618 193.625 55.7032 186.031 49.5583C178.437 43.4134 185.734 26.994 189.993 29.604Z" fill="#1A365D"/>
<path d="M156.168 40.3568C156.63 53.1422 156.267 60.6416 162.54 67.3646C171.999 77.4574 187.88 71.9898 191.247 59.3201C194.268 47.9223 192.981 28.926 180.616 23.541C177.896 22.3401 174.915 21.8553 171.955 22.1326C168.995 22.4098 166.155 23.44 163.705 25.1251C161.255 26.8103 159.276 29.0944 157.957 31.7603C156.638 34.4263 156.022 37.3856 156.168 40.3568Z" fill="#BD7E51"/>
<path d="M163.993 40.7199C163.303 42.8151 162.115 44.7112 160.531 46.245C158.946 47.7787 157.013 48.9041 154.897 49.5242C149.829 41.9422 147.865 38.8202 152.52 33.5013C149.945 28.2814 176.506 16.2394 187.187 21.9383C197.867 27.6372 191.479 33.2535 186.708 34.5089C182.559 35.235 178.311 35.1902 174.178 34.3767C172.005 34.0527 169.786 34.5128 167.92 35.6749C166.055 36.8369 164.662 38.6251 163.993 40.7199Z" fill="#1A365D"/>
<path d="M148.954 50.6966C150.218 53.6362 152.592 55.9574 155.557 57.1554C159.536 58.6916 161.929 55.2392 161.17 51.2748C160.477 47.7068 157.588 42.6026 153.444 42.7512C149.301 42.8999 147.419 47.0626 148.954 50.6966Z" fill="#BD7E51"/>
<path d="M205.048 200.156C205.048 200.156 237.718 300.688 245.625 339.226C253.879 379.316 275.966 502.858 275.966 502.858L256.504 510.457C256.504 510.457 218.535 390.334 208.135 351.549C196.794 309.311 159.85 203.262 159.85 203.262L205.048 200.156Z" fill="#1A365D"/>
<path opacity="0.3" d="M174.707 209.837L170.315 233.673C177.315 254.222 186.691 282.072 194.714 307.147C193.033 273.881 186.286 241.066 174.707 209.837Z" fill="#1A365D"/>
<path d="M180.65 201.842C180.65 201.842 182.036 307.362 176.556 344.744C170.547 385.66 135.401 508.706 135.401 508.706H111.812C111.812 508.706 135.996 391.309 138.224 351.037C140.684 307.346 136.276 204.881 136.276 204.881L180.65 201.842Z" fill="#1A365D"/>
<path d="M190.719 85.2542C190.719 85.2542 197.322 140.872 133.635 209.837V217.088C133.635 217.088 160.939 198.786 180.814 155.161C202.704 107.059 196.398 87.9632 196.398 87.9632L190.719 85.2542Z" fill="#8253F6"/>
<path opacity="0.3" d="M190.719 85.2542C190.719 85.2542 197.322 140.872 133.635 209.837V217.088C133.635 217.088 160.939 198.786 180.814 155.161C202.704 107.059 196.398 87.9632 196.398 87.9632L190.719 85.2542Z" fill="#1A365D"/>
<path d="M132.463 204.005C128.088 204.583 126.206 209.572 125.051 216.955C123.895 224.339 119.372 233.358 133.073 238.628C146.775 243.897 150.654 237.637 151.793 228.535C152.932 219.433 160.972 200.288 132.463 204.005Z" fill="#8253F6"/>
<path opacity="0.3" d="M151.562 213.289C151.562 213.289 143.556 220.59 134.708 219.153C125.859 217.716 126.289 212.661 126.289 212.661C126.289 212.661 123.713 218.922 134.064 221.366C144.414 223.811 151.562 213.289 151.562 213.289Z" fill="#1A365D"/>
<path opacity="0.3" d="M132.446 216.626C132.957 216.626 133.371 215.702 133.371 214.562C133.371 213.421 132.957 212.497 132.446 212.497C131.936 212.497 131.522 213.421 131.522 214.562C131.522 215.702 131.936 216.626 132.446 216.626Z" fill="#1A365D"/>
<path d="M276 101.29L249.356 112.74L213.51 107.676L177.252 96L159.891 170.169L144 240.226L186.436 241L231.334 238.678L250.826 228.276L252.874 166.557L276 101.29Z" fill="#F5AC0A"/>
<path opacity="0.9" d="M276 101.29L249.356 112.74L213.51 107.676L177.252 96L159.891 170.169L144 240.226L186.436 241L231.334 238.678L250.826 228.276L252.874 166.557L276 101.29Z" fill="white"/>
<path d="M184.413 99.0303L161.005 170.539L194.499 178.303L220.169 112.377L184.413 99.0303Z" fill="#8253F6"/>
<path d="M255.76 118.936L231.874 181.244L194.5 178.303L220.169 112.378L255.76 118.936Z" fill="#8253F6"/>
<path opacity="0.1" d="M255.76 118.936L231.874 181.244L194.5 178.303L220.169 112.378L255.76 118.936Z" fill="#1A365D"/>
<path d="M255.761 118.935L231.874 181.243L257.164 174.157L282.834 108.248L255.761 118.935Z" fill="#8253F6"/>
<path opacity="0.2" d="M255.761 118.935L231.874 181.243L257.164 174.157L282.834 108.248L255.761 118.935Z" fill="#1A365D"/>
<path d="M149.796 245.566L161.005 170.539L194.499 178.303L187.896 247.796L149.796 245.566Z" fill="#8253F6"/>
<path d="M232.815 247.136L231.874 181.243L194.5 178.303L187.896 247.796L232.815 247.136Z" fill="#8253F6"/>
<path opacity="0.1" d="M232.815 247.136L231.874 181.243L194.5 178.303L187.896 247.796L232.815 247.136Z" fill="white"/>
<path d="M232.815 247.136L231.874 181.244L257.164 174.157L254.754 226.306L232.815 247.136Z" fill="#8253F6"/>
<path d="M137.349 112.939L129.97 137.997C128.765 142.176 127.659 146.339 126.553 150.469C125.447 154.598 124.539 158.728 123.829 162.61L123.4 165.187C123.4 165.418 123.317 165.501 123.268 165.534C123.218 165.567 123.07 165.897 123.763 166.624C124.735 167.546 125.85 168.304 127.065 168.87C128.692 169.662 130.382 170.32 132.116 170.836C140.12 173.041 148.319 174.463 156.597 175.081L157.274 185.158C152.652 186.017 147.973 186.536 143.275 186.71C138.44 186.929 133.594 186.708 128.798 186.05C126.19 185.665 123.617 185.069 121.105 184.266C118.144 183.357 115.354 181.961 112.851 180.136C111.319 179.004 109.952 177.665 108.79 176.155C107.479 174.456 106.478 172.538 105.835 170.489C105.221 168.473 104.942 166.369 105.01 164.262V163.551V163.072V162.131L105.159 160.231C106.224 150.993 107.912 141.838 110.21 132.827C112.389 124.006 114.832 115.433 117.688 106.761L137.349 112.939Z" fill="#BD7E51"/>
<path d="M129.144 92.0106C117.094 94.6205 106.033 137.734 106.033 137.734L132.561 150.42C132.561 150.42 142.466 129.59 146.956 114.327C151.744 98.3207 142.054 89.2189 129.144 92.0106Z" fill="#1A365D"/>
<path d="M151.959 176.238L160.939 167.847L164.356 182.482C164.356 182.482 156.267 189.552 149.73 184.266L151.959 176.238Z" fill="#BD7E51"/>
<path d="M172.577 166.476L175.02 179.872L164.356 182.482L160.939 167.847L172.577 166.476Z" fill="#BD7E51"/>
<path d="M262.925 169.167L260.647 182.217L252.772 180.631L254.77 166.095L262.925 169.167Z" fill="#BD7E51"/>
<path d="M201.219 23.3102C201.499 24.3178 188.161 28.9595 171.422 33.6508C154.683 38.342 140.882 41.3319 140.585 40.2582C140.288 39.1845 153.643 34.6088 170.398 29.9176C187.154 25.2263 200.954 22.286 201.219 23.3102Z" fill="#1A365D"/>
<path d="M165.281 11.7632C155.706 14.4557 149.846 23.4748 152.223 31.9158L186.889 22.1699C184.562 13.7289 174.872 9.07069 165.281 11.7632Z" fill="#8253F6"/>
<path d="M151.233 32.5111C150.752 30.303 150.786 28.0139 151.332 25.8211C156.829 24.2848 169.358 22.5174 173.716 25.276C163.151 29.0917 151.233 32.5111 151.233 32.5111Z" fill="#1A365D"/>
<path d="M187.6 21.4922C186.6 18.3903 184.581 15.7181 181.871 13.9102C176.506 15.8924 162.524 22.6815 160.807 30.0157C171.603 26.8442 187.6 21.4922 187.6 21.4922Z" fill="#1A365D"/>
<path d="M168.962 24.8629C141.625 32.544 140.304 39.3166 140.585 40.3242C140.304 39.3166 153.642 34.6749 170.398 29.9836C187.153 25.2923 200.938 22.286 201.218 23.3762C200.954 22.286 196.299 17.1983 168.962 24.8629Z" fill="#8253F6"/>
</g>
<defs>
<clipPath id="clip0_1569_1934">
<rect width="273" height="259" fill="white" transform="translate(51 11)"/>
</clipPath>
<clipPath id="clip1_1569_1934">
<rect width="273" height="151" fill="white" transform="translate(58 35)"/>
</clipPath>
</defs>
</svg>
