<svg width="375" height="270" viewBox="0 0 375 270" fill="none" xmlns="http://www.w3.org/2000/svg">
<g clip-path="url(#clip0_1569_1888)">
<g opacity="0.5" clip-path="url(#clip1_1569_1888)">
<path d="M304.906 118.278C304.906 118.278 298.45 102.744 282.406 104.214C282.406 104.214 259.555 78.1399 234.413 100.047C234.413 100.047 208.143 94.1205 188.464 104.126C175.343 110.799 170.934 117.94 170.934 117.94L304.903 118.278H304.906Z" fill="#F8FCFF"/>
<path d="M217.196 68.1271C217.196 68.1271 209.784 49.0368 191.316 50.8621C191.316 50.8621 165.047 18.8309 136.083 45.7981C136.083 45.7981 105.854 38.5424 83.1922 50.8691C68.0832 59.088 63 67.8723 63 67.8723L217.196 68.1271Z" fill="#F8FCFF"/>
<path d="M252.286 76.6813C252.286 76.6813 255.655 68.396 263.703 69.3209C263.703 69.3209 275.394 55.5144 287.851 67.4886C287.851 67.4886 301.098 64.5291 310.906 70.0642C317.444 73.7566 319.604 77.627 319.604 77.627L252.29 76.6847L252.286 76.6813Z" fill="#F8FCFF"/>
</g>
<path d="M231.363 224.566H187.244C185.203 224.579 183.18 224.175 181.3 223.379C179.421 222.582 177.724 221.41 176.316 219.935C174.907 218.46 173.816 216.713 173.11 214.802C172.404 212.89 172.097 210.855 172.209 208.821L176.088 127.219C176.335 122.994 178.177 119.019 181.245 116.095C184.312 113.171 188.376 111.515 192.618 111.461H236.736C238.777 111.447 240.799 111.849 242.678 112.645C244.557 113.44 246.253 114.611 247.66 116.085C249.068 117.559 250.158 119.306 250.863 121.217C251.568 123.127 251.873 125.162 251.76 127.195L247.88 208.821C247.631 213.042 245.789 217.012 242.725 219.933C239.66 222.855 235.601 224.51 231.363 224.566Z" fill="#8253F6"/>
<path opacity="0.3" d="M231.363 224.566H187.244C185.203 224.579 183.18 224.175 181.3 223.379C179.421 222.582 177.724 221.41 176.316 219.935C174.907 218.46 173.816 216.713 173.11 214.802C172.404 212.89 172.097 210.855 172.209 208.821L176.088 127.219C176.335 122.994 178.177 119.019 181.245 116.095C184.312 113.171 188.376 111.515 192.618 111.461H236.736C238.777 111.447 240.799 111.849 242.678 112.645C244.557 113.44 246.253 114.611 247.66 116.085C249.068 117.559 250.158 119.306 250.863 121.217C251.568 123.127 251.873 125.162 251.76 127.195L247.88 208.821C247.631 213.042 245.789 217.012 242.725 219.933C239.66 222.855 235.601 224.51 231.363 224.566Z" fill="#1A365D"/>
<path d="M187.088 97.0381H240.544C242.744 97.0476 244.852 97.9248 246.407 99.4784C247.962 101.032 248.838 103.136 248.844 105.332C248.841 107.528 247.966 109.634 246.41 111.188C244.855 112.743 242.745 113.619 240.544 113.625H187.088C184.885 113.619 182.775 112.743 181.217 111.189C179.659 109.635 178.782 107.529 178.775 105.332C178.785 103.135 179.664 101.031 181.22 99.4777C182.777 97.9244 184.886 97.0476 187.088 97.0381Z" fill="#8253F6"/>
<path d="M194.751 48.1172C167.872 67.565 168.836 85.8349 177.004 94.3087C184.522 102.11 200.943 108.504 220.039 101.34C235.376 95.5828 223.822 70.7863 223.653 64.1875C223.484 57.5887 194.751 48.1172 194.751 48.1172Z" fill="#1A365D"/>
<path d="M186.75 54.6318C173.98 60.5095 167.474 76.9403 167.534 84.1161C171.486 73.2984 178.907 61.3989 188.1 58.0935C187.425 56.5309 186.75 54.6318 186.75 54.6318Z" fill="#1A365D"/>
<path d="M181.824 49.4877C180.486 53.2979 189.968 57.5048 195.461 59.1034C200.955 60.702 201.329 50.6897 201.329 50.6897C201.329 50.6897 183.113 45.7977 181.824 49.4877Z" fill="#F5AC0A"/>
<path opacity="0.3" d="M181.824 49.4877C180.486 53.2979 189.968 57.5048 195.461 59.1034C200.955 60.702 201.329 50.6897 201.329 50.6897C201.329 50.6897 183.113 45.7977 181.824 49.4877Z" fill="#1A365D"/>
<path d="M200.16 264.496C196.726 275.734 192.425 288.09 187.004 301.42C187.936 316.933 187.403 332.499 185.413 347.912C177.293 350.833 156.8 349.114 155.848 346.626C157.053 330.267 158.258 314.053 159.318 301.42C158.547 258.149 169.547 189.926 169.547 189.926H213.292C213.292 189.926 214.388 217.691 200.16 264.496Z" fill="#F5AC0A"/>
<path opacity="0.2" d="M205.508 244.988C203.34 253.87 200.545 263.726 196.991 274.436C195.942 252.801 190.099 223.953 189.895 222.968L205.508 244.988Z" fill="#1A365D"/>
<path d="M247.58 350.833C234.749 353.525 217.268 352.431 216.256 349.691C215.701 334.258 212.4 318.909 209.437 304.689C207.123 293.655 203.798 279.304 200.232 264.496C191.57 228.545 181.534 189.974 181.534 189.974H220.087C220.087 189.974 244.929 212.426 237.05 306.444C243.965 318.668 246.712 334.702 247.58 350.833Z" fill="#F5AC0A"/>
<path d="M186.402 127.495C186.137 128.541 185.92 129.31 185.679 130.2C185.438 131.089 185.185 131.882 184.92 132.712C184.402 134.37 183.848 136.017 183.246 137.64C182.041 140.897 180.764 144.07 179.366 147.256C176.514 153.608 173.162 159.725 169.342 165.549C168.343 167.004 167.343 168.446 166.294 169.864L164.668 171.968C164 172.896 163.271 173.779 162.487 174.612C161.223 175.919 159.728 176.983 158.078 177.749C156.414 178.476 154.628 178.884 152.813 178.951C150.014 179.054 147.231 178.477 144.705 177.269C141.089 175.501 137.823 173.094 135.067 170.165C133.784 168.882 132.577 167.525 131.453 166.102C130.326 164.691 129.284 163.214 128.332 161.679C127.77 160.788 127.53 159.732 127.653 158.686C127.775 157.641 128.252 156.668 129.004 155.93C129.757 155.192 130.74 154.732 131.79 154.628C132.84 154.524 133.894 154.781 134.778 155.357L135.127 155.585L138.934 158.073C140.223 158.891 141.5 159.684 142.777 160.393C144.973 161.732 147.356 162.737 149.849 163.374C150.777 163.53 151.464 163.446 151.331 163.278C151.145 163.206 150.939 163.206 150.753 163.278C150.488 163.338 150.283 163.458 150.211 163.458C149.958 163.698 150.596 162.761 150.958 162.184L152.163 160.297L154.452 156.414C157.413 151.092 160.052 145.597 162.355 139.96C163.519 137.123 164.62 134.262 165.656 131.378C166.162 129.923 166.668 128.481 167.15 127.038L167.849 124.887L168.475 122.892L168.583 122.543C169.318 120.281 170.902 118.39 173.002 117.267C175.103 116.143 177.558 115.874 179.853 116.515C182.148 117.157 184.105 118.659 185.314 120.708C186.524 122.757 186.892 125.194 186.342 127.507L186.402 127.495Z" fill="#BD7E51"/>
<path d="M177.787 111.461C168.366 114.129 164.017 122.711 156.101 140.524C158.872 146.654 174.317 151.342 174.317 151.342C174.317 151.342 194.726 122.399 177.787 111.461Z" fill="#1A365D"/>
<path d="M164.86 127.459C164.575 134.928 164.691 142.407 165.21 149.864C165.607 159.588 170.438 174.264 170.354 190.286C175.354 193.892 203.654 193.147 220.954 190.923C219.906 177.125 220.689 155.597 230.062 124.563C232.231 117.351 227.388 110.451 219.653 109.718C217.593 109.526 215.4 109.358 213.147 109.25C205.257 108.72 197.34 108.72 189.449 109.25C186.883 109.466 184.209 109.766 181.655 110.103C172.414 111.317 165.149 118.841 164.86 127.459Z" fill="#1A365D"/>
<path d="M204.1 131.425C196.353 134.37 182.185 133.95 172.258 130.308V132.784C188.173 140.512 204.1 134.166 204.1 134.166C204.1 134.166 206.943 133.877 204.1 131.425Z" fill="#8253F6"/>
<path d="M179.968 131.005C178.643 131.378 177.655 136.534 180.113 137.267C182.57 138.001 189.534 139.154 193.738 137.796C196.04 137.063 196.281 132.435 194.353 131.786C190.739 130.38 182.341 130.356 179.968 131.005Z" fill="#8253F6"/>
<path d="M211.437 82.6133C209.376 90.2217 206.846 104.153 211.798 109.237C211.798 109.237 208.617 117.362 190.498 116.268C177.245 115.463 188.088 109.237 188.088 109.237C196.738 107.206 196.991 100.919 195.955 95.0056L211.437 82.6133Z" fill="#BD7E51"/>
<path opacity="0.2" d="M205.147 87.7217L195.991 95.0416C196.252 96.4292 196.389 97.8369 196.401 99.2485C199.69 98.7798 204.413 95.222 205.015 91.8204C205.304 90.473 205.349 89.0849 205.147 87.7217Z" fill="#1A365D"/>
<path d="M217.954 67.3964C215.641 79.6805 214.93 84.9091 207.906 90.7987C197.34 99.6572 182.823 94.9815 181.401 82.457C180.197 71.1826 184.148 52.9969 196.822 48.9462C209.496 44.8956 220.267 55.1243 217.954 67.3964Z" fill="#BD7E51"/>
<path d="M208.629 61.9519C204.762 67.0602 206.509 74.7288 214.4 75.4139C222.291 76.099 223.267 66.5434 222.014 63.1178C220.761 59.6922 208.629 61.9519 208.629 61.9519Z" fill="#1A365D"/>
<path d="M195.991 48.2735C185.895 52.6486 191.534 56.5791 194.497 58.1657C194.648 57.0136 194.973 55.8911 195.461 54.8362C195.461 54.8362 201.075 63.5865 210.605 64.5601C222.653 65.7621 220.954 61.447 220.954 61.447C220.954 61.447 214.629 43.081 195.991 48.2735Z" fill="#1A365D"/>
<path d="M196.979 47.4922C191.389 48.1773 182.522 50.2567 181.787 56.3988C184.558 54.8482 191.425 54.3795 191.425 54.3795L196.979 47.4922Z" fill="#1A365D"/>
<path d="M214.508 69.2958C211.376 71.0026 206.653 74.2719 207.629 78.0581C208.906 76.5076 212.798 74.6445 212.798 74.6445L214.508 69.2958Z" fill="#1A365D"/>
<path d="M219.099 78.4432C218.509 79.4821 217.708 80.3865 216.748 81.0985C215.787 81.8105 214.688 82.3145 213.521 82.578C210.606 83.1069 209.63 79.7414 210.846 76.5682C211.931 73.7075 214.762 69.9694 217.497 70.9069C220.232 71.8445 220.774 75.6907 219.099 78.4432Z" fill="#BD7E51"/>
<path d="M125.705 145.429L129.548 146.018C130.26 146.123 130.936 146.395 131.521 146.814C132.105 147.232 132.582 147.783 132.91 148.422L135.994 154.504C136.615 155.7 136.939 157.027 136.939 158.374C136.939 159.721 136.615 161.048 135.994 162.244L135.211 163.735C128.753 163.206 122.175 157.881 122.175 157.881L120.139 156.583C119.716 156.322 119.349 155.979 119.059 155.576C118.769 155.172 118.562 154.715 118.45 154.231C118.338 153.747 118.323 153.246 118.406 152.757C118.49 152.267 118.669 151.799 118.934 151.379L121.476 147.304C121.933 146.626 122.572 146.09 123.32 145.759C124.068 145.427 124.895 145.313 125.705 145.429Z" fill="#BD7E51"/>
<path d="M169.45 193.639C186.865 195.55 204.439 195.514 221.846 193.531C222.025 193.5 222.196 193.429 222.344 193.324C222.492 193.218 222.614 193.08 222.701 192.92C222.788 192.761 222.837 192.583 222.846 192.402C222.854 192.22 222.821 192.039 222.749 191.872C222.328 190.875 221.894 189.865 221.484 188.867C221.398 188.643 221.241 188.454 221.036 188.328C220.832 188.202 220.591 188.146 220.352 188.17C203.612 190.009 186.72 190.009 169.981 188.17C169.682 188.15 169.388 188.249 169.162 188.445C168.936 188.641 168.797 188.918 168.776 189.216C168.679 190.262 168.571 191.295 168.463 192.341C168.434 192.642 168.519 192.942 168.702 193.183C168.885 193.423 169.152 193.586 169.45 193.639Z" fill="#1A365D"/>
<path d="M169.474 180.454C186.797 182.383 204.282 182.383 221.605 180.454C222.364 180.37 222.665 179.54 222.195 178.819C221.569 177.834 222.629 176.632 222.014 175.634C221.883 175.416 221.695 175.237 221.47 175.117C221.245 174.996 220.992 174.938 220.737 174.949C203.517 176.765 186.153 176.765 168.932 174.949C168.792 174.928 168.649 174.941 168.514 174.986C168.38 175.031 168.258 175.106 168.158 175.207C168.058 175.308 167.984 175.43 167.94 175.565C167.897 175.7 167.886 175.843 167.908 175.983L168.197 179.06C168.214 179.404 168.35 179.732 168.584 179.987C168.817 180.241 169.132 180.407 169.474 180.454Z" fill="#8253F6"/>
<path d="M181.738 200.407H181.112C180.744 200.39 180.383 200.3 180.051 200.141C179.719 199.982 179.423 199.758 179.18 199.481C178.937 199.205 178.752 198.883 178.637 198.534C178.522 198.185 178.478 197.816 178.51 197.45C178.269 191.32 187.943 177.822 194.738 176.608C194.807 176.593 194.878 176.601 194.942 176.632C195.005 176.662 195.056 176.713 195.087 176.776C195.127 176.83 195.149 176.895 195.149 176.963C195.149 177.03 195.127 177.095 195.087 177.149C190.955 181.512 189.389 187.089 188.136 191.572C186.702 196.428 185.594 200.407 181.738 200.407ZM193.786 177.497C187.437 179.745 178.931 191.921 179.136 197.39C179.104 197.678 179.133 197.969 179.219 198.246C179.305 198.522 179.448 198.778 179.638 198.997C179.828 199.215 180.061 199.393 180.323 199.518C180.585 199.642 180.87 199.712 181.16 199.722C184.955 200.106 185.979 196.44 187.425 191.308C188.654 187.041 190.124 181.788 193.81 177.461L193.786 177.497Z" fill="white"/>
<path d="M277 437.266L274.06 438.143L201.328 202.402L206.786 200.755L277 437.266Z" fill="#8253F6"/>
<path opacity="0.7" d="M277 437.266L274.06 438.143L201.328 202.402L206.786 200.755L277 437.266Z" fill="white"/>
<path d="M201.16 176.547L200.967 175.934C200.918 175.771 200.836 175.618 200.727 175.486C200.619 175.354 200.485 175.245 200.334 175.164C200.183 175.084 200.017 175.034 199.847 175.018C199.676 175.001 199.504 175.019 199.341 175.069L193.317 176.896C192.985 176.996 192.707 177.222 192.542 177.526C192.378 177.83 192.34 178.187 192.437 178.518L192.63 179.131C192.68 179.295 192.761 179.447 192.87 179.579C192.978 179.711 193.112 179.82 193.263 179.901C193.414 179.981 193.58 180.031 193.75 180.048C193.921 180.064 194.093 180.047 194.257 179.997L194.485 179.937C194.48 179.96 194.48 179.985 194.485 180.009L200.979 201.428L200.762 201.5C200.433 201.602 200.158 201.83 199.995 202.134C199.833 202.437 199.797 202.793 199.895 203.123L200.076 203.736C200.178 204.064 200.407 204.339 200.711 204.501C201.015 204.663 201.371 204.699 201.702 204.601L207.726 202.774C207.89 202.724 208.042 202.643 208.175 202.535C208.307 202.426 208.417 202.293 208.497 202.142C208.578 201.992 208.628 201.826 208.644 201.656C208.661 201.486 208.643 201.315 208.593 201.151L208.413 200.538C208.312 200.208 208.085 199.93 207.78 199.766C207.476 199.601 207.118 199.564 206.786 199.661L206.533 199.745L200.027 178.314C200.022 178.29 200.022 178.266 200.027 178.242L200.28 178.17C200.612 178.07 200.89 177.843 201.055 177.539C201.22 177.235 201.257 176.879 201.16 176.547Z" fill="#8253F6"/>
<path opacity="0.3" d="M201.16 176.547L200.967 175.934C200.918 175.771 200.836 175.618 200.727 175.486C200.619 175.354 200.485 175.245 200.334 175.164C200.183 175.084 200.017 175.034 199.847 175.018C199.676 175.001 199.504 175.019 199.341 175.069L193.317 176.896C192.985 176.996 192.707 177.222 192.542 177.526C192.378 177.83 192.34 178.187 192.437 178.518L192.63 179.131C192.68 179.295 192.761 179.447 192.87 179.579C192.978 179.711 193.112 179.82 193.263 179.901C193.414 179.981 193.58 180.031 193.75 180.048C193.921 180.064 194.093 180.047 194.257 179.997L194.485 179.937C194.48 179.96 194.48 179.985 194.485 180.009L200.979 201.428L200.762 201.5C200.433 201.602 200.158 201.83 199.995 202.134C199.833 202.437 199.797 202.793 199.895 203.123L200.076 203.736C200.178 204.064 200.407 204.339 200.711 204.501C201.015 204.663 201.371 204.699 201.702 204.601L207.726 202.774C207.89 202.724 208.042 202.643 208.175 202.535C208.307 202.426 208.417 202.293 208.497 202.142C208.578 201.992 208.628 201.826 208.644 201.656C208.661 201.486 208.643 201.315 208.593 201.151L208.413 200.538C208.312 200.208 208.085 199.93 207.78 199.766C207.476 199.601 207.118 199.564 206.786 199.661L206.533 199.745L200.027 178.314C200.022 178.29 200.022 178.266 200.027 178.242L200.28 178.17C200.612 178.07 200.89 177.843 201.055 177.539C201.22 177.235 201.257 176.879 201.16 176.547Z" fill="#1A365D"/>
<path d="M108.85 158.193C108.071 158.18 107.306 157.978 106.622 157.604C106.285 157.453 105.982 157.236 105.731 156.966C105.48 156.696 105.287 156.378 105.162 156.031C105.037 155.684 104.983 155.316 105.004 154.948C105.026 154.58 105.121 154.221 105.284 153.89C107.308 148.097 121.26 139.07 128.03 140.416C128.098 140.428 128.16 140.462 128.208 140.511C128.256 140.561 128.286 140.625 128.295 140.693C128.302 140.762 128.287 140.831 128.252 140.891C128.218 140.952 128.166 141 128.103 141.029C122.669 143.577 119.163 148.241 116.356 151.907C113.754 155.333 111.597 158.193 108.85 158.193ZM126.56 140.933C119.778 140.933 107.694 148.998 105.911 154.155C105.773 154.41 105.691 154.69 105.668 154.979C105.645 155.267 105.682 155.557 105.777 155.831C105.872 156.104 106.023 156.355 106.22 156.567C106.417 156.779 106.657 156.948 106.923 157.063C110.332 158.818 112.633 155.777 115.826 151.558C118.513 148.025 121.85 143.674 126.826 140.981L126.56 140.933Z" fill="#E0E0E0"/>
<path d="M109.091 413.094L106.031 412.854L124.693 166.896L130.368 167.352L109.091 413.094Z" fill="#8253F6"/>
<path opacity="0.7" d="M109.091 413.094L106.031 412.854L124.693 166.896L130.368 167.352L109.091 413.094Z" fill="white"/>
<path d="M133.994 142.712L134.054 142.075C134.078 141.73 133.965 141.39 133.74 141.127C133.514 140.864 133.195 140.699 132.85 140.669L126.537 140.164C126.19 140.137 125.847 140.249 125.583 140.474C125.319 140.7 125.155 141.02 125.127 141.366V142.015C125.114 142.186 125.135 142.357 125.188 142.52C125.242 142.682 125.327 142.833 125.439 142.962C125.551 143.092 125.687 143.198 125.841 143.275C125.994 143.351 126.161 143.397 126.332 143.409H126.573C126.573 143.409 126.573 143.409 126.573 143.481L124.693 165.85H124.464C124.293 165.837 124.122 165.858 123.959 165.911C123.796 165.964 123.645 166.049 123.515 166.161C123.385 166.273 123.279 166.409 123.202 166.562C123.125 166.715 123.079 166.881 123.067 167.052V167.689C123.04 168.035 123.152 168.377 123.378 168.641C123.604 168.904 123.925 169.068 124.272 169.095L130.585 169.6C130.931 169.627 131.274 169.515 131.538 169.29C131.803 169.064 131.967 168.744 131.994 168.398V167.761C132.021 167.415 131.909 167.073 131.683 166.81C131.457 166.546 131.136 166.382 130.789 166.355H130.524L132.319 144.046V143.914H132.597C132.768 143.927 132.939 143.907 133.102 143.853C133.265 143.8 133.416 143.715 133.546 143.603C133.676 143.491 133.782 143.355 133.859 143.202C133.936 143.049 133.982 142.883 133.994 142.712Z" fill="#8253F6"/>
<path opacity="0.3" d="M133.994 142.712L134.054 142.075C134.078 141.73 133.965 141.39 133.74 141.127C133.514 140.864 133.195 140.699 132.85 140.669L126.537 140.164C126.19 140.137 125.847 140.249 125.583 140.474C125.319 140.7 125.155 141.02 125.127 141.366V142.015C125.114 142.186 125.135 142.357 125.188 142.52C125.242 142.682 125.327 142.833 125.439 142.962C125.551 143.092 125.687 143.198 125.841 143.275C125.994 143.351 126.161 143.397 126.332 143.409H126.573C126.573 143.409 126.573 143.409 126.573 143.481L124.693 165.85H124.464C124.293 165.837 124.122 165.858 123.959 165.911C123.796 165.964 123.645 166.049 123.515 166.161C123.385 166.273 123.279 166.409 123.202 166.562C123.125 166.715 123.079 166.881 123.067 167.052V167.689C123.04 168.035 123.152 168.377 123.378 168.641C123.604 168.904 123.925 169.068 124.272 169.095L130.585 169.6C130.931 169.627 131.274 169.515 131.538 169.29C131.803 169.064 131.967 168.744 131.994 168.398V167.761C132.021 167.415 131.909 167.073 131.683 166.81C131.457 166.546 131.136 166.382 130.789 166.355H130.524L132.319 144.046V143.914H132.597C132.768 143.927 132.939 143.907 133.102 143.853C133.265 143.8 133.416 143.715 133.546 143.603C133.676 143.491 133.782 143.355 133.859 143.202C133.936 143.049 133.982 142.883 133.994 142.712Z" fill="#1A365D"/>
<path d="M136.909 157.376C137.536 152.773 133.789 148.963 132.982 145.261C132.837 144.648 131.897 144.612 131.5 145.092C130.729 146.018 131.295 148.927 131.668 149.732C132.21 150.85 126.681 155.405 133.68 159.624C134.963 159.225 136.091 158.44 136.909 157.376Z" fill="#BD7E51"/>
<path d="M193.919 186.511L196.172 183.35C196.591 182.764 197.144 182.286 197.785 181.956C198.427 181.626 199.137 181.453 199.859 181.451H206.702C208.051 181.449 209.381 181.77 210.58 182.387C211.779 183.004 212.813 183.899 213.593 184.997L214.569 186.379C211.184 191.872 203.461 195.334 203.461 195.334L201.377 196.536C200.956 196.802 200.487 196.983 199.996 197.066C199.505 197.15 199.002 197.136 198.516 197.024C198.031 196.912 197.573 196.705 197.168 196.415C196.764 196.125 196.421 195.757 196.16 195.334L193.654 191.235C193.235 190.507 193.038 189.673 193.085 188.834C193.132 187.996 193.422 187.189 193.919 186.511Z" fill="#BD7E51"/>
<path d="M235.05 123.18C235.508 124.19 235.833 124.911 236.182 125.752C236.532 126.594 236.833 127.375 237.146 128.156C237.772 129.779 238.351 131.413 238.833 133.048C239.864 136.334 240.721 139.672 241.399 143.048C241.748 144.731 242.037 146.45 242.314 148.157C242.592 149.864 242.772 151.606 242.893 153.361C243.215 156.886 243.295 160.428 243.134 163.963V164.54C243.122 164.945 243.066 165.348 242.965 165.742C242.349 168.107 241.272 170.329 239.796 172.28C238.647 173.797 237.352 175.198 235.929 176.463C234.677 177.598 233.349 178.646 231.953 179.6C230.616 180.526 229.291 181.391 227.93 182.16C225.282 183.681 222.542 185.033 219.725 186.211C216.945 187.393 214.092 188.397 211.183 189.216C210.146 189.513 209.037 189.438 208.048 189.006C207.06 188.573 206.255 187.809 205.771 186.846C205.288 185.883 205.158 184.782 205.402 183.733C205.647 182.684 206.251 181.754 207.111 181.103L207.316 180.958C209.4 179.348 211.665 177.677 213.761 176.006C215.858 174.336 217.954 172.641 219.785 170.898C221.596 169.316 223.269 167.583 224.785 165.718C225.377 164.992 225.89 164.207 226.315 163.374C226.64 162.701 226.725 162.172 226.616 162.232L226.436 163.987C226.195 161.186 225.905 158.398 225.387 155.573C224.869 152.748 224.279 149.936 223.544 147.159C222.809 144.383 222.002 141.546 221.074 138.745C220.617 137.351 220.123 135.981 219.641 134.623L218.894 132.603L218.195 130.776L218.014 130.308C217.189 128.083 217.257 125.626 218.204 123.449C219.15 121.273 220.902 119.545 223.094 118.626C225.286 117.706 227.75 117.667 229.97 118.515C232.191 119.364 233.998 121.035 235.014 123.18H235.05Z" fill="#BD7E51"/>
<path d="M220.111 109.839C228.604 111.149 232.002 113.721 238.941 130.753C235.797 137.099 221.05 143.181 221.05 143.181C221.05 143.181 211.28 121.077 220.111 109.839Z" fill="#1A365D"/>
<path d="M212.207 108.228C207.135 108.781 201.075 124.478 202.569 140.152C204.063 155.826 219.581 165.213 221.978 162.304C222.316 161.232 222.459 160.109 222.4 158.987C220.532 158.326 213.424 153.193 212.4 142.412C211.376 131.63 222.641 111.401 221.978 109.838C221.315 108.276 215.243 107.855 212.207 108.228Z" fill="#8253F6"/>
<path d="M187.269 108.853C181.462 109.105 177.848 109.814 176.534 111.485C175.221 113.156 161.113 129.346 164.704 153.265C165.053 155.573 166.065 161.763 166.908 162.004C168.113 162.328 166.077 148.205 173.896 131.426C181.715 114.646 188.968 109.646 187.269 108.853Z" fill="#8253F6"/>
<path d="M190.582 48.1174C201.581 50.8699 215.882 59.6322 224.315 67.8056C225.894 63.4545 227.098 52.5647 216.412 46.2904C212.457 43.8591 207.836 42.7277 203.202 43.0554C198.568 43.3832 194.154 45.1537 190.582 48.1174Z" fill="#F5AC0A"/>
<path d="M216.014 60.906C205.509 60.3531 203.629 56.2424 199.738 52.7326C197.267 50.7306 194.33 49.3835 191.198 48.8162C188.066 48.2489 184.841 48.4797 181.823 49.4873C182.257 46.7228 198.256 43.1049 216.014 60.906Z" fill="#F5AC0A"/>
</g>
<defs>
<clipPath id="clip0_1569_1888">
<rect width="273" height="256" fill="white" transform="translate(51 14)"/>
</clipPath>
<clipPath id="clip1_1569_1888">
<rect width="273" height="151" fill="white" transform="translate(63 35)"/>
</clipPath>
</defs>
</svg>
