<svg width="375" height="270" viewBox="0 0 375 270" fill="none" xmlns="http://www.w3.org/2000/svg">
<g clip-path="url(#clip0_1569_1931)">
<g opacity="0.5" clip-path="url(#clip1_1569_1931)">
<path d="M298.906 121.278C298.906 121.278 292.45 105.744 276.406 107.214C276.406 107.214 253.555 81.1399 228.413 103.047C228.413 103.047 202.143 97.1205 182.464 107.126C169.343 113.799 164.934 120.94 164.934 120.94L298.903 121.278H298.906Z" fill="#F8FCFF"/>
<path d="M211.196 71.1271C211.196 71.1271 203.784 52.0368 185.316 53.8621C185.316 53.8621 159.047 21.8309 130.083 48.7981C130.083 48.7981 99.854 41.5424 77.1922 53.8691C62.0832 62.088 57 70.8723 57 70.8723L211.196 71.1271Z" fill="#F8FCFF"/>
<path d="M246.286 79.6813C246.286 79.6813 249.655 71.396 257.703 72.3209C257.703 72.3209 269.394 58.5144 281.851 70.4886C281.851 70.4886 295.098 67.5291 304.906 73.0642C311.444 76.7566 313.604 80.627 313.604 80.627L246.29 79.6847L246.286 79.6813Z" fill="#F8FCFF"/>
</g>
<path d="M193.554 315.1C248.788 315.1 293.563 303.57 293.563 289.346C293.563 275.122 248.788 263.592 193.554 263.592C138.321 263.592 93.5449 275.122 93.5449 289.346C93.5449 303.57 138.321 315.1 193.554 315.1Z" fill="#1A365D"/>
<path d="M170.495 110.496C185.56 108.641 206.927 108.806 221.098 111.279C224.605 111.903 227.805 113.671 230.198 116.306C232.591 118.94 234.04 122.293 234.32 125.838C236.081 147.431 231.293 185.162 227.166 223.155C193.815 234.322 159.956 223.004 159.956 223.004C159.557 218.993 160.507 210.189 161.869 200.793C164.437 183.318 163.854 165.525 160.149 148.255C158.773 142.088 157.521 135.604 156.503 128.75C156.198 126.631 156.319 124.473 156.861 122.401C157.402 120.33 158.352 118.387 159.655 116.686C160.958 114.986 162.589 113.563 164.45 112.5C166.311 111.437 168.366 110.755 170.495 110.496Z" fill="#BD7E51"/>
<path d="M211.921 107.116L160.919 167.21C160.919 167.21 159.543 210.229 157.686 222.482C157.686 222.482 163.974 233.772 194.256 233.072C224.538 232.371 230.935 224.83 230.935 224.83C230.935 224.83 236.686 202.771 236.686 180.657C236.686 158.542 227.62 109.232 227.62 109.232L211.921 107.116Z" fill="#F5AC0A"/>
<g opacity="0.1">
<path d="M211.921 107.116L160.919 167.21C160.919 167.21 159.543 210.229 157.686 222.482C157.686 222.482 163.974 233.772 194.256 233.072C224.538 232.371 230.935 224.83 230.935 224.83C230.935 224.83 236.686 202.771 236.686 180.657C236.686 158.542 227.62 109.232 227.62 109.232L211.921 107.116Z" fill="white"/>
</g>
<path d="M283.712 299.402C266.115 312.272 216.173 289.114 192.054 276.834C167.936 289.1 117.993 312.272 100.383 299.402C71.4077 278.208 111.169 245.998 121.488 239.46C131.807 232.922 143.309 228.568 154.728 224.241C166.147 219.914 179.727 227.125 192.068 227.386C204.451 227.112 217.879 219.887 229.408 224.241C240.938 228.595 252.343 232.936 262.648 239.46C272.953 245.984 312.729 278.208 283.712 299.402Z" fill="#F5AC0A"/>
<path opacity="0.1" d="M283.712 299.402C266.115 312.272 216.173 289.114 192.054 276.834C167.936 289.1 117.993 312.272 100.383 299.402C71.4077 278.208 111.169 245.998 121.488 239.46C131.807 232.922 143.309 228.568 154.728 224.241C166.147 219.914 179.727 227.125 192.068 227.386C204.451 227.112 217.879 219.887 229.408 224.241C240.938 228.595 252.343 232.936 262.648 239.46C272.953 245.984 312.729 278.208 283.712 299.402Z" fill="white"/>
<path opacity="0.2" d="M194.311 253.606C191.266 248.991 187.92 244.582 184.295 240.406L179.741 241.368C179.741 241.368 184.928 249.939 185.987 254.952C181.763 249.953 171.651 242.673 171.651 242.673L167.262 243.002C167.262 243.002 176.989 250.694 180.443 255.845C171.431 247.37 156.888 242.522 135.205 242.329C152.775 243.497 166.643 248.084 176.411 256.491C150.422 255.447 125.024 254.623 112.339 258.372L186.923 279.443L192.055 276.874L194.311 253.606Z" fill="black" fill-opacity="0.5"/>
<path opacity="0.2" d="M194.311 253.607C202.139 239.501 212.527 232.248 223.698 227.098C212.898 234.474 205.455 240.215 201.41 251.643C209.665 240.819 218.704 236.534 230.179 231.301C219.557 237.248 213.476 240.984 206.074 250.998C215.884 241.863 224.675 240.009 238.172 236.575C225.79 241.135 219.488 242.797 210.724 251.204C230.179 251.602 247.652 252.495 259.511 254.706L260.887 270.571L197.159 279.444L194.283 278.07C192.756 271.876 192.907 264.197 194.283 254.898L194.311 253.607Z" fill="black" fill-opacity="0.5"/>
<path d="M183.607 78.1904C185.684 87.1048 187.913 103.464 181.323 109.563C186.647 114.301 194.338 119.095 200.364 118.202C207.986 117.076 211.976 111.664 210.931 108.999C200.172 106.815 200.516 99.3844 202.235 92.4205L183.607 78.1904Z" fill="#BD7E51"/>
<path opacity="0.2" d="M191.201 83.999L202.208 92.4189C201.786 94.0389 201.514 95.6941 201.396 97.3638C197.269 96.8968 192.109 93.7788 190.39 89.6306C189.358 87.0483 190.156 84.3149 191.201 83.999Z" fill="#1A365D"/>
<path d="M180.057 64.7707C181.323 76.7481 181.433 83.8357 187.803 89.7282C197.351 98.6152 211.976 92.4753 214.315 80.3331C216.434 69.427 214.013 51.6532 202.015 47.3677C199.373 46.425 196.534 46.1701 193.766 46.6271C190.997 47.0841 188.392 48.2379 186.194 49.9796C183.996 51.7212 182.28 53.9933 181.206 56.5813C180.132 59.1693 179.737 61.9878 180.057 64.7707Z" fill="#BD7E51"/>
<path d="M206.941 50.3197C204.85 49.5093 205.097 49.5505 203.075 50.4983C198.012 47.9435 191.724 49.784 189.674 50.3884C190.249 52.4104 190.614 54.4863 190.761 56.5831C190.985 57.8379 190.746 59.1314 190.087 60.2231C189.316 61.2532 187.968 61.5966 186.95 62.4345C186.171 63.1288 185.573 64.0016 185.206 64.9777C184.839 65.9538 184.715 67.0042 184.845 68.0386C185.024 70.1127 188.573 83.1478 178.75 83.1478C177.278 80.9501 172.256 72.7637 172.201 70.1402C169.381 60.2093 174.292 52.0092 179.961 46.4737C185.629 40.9383 199.03 42.8064 204.877 44.853C205.841 46.5589 206.537 48.4027 206.941 50.3197Z" fill="#1A365D"/>
<path d="M180.951 46.3782C185.526 46.3782 189.234 42.2641 189.234 37.1891C189.234 32.1141 185.526 28 180.951 28C176.377 28 172.669 32.1141 172.669 37.1891C172.669 42.2641 176.377 46.3782 180.951 46.3782Z" fill="#1A365D"/>
<path d="M187.143 78.2316C186.771 74.8251 184.391 69.8117 180.511 69.6468C176.631 69.482 174.458 73.2456 175.641 76.7619C176.399 79.0056 177.843 80.9559 179.768 82.3385C179.7 82.5033 179.617 82.6682 179.562 82.8467C179.343 83.3779 179.259 83.9553 179.319 84.5267C179.379 85.0982 179.581 85.6458 179.905 86.12C180.23 86.5943 180.668 86.9803 181.18 87.2434C181.692 87.5064 182.261 87.6382 182.836 87.6267C185.464 87.5168 187.033 84.1516 187.294 81.8715C187.314 80.6563 187.264 79.4409 187.143 78.2316Z" fill="#BD7E51"/>
<path opacity="0.2" d="M160.52 146.826L163.368 169.655L211.055 109.987L205.895 107.116L165.886 156.99L169.436 140.027L160.52 146.826Z" fill="#1A365D"/>
<path d="M156.338 122.377L140.873 169.889C140.873 169.889 138.122 175.053 142.125 181.536C146.129 188.02 152.719 183.872 152.719 183.872L173.88 128.352C177.87 121.182 173.687 115.894 169.064 110.716C163.781 111.293 159.722 115.784 156.338 122.377Z" fill="#BD7E51"/>
<path opacity="0.2" d="M160.286 164.022L161.731 160.231L150.903 166.412L160.286 164.022Z" fill="#1A365D"/>
<path d="M264.712 180.658C264.712 180.658 249.014 125.001 245.175 120.455C241.337 115.908 240.456 111.787 227.62 109.233C214.783 106.678 230.179 186.935 230.179 186.935L264.712 180.658Z" fill="#F5AC0A"/>
<path opacity="0.2" d="M264.712 180.658C264.712 180.658 249.014 125.001 245.175 120.455C241.337 115.908 240.456 111.787 227.62 109.233C214.783 106.678 230.179 186.935 230.179 186.935L264.712 180.658Z" fill="white"/>
<path opacity="0.2" d="M230.179 186.935C228.707 172.952 230.578 157.692 234.623 141.607C233.027 156.291 232.201 170.013 234.623 179.669C236.15 171.18 241.984 163.928 248.987 157.019C242.864 165.7 238.104 173.776 238.379 179.669C249.674 177.471 254.572 178.501 258.837 179.861L230.179 186.935Z" fill="black" fill-opacity="0.5"/>
<path opacity="0.1" d="M230.935 192.909L230.179 186.879L228.129 175.588L229.683 109.658L223.506 108.353L219.021 161.317L229.257 186.165L205.868 199.653L214.769 214.446L204.795 217.427L204.107 218.004L215.76 216.108L222.061 227.825C224.843 226.332 227.849 225.302 230.963 224.776L231.857 220.985L230.935 192.909Z" fill="#1A365D"/>
<path d="M191.655 252.894L191.352 253.017L191.077 253.141L179.575 258.003H179.479C179.138 258.136 178.782 258.229 178.42 258.278H177.842H177.305H176.755H176.521L175.654 258.154L174.471 257.99C166.642 256.987 164.579 257.509 155.787 259.157C153.682 259.555 152.843 254.514 157.383 252.591C164.895 249.419 165.06 249.748 171.472 247.097C176.975 244.776 183.111 241.864 187.431 239.941C187.677 239.836 187.943 239.786 188.21 239.795C188.478 239.804 188.74 239.872 188.978 239.994C189.216 240.116 189.424 240.289 189.587 240.501C189.75 240.713 189.864 240.958 189.922 241.218L192.247 251.795C192.282 252.017 192.243 252.245 192.136 252.444C192.03 252.642 191.86 252.8 191.655 252.894Z" fill="#BD7E51"/>
<path d="M186.978 250.997L178.062 257.137L198.879 270.969L203.928 260.104L186.978 250.997Z" fill="#BD7E51"/>
<path opacity="0.2" d="M198.878 270.969L192.054 266.436L194.379 254.802L203.914 260.09L198.878 270.969Z" fill="#1A365D"/>
<path d="M283.836 259.184C291.871 266.052 297.374 277.823 296.714 288.029C295.035 301.764 288.005 309.071 275.787 309.071C256.457 309.071 202.621 289.526 202.621 289.526C195.219 285.639 194.104 271.326 196.306 253.717C219.832 259.184 264.065 249.473 283.836 259.184Z" fill="#F5AC0A"/>
<path opacity="0.2" d="M283.836 259.184C291.871 266.052 297.374 277.823 296.714 288.029C295.035 301.764 288.005 309.071 275.787 309.071C256.457 309.071 202.621 289.526 202.621 289.526C195.219 285.639 194.104 271.326 196.306 253.717C219.832 259.184 264.065 249.473 283.836 259.184Z" fill="white"/>
<path opacity="0.1" d="M137.035 231.368L135.054 232.247C135.054 232.247 151.22 245.887 173.178 242.522C195.136 239.156 195.411 236.45 198.81 232.907C202.208 229.363 208.165 203.554 208.165 203.554L206.9 201.438L137.035 231.368Z" fill="#1A365D"/>
<path d="M206.569 106.967L228.762 107.393C228.762 107.393 203.997 225.038 195.989 233.114C187.982 241.191 166.368 241.356 155.691 239.762C145.015 238.169 136.182 230.147 136.182 230.147C146.129 227.249 153.407 221.467 155.719 215.176L158.924 167.225L206.569 106.967Z" fill="#F5AC0A"/>
<path opacity="0.2" d="M206.569 106.967L228.762 107.393C228.762 107.393 203.997 225.038 195.989 233.114C187.982 241.191 166.368 241.356 155.691 239.762C145.015 238.169 136.182 230.147 136.182 230.147C146.129 227.249 153.407 221.467 155.719 215.176L158.924 167.225L206.569 106.967Z" fill="white"/>
<path opacity="0.1" d="M214.026 107.391C214.026 107.391 199.332 133.736 197.159 142.898C194.985 152.059 197.159 203.334 197.159 203.334L208.165 196L207.78 198.568L229.229 186.206L227.592 182.855L216.338 107.748L214.026 107.391Z" fill="#1A365D"/>
<path d="M216.42 104.906C216.42 104.906 208.289 122.68 202.744 138.916C197.2 155.151 199.167 199.242 199.167 199.242L227.647 182.869C227.647 182.869 224.895 160.494 225.789 143.407C226.684 126.32 227.647 106.678 227.647 106.678L216.42 104.906Z" fill="#F5AC0A"/>
<path opacity="0.2" d="M216.42 104.906C216.42 104.906 208.289 122.68 202.744 138.916C197.2 155.151 199.167 199.242 199.167 199.242L227.647 182.869C227.647 182.869 224.895 160.494 225.789 143.407C226.684 126.32 227.647 106.678 227.647 106.678L216.42 104.906Z" fill="white"/>
<path d="M256.388 180.643L260.296 200.862L200.433 218.773L200.584 207.139L256.388 180.643Z" fill="#BD7E51"/>
<path d="M207.023 199.777L225.294 224.501C225.294 224.501 260.97 207.428 264.905 199.777C268.84 192.126 264.905 180.726 264.905 180.726C264.905 180.726 248.67 176.976 236.012 183.94L207.023 199.777Z" fill="#F5AC0A"/>
<path opacity="0.2" d="M207.023 199.777L225.294 224.501C225.294 224.501 260.97 207.428 264.905 199.777C268.84 192.126 264.905 180.726 264.905 180.726C264.905 180.726 248.67 176.976 236.012 183.94L207.023 199.777Z" fill="white"/>
<path d="M204.767 217.482C204.767 217.482 195.604 222.592 189.743 222.482C183.882 222.372 182.093 221.204 182.093 221.204L176.177 215.147L178.296 205.532L187.445 203.252L200.584 207.084L204.079 212.839L204.767 217.482Z" fill="#BD7E51"/>
<path opacity="0.2" d="M195.219 272.575V265.487L206.624 258.523L211.495 259.224L232.93 257.067C232.93 257.067 234.705 261.092 232.93 261.82C231.83 262.273 215.526 259.402 214.48 260.625C212.1 261.449 209.61 262.987 207.051 262.548L195.219 272.575Z" fill="#1A365D"/>
<path d="M199.305 252.551L208.206 258.704L187.39 272.536L182.341 261.657L199.305 252.551Z" fill="#BD7E51"/>
<path opacity="0.2" d="M187.39 272.534L194.077 268.098V255.227L182.354 261.656L187.39 272.534Z" fill="#1A365D"/>
<path d="M207.808 259.802L195.783 254.719C195.563 254.633 195.381 254.47 195.273 254.26C195.164 254.051 195.135 253.809 195.191 253.579L197.516 243.003C197.575 242.743 197.691 242.5 197.855 242.29C198.019 242.08 198.227 241.908 198.465 241.788C198.702 241.667 198.964 241.6 199.23 241.592C199.497 241.584 199.762 241.634 200.007 241.739C204.327 243.649 210.504 246.56 215.98 248.882C222.378 251.629 222.556 251.244 230.055 254.376C234.595 256.299 233.742 261.34 231.651 260.942C222.144 259.156 220.493 258.689 210.917 260.063C209.876 260.261 208.801 260.171 207.808 259.802Z" fill="#BD7E51"/>
<path d="M193.307 254.72C192.33 268.057 191.532 281.532 182.506 288.811C182.506 288.811 127.872 310.788 112.05 310.788C96.2279 310.788 88.537 303.591 82.9924 290.322C77.4478 277.054 99.6124 260.695 99.6124 260.695C130.596 252.55 174.526 264.417 193.307 254.72Z" fill="#F5AC0A"/>
<path opacity="0.2" d="M193.307 254.72C192.33 268.057 191.532 281.532 182.506 288.811C182.506 288.811 127.872 310.788 112.05 310.788C96.2279 310.788 88.537 303.591 82.9924 290.322C77.4478 277.054 99.6124 260.695 99.6124 260.695C130.596 252.55 174.526 264.417 193.307 254.72Z" fill="white"/>
<path opacity="0.1" d="M157.7 188.623L189.743 169.132L179.08 160.231L163.533 161.399L158.924 167.209L157.7 188.623Z" fill="#1A365D"/>
<path d="M141.369 169.888C143.488 167.334 187.445 157.938 187.445 157.938L195.989 166.661C195.989 166.661 159.172 181.179 153.201 183.871C147.698 186.302 146.088 185.011 142.607 181.536C140.337 179.27 140.007 171.523 141.369 169.888Z" fill="#BD7E51"/>
<path d="M191.504 140.055L196.759 142.541L203.075 143.035L201.919 152.65L200.337 165.658C197.585 166.523 194.737 167.031 191.999 166.056C190.266 165.946 188.793 163.762 187.803 161.304C186.812 158.845 190.678 144.065 191.504 140.055Z" fill="#BD7E51"/>
<path d="M203.598 152.761C204.341 151.95 205.111 151.085 205.51 150.632C206.225 146.113 207.698 142.94 211.536 143.888C211.206 147.28 210.931 151.195 210.394 152.335L208.289 156.785C206.209 160.223 203.513 163.249 200.337 165.714C196.209 166.812 192.825 163.433 195.453 156.305C195.884 154.976 196.735 153.822 197.879 153.017C199.022 152.212 200.397 151.799 201.795 151.841C201.964 152.16 202.228 152.42 202.551 152.585C202.873 152.75 203.239 152.811 203.598 152.761Z" fill="#BD7E51"/>
<path d="M211.536 143.886C211.536 143.886 208.096 138.763 207.188 138.53C206.28 138.296 198.686 139.546 198.012 140.274C197.337 141.002 193.994 147.334 193.994 147.334C194.709 147.79 195.514 148.089 196.354 148.21C197.194 148.331 198.05 148.271 198.865 148.035C199.484 146.785 200.392 145.191 200.928 144.106C202.338 143.656 203.799 143.384 205.276 143.296C206.163 143.962 207.218 144.369 208.322 144.473C209.427 144.578 210.54 144.374 211.536 143.886Z" fill="#BD7E51"/>
<path d="M207.656 141.552C205.779 140.048 203.823 138.645 201.795 137.349C201.108 137.157 191.972 139.451 191.504 140.096C191.036 140.742 190.211 148.75 190.211 148.75C191.969 149.009 193.765 148.741 195.37 147.98C195.934 145.796 196.567 143.86 196.746 142.582C198.246 142.374 199.707 141.943 201.08 141.305C203.914 143.791 206.583 142.761 207.656 141.552Z" fill="#BD7E51"/>
<path d="M274.618 314.016L288.707 307.931C295.965 299.399 299.962 288.577 299.988 277.383L307.514 269.787C292.091 274.402 277.425 289.649 274.618 314.016Z" fill="#1A365D"/>
<path opacity="0.5" d="M274.618 314.016L288.707 307.931C295.965 299.399 299.962 288.577 299.988 277.383L307.514 269.787C292.091 274.402 277.425 289.649 274.618 314.016Z" fill="white"/>
<path d="M105.9 314.016L91.8115 307.931C84.5593 299.395 80.5632 288.575 80.5297 277.383L73.0039 269.828C88.4682 274.402 103.093 289.649 105.9 314.016Z" fill="#1A365D"/>
<path opacity="0.5" d="M105.9 314.016L91.8115 307.931C84.5593 299.395 80.5632 288.575 80.5297 277.383L73.0039 269.828C88.4682 274.402 103.093 289.649 105.9 314.016Z" fill="white"/>
</g>
<defs>
<clipPath id="clip0_1569_1931">
<rect width="275" height="242" fill="white" transform="translate(50 28)"/>
</clipPath>
<clipPath id="clip1_1569_1931">
<rect width="273" height="151" fill="white" transform="translate(57 38)"/>
</clipPath>
</defs>
</svg>
