<svg width="375" height="270" viewBox="0 0 375 270" fill="none" xmlns="http://www.w3.org/2000/svg">
<g opacity="0.5" clip-path="url(#clip0_1569_1933)">
<path d="M299.906 83.2783C299.906 83.2783 293.449 67.7443 277.406 69.2136C277.406 69.2136 254.554 43.1399 229.412 65.0465C229.412 65.0465 203.143 59.1205 183.464 69.1264C170.343 75.7992 165.934 82.9397 165.934 82.9397L299.903 83.2783H299.906Z" fill="#F8FCFF"/>
<path d="M212.196 33.1271C212.196 33.1271 204.784 14.0368 186.316 15.8621C186.316 15.8621 160.047 -16.1691 131.083 10.7981C131.083 10.7981 100.854 3.5424 78.1922 15.8691C63.0832 24.088 58 32.8723 58 32.8723L212.196 33.1271Z" fill="#F8FCFF"/>
<path d="M247.286 41.681C247.286 41.681 250.655 33.3958 258.703 34.3206C258.703 34.3206 270.394 20.5142 282.851 32.4884C282.851 32.4884 296.098 29.5289 305.906 35.064C312.444 38.7564 314.604 42.6268 314.604 42.6268L247.29 41.6845L247.286 41.681Z" fill="#F8FCFF"/>
</g>
<path d="M323.382 214.284L293.049 170.212C292.748 169.778 292.346 169.424 291.878 169.178C291.41 168.933 290.889 168.805 290.361 168.804H241.119C240.704 168.802 240.293 168.879 239.907 169.03C239.498 169.191 239.124 169.431 238.808 169.737C238.492 170.043 238.239 170.408 238.064 170.811C237.889 171.215 237.796 171.649 237.789 172.089C237.783 172.528 237.863 172.965 238.026 173.374L254.768 215.87C254.833 216.053 254.933 216.221 255.063 216.365C255.193 216.51 255.35 216.627 255.525 216.711C255.7 216.794 255.89 216.843 256.084 216.853C256.277 216.863 256.471 216.835 256.654 216.771C256.837 216.706 257.006 216.606 257.15 216.476C257.295 216.346 257.412 216.19 257.496 216.014C257.579 215.839 257.628 215.649 257.638 215.456C257.648 215.262 257.62 215.068 257.556 214.885L245.885 175.678H288.608L320.389 216.47C320.681 216.869 321.12 217.135 321.608 217.209C322.097 217.284 322.595 217.162 322.993 216.869C323.392 216.577 323.658 216.138 323.732 215.649C323.807 215.161 323.685 214.663 323.392 214.264L323.382 214.284Z" fill="#1A365D"/>
<path d="M144.742 168.804H95.4996C94.9752 168.804 94.4589 168.933 93.9955 169.178C93.5321 169.424 93.1356 169.779 92.8406 170.212L62.4779 214.284C62.2612 214.678 62.1942 215.136 62.2892 215.575C62.3842 216.014 62.6348 216.404 62.9948 216.673C63.3548 216.942 63.7999 217.071 64.2479 217.038C64.6959 217.004 65.1166 216.81 65.4324 216.49L97.2133 175.698H139.926L128.265 214.904C128.135 215.273 128.156 215.678 128.324 216.031C128.492 216.383 128.793 216.655 129.162 216.786C129.53 216.916 129.935 216.895 130.288 216.727C130.64 216.559 130.912 216.258 131.043 215.889L147.785 173.393C147.94 173.001 148.02 172.584 148.021 172.162C148.024 171.284 147.682 170.44 147.069 169.812C146.455 169.184 145.62 168.822 144.742 168.804Z" fill="#1A365D"/>
<path d="M329.371 166.973H151.311C150.839 166.974 150.375 166.848 149.97 166.607C149.564 166.365 149.231 166.019 149.006 165.604L107.032 88.3919C106.402 87.2397 103.802 87.1806 103.802 87.1806C103.802 87.1806 45.9328 86.7276 44.7116 87.1806C44.3618 87.312 44.044 87.5165 43.7794 87.7803C43.5149 88.0442 43.3096 88.3615 43.1772 88.7109C43.0449 89.0604 42.9886 89.434 43.012 89.807C43.0354 90.1799 43.1381 90.5436 43.3131 90.8738L86.0356 171.365C86.2593 171.787 86.594 172.141 87.0035 172.387C87.413 172.633 87.8819 172.764 88.3598 172.763H329.371C330.068 172.763 330.737 172.486 331.23 171.993C331.723 171.5 332 170.831 332 170.134V169.602C331.998 168.906 331.72 168.238 331.227 167.746C330.735 167.253 330.067 166.975 329.371 166.973Z" fill="#F5AC0A"/>
<path opacity="0.5" d="M329.371 166.973H151.311C150.839 166.974 150.375 166.848 149.97 166.607C149.564 166.365 149.231 166.019 149.006 165.604L107.032 88.3919C106.402 87.2397 103.802 87.1806 103.802 87.1806C103.802 87.1806 45.9328 86.7276 44.7116 87.1806C44.3618 87.312 44.044 87.5165 43.7794 87.7803C43.5149 88.0442 43.3096 88.3615 43.1772 88.7109C43.0449 89.0604 42.9886 89.434 43.012 89.807C43.0354 90.1799 43.1381 90.5436 43.3131 90.8738L86.0356 171.365C86.2593 171.787 86.594 172.141 87.0035 172.387C87.413 172.633 87.8819 172.764 88.3598 172.763H329.371C330.068 172.763 330.737 172.486 331.23 171.993C331.723 171.5 332 170.831 332 170.134V169.602C331.998 168.906 331.72 168.238 331.227 167.746C330.735 167.253 330.067 166.975 329.371 166.973Z" fill="white"/>
<path opacity="0.4" d="M47.9417 88.391L89.9157 165.603C90.1402 166.018 90.473 166.365 90.8788 166.606C91.2846 166.847 91.7482 166.973 92.2203 166.972H260.431C261.128 166.974 261.795 167.252 262.288 167.745C262.781 168.237 263.058 168.905 263.061 169.601V170.143C263.058 170.839 262.78 171.505 262.287 171.996C261.794 172.487 261.127 172.763 260.431 172.763H88.34C87.8654 172.759 87.4006 172.627 86.9949 172.381C86.5892 172.135 86.2576 171.783 86.0354 171.364L43.313 90.8728C43.137 90.5452 43.0325 90.1839 43.0065 89.8129C42.9804 89.4419 43.0333 89.0696 43.1618 88.7205C43.2902 88.3715 43.4913 88.0537 43.7516 87.7881C44.0119 87.5225 44.3257 87.3151 44.672 87.1797C45.2711 86.9495 45.9336 86.9456 46.5354 87.1685C47.1372 87.3915 47.6372 87.8261 47.9417 88.391Z" fill="white"/>
<path d="M128.876 83.9699C128.876 83.9699 135.534 96.1327 135.022 103.746C134.51 111.358 100.867 91.1001 100.867 91.1001L99.6362 77.1548C103.312 77.5136 106.842 78.7792 109.908 80.8381C114.754 84.2161 125.794 94.4782 125.794 94.4782C125.598 91.6455 125.233 88.8271 124.7 86.0381C123.854 81.754 128.876 83.9699 128.876 83.9699Z" fill="#EBB376"/>
<path opacity="0.2" d="M128.876 83.9699C128.876 83.9699 135.534 96.1327 135.022 103.746C134.51 111.358 100.867 91.1001 100.867 91.1001L99.6362 77.1548C103.312 77.5136 106.842 78.7792 109.908 80.8381C114.754 84.2161 125.794 94.4782 125.794 94.4782C125.598 91.6455 125.233 88.8271 124.7 86.0381C123.854 81.754 128.876 83.9699 128.876 83.9699Z" fill="#1A365D"/>
<path d="M87.1876 62.0273C64.8218 73.609 52.8757 72.6636 48.9757 66.1045C48.8423 65.8923 48.7364 65.6639 48.6606 65.425L48.6015 65.2083C48.5757 65.1284 48.5591 65.0458 48.5522 64.9621C48.5425 64.8408 48.5425 64.719 48.5522 64.5977C48.5881 64.1134 48.7229 63.6416 48.9482 63.2113C49.1734 62.7811 49.4845 62.4016 49.8621 62.0962C50.1314 61.8355 50.4141 61.589 50.709 61.3576C50.9257 61.1902 51.1424 61.0227 51.3787 60.8652C51.6151 60.7076 51.8613 60.5303 52.1272 60.3629C52.6393 60.028 53.2105 59.6932 53.8113 59.378C54.412 59.0629 55.062 58.6788 55.781 58.3144L56.2931 58.0387L57.9082 57.1818L58.4598 56.8864L60.1832 55.9705L61.9756 54.9856L63.1968 54.2963C64.6347 53.4788 66.1514 52.5925 67.5597 51.6372C67.9832 51.3614 68.3968 51.0856 68.8203 50.7902C70.0678 49.9235 71.2988 48.9945 72.5135 48.0031C72.9172 47.6683 73.3112 47.3236 73.7051 47.0183C75.5062 45.4183 77.1547 43.6544 78.6293 41.7493L78.9445 41.3357C90.4573 26.5631 98.1095 20.4767 109.937 23.9532C110.779 24.1603 111.57 24.5359 112.262 25.0573C112.955 25.5786 113.534 26.2349 113.966 26.9865C118.003 34.3236 107.141 51.6864 87.1876 62.0273Z" fill="#F5AC0A"/>
<path opacity="0.5" d="M87.1876 62.0273C64.8218 73.609 52.8757 72.6636 48.9757 66.1045C48.8423 65.8923 48.7364 65.6639 48.6606 65.425L48.6015 65.2083C48.5757 65.1284 48.5591 65.0458 48.5522 64.9621C48.5425 64.8408 48.5425 64.719 48.5522 64.5977C48.5881 64.1134 48.7229 63.6416 48.9482 63.2113C49.1734 62.7811 49.4845 62.4016 49.8621 62.0962C50.1314 61.8355 50.4141 61.589 50.709 61.3576C50.9257 61.1902 51.1424 61.0227 51.3787 60.8652C51.6151 60.7076 51.8613 60.5303 52.1272 60.3629C52.6393 60.028 53.2105 59.6932 53.8113 59.378C54.412 59.0629 55.062 58.6788 55.781 58.3144L56.2931 58.0387L57.9082 57.1818L58.4598 56.8864L60.1832 55.9705L61.9756 54.9856L63.1968 54.2963C64.6347 53.4788 66.1514 52.5925 67.5597 51.6372C67.9832 51.3614 68.3968 51.0856 68.8203 50.7902C70.0678 49.9235 71.2988 48.9945 72.5135 48.0031C72.9172 47.6683 73.3112 47.3236 73.7051 47.0183C75.5062 45.4183 77.1547 43.6544 78.6293 41.7493L78.9445 41.3357C90.4573 26.5631 98.1095 20.4767 109.937 23.9532C110.779 24.1603 111.57 24.5359 112.262 25.0573C112.955 25.5786 113.534 26.2349 113.966 26.9865C118.003 34.3236 107.141 51.6864 87.1876 62.0273Z" fill="white"/>
<path d="M72.5134 49.8647C72.5134 49.8647 66.7718 64.8934 78.777 82.3646" stroke="#1A365D" stroke-width="0.5" stroke-linecap="round" stroke-linejoin="round"/>
<path d="M78.334 39.8885C72.7795 41.8582 68.3871 53.4399 73.1931 67.011C76.3983 75.7332 80.6687 84.0261 85.9075 91.7011L103.231 86.3534C103.231 86.3534 98.8384 32.7484 78.334 39.8885Z" fill="#1A365D"/>
<path d="M193.797 127.342C186.086 126.633 149.903 128.711 149.903 128.711L137.582 129.922L134.884 130.188C134.884 130.188 135.475 130.996 136.312 132.266C138.813 136.008 143.56 143.789 142.162 146.891C140.034 151.599 126.069 156.867 122.169 158.266L121.185 158.62L121.933 158.758C137.937 161.595 169.531 152.002 184.904 147.029C189.986 145.384 193.295 144.242 193.689 144.212C194.083 144.183 195.56 127.499 193.797 127.342Z" fill="#EBB376"/>
<path opacity="0.2" d="M184.874 147.03C169.501 152.003 137.907 161.595 121.903 158.759L122.169 158.267L136.312 132.267L137.582 129.923C137.582 129.923 163.838 135.832 184.874 147.03Z" fill="#1A365D"/>
<path d="M117.078 121.758L91.6885 130.504C87.0152 123.987 82.7049 117.217 78.7772 110.226L78.5802 109.881C77.487 107.911 76.4136 105.843 75.4287 103.795C73.2004 99.4578 71.4724 94.8818 70.278 90.1546C69.2931 85.9197 69.4113 82.2758 71.0954 79.8531C71.0954 79.8531 73.2818 79.3804 76.6302 78.819L77.4673 78.6811C83.5522 77.6353 89.7103 77.0722 95.8839 76.9971C96.465 76.9971 97.046 76.9971 97.6074 76.9971C98.9665 77.0463 100.276 77.1448 101.547 77.3122C104.57 77.7258 107.082 81.0054 109.14 85.6243C110.332 88.4079 111.32 91.2749 112.094 94.2023C113.197 98.0826 114.064 102.189 114.803 106.02C114.803 106.267 114.891 106.503 114.941 106.749C116.418 115.012 117.078 121.758 117.078 121.758Z" fill="#EBB376"/>
<path d="M117.078 121.758C124.117 123.936 130.973 126.666 137.582 129.923C137.582 129.923 140.96 136.265 141.64 141.623C143.117 153.293 140.655 167.366 125.449 167.1C103.231 166.707 95.7066 159.773 91.6885 130.504L117.078 121.758Z" fill="#8253F6"/>
<path d="M272.811 153.46C272.683 156.178 272.575 158.601 272.476 160.836C272.348 163.554 272.24 165.997 272.131 168.35C271.954 172.487 267.453 168.784 260.313 168.065L259.584 168.006C259.476 168.006 259.397 167.829 259.358 167.563C259.062 166.036 259.594 161.151 259.594 161.151C260.873 160.041 262.093 158.864 263.248 157.626C265.356 155.39 267.719 152.386 268.507 149.629C269.984 144.281 273.087 147.432 272.811 153.46Z" fill="#EBB376"/>
<path d="M261.614 161.201L261.308 167.858L260.087 167.957H259.545C251.056 168.627 214.055 171.148 194.368 166.421C194.368 166.421 132.412 166.706 121.185 166.352C109.958 165.997 104.265 150.594 109.987 141.632C113.336 136.412 118.27 132.109 134.244 136.452C150.218 140.795 184.234 151.687 196.968 153.775C196.968 153.775 214.755 158.246 244.664 160.324C249.333 160.649 254.306 160.915 259.555 161.093L261.614 161.201Z" fill="#EBB376"/>
<path opacity="0.2" d="M272.811 153.46C272.683 156.178 272.575 158.601 272.476 160.837C272.348 163.555 272.24 165.997 272.131 168.351C271.954 172.487 267.453 168.784 260.313 168.065L260.116 167.957L259.348 167.553C254.089 164.746 248.673 162.176 244.704 160.364C249.372 160.689 254.345 160.955 259.594 161.132C260.873 160.022 262.093 158.845 263.248 157.606C265.356 155.371 267.719 152.367 268.507 149.609C269.985 144.281 273.087 147.433 272.811 153.46Z" fill="#1A365D"/>
<path d="M269.216 165.288C268.517 165.042 269.453 157.488 269.453 157.488C269.453 157.488 279.36 154.652 282.256 149.935C285.151 145.217 287.279 149.097 285.378 154.859L280.67 169.001C279.291 173.029 276.337 167.859 269.216 165.288Z" fill="#EBB376"/>
<path d="M193.797 127.342C192.418 127.214 193.334 144.232 193.659 144.212C195.481 144.094 273.687 166.578 273.687 166.578L276.159 160.393C276.159 160.393 201.498 128.041 193.797 127.342Z" fill="#EBB376"/>
<path d="M114.783 106.059C110.871 105.188 107.042 103.978 103.339 102.445L103.231 102.396C102.945 102.74 102.65 103.065 102.334 103.381L101.162 104.484C99.57 105.846 97.7845 106.964 95.864 107.803C88.8224 110.934 81.0028 110.422 79.1217 110.245H78.7376L78.5012 109.871L74.9263 104.149C75.0838 104.04 75.2414 103.932 75.3891 103.814C77.6238 102.019 79.1177 99.4625 79.5846 96.6344C81.0323 89.5928 78.2353 80.9262 76.63 78.9073C76.5486 78.8056 76.4597 78.7101 76.3641 78.6216L76.9944 78.2769C77.1711 78.4217 77.3298 78.587 77.4672 78.7694C79.0922 80.9163 81.6134 87.633 81.6134 87.633C88.33 87.3867 99.1239 90.0557 99.1239 90.0557C99.1239 90.0557 101.507 85.8898 105.693 85.0133C105.693 85.0133 100.227 78.1785 95.8443 77.036C96.3814 76.9366 96.9322 76.9366 97.4693 77.036L97.5678 77.0853C101.797 79.3843 105.666 82.291 109.051 85.7125C110.809 87.4224 112.435 89.2628 113.916 91.2178C114.113 91.4795 114.293 91.7524 114.458 92.0352C118.19 98.0329 114.783 106.059 114.783 106.059Z" fill="#8253F6"/>
<path d="M78.7676 42.4292C78.7676 42.4292 76.5418 36.5201 86.2425 34.255C95.9432 31.9898 108.195 40.9322 107.584 56.0692C106.973 71.2063 103.389 75.8646 107.752 83.7039C112.114 91.5433 108.914 94.3107 106.235 96.0342C106.235 96.0342 107.909 93.966 106.826 91.9668C105.742 89.9675 98.494 89.9971 97.5781 82.1873C96.6622 74.3775 87.5819 75.3623 87.5819 75.3623L78.7676 42.4292Z" fill="#1A365D"/>
<path d="M81.1704 80.0897C81.1704 80.0897 84.056 83.1329 92.1317 82.9852C92.1317 82.9852 95.6771 79.8337 93.5499 76.9382C93.5499 76.9382 91.7575 76.6526 90.9893 73.9837C90.5388 72.0865 90.5052 70.1141 90.8908 68.2027C90.8908 67.8974 90.9991 67.5625 91.0582 67.2178L80.1265 62.4216C80.1265 62.4216 85.5136 74.6041 81.1704 80.0897Z" fill="#EBB376"/>
<path d="M92.4863 35.1414C92.4863 35.1414 111.642 40.3019 109.091 63.2488C106.54 86.1956 110.479 84.9646 110.479 84.9646" stroke="#1A365D" stroke-width="0.5" stroke-linecap="round" stroke-linejoin="round"/>
<path d="M90.7332 35.1413C86.2447 32.1622 80.8277 30.9129 75.4879 31.6254C66.447 32.7875 63.3644 40.8337 69.7167 52.5238L90.7332 35.1413Z" fill="#F5AC0A"/>
<path opacity="0.7" d="M90.7332 35.1413C86.2447 32.1622 80.8277 30.9129 75.4879 31.6254C66.447 32.7875 63.3644 40.8337 69.7167 52.5238L90.7332 35.1413Z" fill="white"/>
<path d="M128.876 83.9694C129.595 83.3093 130.236 82.5692 130.787 81.7634C131.279 80.8672 131.141 74.8104 130.954 74.0915C130.767 73.3725 126.631 73.7271 126.631 73.7271C126.631 73.7271 123.056 77.3611 122.524 80.5422C122.419 81.5027 122.536 82.4744 122.866 83.3826C123.195 84.2909 123.729 85.1115 124.425 85.7815L128.876 83.9694Z" fill="#EBB376"/>
<path opacity="0.2" d="M128.876 83.9694C129.595 83.3093 130.236 82.5692 130.787 81.7634C131.279 80.8672 131.141 74.8104 130.954 74.0915C130.767 73.3725 126.631 73.7271 126.631 73.7271C126.631 73.7271 123.056 77.3611 122.524 80.5422C122.419 81.5027 122.536 82.4744 122.866 83.3826C123.195 84.2909 123.729 85.1115 124.425 85.7815L128.876 83.9694Z" fill="#1A365D"/>
<path d="M118.988 81.1431C118.986 81.2646 119.012 81.385 119.064 81.4949C119.115 81.6048 119.192 81.7012 119.287 81.7765C119.383 81.8519 119.494 81.9041 119.613 81.9292C119.732 81.9543 119.855 81.9515 119.973 81.9211L128.837 80.6211C129.084 80.581 129.308 80.4536 129.469 80.262C129.63 80.0704 129.716 79.8274 129.713 79.5772L129.132 61.7121C129.133 61.5866 129.107 61.4623 129.056 61.3474C129.006 61.2324 128.932 61.1294 128.839 61.0449C128.746 60.9604 128.637 60.8964 128.517 60.8569C128.398 60.8175 128.272 60.8035 128.147 60.8159L119.284 62.1159C119.03 62.183 118.806 62.3348 118.651 62.5462C118.495 62.7575 118.416 63.0157 118.427 63.278L118.988 81.1431Z" fill="#1A365D"/>
<path opacity="0.5" d="M119.372 63.0119L119.954 81.0641C119.943 81.1712 119.958 81.2794 119.998 81.3795C120.037 81.4797 120.1 81.569 120.181 81.6402C120.261 81.7114 120.358 81.7623 120.462 81.7889C120.567 81.8154 120.676 81.8168 120.781 81.7929L128.384 80.68C128.886 80.611 129.772 80.1974 129.753 79.6951L129.172 61.5937C129.172 61.0816 128.236 60.8058 127.724 60.8846L120.121 61.968C119.892 62.0236 119.69 62.1596 119.553 62.3511C119.416 62.5427 119.352 62.7771 119.372 63.0119Z" fill="white"/>
<path opacity="0.2" d="M114.783 106.059C114.783 106.305 114.872 106.542 114.921 106.788C109.997 112.392 102.827 119.542 98.0209 119.542C93.5989 119.542 85.474 114.618 79.171 110.245L78.5801 109.841L75.0051 104.119C75.1627 104.011 75.3202 103.902 75.468 103.784C73.2268 99.4523 71.4856 94.8795 70.2778 90.1541L79.5748 96.5752L95.8247 107.802L96.8095 108.502L101.094 104.484L102.266 103.38L103.25 102.445L111.986 94.2411L114.389 91.9859C118.19 98.0328 114.783 106.059 114.783 106.059Z" fill="#1A365D"/>
<path d="M111.957 89.928L115.797 84.1863C115.797 84.1863 116.103 75.7659 116.467 74.8402C116.832 73.9144 123.656 73.7864 124.346 73.678C125.035 73.5697 125.508 81.931 124.858 82.8568C124.208 83.7825 121.47 84.6787 121.47 84.6787L117.068 93.1582L111.957 89.928Z" fill="#EBB376"/>
<path d="M71.135 79.8531C76.4728 78.8683 94.3083 105.676 96.8788 105.823C99.4492 105.971 115.798 84.1569 115.798 84.1569L120.288 87.0031C120.288 87.0031 107.239 113.279 99.6068 117.376C91.9742 121.473 75.5372 102.958 71.1054 97.3046C66.6736 91.6516 66.8214 80.6804 71.135 79.8531Z" fill="#EBB376"/>
<path opacity="0.2" d="M82.9136 65.73C82.9136 65.73 84.4893 72.811 90.9893 73.9731C90.5388 72.0759 90.5052 70.1035 90.8908 68.1921C86.9514 66.7936 82.9136 65.73 82.9136 65.73Z" fill="#1A365D"/>
<path d="M89.7287 40.7649C98.1196 40.9717 100.71 45.5315 101.113 54.1883C101.626 65.0216 99.0453 72.6344 88.606 70.0738C74.4341 66.5973 75.7833 40.4301 89.7287 40.7649Z" fill="#EBB376"/>
<path d="M90.5853 52.7796C90.5853 53.469 90.211 54.0303 89.7482 54.0303C89.2853 54.0303 88.9209 53.469 88.9209 52.7796C88.9209 52.0902 89.2951 51.5288 89.7482 51.5288C90.2012 51.5288 90.5853 52.1197 90.5853 52.7796Z" fill="#1A365D"/>
<path d="M89.561 51.5685L91.058 50.9775C91.058 50.9775 90.3095 52.2381 89.561 51.5685Z" fill="#1A365D"/>
<path d="M99.1536 52.6419C99.1536 53.3313 98.7794 53.8926 98.3264 53.8926C97.8734 53.8926 97.4893 53.3313 97.4893 52.6419C97.4893 51.9525 97.8635 51.3911 98.3264 51.3911C98.7893 51.3911 99.1536 51.9525 99.1536 52.6419Z" fill="#1A365D"/>
<path d="M98.1294 51.43L99.6362 50.8391C99.6362 50.8391 98.8877 52.1194 98.1294 51.43Z" fill="#1A365D"/>
<path d="M80.2152 54.6905C80.2152 54.6905 84.3023 47.8951 83.8394 42.5572C83.8394 42.5572 100.582 36.1557 101.045 53.0557C101.045 53.0557 103.014 38.1057 88.606 37.4262C74.1978 36.7467 73.7448 57.8519 81.0424 64.3223C81.0424 64.3223 77.6841 58.945 80.2152 54.6905Z" fill="#1A365D"/>
<path d="M81.5445 56.4926C81.5144 56.0064 81.3885 55.5309 81.1739 55.0936C80.9594 54.6562 80.6604 54.2656 80.2942 53.9443C79.9281 53.623 79.5019 53.3773 79.0404 53.2214C78.5789 53.0655 78.0911 53.0024 77.6051 53.0358C75.0051 53.2623 73.6657 58.5706 80.0672 60.0085C81.0422 60.2153 81.5937 59.3191 81.5445 56.4926Z" fill="#EBB376"/>
<path d="M102.453 50.15C102.453 50.15 100.759 49.1651 97.1839 49.7954C96.7122 49.5586 96.1968 49.4215 95.6699 49.3927C95.1429 49.3639 94.6156 49.444 94.121 49.628C92.0012 49.2703 89.8331 49.3137 87.7294 49.756L80.8355 51.0954L80.7173 51.8045L87.6112 51.2333C87.8771 52.9469 88.9112 55.6552 91.2059 55.5863C94.2589 55.478 94.5937 52.3954 94.6233 50.9378C95.3619 50.3174 96.593 50.4159 96.7013 51.0068C96.7013 52.3166 97.0361 55.3598 100.148 55.7242C103.26 56.0886 102.453 50.15 102.453 50.15Z" fill="#F5AC0A"/>
<path opacity="0.2" d="M102.453 50.15C102.453 50.15 100.759 49.1651 97.1839 49.7954C96.7122 49.5586 96.1968 49.4215 95.6699 49.3927C95.1429 49.3639 94.6156 49.444 94.121 49.628C92.0012 49.2703 89.8331 49.3137 87.7294 49.756L80.8355 51.0954L80.7173 51.8045L87.6112 51.2333C87.8771 52.9469 88.9112 55.6552 91.2059 55.5863C94.2589 55.478 94.5937 52.3954 94.6233 50.9378C95.3619 50.3174 96.593 50.4159 96.7013 51.0068C96.7013 52.3166 97.0361 55.3598 100.148 55.7242C103.26 56.0886 102.453 50.15 102.453 50.15Z" fill="#1A365D"/>
<path d="M113.936 26.9276C109.593 35.5351 98.3262 36.776 98.3262 36.776C78.6293 36.0768 80.8058 56.9259 48.6606 65.4645L48.6015 65.2478C48.5757 65.1679 48.5591 65.0853 48.5522 65.0016C48.5425 64.8804 48.5425 64.7585 48.5522 64.6372C48.5881 64.1529 48.7229 63.6811 48.9482 63.2509C49.1734 62.8207 49.4845 62.4411 49.8621 62.1358C50.1292 61.8727 50.4121 61.626 50.709 61.3971C50.9257 61.2297 51.1424 61.0623 51.3787 60.9047C51.6151 60.7471 51.8613 60.5698 52.1272 60.4024C52.6393 60.0676 53.2105 59.7327 53.8113 59.4176C54.412 59.1024 55.062 58.7183 55.781 58.3539L56.2931 58.0782L57.9082 57.2214L58.4598 56.9259L60.1832 56.01L61.9756 55.0252L63.1968 54.3358C64.6347 53.5184 66.1514 52.632 67.5597 51.6767L68.8203 50.8297C70.0678 49.9631 71.2988 49.034 72.5135 48.0426C72.9172 47.7078 73.3112 47.3631 73.7051 47.0578C75.5062 45.4578 77.1547 43.6939 78.6293 41.7889L78.9445 41.3752C90.4573 26.6026 98.1095 20.5163 109.937 23.9928C110.765 24.1919 111.546 24.554 112.232 25.0579C112.919 25.5618 113.498 26.1974 113.936 26.9276Z" fill="#F5AC0A"/>
<path opacity="0.5" d="M113.936 26.9276C109.593 35.5351 98.3262 36.776 98.3262 36.776C78.6293 36.0768 80.8058 56.9259 48.6606 65.4645L48.6015 65.2478C48.5757 65.1679 48.5591 65.0853 48.5522 65.0016C48.5425 64.8804 48.5425 64.7585 48.5522 64.6372C48.5881 64.1529 48.7229 63.6811 48.9482 63.2509C49.1734 62.8207 49.4845 62.4411 49.8621 62.1358C50.1292 61.8727 50.4121 61.626 50.709 61.3971C50.9257 61.2297 51.1424 61.0623 51.3787 60.9047C51.6151 60.7471 51.8613 60.5698 52.1272 60.4024C52.6393 60.0676 53.2105 59.7327 53.8113 59.4176C54.412 59.1024 55.062 58.7183 55.781 58.3539L56.2931 58.0782L57.9082 57.2214L58.4598 56.9259L60.1832 56.01L61.9756 55.0252L63.1968 54.3358C64.6347 53.5184 66.1514 52.632 67.5597 51.6767L68.8203 50.8297C70.0678 49.9631 71.2988 49.034 72.5135 48.0426C72.9172 47.7078 73.3112 47.3631 73.7051 47.0578C75.5062 45.4578 77.1547 43.6939 78.6293 41.7889L78.9445 41.3752C90.4573 26.6026 98.1095 20.5163 109.937 23.9928C110.765 24.1919 111.546 24.554 112.232 25.0579C112.919 25.5618 113.498 26.1974 113.936 26.9276Z" fill="white"/>
<defs>
<clipPath id="clip0_1569_1933">
<rect width="273" height="151" fill="white" transform="translate(58)"/>
</clipPath>
</defs>
</svg>
