<svg width="375" height="270" viewBox="0 0 375 270" fill="none" xmlns="http://www.w3.org/2000/svg">
<g opacity="0.5" clip-path="url(#clip0_1569_1928)">
<path d="M294.906 86.2781C294.906 86.2781 288.449 70.7442 272.406 72.2135C272.406 72.2135 249.554 46.1397 224.412 68.0464C224.412 68.0464 198.143 62.1204 178.464 72.1262C165.343 78.7991 160.934 85.9396 160.934 85.9396L294.903 86.2781H294.906Z" fill="#F8FCFF"/>
<path d="M207.196 36.1271C207.196 36.1271 199.784 17.0368 181.316 18.8621C181.316 18.8621 155.047 -13.1691 126.083 13.7981C126.083 13.7981 95.854 6.5424 73.1922 18.8691C58.0832 27.088 53 35.8723 53 35.8723L207.196 36.1271Z" fill="#F8FCFF"/>
<path d="M242.286 44.681C242.286 44.681 245.655 36.3958 253.703 37.3206C253.703 37.3206 265.394 23.5142 277.851 35.4884C277.851 35.4884 291.098 32.5289 300.906 38.064C307.444 41.7564 309.604 45.6268 309.604 45.6268L242.29 44.6845L242.286 44.681Z" fill="#F8FCFF"/>
</g>
<path d="M321.17 214.265C320.527 214.267 319.905 214.036 319.42 213.615L143.75 63.6154C143.253 63.1383 142.957 62.4894 142.923 61.8016C142.889 61.1137 143.119 60.4388 143.566 59.915C144.014 59.3912 144.644 59.0581 145.329 58.9838C146.013 58.9095 146.701 59.0997 147.25 59.5154L322.92 209.525C323.34 209.882 323.64 210.36 323.78 210.893C323.92 211.426 323.892 211.99 323.701 212.507C323.511 213.024 323.165 213.47 322.712 213.785C322.26 214.099 321.721 214.267 321.17 214.265Z" fill="#8253F6"/>
<path d="M206.06 214.265C205.451 214.264 204.86 214.06 204.38 213.685C203.985 213.381 203.682 212.973 203.505 212.507C203.329 212.041 203.285 211.535 203.38 211.045L220.19 127.045C220.259 126.699 220.395 126.369 220.591 126.075C220.788 125.781 221.04 125.529 221.334 125.332C221.628 125.136 221.958 124.999 222.304 124.93C222.651 124.861 223.008 124.861 223.355 124.93C223.701 124.999 224.031 125.136 224.325 125.332C224.619 125.529 224.871 125.781 225.068 126.075C225.264 126.369 225.401 126.698 225.47 127.045C225.539 127.392 225.539 127.749 225.47 128.095L209.69 206.895L301.35 164.955C301.672 164.799 302.022 164.708 302.38 164.689C302.738 164.67 303.096 164.722 303.433 164.843C303.771 164.964 304.08 165.152 304.344 165.394C304.608 165.636 304.821 165.929 304.97 166.255C305.12 166.581 305.202 166.933 305.213 167.291C305.225 167.649 305.164 168.006 305.035 168.341C304.907 168.675 304.713 168.981 304.464 169.239C304.216 169.497 303.919 169.703 303.59 169.845L207.14 213.985C206.803 214.152 206.435 214.247 206.06 214.265Z" fill="#8253F6"/>
<path d="M145.5 61.5154H59.5796C81.8296 99.5654 143.58 178.515 204.79 178.515H279.69C231.31 178.475 167.75 99.5654 145.5 61.5154Z" fill="#8253F6"/>
<path opacity="0.2" d="M145.5 61.5154H59.5796C81.8296 99.5654 143.58 178.515 204.79 178.515H279.69C231.31 178.475 167.75 99.5654 145.5 61.5154Z" fill="#1A365D"/>
<path d="M158.31 72.0854L158.92 71.4354L159.62 70.6654C160.09 70.1554 160.57 69.6654 161.03 69.0854C161.96 67.9954 162.88 66.9054 163.77 65.7854C165.536 63.557 167.188 61.2407 168.72 58.8454C169.48 57.6554 170.19 56.4454 170.85 55.2354C171.51 54.0254 172.14 52.7954 172.7 51.5554C173.803 49.1403 174.673 46.6256 175.3 44.0454L176.93 49.6354C175.978 48.4834 174.843 47.4967 173.57 46.7154C171.912 45.623 170.196 44.6216 168.43 43.7154C166.6 42.7654 164.69 41.8554 162.74 40.9654L156.87 38.3254L156.73 38.2554C155.949 37.9028 155.314 37.2899 154.935 36.5215C154.555 35.7532 154.454 34.8769 154.649 34.0423C154.844 33.2078 155.322 32.4667 156.003 31.9457C156.683 31.4246 157.523 31.1559 158.38 31.1854C160.725 31.2894 163.062 31.5265 165.38 31.8954C167.716 32.2631 170.033 32.7504 172.32 33.3554C174.711 33.9908 177.051 34.8065 179.32 35.7954C182.059 36.9505 184.564 38.5977 186.71 40.6554C187.357 41.303 187.848 42.0904 188.145 42.957C188.441 43.8237 188.535 44.7468 188.42 45.6554L188.34 46.2254C187.858 49.844 186.969 53.3966 185.69 56.8154C184.462 60.1139 182.957 63.302 181.19 66.3454C179.471 69.3269 177.55 72.187 175.44 74.9054C174.38 76.2554 173.31 77.5854 172.16 78.9054C171.59 79.5454 171.01 80.1854 170.41 80.8154L169.48 81.7554L168.48 82.7554C167.111 84.1438 165.247 84.9317 163.298 84.9458C161.348 84.9599 159.473 84.199 158.085 82.8304C156.696 81.4619 155.908 79.5979 155.894 77.6485C155.88 75.699 156.641 73.8238 158.01 72.4354L158.31 72.0854Z" fill="#F5C9B0"/>
<path d="M160.85 31.3654L152.25 30.3054L149.4 40.6754C149.4 40.6754 158.08 42.9054 161.84 37.2954L160.85 31.3654Z" fill="#F5C9B0"/>
<path d="M145.54 30.2454L144.43 38.9354L149.4 40.6754L152.25 30.3054L145.54 30.2454Z" fill="#F5C9B0"/>
<path d="M170.82 153.815C170.82 153.815 147.55 135.665 127.82 100.705C126.72 98.7536 126.053 96.5878 125.866 94.3553C125.679 92.1229 125.975 89.8763 126.734 87.7686C127.493 85.6608 128.698 83.7415 130.266 82.1413C131.833 80.541 133.728 79.2975 135.82 78.4953C143.25 75.6553 151.25 72.9654 157.77 70.8854C160.976 69.8521 164.431 69.8872 167.615 70.9853C170.8 72.0835 173.542 74.1855 175.43 76.9754C183.49 88.9754 191.43 105.895 216.17 126.165C216.502 126.435 216.761 126.782 216.926 127.177C217.09 127.572 217.154 128.001 217.111 128.426C217.069 128.852 216.921 129.26 216.682 129.614C216.442 129.968 216.118 130.257 215.74 130.455L170.82 153.815Z" fill="#8253F6"/>
<path d="M170.82 153.815C170.82 153.815 147.55 135.665 127.82 100.705C126.72 98.7536 126.053 96.5878 125.866 94.3553C125.679 92.1229 125.975 89.8763 126.734 87.7686C127.493 85.6608 128.698 83.7415 130.266 82.1413C131.833 80.541 133.728 79.2975 135.82 78.4953C143.25 75.6553 151.25 72.9654 157.77 70.8854C160.976 69.8521 164.431 69.8872 167.615 70.9853C170.8 72.0835 173.542 74.1855 175.43 76.9754C183.49 88.9754 191.43 105.895 216.17 126.165C216.502 126.435 216.761 126.782 216.926 127.177C217.09 127.572 217.154 128.001 217.111 128.426C217.069 128.852 216.921 129.26 216.682 129.614C216.442 129.968 216.118 130.257 215.74 130.455L170.82 153.815Z" fill="#F5AC0A"/>
<path opacity="0.2" d="M126.04 96.1655C128.96 87.0155 131.48 89.7755 132.63 90.6855C141.56 97.7855 146.2 113.106 145.32 126.976C138.8 118.614 132.911 109.779 127.7 100.546C126.92 99.1815 126.36 97.7035 126.04 96.1655Z" fill="#1A365D"/>
<path d="M127.93 54.6155C132.58 60.5555 139.68 71.7255 137.42 77.8455C143.471 80.4179 150.287 80.5291 156.42 78.1555C164.25 75.3455 161.62 72.6955 158.13 70.7355C150.01 71.9055 147.13 65.6855 145.76 60.1755L127.93 54.6155Z" fill="#F5C9B0"/>
<path opacity="0.2" d="M145.8 60.2254L135.8 57.1254C136.314 59.8098 137.227 62.402 138.51 64.8154C140.63 68.0554 146.29 69.8154 150.51 68.9854C147.92 66.8654 146.6 63.4354 145.8 60.2254Z" fill="#1A365D"/>
<path d="M149.31 31.6354C152.93 34.5454 154.61 41.1854 153.31 45.8054C146.76 35.4754 146.67 32.4254 146.67 32.4254L149.31 31.6354Z" fill="#1A365D"/>
<path d="M126.86 45.9554C129.18 55.3554 130.06 60.9554 135.77 65.1654C137.575 66.5727 139.732 67.4564 142.006 67.72C144.28 67.9835 146.582 67.6167 148.661 66.6597C150.74 65.7027 152.516 64.1924 153.795 62.2939C155.073 60.3954 155.805 58.1818 155.91 55.8954C156.4 47.1154 152.53 33.2354 142.5 30.6954C132.47 28.1554 124.55 36.5654 126.86 45.9554Z" fill="#F5C9B0"/>
<path d="M128.5 54.6054C130.95 51.2354 132.15 44.6054 130.71 39.6754C136.71 38.1454 155.28 37.0654 150.2 27.0854C145.12 17.1054 138.2 21.5954 138.07 25.1654C126.69 21.8654 119.07 25.6454 122.17 29.1654C110.45 33.4054 114.57 42.9154 117.17 44.0554C113.11 48.8954 114.9 59.7154 121.24 59.9554C127.58 60.1954 130.32 65.0354 133.9 63.6554C133.22 59.9754 128.5 54.6054 128.5 54.6054Z" fill="#1A365D"/>
<path d="M123.98 55.9954C125.364 57.7163 127.346 58.8519 129.53 59.1754C132.41 59.5654 133.33 56.9454 132.08 54.4754C130.97 52.2454 128.08 49.3654 125.45 50.1054C122.82 50.8454 122.31 53.8154 123.98 55.9954Z" fill="#F5C9B0"/>
<path d="M313.24 208.485L324.61 206.395L296.41 180.435L288.49 191.805L313.24 208.485Z" fill="#F5C9B0"/>
<path d="M312.76 214.645C311.86 212.045 312.55 208.535 310 204.525C310 204.525 316 198.455 318.5 201.125C321 203.795 328.76 206.535 338.2 204.375C339.52 204.075 339.92 208.025 336.95 209.045C332.04 210.725 328.41 211.895 324.22 213.335C320.64 214.565 320 215.665 317.22 216.835C314.9 217.815 313.67 217.255 312.76 214.645Z" fill="#F5C9B0"/>
<path d="M205.51 135.735C205.51 135.735 242.72 140.735 264.58 148.435C279.09 153.525 306.58 187.645 306.58 187.645L295.46 198.815C295.46 198.815 267.87 180.585 247.63 170.725C212.2 177.725 176.29 180.045 170.82 153.845C178.99 148.415 205.51 135.735 205.51 135.735Z" fill="#1A365D"/>
<path opacity="0.2" d="M259.03 147.985L255.21 174.565C261.37 177.845 267.79 181.565 273.65 185.075L259.03 147.985Z" fill="#1A365D"/>
<path d="M312.23 188.295L296.21 204.055L290.8 198.895L307.27 182.065L312.23 188.295Z" fill="#3B5C89"/>
<path d="M216.51 127.605C216.51 127.605 258.69 114.036 280.51 121.706C295.02 126.796 281.62 175.155 281.62 175.155L261.86 177.576C261.86 177.576 259.67 158.295 257.86 148.465C239.93 155.965 187.29 171.865 181.86 145.665C189.99 140.285 216.51 127.605 216.51 127.605Z" fill="#1A365D"/>
<path d="M269.74 204.055L279.16 204.475L278.37 172.935L264.55 173.935L269.74 204.055Z" fill="#F5C9B0"/>
<path d="M266.31 210.085C267.1 207.445 269.72 205.015 270 200.265C270 200.265 278.44 198.885 278.88 202.505C279.32 206.125 284.02 212.895 292.94 216.685C294.18 217.215 292.19 220.685 289.19 219.735C284.19 218.225 280.6 217.035 276.36 215.735C272.74 214.635 271.57 215.145 268.64 214.465C266.22 213.905 265.54 212.735 266.31 210.085Z" fill="#F5C9B0"/>
<path d="M283.61 178.025L261.41 181.495L260.02 174.145L283.21 170.065L283.61 178.025Z" fill="#3B5C89"/>
<path d="M139.97 92.4754C140.54 98.9854 141.1 105.675 141.83 112.195C142.17 115.455 142.61 118.695 143.07 121.865C143.488 124.839 144.099 127.782 144.9 130.675C145.048 131.177 145.222 131.671 145.42 132.155C145.48 132.315 145.54 132.425 145.49 132.365C145.44 132.305 145.49 132.415 145.32 132.195L145.1 131.975L144.94 131.825L144.77 131.705L144.67 131.645C144.622 131.611 144.572 131.581 144.52 131.555C144.37 131.495 144.45 131.555 144.59 131.635C144.79 131.738 144.997 131.824 145.21 131.895C145.812 132.118 146.426 132.305 147.05 132.455C148.42 132.795 149.95 133.075 151.51 133.315C153.07 133.555 154.67 133.795 156.29 133.995C162.76 134.805 169.49 135.335 176.14 135.995H176.21C177.089 136.093 177.904 136.505 178.504 137.154C179.105 137.803 179.451 138.647 179.481 139.532C179.51 140.416 179.219 141.281 178.663 141.968C178.106 142.656 177.321 143.12 176.45 143.275C169.606 144.43 162.689 145.098 155.75 145.275C152.101 145.414 148.447 145.273 144.82 144.855C143.775 144.724 142.737 144.541 141.71 144.305C141.15 144.165 140.57 144.005 139.92 143.775C139.148 143.517 138.405 143.182 137.7 142.775C137.51 142.665 137.26 142.515 137.02 142.345L136.66 142.095L136.31 141.815L135.91 141.455C135.756 141.313 135.609 141.163 135.47 141.005C135.272 140.792 135.085 140.568 134.91 140.335C134.434 139.726 134.006 139.081 133.63 138.405C133.072 137.382 132.581 136.323 132.16 135.235C131.451 133.417 130.853 131.557 130.37 129.665C129.9 127.875 129.5 126.125 129.13 124.375C128.38 120.885 127.85 117.435 127.33 113.995C126.33 107.095 125.68 100.325 125.33 93.3454C125.254 91.4313 125.928 89.563 127.208 88.1376C128.488 86.7122 130.273 85.8419 132.184 85.7117C134.095 85.5815 135.982 86.2016 137.443 87.4403C138.905 88.679 139.825 90.4387 140.01 92.3454L139.97 92.4754Z" fill="#F5C9B0"/>
<path d="M240.87 119.815L261.78 129.465C263.07 130.055 263.98 131.935 263.11 132.215L203.58 150.815C203.099 150.898 202.608 150.884 202.133 150.772C201.659 150.66 201.212 150.454 200.82 150.165L183.31 139.645C182.06 138.895 181.31 137.185 182.18 136.935L240.87 119.815Z" fill="#8253F6"/>
<path opacity="0.4" d="M240.87 119.815L261.78 129.465C263.07 130.055 263.98 131.935 263.11 132.215L203.58 150.815C203.099 150.898 202.608 150.884 202.133 150.772C201.659 150.66 201.212 150.454 200.82 150.165L183.31 139.645C182.06 138.895 181.31 137.185 182.18 136.935L240.87 119.815Z" fill="#1A365D"/>
<path d="M265.86 89.1755L204.51 107.816C204.117 107.948 203.77 108.189 203.51 108.512C203.25 108.834 203.086 109.224 203.04 109.636L200.88 148.796C200.855 148.962 200.875 149.132 200.938 149.288C201.001 149.445 201.105 149.581 201.239 149.683C201.373 149.785 201.532 149.85 201.699 149.869C201.866 149.889 202.036 149.864 202.19 149.796L263.55 131.215C263.942 131.08 264.289 130.837 264.549 130.513C264.809 130.189 264.972 129.798 265.02 129.386L267.18 90.2355C267.219 90.0633 267.21 89.8833 267.152 89.7163C267.094 89.5493 266.99 89.402 266.852 89.2913C266.714 89.1806 266.548 89.111 266.373 89.0906C266.197 89.0701 266.019 89.0995 265.86 89.1755Z" fill="#8253F6"/>
<path opacity="0.4" d="M203.04 109.585L200.88 148.745C200.855 148.912 200.875 149.082 200.938 149.238C201.001 149.394 201.105 149.531 201.239 149.633C201.373 149.735 201.532 149.8 201.699 149.819C201.866 149.839 202.036 149.814 202.19 149.745L204.51 107.745C204.114 107.879 203.765 108.124 203.505 108.45C203.244 108.776 203.083 109.17 203.04 109.585Z" fill="#1A365D"/>
<path d="M174.87 135.715L183.27 134.075L182.83 145.075C182.83 145.075 173.32 145.895 171.83 141.525L172.66 137.845C172.779 137.313 173.053 136.828 173.445 136.449C173.838 136.071 174.333 135.816 174.87 135.715Z" fill="#F5C9B0"/>
<path d="M189.56 134.775L192.7 142.935L182.83 145.075L183.27 134.075L189.56 134.775Z" fill="#F5C9B0"/>
<path d="M235.24 214.265C234.6 214.267 233.982 214.036 233.5 213.615L57.8298 63.6154C57.333 63.1383 57.0374 62.4894 57.0033 61.8016C56.9692 61.1137 57.1993 60.4388 57.6465 59.915C58.0936 59.3912 58.7241 59.0581 59.4087 58.9838C60.0934 58.9095 60.7807 59.0997 61.3298 59.5154L236.99 209.525C237.41 209.882 237.71 210.36 237.85 210.893C237.99 211.426 237.963 211.99 237.772 212.507C237.581 213.024 237.235 213.47 236.782 213.785C236.33 214.099 235.791 214.267 235.24 214.265Z" fill="#8253F6"/>
<path opacity="0.3" d="M235.24 214.265C234.6 214.267 233.982 214.036 233.5 213.615L57.8298 63.6154C57.333 63.1383 57.0374 62.4894 57.0033 61.8016C56.9692 61.1137 57.1993 60.4388 57.6465 59.915C58.0936 59.3912 58.7241 59.0581 59.4087 58.9838C60.0934 58.9095 60.7807 59.0997 61.3298 59.5154L236.99 209.525C237.41 209.882 237.71 210.36 237.85 210.893C237.99 211.426 237.963 211.99 237.772 212.507C237.581 213.024 237.235 213.47 236.782 213.785C236.33 214.099 235.791 214.267 235.24 214.265Z" fill="white"/>
<path d="M120.13 214.265C119.524 214.263 118.937 214.059 118.46 213.685C118.066 213.38 117.764 212.972 117.587 212.506C117.411 212.041 117.367 211.535 117.46 211.045L134.28 127.045C134.349 126.699 134.485 126.369 134.682 126.075C134.878 125.781 135.13 125.529 135.424 125.332C135.718 125.136 136.048 124.999 136.394 124.93C136.741 124.861 137.098 124.861 137.445 124.93C137.791 124.999 138.121 125.136 138.415 125.332C138.709 125.529 138.961 125.781 139.158 126.075C139.354 126.369 139.491 126.698 139.56 127.045C139.629 127.392 139.629 127.749 139.56 128.095L123.78 206.895L215.44 164.955C215.762 164.799 216.112 164.708 216.47 164.689C216.828 164.67 217.186 164.722 217.524 164.843C217.861 164.964 218.17 165.152 218.434 165.394C218.698 165.636 218.911 165.929 219.06 166.255C219.21 166.581 219.292 166.933 219.304 167.291C219.315 167.649 219.254 168.006 219.126 168.341C218.997 168.675 218.803 168.981 218.554 169.239C218.306 169.497 218.009 169.703 217.68 169.845L121.22 213.985C120.88 214.153 120.508 214.248 120.13 214.265Z" fill="#8253F6"/>
<path opacity="0.3" d="M120.13 214.265C119.524 214.263 118.937 214.059 118.46 213.685C118.066 213.38 117.764 212.972 117.587 212.506C117.411 212.041 117.367 211.535 117.46 211.045L134.28 127.045C134.349 126.699 134.485 126.369 134.682 126.075C134.878 125.781 135.13 125.529 135.424 125.332C135.718 125.136 136.048 124.999 136.394 124.93C136.741 124.861 137.098 124.861 137.445 124.93C137.791 124.999 138.121 125.136 138.415 125.332C138.709 125.529 138.961 125.781 139.158 126.075C139.354 126.369 139.491 126.698 139.56 127.045C139.629 127.392 139.629 127.749 139.56 128.095L123.78 206.895L215.44 164.955C215.762 164.799 216.112 164.708 216.47 164.689C216.828 164.67 217.186 164.722 217.524 164.843C217.861 164.964 218.17 165.152 218.434 165.394C218.698 165.636 218.911 165.929 219.06 166.255C219.21 166.581 219.292 166.933 219.304 167.291C219.315 167.649 219.254 168.006 219.126 168.341C218.997 168.675 218.803 168.981 218.554 169.239C218.306 169.497 218.009 169.703 217.68 169.845L121.22 213.985C120.88 214.153 120.508 214.248 120.13 214.265Z" fill="white"/>
<defs>
<clipPath id="clip0_1569_1928">
<rect width="273" height="151" fill="white" transform="translate(53 3)"/>
</clipPath>
</defs>
</svg>
