<svg width="375" height="270" viewBox="0 0 375 270" fill="none" xmlns="http://www.w3.org/2000/svg">
<g clip-path="url(#clip0_1569_1932)">
<g opacity="0.3">
<path d="M295.226 37.3828H81.7668V174.313H295.226V37.3828Z" fill="#8AE3DE"/>
<path opacity="0.2" d="M105.043 59.1416C105.024 59.3469 104.928 59.5376 104.776 59.6764C104.623 59.8153 104.425 59.8922 104.218 59.8922C104.012 59.8922 103.813 59.8153 103.661 59.6764C103.508 59.5376 103.413 59.3469 103.394 59.1416C103.383 59.0268 103.396 58.9109 103.432 58.8015C103.469 58.6921 103.528 58.5915 103.606 58.5062C103.683 58.4209 103.778 58.3527 103.883 58.3061C103.989 58.2594 104.103 58.2354 104.218 58.2354C104.334 58.2354 104.448 58.2594 104.553 58.3061C104.659 58.3527 104.753 58.4209 104.831 58.5062C104.909 58.5915 104.968 58.6921 105.004 58.8015C105.041 58.9109 105.054 59.0268 105.043 59.1416Z" fill="white"/>
<path opacity="0.5" d="M104.757 59.1416C104.757 59.2475 104.726 59.3509 104.667 59.4389C104.608 59.5269 104.525 59.5955 104.427 59.636C104.329 59.6766 104.221 59.6872 104.118 59.6665C104.014 59.6459 103.918 59.5949 103.844 59.52C103.769 59.4452 103.718 59.3498 103.697 59.246C103.676 59.1422 103.687 59.0346 103.728 58.9368C103.768 58.839 103.837 58.7554 103.925 58.6966C104.013 58.6378 104.116 58.6064 104.222 58.6064C104.364 58.6064 104.5 58.6628 104.6 58.7632C104.701 58.8636 104.757 58.9997 104.757 59.1416Z" fill="white"/>
<path opacity="0.2" d="M141.581 87.2413C141.581 87.4051 141.533 87.5653 141.442 87.7015C141.35 87.8378 141.221 87.9439 141.07 88.0066C140.918 88.0693 140.752 88.0857 140.591 88.0538C140.43 88.0218 140.283 87.9429 140.167 87.8271C140.051 87.7112 139.972 87.5636 139.94 87.4029C139.908 87.2422 139.925 87.0756 139.987 86.9243C140.05 86.7729 140.156 86.6435 140.292 86.5525C140.429 86.4615 140.589 86.4129 140.753 86.4129C140.862 86.4119 140.97 86.4327 141.071 86.4739C141.172 86.5152 141.264 86.5762 141.341 86.6533C141.418 86.7304 141.479 86.8222 141.52 86.9231C141.561 87.0241 141.582 87.1322 141.581 87.2413Z" fill="white"/>
<path opacity="0.5" d="M141.295 87.2415C141.295 87.3473 141.264 87.4508 141.205 87.5388C141.146 87.6268 141.063 87.6954 140.965 87.7359C140.867 87.7764 140.759 87.787 140.656 87.7664C140.552 87.7457 140.456 87.6947 140.382 87.6199C140.307 87.545 140.256 87.4497 140.235 87.3459C140.214 87.2421 140.225 87.1345 140.266 87.0367C140.306 86.9389 140.375 86.8553 140.463 86.7965C140.551 86.7377 140.654 86.7063 140.76 86.7063C140.902 86.7063 141.038 86.7627 141.138 86.8631C141.239 86.9634 141.295 87.0995 141.295 87.2415Z" fill="white"/>
<path opacity="0.2" d="M118.818 48.9156C119.272 48.9156 119.639 48.548 119.639 48.0945C119.639 47.6411 119.272 47.2734 118.818 47.2734C118.365 47.2734 117.997 47.6411 117.997 48.0945C117.997 48.548 118.365 48.9156 118.818 48.9156Z" fill="white"/>
<path opacity="0.5" d="M119.354 48.0938C119.354 48.1996 119.322 48.3031 119.263 48.3911C119.205 48.4791 119.121 48.5477 119.023 48.5882C118.925 48.6287 118.818 48.6393 118.714 48.6187C118.61 48.598 118.515 48.547 118.44 48.4722C118.365 48.3973 118.314 48.302 118.293 48.1982C118.273 48.0944 118.283 47.9868 118.324 47.889C118.364 47.7912 118.433 47.7076 118.521 47.6488C118.609 47.59 118.713 47.5586 118.818 47.5586C118.96 47.5586 119.096 47.615 119.197 47.7153C119.297 47.8157 119.354 47.9518 119.354 48.0938Z" fill="white"/>
<path opacity="0.2" d="M213.272 70.3428C213.252 70.5481 213.157 70.7388 213.005 70.8776C212.852 71.0164 212.653 71.0933 212.447 71.0933C212.241 71.0933 212.042 71.0164 211.889 70.8776C211.737 70.7388 211.642 70.5481 211.622 70.3428C211.611 70.2279 211.625 70.1121 211.661 70.0027C211.698 69.8933 211.757 69.7927 211.834 69.7074C211.912 69.622 212.007 69.5539 212.112 69.5073C212.218 69.4606 212.332 69.4365 212.447 69.4365C212.562 69.4365 212.676 69.4606 212.782 69.5073C212.887 69.5539 212.982 69.622 213.06 69.7074C213.137 69.7927 213.196 69.8933 213.233 70.0027C213.269 70.1121 213.283 70.2279 213.272 70.3428Z" fill="white"/>
<path opacity="0.5" d="M212.985 70.3447C212.985 70.4506 212.954 70.5541 212.895 70.6421C212.836 70.7301 212.753 70.7987 212.655 70.8392C212.557 70.8797 212.45 70.8903 212.346 70.8696C212.242 70.849 212.147 70.798 212.072 70.7232C211.997 70.6483 211.946 70.553 211.925 70.4491C211.905 70.3453 211.915 70.2377 211.956 70.1399C211.996 70.0422 212.065 69.9586 212.153 69.8998C212.241 69.841 212.344 69.8096 212.45 69.8096C212.592 69.8096 212.728 69.866 212.829 69.9663C212.929 70.0667 212.985 70.2028 212.985 70.3447Z" fill="white"/>
<path opacity="0.2" d="M169.439 88.9053C169.42 89.1106 169.325 89.3013 169.172 89.4401C169.02 89.5789 168.821 89.6558 168.615 89.6558C168.408 89.6558 168.209 89.5789 168.057 89.4401C167.904 89.3013 167.809 89.1106 167.79 88.9053C167.779 88.7904 167.792 88.6746 167.829 88.5652C167.865 88.4558 167.924 88.3552 168.002 88.2699C168.08 88.1845 168.174 88.1164 168.28 88.0697C168.385 88.0231 168.499 87.999 168.615 87.999C168.73 87.999 168.844 88.0231 168.949 88.0697C169.055 88.1164 169.15 88.1845 169.227 88.2699C169.305 88.3552 169.364 88.4558 169.4 88.5652C169.437 88.6746 169.45 88.7904 169.439 88.9053Z" fill="white"/>
<path opacity="0.5" d="M169.168 88.9053C169.168 89.0453 169.112 89.1795 169.013 89.2785C168.914 89.3775 168.78 89.4331 168.64 89.4331C168.499 89.4331 168.364 89.3778 168.264 89.279C168.164 89.1802 168.106 89.0459 168.104 88.9053C168.104 88.7633 168.161 88.6272 168.261 88.5269C168.362 88.4265 168.498 88.3701 168.64 88.3701C168.78 88.372 168.915 88.4293 169.013 88.5294C169.112 88.6296 169.168 88.7646 169.168 88.9053Z" fill="white"/>
<path opacity="0.2" d="M132.923 112.688C132.934 112.803 132.921 112.919 132.884 113.028C132.848 113.138 132.789 113.238 132.711 113.324C132.633 113.409 132.539 113.477 132.433 113.524C132.328 113.57 132.214 113.595 132.098 113.595C131.983 113.595 131.869 113.57 131.763 113.524C131.658 113.477 131.563 113.409 131.486 113.324C131.408 113.238 131.349 113.138 131.313 113.028C131.276 112.919 131.263 112.803 131.274 112.688C131.293 112.483 131.388 112.292 131.541 112.153C131.693 112.015 131.892 111.938 132.098 111.938C132.305 111.938 132.503 112.015 132.656 112.153C132.809 112.292 132.904 112.483 132.923 112.688Z" fill="white"/>
<path opacity="0.5" d="M132.63 112.688C132.63 112.794 132.599 112.898 132.54 112.986C132.481 113.074 132.397 113.142 132.3 113.183C132.202 113.223 132.094 113.234 131.99 113.213C131.887 113.193 131.791 113.142 131.716 113.067C131.641 112.992 131.591 112.897 131.57 112.793C131.549 112.689 131.56 112.581 131.6 112.484C131.641 112.386 131.709 112.302 131.797 112.244C131.885 112.185 131.989 112.153 132.095 112.153C132.237 112.153 132.373 112.21 132.473 112.31C132.574 112.41 132.63 112.547 132.63 112.688Z" fill="white"/>
<path opacity="0.2" d="M98.8775 80.3358C99.331 80.3358 99.6986 79.9682 99.6986 79.5147C99.6986 79.0612 99.331 78.6936 98.8775 78.6936C98.424 78.6936 98.0564 79.0612 98.0564 79.5147C98.0564 79.9682 98.424 80.3358 98.8775 80.3358Z" fill="white"/>
<path opacity="0.5" d="M99.4126 79.5142C99.414 79.6203 99.3839 79.7245 99.326 79.8135C99.2681 79.9024 99.185 79.9722 99.0873 80.0138C98.9897 80.0554 98.8819 80.0671 98.7776 80.0473C98.6733 80.0274 98.5772 79.9771 98.5017 79.9025C98.4261 79.828 98.3744 79.7326 98.3531 79.6286C98.3319 79.5246 98.342 79.4166 98.3823 79.3184C98.4226 79.2202 98.4912 79.1362 98.5793 79.0771C98.6675 79.0179 98.7712 78.9863 98.8774 78.9863C99.0181 78.9863 99.1531 79.0417 99.2533 79.1405C99.3534 79.2393 99.4106 79.3735 99.4126 79.5142Z" fill="white"/>
<path opacity="0.2" d="M188.896 79.5516C188.897 79.716 188.85 79.8772 188.759 80.0146C188.669 80.1519 188.54 80.2592 188.388 80.3228C188.236 80.3864 188.069 80.4035 187.908 80.3717C187.746 80.34 187.598 80.261 187.482 80.1447C187.366 80.0284 187.287 79.8801 187.255 79.7187C187.223 79.5573 187.24 79.3902 187.304 79.2385C187.367 79.0868 187.475 78.9575 187.612 78.8671C187.749 78.7766 187.911 78.7291 188.075 78.7305C188.292 78.7324 188.5 78.8195 188.653 78.9731C188.807 79.1267 188.894 79.3344 188.896 79.5516Z" fill="white"/>
<path opacity="0.5" d="M188.603 79.5518C188.603 79.658 188.571 79.7617 188.512 79.8499C188.453 79.9381 188.369 80.0066 188.27 80.0469C188.172 80.0872 188.064 80.0974 187.96 80.0761C187.856 80.0549 187.761 80.0032 187.686 79.9276C187.612 79.852 187.561 79.756 187.542 79.6517C187.522 79.5474 187.533 79.4395 187.575 79.3419C187.617 79.2442 187.686 79.1612 187.775 79.1033C187.864 79.0454 187.969 79.0152 188.075 79.0167C188.215 79.0186 188.35 79.0758 188.448 79.176C188.547 79.2761 188.603 79.4112 188.603 79.5518Z" fill="white"/>
<path opacity="0.2" d="M113.584 67.5656C113.584 67.6745 113.54 67.7789 113.463 67.8559C113.386 67.9329 113.282 67.9761 113.173 67.9761C113.064 67.9761 112.96 67.9329 112.883 67.8559C112.806 67.7789 112.762 67.6745 112.762 67.5656C112.762 67.4567 112.806 67.3523 112.883 67.2753C112.96 67.1983 113.064 67.155 113.173 67.155C113.282 67.155 113.386 67.1983 113.463 67.2753C113.54 67.3523 113.584 67.4567 113.584 67.5656Z" fill="white"/>
<path opacity="0.5" d="M113.437 67.5645C113.437 67.5991 113.43 67.6334 113.417 67.6655C113.404 67.6975 113.384 67.7266 113.36 67.7511C113.335 67.7756 113.306 67.795 113.274 67.8083C113.242 67.8215 113.208 67.8284 113.173 67.8284C113.103 67.8284 113.036 67.8006 112.986 67.7511C112.937 67.7016 112.909 67.6345 112.909 67.5645C112.909 67.4945 112.937 67.4273 112.986 67.3778C113.036 67.3283 113.103 67.3005 113.173 67.3005C113.208 67.3005 113.242 67.3074 113.274 67.3206C113.306 67.3339 113.335 67.3533 113.36 67.3778C113.384 67.4023 113.404 67.4314 113.417 67.4635C113.43 67.4955 113.437 67.5298 113.437 67.5645Z" fill="white"/>
<path opacity="0.2" d="M146.515 60.0873C146.515 60.1685 146.491 60.2479 146.446 60.3154C146.401 60.3829 146.337 60.4355 146.261 60.4666C146.186 60.4977 146.104 60.5058 146.024 60.4899C145.945 60.4741 145.872 60.435 145.814 60.3776C145.757 60.3202 145.718 60.247 145.702 60.1674C145.686 60.0878 145.694 60.0052 145.725 59.9302C145.756 59.8552 145.809 59.7911 145.876 59.7459C145.944 59.7008 146.023 59.6768 146.104 59.6768C146.213 59.6768 146.318 59.72 146.395 59.797C146.472 59.874 146.515 59.9784 146.515 60.0873Z" fill="white"/>
<path opacity="0.5" d="M146.376 60.0879C146.374 60.1586 146.344 60.2257 146.294 60.275C146.243 60.3243 146.175 60.3518 146.104 60.3518C146.034 60.3518 145.967 60.324 145.918 60.2745C145.868 60.225 145.841 60.1579 145.841 60.0879C145.841 60.0179 145.868 59.9508 145.918 59.9013C145.967 59.8518 146.034 59.824 146.104 59.824C146.175 59.8239 146.243 59.8515 146.294 59.9008C146.344 59.9501 146.374 60.0172 146.376 60.0879Z" fill="white"/>
<path opacity="0.2" d="M164.454 81.9494C164.454 82.0582 164.411 82.1627 164.334 82.2397C164.257 82.3166 164.152 82.3599 164.043 82.3599C163.934 82.3599 163.83 82.3166 163.753 82.2397C163.676 82.1627 163.633 82.0582 163.633 81.9494C163.633 81.8405 163.676 81.7361 163.753 81.6591C163.83 81.5821 163.934 81.5388 164.043 81.5388C164.152 81.5388 164.257 81.5821 164.334 81.6591C164.411 81.7361 164.454 81.8405 164.454 81.9494Z" fill="white"/>
<path opacity="0.5" d="M164.307 81.9487C164.306 82.0006 164.289 82.0509 164.259 82.0933C164.229 82.1357 164.188 82.1684 164.139 82.1873C164.091 82.2061 164.038 82.2103 163.988 82.1993C163.937 82.1883 163.89 82.1626 163.854 82.1255C163.818 82.0883 163.794 82.0412 163.784 81.9903C163.774 81.9393 163.78 81.8866 163.8 81.8388C163.82 81.791 163.854 81.7502 163.898 81.7215C163.941 81.6928 163.991 81.6775 164.043 81.6775C164.079 81.6775 164.114 81.6845 164.146 81.6983C164.179 81.712 164.208 81.7321 164.233 81.7574C164.257 81.7826 164.277 81.8126 164.289 81.8455C164.302 81.8784 164.308 81.9135 164.307 81.9487Z" fill="white"/>
<path opacity="0.2" d="M106.89 89.2798C107.117 89.2798 107.301 89.096 107.301 88.8693C107.301 88.6425 107.117 88.4587 106.89 88.4587C106.664 88.4587 106.48 88.6425 106.48 88.8693C106.48 89.096 106.664 89.2798 106.89 89.2798Z" fill="white"/>
<path opacity="0.5" d="M107.125 88.8695C107.126 88.9237 107.112 88.9772 107.082 89.0229C107.053 89.0686 107.011 89.1045 106.961 89.1259C106.911 89.1474 106.856 89.1533 106.803 89.1431C106.749 89.1329 106.7 89.1069 106.662 89.0685C106.624 89.0302 106.598 88.9812 106.587 88.9279C106.577 88.8746 106.583 88.8194 106.605 88.7696C106.626 88.7197 106.662 88.6775 106.708 88.6482C106.753 88.619 106.807 88.6041 106.861 88.6056C106.931 88.6056 106.998 88.6334 107.048 88.6829C107.097 88.7324 107.125 88.7995 107.125 88.8695Z" fill="white"/>
<path opacity="0.2" d="M185.685 63.5691C185.912 63.5691 186.095 63.3853 186.095 63.1586C186.095 62.9319 185.912 62.748 185.685 62.748C185.458 62.748 185.274 62.9319 185.274 63.1586C185.274 63.3853 185.458 63.5691 185.685 63.5691Z" fill="white"/>
<path opacity="0.5" d="M185.685 63.4233C185.831 63.4233 185.949 63.3052 185.949 63.1594C185.949 63.0137 185.831 62.8955 185.685 62.8955C185.539 62.8955 185.421 63.0137 185.421 63.1594C185.421 63.3052 185.539 63.4233 185.685 63.4233Z" fill="white"/>
<path opacity="0.2" d="M185.274 47.4265C185.501 47.4265 185.685 47.2427 185.685 47.016C185.685 46.7893 185.501 46.6055 185.274 46.6055C185.048 46.6055 184.864 46.7893 184.864 47.016C184.864 47.2427 185.048 47.4265 185.274 47.4265Z" fill="white"/>
<path opacity="0.5" d="M185.274 47.2795C185.42 47.2795 185.538 47.1614 185.538 47.0156C185.538 46.8699 185.42 46.7517 185.274 46.7517C185.129 46.7517 185.01 46.8699 185.01 47.0156C185.01 47.1614 185.129 47.2795 185.274 47.2795Z" fill="white"/>
<path opacity="0.2" d="M199.02 71.1637C199.018 71.2733 198.973 71.3777 198.895 71.4545C198.817 71.5313 198.712 71.5743 198.602 71.5743C198.493 71.5743 198.389 71.531 198.312 71.454C198.235 71.377 198.192 71.2726 198.192 71.1637C198.192 71.0548 198.235 70.9504 198.312 70.8734C198.389 70.7964 198.493 70.7532 198.602 70.7532C198.712 70.7532 198.817 70.7962 198.895 70.873C198.973 70.9497 199.018 71.0542 199.02 71.1637Z" fill="white"/>
<path opacity="0.5" d="M198.874 71.1643C198.872 71.2357 198.843 71.3036 198.792 71.3541C198.742 71.4045 198.674 71.4337 198.602 71.4356C198.532 71.4336 198.465 71.4042 198.415 71.3536C198.366 71.3029 198.338 71.235 198.338 71.1643C198.338 71.1297 198.345 71.0953 198.358 71.0633C198.372 71.0313 198.391 71.0022 198.416 70.9777C198.44 70.9532 198.469 70.9337 198.501 70.9205C198.533 70.9072 198.568 70.9004 198.602 70.9004C198.673 70.9004 198.741 70.9279 198.792 70.9772C198.842 71.0265 198.872 71.0936 198.874 71.1643Z" fill="white"/>
<path opacity="0.2" d="M214.1 84.9392C214.327 84.9392 214.511 84.7554 214.511 84.5287C214.511 84.302 214.327 84.1182 214.1 84.1182C213.873 84.1182 213.689 84.302 213.689 84.5287C213.689 84.7554 213.873 84.9392 214.1 84.9392Z" fill="white"/>
<path opacity="0.5" d="M214.364 84.5295C214.364 84.5995 214.336 84.6667 214.287 84.7162C214.237 84.7657 214.17 84.7935 214.1 84.7935C214.03 84.7935 213.963 84.7657 213.914 84.7162C213.864 84.6667 213.836 84.5995 213.836 84.5295C213.836 84.4595 213.864 84.3924 213.914 84.3429C213.963 84.2934 214.03 84.2656 214.1 84.2656C214.17 84.2656 214.237 84.2934 214.287 84.3429C214.336 84.3924 214.364 84.4595 214.364 84.5295Z" fill="white"/>
<path opacity="0.2" d="M197.298 96.4787C197.299 96.5617 197.276 96.6432 197.231 96.7128C197.186 96.7825 197.121 96.8372 197.045 96.87C196.969 96.9027 196.884 96.9121 196.803 96.8968C196.721 96.8815 196.646 96.8423 196.587 96.7841C196.528 96.726 196.487 96.6516 196.47 96.5703C196.454 96.489 196.462 96.4047 196.493 96.3279C196.524 96.2511 196.578 96.1854 196.647 96.1391C196.716 96.0929 196.797 96.0682 196.88 96.0682C196.934 96.0672 196.988 96.0771 197.039 96.0973C197.09 96.1175 197.136 96.1476 197.175 96.1858C197.214 96.224 197.245 96.2696 197.266 96.3199C197.287 96.3702 197.298 96.4242 197.298 96.4787Z" fill="white"/>
<path opacity="0.5" d="M196.909 96.729C197.054 96.729 197.173 96.6108 197.173 96.4651C197.173 96.3193 197.054 96.2012 196.909 96.2012C196.763 96.2012 196.645 96.3193 196.645 96.4651C196.645 96.6108 196.763 96.729 196.909 96.729Z" fill="white"/>
<path opacity="0.2" d="M182.686 114.74C182.686 114.821 182.662 114.9 182.617 114.968C182.572 115.035 182.508 115.088 182.433 115.119C182.358 115.15 182.275 115.158 182.196 115.142C182.116 115.126 182.043 115.087 181.985 115.03C181.928 114.973 181.889 114.899 181.873 114.82C181.857 114.74 181.865 114.658 181.896 114.583C181.928 114.508 181.98 114.443 182.048 114.398C182.115 114.353 182.195 114.329 182.276 114.329C182.385 114.329 182.489 114.372 182.566 114.449C182.643 114.526 182.686 114.631 182.686 114.74Z" fill="white"/>
<path opacity="0.5" d="M182.276 115.004C182.421 115.004 182.54 114.886 182.54 114.74C182.54 114.595 182.421 114.477 182.276 114.477C182.13 114.477 182.012 114.595 182.012 114.74C182.012 114.886 182.13 115.004 182.276 115.004Z" fill="white"/>
<path opacity="0.2" d="M217.751 63.9793C217.978 63.9793 218.162 63.7955 218.162 63.5687C218.162 63.342 217.978 63.1582 217.751 63.1582C217.525 63.1582 217.341 63.342 217.341 63.5687C217.341 63.7955 217.525 63.9793 217.751 63.9793Z" fill="white"/>
<path opacity="0.5" d="M217.751 63.8345C217.897 63.8345 218.015 63.7163 218.015 63.5706C218.015 63.4248 217.897 63.3066 217.751 63.3066C217.605 63.3066 217.487 63.4248 217.487 63.5706C217.487 63.7163 217.605 63.8345 217.751 63.8345Z" fill="white"/>
<path opacity="0.2" d="M125.937 59.6762C125.923 59.7766 125.874 59.8687 125.798 59.9354C125.721 60.0021 125.624 60.0389 125.522 60.0389C125.421 60.0389 125.323 60.0021 125.247 59.9354C125.171 59.8687 125.122 59.7766 125.108 59.6762C125.1 59.6172 125.105 59.5572 125.122 59.5002C125.14 59.4432 125.169 59.3905 125.208 59.3457C125.247 59.3009 125.296 59.265 125.35 59.2404C125.404 59.2158 125.463 59.2031 125.522 59.2031C125.582 59.2031 125.641 59.2158 125.695 59.2404C125.749 59.265 125.798 59.3009 125.837 59.3457C125.876 59.3905 125.905 59.4432 125.922 59.5002C125.94 59.5572 125.944 59.6172 125.937 59.6762Z" fill="white"/>
<path opacity="0.5" d="M125.519 59.9409C125.665 59.9409 125.783 59.8228 125.783 59.677C125.783 59.5312 125.665 59.4131 125.519 59.4131C125.373 59.4131 125.255 59.5312 125.255 59.677C125.255 59.8228 125.373 59.9409 125.519 59.9409Z" fill="white"/>
<path opacity="0.2" d="M123.202 85.1156C123.2 85.2252 123.155 85.3296 123.077 85.4064C122.999 85.4832 122.894 85.5262 122.784 85.5262C122.675 85.5262 122.571 85.4829 122.494 85.4059C122.417 85.3289 122.374 85.2245 122.374 85.1156C122.374 85.0067 122.417 84.9023 122.494 84.8253C122.571 84.7483 122.675 84.7051 122.784 84.7051C122.894 84.7051 122.999 84.7481 123.077 84.8249C123.155 84.9016 123.2 85.0061 123.202 85.1156Z" fill="white"/>
<path opacity="0.5" d="M123.055 85.1155C123.045 85.1789 123.012 85.2364 122.963 85.278C122.914 85.3195 122.852 85.3423 122.788 85.3423C122.724 85.3423 122.661 85.3195 122.612 85.278C122.563 85.2364 122.531 85.1789 122.52 85.1155C122.514 85.0766 122.516 85.0369 122.526 84.9989C122.537 84.9609 122.555 84.9257 122.581 84.8957C122.606 84.8656 122.638 84.8415 122.674 84.8249C122.71 84.8084 122.748 84.7998 122.788 84.7998C122.827 84.7998 122.866 84.8084 122.902 84.8249C122.938 84.8415 122.969 84.8656 122.995 84.8957C123.02 84.9257 123.039 84.9609 123.049 84.9989C123.06 85.0369 123.062 85.0766 123.055 85.1155Z" fill="white"/>
<path opacity="0.2" d="M148.912 98.8981C148.912 99.0077 148.869 99.1128 148.792 99.191C148.716 99.2692 148.611 99.314 148.502 99.316C148.391 99.3141 148.286 99.2694 148.208 99.1915C148.13 99.1135 148.086 99.0083 148.084 98.8981C148.086 98.7885 148.131 98.6841 148.209 98.6073C148.287 98.5305 148.392 98.4875 148.502 98.4875C148.556 98.4875 148.609 98.4982 148.659 98.5188C148.709 98.5394 148.754 98.5697 148.792 98.6078C148.83 98.6459 148.86 98.6912 148.881 98.741C148.902 98.7908 148.912 98.8442 148.912 98.8981Z" fill="white"/>
<path opacity="0.5" d="M148.758 98.8977C148.758 98.9684 148.731 99.0363 148.681 99.087C148.632 99.1376 148.565 99.167 148.494 99.169C148.423 99.1671 148.355 99.1379 148.305 99.0875C148.254 99.037 148.225 98.9691 148.223 98.8977C148.225 98.827 148.254 98.7599 148.305 98.7106C148.356 98.6613 148.424 98.6338 148.494 98.6338C148.564 98.6338 148.632 98.6616 148.681 98.7111C148.731 98.7606 148.758 98.8277 148.758 98.8977Z" fill="white"/>
<path opacity="0.2" d="M114.603 73.8326L116.817 73.4661L114.603 73.0995L115.336 72.0805L114.317 72.8136L113.95 70.5996L113.584 72.8136L112.557 72.0805L113.29 73.0995L111.076 73.4661L113.29 73.8326L112.557 74.859L113.584 74.1185L113.95 76.3398L114.317 74.1185L115.336 74.859L114.603 73.8326Z" fill="white"/>
<path opacity="0.5" d="M114.244 73.6283L115.226 73.467L114.244 73.3057L114.566 72.8512L114.112 73.1738L113.95 72.1914L113.789 73.1738L113.327 72.8512L113.657 73.3057L112.667 73.467L113.657 73.6283L113.327 74.0902L113.789 73.7603L113.95 74.75L114.112 73.7603L114.566 74.0902L114.244 73.6283Z" fill="white"/>
<path opacity="0.2" d="M171.778 65.2191L173.999 64.8525L171.778 64.486L172.511 63.4596L171.492 64.2001L171.125 61.9788L170.759 64.2001L169.74 63.4596L170.473 64.486L168.259 64.8525L170.473 65.2191L169.74 66.2381L170.759 65.505L171.125 67.719L171.492 65.505L172.511 66.2381L171.778 65.2191Z" fill="white"/>
<path opacity="0.5" d="M171.418 65.0136L172.408 64.8523L171.418 64.691L171.748 64.2291L171.287 64.559L171.125 63.5693L170.964 64.559L170.509 64.2291L170.832 64.691L169.842 64.8523L170.832 65.0136L170.509 65.4681L170.964 65.1455L171.125 66.1352L171.287 65.1455L171.748 65.4681L171.418 65.0136Z" fill="white"/>
<path opacity="0.2" d="M197.569 83.6126L199.783 83.2461L197.569 82.8795L198.302 81.8605L197.275 82.5936L196.916 80.3796L196.55 82.5936L195.523 81.8605L196.256 82.8795L194.042 83.2461L196.256 83.6126L195.523 84.639L196.55 83.8986L196.916 86.1199L197.275 83.8986L198.302 84.639L197.569 83.6126Z" fill="white"/>
<path opacity="0.5" d="M197.202 83.4076L198.192 83.2463L197.202 83.085L197.532 82.6305L197.078 82.9531L196.916 81.9707L196.748 82.9531L196.293 82.6305L196.623 83.085L195.633 83.2463L196.623 83.4076L196.293 83.8695L196.748 83.5396L196.916 84.5292L197.078 83.5396L197.532 83.8695L197.202 83.4076Z" fill="white"/>
<path opacity="0.2" d="M213.77 99.5065L214.935 99.3159L213.77 99.1253L214.158 98.5828L213.616 98.9713L213.425 97.8057L213.235 98.9713L212.692 98.5828L213.081 99.1253L211.915 99.3159L213.081 99.5065L212.692 100.049L213.235 99.6604L213.425 100.826L213.616 99.6604L214.158 100.049L213.77 99.5065Z" fill="white"/>
<path opacity="0.5" d="M213.579 99.4031L214.1 99.3151L213.579 99.2271L213.755 98.9925L213.513 99.1611L213.425 98.6406L213.337 99.1611L213.103 98.9925L213.271 99.2271L212.751 99.3151L213.271 99.4031L213.103 99.645L213.337 99.469L213.425 99.9895L213.513 99.469L213.755 99.645L213.579 99.4031Z" fill="white"/>
<path opacity="0.2" d="M198.082 61.0038L198.874 60.8791L198.082 60.7472L198.346 60.3806L197.979 60.6445L197.847 59.8528L197.715 60.6445L197.356 60.3806L197.613 60.7472L196.828 60.8791L197.613 61.0038L197.356 61.3703L197.715 61.1137L197.847 61.8982L197.979 61.1137L198.346 61.3703L198.082 61.0038Z" fill="white"/>
<path opacity="0.5" d="M197.95 60.937L198.302 60.8784L197.95 60.8197L198.067 60.6584L197.906 60.7757L197.847 60.4238L197.788 60.7757L197.627 60.6584L197.744 60.8197L197.393 60.8784L197.744 60.937L197.627 61.0983L197.788 60.981L197.847 61.3329L197.906 60.981L198.067 61.0983L197.95 60.937Z" fill="white"/>
<path opacity="0.2" d="M119.317 92.7701L120.101 92.6455L119.317 92.5135L119.573 92.147L119.207 92.4109L119.082 91.6191L118.95 92.4109L118.584 92.147L118.847 92.5135L118.056 92.6455L118.847 92.7701L118.584 93.1367L118.95 92.8728L119.082 93.6645L119.207 92.8728L119.573 93.1367L119.317 92.7701Z" fill="white"/>
<path opacity="0.5" d="M119.185 92.7029L119.536 92.6442L119.185 92.5856L119.302 92.4243L119.141 92.5416L119.082 92.1897L119.023 92.5416L118.862 92.4243L118.972 92.5856L118.627 92.6442L118.972 92.7029L118.862 92.8642L119.023 92.7469L119.082 93.0988L119.141 92.7469L119.302 92.8642L119.185 92.7029Z" fill="white"/>
<path opacity="0.2" d="M151.976 72.315L152.768 72.1904L151.976 72.0585L152.24 71.6919L151.874 71.9558L151.742 71.1641L151.617 71.9558L151.25 71.6919L151.507 72.0585L150.723 72.1904L151.507 72.315L151.25 72.6816L151.617 72.4177L151.742 73.2094L151.874 72.4177L152.24 72.6816L151.976 72.315Z" fill="white"/>
<path opacity="0.5" d="M151.844 72.2427L152.203 72.1913L151.844 72.1327L151.962 71.9641L151.8 72.0814L151.742 71.7295L151.683 72.0814L151.522 71.9641L151.639 72.1327L151.287 72.1913L151.639 72.2427L151.522 72.4113L151.683 72.294L151.742 72.6459L151.8 72.294L151.962 72.4113L151.844 72.2427Z" fill="white"/>
<path opacity="0.2" d="M103.899 99.7694L105.065 99.5715L103.899 99.3809L104.288 98.8384L103.745 99.2269L103.555 98.0613L103.364 99.2269L102.822 98.8384L103.21 99.3809L102.045 99.5715L103.21 99.7694L102.822 100.305L103.364 99.916L103.555 101.082L103.745 99.916L104.288 100.305L103.899 99.7694Z" fill="white"/>
<path opacity="0.5" d="M103.709 99.6599L104.229 99.5719L103.709 99.4913L103.885 99.2493L103.643 99.418L103.555 98.8975L103.467 99.418L103.232 99.2493L103.401 99.4913L102.88 99.5719L103.401 99.6599L103.232 99.9018L103.467 99.7259L103.555 100.246L103.643 99.7259L103.885 99.9018L103.709 99.6599Z" fill="white"/>
<path opacity="0.2" d="M242.464 57.9097C242.918 57.9097 243.285 57.5421 243.285 57.0887C243.285 56.6352 242.918 56.2676 242.464 56.2676C242.011 56.2676 241.643 56.6352 241.643 57.0887C241.643 57.5421 242.011 57.9097 242.464 57.9097Z" fill="white"/>
<path opacity="0.5" d="M242.999 57.0889C242.999 57.1947 242.968 57.2982 242.909 57.3862C242.85 57.4742 242.767 57.5428 242.669 57.5833C242.571 57.6238 242.464 57.6344 242.36 57.6138C242.256 57.5931 242.161 57.5421 242.086 57.4673C242.011 57.3925 241.96 57.2971 241.939 57.1933C241.919 57.0895 241.929 56.9819 241.97 56.8841C242.01 56.7863 242.079 56.7027 242.167 56.6439C242.255 56.5851 242.358 56.5537 242.464 56.5537C242.606 56.5537 242.742 56.6101 242.843 56.7105C242.943 56.8108 242.999 56.9469 242.999 57.0889Z" fill="white"/>
<path opacity="0.2" d="M279.831 85.1888C279.831 85.3526 279.782 85.5128 279.691 85.649C279.6 85.7852 279.471 85.8914 279.319 85.9541C279.168 86.0168 279.001 86.0332 278.841 86.0013C278.68 85.9693 278.532 85.8904 278.416 85.7745C278.301 85.6587 278.222 85.5111 278.19 85.3504C278.158 85.1897 278.174 85.0231 278.237 84.8717C278.3 84.7204 278.406 84.591 278.542 84.5C278.678 84.4089 278.838 84.3604 279.002 84.3604C279.222 84.3604 279.433 84.4476 279.588 84.603C279.743 84.7583 279.831 84.9691 279.831 85.1888Z" fill="white"/>
<path opacity="0.5" d="M279.537 85.1895C279.537 85.2953 279.506 85.3988 279.447 85.4868C279.388 85.5748 279.305 85.6434 279.207 85.6839C279.109 85.7244 279.001 85.735 278.898 85.7144C278.794 85.6937 278.698 85.6427 278.624 85.5679C278.549 85.493 278.498 85.3977 278.477 85.2939C278.456 85.1901 278.467 85.0825 278.508 84.9847C278.548 84.8869 278.617 84.8033 278.705 84.7445C278.793 84.6857 278.896 84.6543 279.002 84.6543C279.144 84.6543 279.28 84.7107 279.38 84.8111C279.481 84.9114 279.537 85.0475 279.537 85.1895Z" fill="white"/>
<path opacity="0.2" d="M237.941 77.462C237.942 77.6264 237.895 77.7876 237.804 77.925C237.714 78.0623 237.584 78.1696 237.433 78.2332C237.281 78.2968 237.114 78.3139 236.953 78.2821C236.791 78.2504 236.643 78.1714 236.527 78.0551C236.41 77.9388 236.331 77.7905 236.299 77.6291C236.268 77.4677 236.285 77.3006 236.348 77.1489C236.412 76.9972 236.519 76.8679 236.657 76.7775C236.794 76.687 236.955 76.6395 237.12 76.6409C237.227 76.6409 237.334 76.6621 237.434 76.7034C237.533 76.7447 237.624 76.8051 237.7 76.8814C237.776 76.9576 237.837 77.0481 237.878 77.1478C237.919 77.2474 237.941 77.3542 237.941 77.462Z" fill="white"/>
<path opacity="0.5" d="M237.618 77.4622C237.619 77.5321 237.606 77.6015 237.58 77.6664C237.554 77.7313 237.515 77.7904 237.466 77.8402C237.417 77.8899 237.359 77.9295 237.294 77.9565C237.23 77.9835 237.16 77.9973 237.09 77.9973C237.015 78.0062 236.939 77.999 236.867 77.9763C236.795 77.9536 236.729 77.916 236.672 77.8657C236.616 77.8155 236.571 77.754 236.54 77.685C236.509 77.6161 236.493 77.5414 236.493 77.4658C236.493 77.3903 236.509 77.3156 236.54 77.2467C236.571 77.1777 236.616 77.1161 236.672 77.0659C236.729 77.0157 236.795 76.978 236.867 76.9553C236.939 76.9327 237.015 76.9255 237.09 76.9343C237.23 76.9343 237.365 76.9899 237.464 77.0889C237.563 77.1879 237.618 77.3222 237.618 77.4622Z" fill="white"/>
<path opacity="0.2" d="M280.652 49.744C280.653 49.9084 280.606 50.0696 280.515 50.2069C280.425 50.3443 280.296 50.4516 280.144 50.5152C279.992 50.5788 279.825 50.5958 279.664 50.5641C279.502 50.5324 279.354 50.4533 279.238 50.337C279.121 50.2207 279.042 50.0725 279.011 49.9111C278.979 49.7497 278.996 49.5825 279.06 49.4309C279.123 49.2792 279.231 49.1499 279.368 49.0594C279.505 48.969 279.666 48.9214 279.831 48.9229C280.048 48.9248 280.256 49.0119 280.409 49.1655C280.563 49.3191 280.65 49.5268 280.652 49.744Z" fill="white"/>
<path opacity="0.5" d="M280.366 49.7432C280.366 49.849 280.334 49.9525 280.276 50.0405C280.217 50.1285 280.133 50.1971 280.035 50.2376C279.938 50.2781 279.83 50.2887 279.726 50.2681C279.622 50.2474 279.527 50.1964 279.452 50.1216C279.377 50.0468 279.326 49.9514 279.306 49.8476C279.285 49.7438 279.296 49.6362 279.336 49.5384C279.377 49.4406 279.445 49.357 279.533 49.2982C279.621 49.2394 279.725 49.208 279.831 49.208C279.901 49.208 279.97 49.2219 280.035 49.2487C280.1 49.2756 280.159 49.3151 280.209 49.3648C280.259 49.4145 280.298 49.4734 280.325 49.5384C280.352 49.6033 280.366 49.6729 280.366 49.7432Z" fill="white"/>
<path opacity="0.2" d="M251.415 65.9226C251.642 65.9226 251.826 65.7388 251.826 65.5121C251.826 65.2854 251.642 65.1016 251.415 65.1016C251.189 65.1016 251.005 65.2854 251.005 65.5121C251.005 65.7388 251.189 65.9226 251.415 65.9226Z" fill="white"/>
<path opacity="0.5" d="M251.679 65.5118C251.681 65.5661 251.666 65.6195 251.637 65.6652C251.607 65.7109 251.565 65.7468 251.515 65.7682C251.465 65.7897 251.41 65.7957 251.357 65.7854C251.304 65.7752 251.255 65.7492 251.216 65.7109C251.178 65.6725 251.152 65.6235 251.142 65.5702C251.132 65.5169 251.138 65.4618 251.159 65.4119C251.18 65.3621 251.216 65.3198 251.262 65.2905C251.308 65.2613 251.361 65.2465 251.415 65.2479C251.485 65.2479 251.553 65.2757 251.602 65.3252C251.652 65.3747 251.679 65.4418 251.679 65.5118Z" fill="white"/>
<path opacity="0.2" d="M245.125 87.2271C245.352 87.2271 245.536 87.0433 245.536 86.8166C245.536 86.5898 245.352 86.406 245.125 86.406C244.898 86.406 244.715 86.5898 244.715 86.8166C244.715 87.0433 244.898 87.2271 245.125 87.2271Z" fill="white"/>
<path opacity="0.5" d="M245.396 86.8168C245.398 86.8707 245.383 86.9238 245.354 86.9694C245.325 87.015 245.284 87.0509 245.234 87.0725C245.185 87.0942 245.13 87.1006 245.077 87.091C245.024 87.0814 244.975 87.0561 244.936 87.0185C244.897 86.9809 244.871 86.9326 244.86 86.8798C244.849 86.8269 244.854 86.772 244.874 86.722C244.894 86.672 244.929 86.6292 244.974 86.5991C245.018 86.569 245.071 86.5529 245.125 86.5528C245.16 86.5519 245.196 86.558 245.228 86.5708C245.261 86.5836 245.291 86.6029 245.317 86.6275C245.342 86.6521 245.362 86.6815 245.376 86.714C245.389 86.7465 245.396 86.7815 245.396 86.8168Z" fill="white"/>
<path opacity="0.2" d="M263.761 58.0349C263.988 58.0349 264.172 57.8511 264.172 57.6244C264.172 57.3977 263.988 57.2139 263.761 57.2139C263.534 57.2139 263.351 57.3977 263.351 57.6244C263.351 57.8511 263.534 58.0349 263.761 58.0349Z" fill="white"/>
<path opacity="0.5" d="M263.761 57.8879C263.907 57.8879 264.025 57.7698 264.025 57.624C264.025 57.4783 263.907 57.3601 263.761 57.3601C263.615 57.3601 263.497 57.4783 263.497 57.624C263.497 57.7698 263.615 57.8879 263.761 57.8879Z" fill="white"/>
<path opacity="0.2" d="M261.444 83.0629C261.442 83.1724 261.397 83.2769 261.319 83.3536C261.241 83.4304 261.136 83.4734 261.026 83.4734C260.917 83.4734 260.813 83.4302 260.736 83.3532C260.659 83.2762 260.616 83.1718 260.616 83.0629C260.616 82.954 260.659 82.8496 260.736 82.7726C260.813 82.6956 260.917 82.6523 261.026 82.6523C261.136 82.6523 261.241 82.6954 261.319 82.7721C261.397 82.8489 261.442 82.9533 261.444 83.0629Z" fill="white"/>
<path opacity="0.5" d="M261.298 83.0632C261.296 83.1339 261.266 83.201 261.216 83.2503C261.165 83.2996 261.097 83.3272 261.026 83.3272C260.992 83.3272 260.957 83.3203 260.925 83.3071C260.893 83.2938 260.864 83.2744 260.84 83.2499C260.815 83.2254 260.796 83.1963 260.783 83.1642C260.769 83.1322 260.762 83.0979 260.762 83.0632C260.762 82.9926 260.79 82.9247 260.839 82.874C260.889 82.8233 260.956 82.7939 261.026 82.792C261.098 82.7938 261.166 82.823 261.216 82.8735C261.267 82.924 261.296 82.9919 261.298 83.0632Z" fill="white"/>
<path opacity="0.2" d="M252.845 71.7799L255.059 71.4133L252.845 71.0468L253.578 70.0278L252.552 70.7609L252.192 68.5469L251.826 70.7609L250.799 70.0278L251.533 71.0468L249.319 71.4133L251.533 71.7799L250.799 72.8062L251.826 72.0731L252.192 74.2871L252.552 72.0731L253.578 72.8062L252.845 71.7799Z" fill="white"/>
<path opacity="0.5" d="M252.479 71.5746L253.468 71.4133L252.479 71.252L252.808 70.7975L252.354 71.1201L252.193 70.1377L252.024 71.1201L251.569 70.7975L251.899 71.252L250.91 71.4133L251.899 71.5746L251.569 72.0364L252.024 71.7065L252.193 72.6962L252.354 71.7065L252.808 72.0364L252.479 71.5746Z" fill="white"/>
<path opacity="0.2" d="M257.551 90.7164L258.343 90.5918L257.551 90.4598L257.815 90.0933L257.449 90.3572L257.324 89.5654L257.192 90.3572L256.826 90.0933L257.09 90.4598L256.298 90.5918L257.09 90.7164L256.826 91.083L257.192 90.819L257.324 91.6108L257.449 90.819L257.815 91.083L257.551 90.7164Z" fill="white"/>
<path opacity="0.5" d="M257.427 90.6506L257.779 90.592L257.427 90.5333L257.544 90.3721L257.375 90.482L257.324 90.1301L257.266 90.482L257.097 90.3721L257.214 90.5333L256.862 90.592L257.214 90.6506L257.097 90.8119L257.266 90.6946L257.324 91.0465L257.375 90.6946L257.544 90.8119L257.427 90.6506Z" fill="white"/>
<path opacity="0.2" d="M278.702 114.55L279.494 114.418L278.702 114.286L278.966 113.919L278.599 114.183L278.475 113.392L278.343 114.183L277.976 113.919L278.24 114.286L277.448 114.418L278.24 114.55L277.976 114.909L278.343 114.653L278.475 115.437L278.599 114.653L278.966 114.909L278.702 114.55Z" fill="white"/>
<path opacity="0.5" d="M278.577 114.476L278.929 114.417L278.577 114.359L278.694 114.197L278.533 114.315L278.475 113.963L278.416 114.315L278.255 114.197L278.365 114.359L278.013 114.417L278.365 114.476L278.255 114.637L278.416 114.52L278.475 114.872L278.533 114.52L278.694 114.637L278.577 114.476Z" fill="white"/>
<path opacity="0.2" d="M242.142 97.7179L243.307 97.52L242.142 97.3294L242.53 96.7942L241.988 97.1754L241.797 96.0098L241.606 97.1754L241.064 96.7942L241.453 97.3294L240.287 97.52L241.453 97.7179L241.064 98.2531L241.606 97.8645L241.797 99.0375L241.988 97.8645L242.53 98.2531L242.142 97.7179Z" fill="white"/>
<path opacity="0.5" d="M241.951 97.6081L242.471 97.5202L241.951 97.4395L242.12 97.1976L241.885 97.3662L241.797 96.8457L241.709 97.3662L241.467 97.1976L241.643 97.4395L241.123 97.5202L241.643 97.6081L241.467 97.8501L241.709 97.6741L241.797 98.1946L241.885 97.6741L242.12 97.8501L241.951 97.6081Z" fill="white"/>
<path opacity="0.2" d="M295.226 174.313V92.271H294.266V90.1743H290.439V82.8579H288.342V77.9754H285.908V70.659H284.86V77.9754H282.426V82.8579H280.322V90.1743H276.488V92.271H274.75V100.284H272.661V90.1743H268.827V67.8732H267.778V65.4319H259.421V67.8732H257.676V83.9062H250.704V85.6437H248.263V86.692H250.704V92.9675H243.388V72.0519H241.988V67.8732H238.505V51.8401H237.464V67.8732H235.016V72.0519H220.727V70.659H220.031V80.7685H217.949V90.8708H216.901V93.312H214.115V85.9956H213.418V103.422H212.37V96.1052H211.322V107.6H210.97V99.5874H209.225V97.4981H205.398V90.1743H204.496V73.4448H201.711V69.9039L195.435 66.9714V63.3426H194.402V73.4448H193.353V97.4981H191.96V86.3402H188.823V79.0237H187.767V100.284H185.34V92.271H183.596V90.1743H179.754V82.8579H177.665V77.9754H175.231V70.659H174.182V77.9754H171.734V82.8579H169.645V90.1743H165.818V92.271H164.08V100.284H161.976V90.1743H158.142V67.8732H157.108V65.4319H148.736V67.8732H146.991V83.9062H140.027V85.6437H137.593V86.692H140.027V92.9675H132.711V72.0519H131.318V67.8732H127.828V51.8401H126.78V67.8732H124.346V72.0519H110.057V70.659H109.354V80.7685H107.264V90.8708H106.216V93.312H103.438V85.9956H102.734V103.422H101.693V96.1052H100.644V107.6H100.3V99.5874H98.555V97.4981H94.7209V90.1743H92.6242V85.2991H89.8384V77.9754H89.1419V85.2991H86.3561V90.1743H84.2594V97.4981H81.7742V174.313H295.226Z" fill="#1A365D"/>
<path opacity="0.1" d="M295.226 78.8843V174.313H81.7742V77.1101H96.0698V72.5795H98.555V56.4805H99.5374V72.5795H103.005V77.1101H104.603V98.4582H112.074V92.0509H109.398V90.8046H112.074V89.2064H119.192V72.8434H120.966V70.3509H129.324V72.8434H130.563V95.4305H134.477V105.929H136.493V97.5638H138.172V95.4305H142.087V88.1361H144.235V82.9823H146.867V75.468H147.813V82.9823H150.444V88.1361H152.578V95.4305H156.493V97.5638H158.186V105.929H160.759V83.9574H161.698V91.4277H165.07V105.929H166.324V78.3564H167.562V68.2175H168.457V71.8024L174.872 74.8008V78.3564H177.877V100.35H179.153V95.1886H181.785V87.6742H182.723V95.1886H185.362V100.35H187.496V105.122H191.777V93.4731H193.83V78.9722H194.621V93.4731H195.882V96.1636H196.608V103.634H199.24V100.877H200.494V90.7386H201.241V90.5627H202.48V80.4238H203.375V81.9193H217.964V77.3814H220.464V61.2897H221.439V77.3814H224.899V81.9193H226.512V103.26H233.982V96.8601H231.306V95.6138H233.982V94.0156H241.093V77.6526H242.875V75.1601H251.225V77.6526H252.471V88.4513H255.44V92.5127H261.232V100.24H263.996V92.9453H266.136V87.7915H268.775V80.2772H269.706V87.7915H272.346V92.9453H274.494V100.24H278.401V102.373H280.095V105.122H282.66V88.7665H283.606V96.2369H286.978V105.122H288.232V83.1656H289.471V73.0267H290.358V76.6116L295.226 78.8843Z" fill="#1A365D"/>
<path d="M80 35V177.04H297V35H80ZM293.334 105.078H243.344V38.6655H293.334V105.078ZM187.151 107.732V173.374H136.31V107.732H187.151ZM136.288 105.078V38.6655H187.151V105.078H136.288ZM189.805 107.732H240.668V173.374H189.827L189.805 107.732ZM189.805 105.078V38.6655H240.668V105.078H189.805ZM133.656 38.6655V105.078H83.6655V38.6655H133.656ZM83.6655 107.732H133.686V173.374H83.6655V107.732ZM243.373 173.374V107.732H293.334V173.374H243.373Z" fill="white"/>
<g opacity="0.6">
<path d="M80 35V177.04H297V35H80ZM293.334 105.078H243.344V38.6655H293.334V105.078ZM187.151 107.732V173.374H136.31V107.732H187.151ZM136.288 105.078V38.6655H187.151V105.078H136.288ZM189.805 107.732H240.668V173.374H189.827L189.805 107.732ZM189.805 105.078V38.6655H240.668V105.078H189.805ZM133.656 38.6655V105.078H83.6655V38.6655H133.656ZM83.6655 107.732H133.686V173.374H83.6655V107.732ZM243.373 173.374V107.732H293.334V173.374H243.373Z" fill="white"/>
</g>
<g opacity="0.2">
<path d="M82.1992 37.1992V174.84H294.801V37.1992H82.1992ZM293.334 105.078H243.344V38.6654H293.334V105.078ZM187.151 107.732V173.374H136.31V107.732H187.151ZM136.288 105.078V38.6654H187.151V105.078H136.288ZM189.805 107.732H240.668V173.374H189.827L189.805 107.732ZM189.805 105.078V38.6654H240.668V105.078H189.805ZM133.656 38.6654V105.078H83.6654V38.6654H133.656ZM83.6654 107.732H133.685V173.374H83.6654V107.732ZM243.373 173.374V107.732H293.334V173.374H243.373Z" fill="#1A365D"/>
</g>
</g>
<path d="M332.963 162.008H327.971L314.073 243.372H319.065L332.963 162.008Z" fill="#1A365D"/>
<path d="M314.432 162.008H309.44L295.542 243.372H300.534L314.432 162.008Z" fill="#1A365D"/>
<path d="M295.902 162.008H290.91L277.012 243.372H282.004L295.902 162.008Z" fill="#1A365D"/>
<path opacity="0.4" d="M332.963 162.008H327.971L314.073 243.372H319.065L332.963 162.008Z" fill="white"/>
<path opacity="0.4" d="M314.432 162.008H309.44L295.542 243.372H300.534L314.432 162.008Z" fill="white"/>
<path opacity="0.4" d="M295.902 162.008H290.91L277.012 243.372H282.004L295.902 162.008Z" fill="white"/>
<path d="M290.307 245.476L289.891 263.465L287.991 344.841H281.726L279.838 263.465L279.421 245.476H290.307Z" fill="#1A365D"/>
<path opacity="0.4" d="M290.307 245.476L289.891 263.465L287.991 344.841H281.726L279.838 263.465L279.421 245.476H290.307Z" fill="white"/>
<path opacity="0.2" d="M290.307 245.476L289.891 263.962H279.838L279.421 245.476H290.307Z" fill="#1A365D"/>
<path d="M324.334 344.552L318.543 246.746H309.081L317.188 344.552H324.334Z" fill="#1A365D"/>
<path opacity="0.4" d="M317.165 344.551H324.322L319.064 255.527L318.543 246.63H309.081L309.811 255.527L317.165 344.551Z" fill="white"/>
<path opacity="0.2" d="M309.081 246.63L309.811 255.873H319.064L318.543 246.63H309.081Z" fill="#1A365D"/>
<path d="M252.541 344.552L260.636 246.746H251.174L245.384 344.552H252.541Z" fill="#1A365D"/>
<path opacity="0.4" d="M252.552 344.551L259.906 255.527L260.636 246.63H251.174L250.653 255.527L245.395 344.551H252.552Z" fill="white"/>
<path opacity="0.2" d="M260.636 246.63L259.907 255.873H250.653L251.174 246.63H260.636Z" fill="#1A365D"/>
<path d="M251.904 236.624H317.825C319.361 236.624 320.834 237.233 321.92 238.316C323.006 239.4 323.616 240.869 323.616 242.401V250.131H246.113V242.401C246.113 240.869 246.723 239.4 247.809 238.316C248.895 237.233 250.368 236.624 251.904 236.624Z" fill="#8253F6"/>
<path d="M324.995 243.372H244.724C243.438 243.372 242.396 244.412 242.396 245.694V247.797C242.396 249.08 243.438 250.12 244.724 250.12H324.995C326.28 250.12 327.323 249.08 327.323 247.797V245.694C327.323 244.412 326.28 243.372 324.995 243.372Z" fill="#1A365D"/>
<path opacity="0.6" d="M324.995 243.372H244.724C243.438 243.372 242.396 244.412 242.396 245.694V247.797C242.396 249.08 243.438 250.12 244.724 250.12H324.995C326.28 250.12 327.323 249.08 327.323 247.797V245.694C327.323 244.412 326.28 243.372 324.995 243.372Z" fill="white"/>
<path d="M324.334 171.401C316.308 166.549 305.144 166.549 294.489 171.401C289.092 173.712 282.722 174.429 279.896 171.032C275.09 166.04 283.533 151.24 299.712 146.549C311.294 143.233 322.771 143.233 332.569 146.549C346.212 151.24 346.64 166.04 339.124 171.032C334.468 174.463 328.457 173.759 324.334 171.401Z" fill="#8253F6"/>
<path d="M205.173 248.236C205.022 250.986 206.563 262.979 208.497 276.636C211.589 298.277 215.689 324.124 215.689 324.124L198.166 325.661C198.166 325.661 175.826 254.129 178.825 234.683C181.292 218.716 225.475 207.508 251.788 202.216L253.201 201.927C263.775 199.836 271.153 198.75 271.153 198.75L292.822 219.547L266.671 228.051C240.867 236.509 205.173 248.144 205.173 248.236Z" fill="#1A365D"/>
<path opacity="0.2" d="M208.496 276.636C202.393 262.205 191.865 233.389 196.428 225.301C202.393 214.902 243.912 204.862 251.823 202.193L253.154 201.742L253.235 201.904L266.705 228.063C240.866 236.485 205.172 248.12 205.172 248.213C205.022 250.986 206.562 262.979 208.496 276.636Z" fill="#1A365D"/>
<path d="M241.736 125.59C241.736 125.59 217.611 136.104 211.427 137.606C206.25 138.877 179.891 133.378 179.891 133.378L176.242 137.179C176.242 137.179 199.058 144.4 208.983 146.422C218.909 148.444 247.202 137.364 247.202 137.364L241.736 125.59Z" fill="#EBB376"/>
<path d="M244.33 144.295L230.154 146.34L222.499 147.495H222.093L219.661 141.291L217.206 135.063C217.75 134.763 235.053 125.08 238.608 123.798C238.608 123.798 241.863 127.149 242.083 133.781C242.14 135.354 242.307 136.921 242.581 138.472C242.897 140.483 243.485 142.442 244.33 144.295Z" fill="#F7BD3B"/>
<path opacity="0.3" d="M244.33 144.296L230.142 146.375L222.499 147.45H222.093L219.661 141.234L217.218 135.006C217.762 134.706 235.065 125.023 238.62 123.741C238.62 123.741 241.874 127.092 242.094 133.724C242.152 135.297 242.319 136.864 242.592 138.415C242.9 140.445 243.484 142.424 244.33 144.296Z" fill="white"/>
<path opacity="0.2" d="M244.33 144.295L230.142 146.375C231.092 142.909 237.497 140.182 242.604 138.495C242.915 140.497 243.495 142.448 244.33 144.295Z" fill="#1A365D"/>
<path d="M215.596 134.543L218.619 133.607L223.471 147.946L220.518 148.166L215.596 134.543Z" fill="#F7BD3B"/>
<path opacity="0.4" d="M215.596 134.543L218.619 133.607L223.471 147.946L220.518 148.166L215.596 134.543Z" fill="white"/>
<path d="M180.666 134.509C180.666 134.509 179.022 130.754 178.002 130.061C176.983 129.368 164.522 128.767 163.051 129.31C161.58 129.853 163.931 138.553 165.089 139.027C166.247 139.501 175.582 141.73 178.165 139.524C178.912 138.91 179.52 138.147 179.952 137.283C180.383 136.419 180.626 135.473 180.666 134.509Z" fill="#EBB376"/>
<path d="M262.512 205.948L253.143 201.766L254.822 179.212L305.375 180.368C305.375 180.368 311.363 222.459 307.008 230.189C299.249 243.985 248.696 240.877 236.778 242.055C231.914 244.643 261.563 325.037 261.563 325.037L245.731 327.105C245.731 327.105 199.614 245.163 203.181 231.483C208.161 212.465 246.507 207.809 262.512 205.948Z" fill="#1A365D"/>
<path d="M253.687 185.37C250.723 168.455 245.754 145.809 236.547 124.618C241.389 122.574 246.375 120.887 251.464 119.569C258.909 117.56 266.465 115.982 274.094 114.844C279.352 114.289 290.215 119.465 290.215 119.465C290.215 119.465 301.334 135.641 307.113 185.324L253.687 185.37Z" fill="#F7BD3B"/>
<g opacity="0.4">
<path d="M307.055 185.37H253.687C252.853 180.633 251.869 175.434 250.676 169.957C249.599 165.047 248.36 159.905 246.935 154.636C244.185 144.387 240.702 134.348 236.512 124.596C241.354 122.552 246.34 120.864 251.429 119.547C258.885 117.538 266.453 115.968 274.094 114.844C279.352 114.278 290.215 119.466 290.215 119.466C290.215 119.466 301.275 135.641 307.055 185.37Z" fill="white"/>
</g>
<path opacity="0.2" d="M292.856 134.867C292.856 134.867 292.728 154.151 278.75 165.566C274.244 169.264 258.355 171.205 250.676 169.957C249.599 165.047 248.36 159.905 246.935 154.636C252.992 154.243 265.153 153.481 266.624 153.342C268.604 153.169 271.789 145.763 271.789 145.763L275.101 138.414L292.856 134.867Z" fill="#1A365D"/>
<path d="M261.459 95.8965C263.474 103.164 268.257 115.943 275.113 118.046C275.113 118.046 270.064 126.284 262.513 126.977C257.695 127.416 255.042 121.997 255.042 121.997C259.941 121.084 258.065 117.503 254.197 112.997L261.459 95.8965Z" fill="#EBB376"/>
<path opacity="0.2" d="M258.505 102.828L254.208 112.95C255.126 113.985 255.951 115.099 256.675 116.277C261.493 116.635 264.956 109.021 263.775 105.878C263.358 104.654 259.362 103.868 258.505 102.828Z" fill="#1A365D"/>
<path d="M236.303 79.1302C236.303 79.1302 232.887 92.8449 239.778 98.8762C246.669 104.907 249.043 79.0146 249.043 79.0146L236.303 79.1302Z" fill="#1A365D"/>
<path d="M260.266 111.921C258.507 114.075 256.09 115.595 253.383 116.248C250.677 116.901 247.83 116.651 245.279 115.537C241.962 114.14 239.301 111.538 237.832 108.258C237.635 107.808 237.45 107.334 237.288 106.86C234.439 98.0097 234.659 83.0355 244.237 78.2868C246.338 77.2306 248.674 76.728 251.024 76.8266C253.375 76.9253 255.661 77.6219 257.665 78.8504C259.669 80.0789 261.325 81.7984 262.476 83.8454C263.626 85.8924 264.233 88.1989 264.238 90.5457C264.377 100.517 264.956 106.421 260.266 111.921Z" fill="#EBB376"/>
<path d="M255.865 78.5645L255.448 83.0128C256.208 83.3471 256.814 83.9551 257.144 84.7154C257.475 85.4757 257.506 86.3324 257.231 87.1145C255.911 90.8811 258.193 96.5889 261.123 98.8073C261.123 98.8073 261.123 97.2013 262.547 97.5363C263.972 97.8714 263.786 106.294 261.238 110.373C261.238 110.373 265.165 106.629 267.18 97.7559C269.044 89.5409 269.102 82.7355 267.33 79.6274L255.865 78.5645Z" fill="#1A365D"/>
<path d="M269.206 98.3562C268.744 99.5215 268.056 100.585 267.182 101.485C266.307 102.385 265.264 103.104 264.111 103.602C261.018 104.907 259.038 102.25 259.536 99.1072C259.999 96.3226 262.142 92.1747 265.431 92.244C268.72 92.3133 270.33 95.4561 269.206 98.3562Z" fill="#EBB376"/>
<path d="M255.448 83.0008C255.448 83.0008 242.476 87.9228 237.253 82.7813C232.03 77.6397 232.412 68.8123 236.396 68.0844C240.38 67.3565 241.307 71.5507 244.04 71.9782C246.773 72.4057 248.985 67.9689 252.39 68.8816C255.795 69.7944 257.903 73.8961 259.64 72.9256C261.377 71.955 272.727 75.1093 268.477 83.7634L255.448 83.0008Z" fill="#1A365D"/>
<path d="M240.172 115.884C243.218 119.35 247.804 120.02 251.962 119.211L253.12 118.934C255.226 118.396 257.198 117.428 258.911 116.091C259.653 115.406 260.193 114.531 260.474 113.561C260.752 112.717 260.957 111.851 261.088 110.973C261.181 110.245 261.262 109.471 261.308 108.662C261.406 106.992 261.406 105.318 261.308 103.648C261.215 101.776 261.053 100.008 260.868 98.587C260.764 97.5933 260.636 96.7961 260.555 96.2762C260.463 95.7447 260.416 95.4096 260.416 95.4096L259.177 94.5315C259.218 95.2434 259.218 95.9571 259.177 96.669C259.108 98.3443 258.783 100.505 257.718 101.291C257.718 101.291 251.776 101.395 249.611 101.764C248.18 102.198 246.949 103.123 246.136 104.376C246.136 104.376 241.631 102.978 239.315 106.247C237.876 104.715 236.772 102.901 236.072 100.921C236.072 100.805 235.991 100.69 235.956 100.586C235.921 100.482 235.157 110.199 240.172 115.884ZM255.737 109.286C255.605 109.59 255.438 109.877 255.239 110.141C255.199 110.2 255.152 110.254 255.1 110.303C254.719 110.779 254.223 111.15 253.658 111.381C253.093 111.613 252.479 111.696 251.872 111.625C251.266 111.553 250.688 111.328 250.193 110.972C249.698 110.615 249.302 110.138 249.043 109.587C248.992 109.519 248.95 109.445 248.916 109.367L246.993 110.199C247.033 110.232 247.068 110.271 247.098 110.314C247.48 110.753 248.603 112.29 247.19 113.492C245.522 114.925 240.832 113.942 240.774 109.413C240.716 104.884 246.426 104.872 246.426 104.872C247.203 104.219 248.103 103.729 249.075 103.431C250.046 103.133 251.067 103.034 252.078 103.139C252.755 103.242 253.402 103.493 253.971 103.875C254.539 104.257 255.016 104.76 255.366 105.348C255.716 105.937 255.931 106.595 255.995 107.276C256.059 107.957 255.971 108.643 255.737 109.286Z" fill="#1A365D"/>
<path d="M270.99 115.328L262.814 125.611L257.753 118.286L254.197 121.625L257.011 132.151L262.594 127.922L268.616 133.214L277.163 119.522L270.99 115.328Z" fill="#F7BD3B"/>
<path opacity="0.3" d="M270.99 115.328L262.814 125.611L257.753 118.286L254.197 121.625L257.011 132.151L262.594 127.922L268.616 133.214L277.163 119.522L270.99 115.328Z" fill="white"/>
<path d="M276.259 137.605C276.259 137.605 269.542 153.631 267.4 156.681C265.257 159.732 239.894 156.681 239.894 156.681C239.894 156.681 236.651 153.677 235.377 153.354C234.103 153.03 228.208 151.863 227.212 152.198C226.216 152.533 223.738 159.466 223.738 159.466L236.558 160.448C236.558 160.448 260.995 165.717 267.712 165.52C274.43 165.324 286.474 143.117 286.474 143.117L276.259 137.605Z" fill="#EBB376"/>
<path d="M289.88 119.292C302.225 125.069 285.826 148.951 285.826 148.951L271.778 142.215C271.778 142.215 279.885 114.647 289.88 119.292Z" fill="#F7BD3B"/>
<path opacity="0.3" d="M289.88 119.292C302.225 125.069 285.826 148.951 285.826 148.951L271.778 142.215C271.778 142.215 279.885 114.647 289.88 119.292Z" fill="white"/>
<path d="M270.909 143.163L271.801 140.078L288.328 148.212L286.463 151.459L270.909 143.163Z" fill="#F7BD3B"/>
<path opacity="0.4" d="M270.909 143.163L271.801 140.078L288.328 148.212L286.463 151.459L270.909 143.163Z" fill="white"/>
<path d="M253.688 185.37L253.931 189.287H306.522L306.047 185.37H253.688Z" fill="#1A365D"/>
<path d="M159.078 128.582C159.23 128.662 159.367 128.768 159.484 128.894C159.599 129.025 159.686 129.177 159.742 129.341C159.798 129.506 159.82 129.68 159.808 129.853C159.793 129.982 159.765 130.11 159.727 130.234L168.668 133.169C168.72 133.186 168.769 133.212 168.811 133.248C168.853 133.283 168.888 133.327 168.913 133.376C168.938 133.424 168.954 133.478 168.958 133.532C168.963 133.587 168.957 133.642 168.94 133.695C168.923 133.747 168.896 133.796 168.861 133.838C168.825 133.88 168.782 133.914 168.733 133.939C168.684 133.965 168.631 133.98 168.576 133.985C168.521 133.989 168.466 133.983 168.413 133.966L159.437 131.031C159.401 131.154 159.346 131.271 159.275 131.378C159.183 131.527 159.062 131.656 158.918 131.757C158.775 131.858 158.613 131.93 158.441 131.967C158.277 131.996 158.108 131.996 157.943 131.967L157.7 131.898L157.538 131.829L156.878 131.551C156.009 131.193 155.141 130.8 154.284 130.396C155.222 130.558 156.148 130.754 157.075 130.974L157.758 131.147H157.932H158.036C158.101 131.164 158.168 131.164 158.233 131.147C158.43 131.078 158.488 130.962 158.569 130.708L154.805 129.044L158.835 129.968C158.884 129.884 158.91 129.789 158.91 129.691C158.91 129.594 158.884 129.498 158.835 129.414C158.802 129.353 158.754 129.302 158.696 129.264H158.615L158.453 129.194L157.793 128.929C156.924 128.559 156.056 128.178 155.199 127.773C156.137 127.935 157.063 128.143 157.99 128.362L158.673 128.536H158.847L159.078 128.582Z" fill="white"/>
<path d="M156.102 125.717H150.786C150.786 125.717 150.67 130.639 150.705 130.847C150.74 131.055 155.558 132.557 155.558 132.557L156.102 125.717Z" fill="#F7BD3B"/>
<path opacity="0.2" d="M156.102 125.717H150.786C150.786 125.717 150.67 130.639 150.705 130.847C150.74 131.055 155.558 132.557 155.558 132.557L156.102 125.717Z" fill="white"/>
<path d="M151.933 124.851C151.878 124.849 151.825 124.834 151.778 124.805C151.731 124.777 151.693 124.737 151.666 124.689C150.938 123.018 150.677 121.181 150.913 119.374C150.933 119.299 150.979 119.235 151.043 119.192C151.107 119.149 151.185 119.132 151.261 119.143C151.334 119.159 151.398 119.204 151.439 119.266C151.48 119.329 151.495 119.405 151.481 119.478C151.272 121.168 151.52 122.884 152.199 124.446C152.231 124.515 152.234 124.594 152.208 124.665C152.182 124.737 152.129 124.795 152.06 124.827C152.02 124.846 151.976 124.854 151.933 124.851Z" fill="#1A365D"/>
<path d="M151.33 125.833C151.447 126.027 151.618 126.182 151.822 126.279C152.026 126.377 152.254 126.413 152.478 126.382C152.703 126.352 152.913 126.257 153.084 126.108C153.254 125.96 153.377 125.765 153.438 125.548C153.499 125.33 153.494 125.1 153.425 124.885C153.356 124.67 153.225 124.48 153.049 124.338C152.873 124.196 152.659 124.109 152.434 124.087C152.209 124.066 151.982 124.11 151.782 124.216C151.642 124.289 151.52 124.39 151.421 124.512C151.322 124.635 151.249 124.776 151.207 124.927C151.165 125.079 151.154 125.237 151.175 125.393C151.196 125.549 151.249 125.699 151.33 125.833Z" fill="#F7BD3B"/>
<path d="M43.0322 161.894H48.0238L61.9216 243.269H56.93L43.0322 161.894Z" fill="#1A365D"/>
<path d="M61.5625 161.894H66.5541L80.4519 243.269H75.4603L61.5625 161.894Z" fill="#1A365D"/>
<path d="M80.0928 161.894H85.0844L98.9821 243.269H93.9905L80.0928 161.894Z" fill="#1A365D"/>
<path opacity="0.4" d="M43.0322 161.894H48.0238L61.9216 243.269H56.93L43.0322 161.894Z" fill="white"/>
<path opacity="0.4" d="M61.5625 161.894H66.5541L80.4519 243.269H75.4603L61.5625 161.894Z" fill="white"/>
<path opacity="0.4" d="M80.0928 161.894H85.0844L98.9821 243.269H93.9905L80.0928 161.894Z" fill="white"/>
<path d="M85.6865 245.372L86.1034 263.362L88.0028 344.738H94.2684L96.1562 263.362L96.5731 245.372H85.6865Z" fill="#1A365D"/>
<path opacity="0.4" d="M85.6865 245.372L86.1034 263.362L88.0028 344.738H94.2684L96.1562 263.362L96.5731 245.372H85.6865Z" fill="white"/>
<path opacity="0.2" d="M85.6865 245.372L86.1034 263.859H96.1562L96.5731 245.372H85.6865Z" fill="#1A365D"/>
<path d="M51.6719 344.448L57.451 246.643H66.9131L58.8176 344.448H51.6719Z" fill="#1A365D"/>
<path opacity="0.4" d="M58.8291 344.449H51.6833L56.9298 255.424L57.4509 246.527H66.913L66.1833 255.424L58.8291 344.449Z" fill="white"/>
<path opacity="0.2" d="M66.9129 246.527L66.1833 255.771H56.9297L57.4508 246.527H66.9129Z" fill="#1A365D"/>
<path d="M123.465 344.448L115.358 246.643H124.82L130.611 344.448H123.465Z" fill="#1A365D"/>
<path opacity="0.4" d="M123.442 344.449L116.088 255.424L115.358 246.527H124.82L125.341 255.424L130.599 344.449H123.442Z" fill="white"/>
<path opacity="0.2" d="M115.358 246.527L116.088 255.771H125.341L124.82 246.527H115.358Z" fill="#1A365D"/>
<path d="M129.881 250.017H52.3782V242.287C52.3782 240.755 52.9883 239.285 54.0743 238.202C55.1603 237.118 56.6331 236.51 58.1689 236.51H124.091C125.626 236.51 127.099 237.118 128.185 238.202C129.271 239.285 129.881 240.755 129.881 242.287V250.017Z" fill="#8253F6"/>
<path d="M50.9997 250.017H131.271C132.556 250.017 133.599 248.977 133.599 247.694V245.591C133.599 244.309 132.556 243.269 131.271 243.269H50.9997C49.714 243.269 48.6718 244.309 48.6718 245.591V247.694C48.6718 248.977 49.714 250.017 50.9997 250.017Z" fill="#1A365D"/>
<path opacity="0.6" d="M50.9997 250.017H131.271C132.556 250.017 133.599 248.977 133.599 247.694V245.591C133.599 244.309 132.556 243.269 131.271 243.269H50.9997C49.714 243.269 48.6718 244.309 48.6718 245.591V247.694C48.6718 248.977 49.714 250.017 50.9997 250.017Z" fill="white"/>
<path d="M51.6601 171.286C59.6976 166.445 70.8506 166.445 81.5171 171.286C86.9025 173.597 93.2723 174.302 96.0982 170.916C100.904 165.914 92.4732 151.113 76.2823 146.422C64.7008 143.117 53.2236 143.117 43.4373 146.422C29.7827 151.113 29.3658 165.914 36.8706 170.916C41.5379 174.313 47.5371 173.643 51.6601 171.286Z" fill="#8253F6"/>
<path d="M151.423 159.606C151.423 159.606 149.489 159.155 143.188 156.833C140.687 155.909 137.49 154.695 133.46 153.101L137.386 147L138.544 145.117L139.702 143.234C142.753 145.273 145.95 147.084 149.269 148.653L153.368 150.709L147.497 140.079L150.033 135.308C150.033 135.308 167.996 153.667 169.073 158.289C170.15 162.91 159.437 161.085 151.423 159.606Z" fill="#9D6F68"/>
<path opacity="0.2" d="M157.41 155.781C157.005 155.619 151.156 153.216 149.361 148.652L153.461 150.709C154.4 152.661 155.746 154.391 157.41 155.781Z" fill="#1A365D"/>
<path opacity="0.2" d="M143.223 156.832C140.721 155.907 137.525 154.694 133.495 153.1L137.421 146.999C139.436 149.287 142.586 153.284 143.223 156.832Z" fill="#1A365D"/>
<path d="M165.46 278.162C157.283 316.637 156.959 327.625 156.959 327.625L149.628 324.806C148.771 311.415 149.523 291.299 150.218 272.582C151.075 249.138 150.693 241.385 150.693 241.385C150.693 241.385 134.479 238.416 128.966 237.295C118.74 235.227 87.4932 230.305 87.4932 230.305L109.498 187.555L109.66 204.25C109.66 204.25 171.042 214.915 176.659 230.27C178.245 234.545 168.054 265.926 165.46 278.162Z" fill="#9D6F68"/>
<path opacity="0.2" d="M150.172 272.582C151.029 249.138 150.647 241.385 150.647 241.385C150.647 241.385 134.433 238.416 128.92 237.295C123.199 236.14 110.876 234.083 101.125 232.5L108.768 209.3L128.966 204.354C139.019 207.613 151.932 212.304 161.846 217.607L155.916 222.229C155.916 222.229 162.518 227.024 163.016 233.194C163.989 245.187 154.029 280.866 149.292 299.676C149.535 290.895 149.882 281.582 150.172 272.582Z" fill="#1A365D"/>
<path d="M105.074 201.558C107.652 196.729 108.993 191.339 108.977 185.868L75.7957 176.486C75.7957 176.486 56.3967 218.566 69.1595 231.506C71.9854 234.372 77.5329 235.666 83.1962 235.62C83.1962 235.62 118.184 236.775 131.838 241.189C131.838 241.189 122.944 271.299 116.018 325.534L122.967 327.66C142.007 263.997 155.302 242.725 155.059 232.5C154.816 222.275 142.146 209.808 105.074 201.558Z" fill="#9D6F68"/>
<path d="M127.357 241.131C127.357 241.131 118.555 213.078 160.943 216.451C160.943 216.451 134.942 206.469 110.563 203.257L111.583 188.178L75.8306 176.486C75.8306 176.486 55.8179 217.63 67.6425 232.015C79.4672 246.4 127.357 241.131 127.357 241.131Z" fill="#F7BD3B"/>
<path opacity="0.3" d="M127.452 241.645C127.452 241.645 118.65 213.592 161.038 216.966C161.038 216.966 135.037 206.983 110.658 203.771L111.678 188.693L75.9256 177C75.9256 177 55.9128 218.144 67.7375 232.529C79.5622 246.914 127.452 241.645 127.452 241.645Z" fill="white"/>
<path d="M127.09 95.6877C127.09 95.6877 135.579 89.4023 143.64 94.5323C151.701 99.6623 157.156 126.098 144.486 133.701C131.815 141.303 105.491 127.82 105.491 127.82C105.491 127.82 109.961 100.772 115.578 96.6236C117.226 95.4294 119.172 94.7104 121.203 94.5453C123.233 94.3802 125.27 94.7755 127.09 95.6877Z" fill="#1A365D"/>
<path d="M150.172 135.307C148.362 133.593 146.401 132.046 144.312 130.685C142.273 129.426 140.281 128.686 139.285 129.795C137.925 131.527 136.993 133.553 136.564 135.711C136.432 136.248 136.331 136.792 136.263 137.34L148.134 141.234C148.134 141.234 151.55 136.878 150.172 135.307Z" fill="#9D6F68"/>
<path opacity="0.2" d="M144.254 130.639C143.594 133.111 141.648 135.653 136.518 135.676C136.948 133.515 137.881 131.486 139.239 129.749C140.224 128.64 142.227 129.402 144.254 130.639Z" fill="#1A365D"/>
<path d="M76.7339 172.372L74.5913 177.525L111.015 189.438L113.551 183.348L76.7339 172.372Z" fill="#1A365D"/>
<path d="M76.7339 172.372C76.7339 172.372 92.5773 127.658 101.275 125.301C115.398 128.057 128.628 134.226 139.807 143.267C139.807 143.267 130.426 165.116 125.052 168.571C119.678 172.026 113.551 183.372 113.551 183.372L76.7339 172.372Z" fill="#F7BD3B"/>
<g opacity="0.3">
<path d="M139.807 143.267C139.807 143.267 130.426 165.116 125.052 168.571C119.678 172.025 113.551 183.371 113.551 183.371L76.7339 172.395C76.7339 172.395 82.3393 156.577 88.7091 143.255C91.0006 138.144 93.8184 133.285 97.1173 128.755C98.1323 127.218 99.5782 126.012 101.275 125.289C115.399 128.049 128.629 134.222 139.807 143.267Z" fill="white"/>
</g>
<path opacity="0.2" d="M94.9746 155.793C91.697 153.412 89.7745 147.855 88.709 143.233C91.0004 138.122 93.8183 133.263 97.1171 128.733C97.7698 128.723 98.4133 128.887 98.9818 129.207C98.9818 129.207 101.09 160.229 94.9746 155.793Z" fill="#1A365D"/>
<path d="M135.614 140.021C133.576 142.932 126.662 155.353 116.459 152.21C104.877 148.629 105.445 128.848 105.491 126.19C116.302 128.907 126.515 133.596 135.614 140.021Z" fill="#9D6F68"/>
<path d="M124.843 134.521C124.148 136.693 125.191 137.629 125.191 137.629C125.063 138.322 124.779 138.977 124.359 139.543C123.939 140.11 123.394 140.573 122.767 140.897C122.14 141.222 121.447 141.399 120.741 141.415C120.035 141.431 119.335 141.286 118.694 140.991C112.162 137.929 112.903 129.044 112.903 129.044C118.52 128.813 121.543 123.775 122.886 120.621C123.243 119.8 123.541 118.954 123.778 118.091L130.947 127.115C129.709 128.13 128.548 129.235 127.472 130.419C126.328 131.596 125.434 132.991 124.843 134.521Z" fill="#9D6F68"/>
<path opacity="0.2" d="M129.522 128.64C128.358 129.606 127.259 130.648 126.233 131.759C125.158 132.878 124.323 134.202 123.778 135.653C118.902 133.816 121.913 122.597 121.913 122.597V122.47C122.25 121.694 122.529 120.895 122.747 120.078L129.522 128.64Z" fill="#1A365D"/>
<path d="M132.371 99.3615C141.637 100.113 144.266 105.312 144.184 114.925C144.069 126.941 140.71 135.226 129.314 131.736C113.795 126.999 116.933 98.1137 132.371 99.3615Z" fill="#9D6F68"/>
<path d="M120.952 114.175C120.952 114.175 125.92 106.896 125.735 100.969C125.735 100.969 144.763 94.926 144.173 113.678C144.173 113.678 147.3 97.2484 131.352 95.5962C115.404 93.9439 113.586 117.283 121.276 124.897C121.276 124.886 117.883 118.728 120.952 114.175Z" fill="#1A365D"/>
<path d="M122.377 116.254C122.375 115.718 122.268 115.188 122.061 114.694C121.854 114.2 121.552 113.751 121.171 113.373C120.79 112.996 120.339 112.696 119.842 112.493C119.345 112.289 118.814 112.185 118.277 112.187C115.37 112.268 113.528 118.056 120.593 120.055C121.531 120.332 122.191 119.385 122.377 116.254Z" fill="#9D6F68"/>
<path d="M138.695 121.812C138.086 123.029 137.563 124.288 137.131 125.578L136.413 125.463C133.194 124.908 131.873 123.591 131.398 122.297C131.181 121.658 131.121 120.977 131.225 120.31C131.261 119.932 131.354 119.562 131.503 119.212C133.043 120.518 136.008 121.269 137.606 121.604L138.695 121.812Z" fill="white"/>
<path d="M106.475 122.47C105.815 125.937 103.545 133.008 108.792 139.455C114.038 145.902 108.792 154.972 108.792 154.972C108.792 154.972 116.899 151.887 116.435 143.926C117.571 146.433 117.728 149.272 116.875 151.887C116.875 151.887 122.365 148.248 119.192 140.876C116.018 133.505 115.15 129.322 116.597 127.011C118.045 124.7 106.475 122.47 106.475 122.47Z" fill="#1A365D"/>
<path d="M99.9201 126.191C87.4932 129.588 93.8282 168.941 97.4417 174.233C101.055 179.524 126.152 163.349 126.152 163.349L140.363 161.257C140.363 161.257 136.668 156.509 136.216 155.781C135.765 155.053 128.631 154.81 127.53 154.325C126.43 153.84 123.685 158.612 123.685 158.612C123.685 158.612 106.579 166.029 105.665 165.544C104.75 165.059 103.221 152.28 103.985 142.078C104.75 131.875 103.209 125.289 99.9201 126.191Z" fill="#9D6F68"/>
<path d="M183.665 344.841H190.765L191.923 167.785H182.507L183.665 344.841Z" fill="#1A365D"/>
<path opacity="0.4" d="M182.507 168.062L182.693 196.636L183.665 344.841H190.765L191.738 196.636L191.923 168.062H182.507Z" fill="white"/>
<path opacity="0.2" d="M182.507 168.062L182.693 196.948H191.738L191.923 168.062H182.507Z" fill="#1A365D"/>
<path d="M108.34 344.841H115.439L128.19 167.785H118.775L108.34 344.841Z" fill="#1A365D"/>
<path opacity="0.5" d="M108.34 344.841H115.439L127.565 176.578L128.19 168.062H118.774L118.265 176.578L108.34 344.841Z" fill="white"/>
<path opacity="0.2" d="M118.265 176.15H127.565L128.19 168.062H118.775L118.265 176.15Z" fill="#1A365D"/>
<path d="M258.992 344.841H266.091L255.656 167.785H246.252L258.992 344.841Z" fill="#1A365D"/>
<path opacity="0.5" d="M246.252 168.062L246.877 176.578L259.003 344.841H266.091L256.177 176.578L255.667 168.062H246.252Z" fill="white"/>
<path opacity="0.2" d="M255.667 168.062H246.252L246.877 176.15H256.177L255.667 168.062Z" fill="#1A365D"/>
<path d="M260.613 172.211L113.806 172.211C113.478 172.211 113.152 172.146 112.849 172.021C112.545 171.896 112.269 171.712 112.037 171.48C111.805 171.248 111.621 170.973 111.495 170.67C111.369 170.368 111.304 170.043 111.304 169.715V163.349L263.114 163.349V169.715C263.114 170.043 263.05 170.368 262.924 170.67C262.798 170.973 262.614 171.248 262.382 171.48C262.149 171.712 261.873 171.896 261.57 172.021C261.266 172.146 260.941 172.211 260.613 172.211Z" fill="#1A365D"/>
<path opacity="0.6" d="M260.613 172.211L113.806 172.211C113.478 172.211 113.152 172.146 112.849 172.021C112.545 171.896 112.269 171.712 112.037 171.48C111.805 171.248 111.621 170.973 111.495 170.67C111.369 170.368 111.304 170.043 111.304 169.715V163.349L263.114 163.349V169.715C263.114 170.043 263.05 170.368 262.924 170.67C262.798 170.973 262.614 171.248 262.382 171.48C262.149 171.712 261.873 171.896 261.57 172.021C261.266 172.146 260.941 172.211 260.613 172.211Z" fill="white"/>
<path opacity="0.2" d="M111.304 167.785L263.114 167.785V163.348L111.304 163.348V167.785Z" fill="#1A365D"/>
<path d="M106.915 164.503H267.515C268.18 164.503 268.817 164.241 269.288 163.773C269.759 163.305 270.025 162.67 270.028 162.007C270.028 161.679 269.963 161.353 269.837 161.05C269.711 160.746 269.525 160.471 269.292 160.239C269.058 160.007 268.781 159.823 268.476 159.698C268.171 159.574 267.845 159.51 267.515 159.512H106.915C106.586 159.51 106.26 159.574 105.956 159.699C105.652 159.823 105.375 160.007 105.143 160.239C104.91 160.471 104.726 160.747 104.601 161.051C104.476 161.354 104.412 161.679 104.414 162.007C104.414 162.669 104.677 163.304 105.146 163.772C105.615 164.24 106.252 164.503 106.915 164.503Z" fill="#1A365D"/>
<path opacity="0.6" d="M106.915 164.503H267.515C268.18 164.503 268.817 164.241 269.288 163.773C269.759 163.305 270.025 162.67 270.028 162.007C270.028 161.679 269.963 161.353 269.837 161.05C269.711 160.746 269.525 160.471 269.292 160.239C269.058 160.007 268.781 159.823 268.476 159.698C268.171 159.574 267.845 159.51 267.515 159.512H106.915C106.586 159.51 106.26 159.574 105.956 159.699C105.652 159.823 105.375 160.007 105.143 160.239C104.91 160.471 104.726 160.747 104.601 161.051C104.476 161.354 104.412 161.679 104.414 162.007C104.414 162.669 104.677 163.304 105.146 163.772C105.615 164.24 106.252 164.503 106.915 164.503Z" fill="white"/>
<path d="M259.825 159.512L235.539 208.039L197.286 159.512H176.891L144.069 208.039L117.246 159.512H259.825Z" fill="#F7BD3B"/>
<path d="M203.319 156.902C202.347 156.838 201.403 156.544 200.567 156.044C199.731 155.543 199.027 154.851 198.513 154.025C197.755 153.482 197.172 152.731 196.834 151.864C196.212 151.997 195.568 151.997 194.946 151.864C194.001 151.599 193.181 151.01 192.63 150.2C189.758 150.2 186.549 150.35 183.191 150.639L182.901 153.401L182.38 158.184L205.404 158.681L205.288 156.37C204.702 156.745 204.015 156.931 203.319 156.902Z" fill="#F7BD3B"/>
<path opacity="0.6" d="M203.319 156.902C202.347 156.838 201.403 156.544 200.567 156.044C199.731 155.543 199.027 154.851 198.513 154.025C197.755 153.482 197.172 152.731 196.834 151.864C196.212 151.997 195.568 151.997 194.946 151.864C194.001 151.599 193.181 151.01 192.63 150.2C189.758 150.2 186.549 150.35 183.191 150.639L182.901 153.401L182.38 158.184L205.404 158.681L205.288 156.37C204.702 156.745 204.015 156.931 203.319 156.902Z" fill="white"/>
<path d="M196.834 151.864C196.211 151.997 195.568 151.997 194.946 151.864C194.001 151.599 193.181 151.01 192.63 150.2C189.757 150.2 186.549 150.35 183.191 150.639L182.901 153.401C185.032 152.13 185.924 156.174 187.198 155.215C188.472 154.256 190.047 150.246 192.016 152.696C193.985 155.145 195.328 156.359 197.505 153.424C197.565 153.338 197.63 153.257 197.702 153.181C197.344 152.792 197.05 152.347 196.834 151.864Z" fill="#F7BD3B"/>
<path opacity="0.2" d="M196.834 151.864C196.211 151.997 195.568 151.997 194.946 151.864C194.001 151.599 193.181 151.01 192.63 150.2C189.757 150.2 186.549 150.35 183.191 150.639L182.901 153.401C185.032 152.13 185.924 156.174 187.198 155.215C188.472 154.256 190.047 150.246 192.016 152.696C193.985 155.145 195.328 156.359 197.505 153.424C197.565 153.338 197.63 153.257 197.702 153.181C197.344 152.792 197.05 152.347 196.834 151.864Z" fill="white"/>
<path d="M211.45 159.606H176.242C174.699 159.503 173.236 158.88 172.096 157.838H215.596C214.455 158.88 212.993 159.503 211.45 159.606Z" fill="white"/>
</g>
<defs>
<clipPath id="clip0_1569_1932">
<rect width="312" height="255" fill="white" transform="translate(32 15)"/>
</clipPath>
</defs>
</svg>
