<svg width="375" height="270" viewBox="0 0 375 270" fill="none" xmlns="http://www.w3.org/2000/svg">
<g clip-path="url(#clip0_1622_1780)">
<g clip-path="url(#clip1_1622_1780)">
<path d="M75.934 163.613H47.0742L47.8931 160.733C54.6421 136.984 56.873 42.5262 56.9012 41.5943L55.9976 39.3352L68.2249 39.3634L67.3495 41.5378C69.6933 111.372 78.0801 160.535 78.1648 161.015L78.5602 163.613H75.934Z" fill="#81DBD6"/>
<path d="M83.049 169.091L43.0068 169.063V162.709H83.049V169.091Z" fill="#81DBD6"/>
<path d="M98.6091 230.114L27.3916 230.086V223.054H98.6091V230.114Z" fill="#81DBD6"/>
<path d="M47.8642 167.17C47.8642 167.17 39.9292 207.354 32.6719 223.054H47.8359C47.8359 223.054 57.0135 188.66 58.4536 167.17H47.8642Z" fill="#81DBD6"/>
<path d="M78.193 167.17C78.193 167.17 86.0997 207.382 93.3288 223.054H78.1647C78.1647 223.054 69.0154 188.688 67.6035 167.17H78.193Z" fill="#81DBD6"/>
<path d="M27.2784 230.086L0 279.447H15.983L42.8378 230.086H27.2784Z" fill="#81DBD6"/>
<path d="M98.7215 230.114L126 279.503L109.989 279.475L83.1621 230.114H98.7215Z" fill="#81DBD6"/>
<path d="M105.696 262.192L100.387 261.91C95.3604 249.542 80.5635 240.562 63.0838 240.562C47.6091 240.562 34.2241 247.593 27.8704 257.787L21.4038 257.42C21.4038 257.42 37.8104 226.584 38.5163 226.584C39.2223 226.584 89.2892 227.459 89.2892 227.459L105.696 262.192Z" fill="#81DBD6"/>
<path d="M71.6134 181.46L53.4561 181.431V177.393H71.6134V181.46Z" fill="#81DBD6"/>
<path d="M55.9688 39.3068L58.2843 31.6824L65.8805 31.7106L68.1678 39.3068H55.9688Z" fill="#81DBD6"/>
<path d="M62.5198 34.3931H61.6162V12H62.5481L62.5198 34.3931Z" fill="#81DBD6"/>
<path d="M161.895 116.96C161.895 116.96 130.522 110.48 111.287 124.006C97.1956 133.88 102.287 226.197 115.968 230.929C129.597 235.609 151.609 231.186 151.609 231.186L161.895 116.96Z" fill="#233862"/>
<path d="M246.394 170.961C246.394 170.961 247.063 164.584 248.503 162.836C249.943 161.035 251.64 155.944 252.875 156.767C254.058 157.59 252.36 161.19 253.389 162.373C254.366 163.607 264.652 159.75 265.475 161.138C266.349 162.578 266.504 167.207 262.852 169.059C259.252 170.961 250.56 174.819 247.372 176.516C245.263 177.596 246.394 170.961 246.394 170.961Z" fill="#FFB27D"/>
<path d="M178.918 130.537C178.918 130.537 178.404 145.452 182.673 152.704C186.89 159.904 219.394 191.636 228.497 195.751C237.6 199.865 233.897 174.819 231.017 172.71C228.137 170.601 198.925 119.017 178.918 130.537Z" fill="#FFB27D"/>
<path d="M225.874 177.442C225.874 177.442 215.691 194.774 206.228 200.74C205.542 201.185 204.771 201.563 203.914 201.871C193.422 205.831 173.467 200.74 173.467 200.74L170.792 193.694C170.792 193.694 178.713 191.379 188.69 189.785C198.668 188.191 208.697 157.795 219.188 151.47C224.074 148.538 225.411 166.076 225.771 173.842C225.823 176.002 225.874 177.442 225.874 177.442Z" fill="#F5AC0A"/>
<path d="M225.874 177.442C225.874 177.442 215.691 194.774 206.228 200.74C205.542 201.185 204.771 201.563 203.914 201.871C204.222 201.563 213.942 191.277 214.457 184.899C215.022 178.419 219.754 171.424 224.434 172.453C225.051 172.607 225.463 173.122 225.771 173.842C225.823 176.002 225.874 177.442 225.874 177.442Z" fill="#ED7D2B"/>
<path d="M247.475 121.486C247.475 121.486 238.835 126.577 244.132 136.452C244.132 136.452 236.572 135.063 234.926 132.8C234.926 132.8 235.132 133.726 235.389 134.189C235.389 134.189 228.446 132.594 226.183 129.714C223.92 126.834 235.08 92.0675 253.132 101.068C253.132 101.068 269.693 104.154 263.212 122.463C256.732 140.823 262.852 142.469 262.852 142.469C262.852 142.469 260.898 142.829 260.075 142.623C260.075 142.623 258.995 141.852 258.944 141.132C258.944 141.132 258.892 142.212 259.149 142.623C259.149 142.623 252.361 141.543 249.738 138.149C247.063 134.806 245.52 125.086 247.475 121.486Z" fill="#233862"/>
<path d="M256.012 144.989C256.27 147.252 256.527 149.309 256.681 150.287C256.99 152.447 236.315 151.007 234.978 151.007C235.903 150.595 238.732 141.698 239.606 138.303C240.686 134.189 241.509 129.766 241.509 129.766L256.115 130.692L256.99 130.743C256.475 132.749 256.064 134.6 255.807 136.349C255.772 136.589 255.738 136.829 255.704 137.069C255.447 139.023 255.652 142.161 256.012 144.989Z" fill="#BD7E51"/>
<path d="M239.503 128.275C239.503 128.275 237.137 120.766 237.652 115.006C237.96 110.943 243.823 96.9021 257.915 102.868C257.915 102.868 262.03 104.411 265.321 108.165C267.893 111.148 271.287 117.011 262.801 128.326L260.333 132.286L239.503 128.275Z" fill="#233862"/>
<path d="M256.012 144.989C245.778 142.006 241.458 130.177 241.458 130.177C245.778 130.332 251.384 133.314 255.807 136.349C255.772 136.589 255.738 136.829 255.704 137.069C255.447 139.023 255.652 142.16 256.012 144.989Z" fill="#B4754A"/>
<path d="M256.733 140.823C256.733 140.823 238.269 136.246 241.304 124.829C244.287 113.36 243.978 105.079 255.858 107.497C267.79 109.914 268.922 114.903 268.819 118.966C268.767 123.029 261.619 141.749 256.733 140.823Z" fill="#BD7E51"/>
<path d="M269.95 112.485C264.498 103.794 257.915 102.868 257.915 102.868C253.235 99.7306 247.012 107.445 247.012 107.445C243.618 115.314 236.417 118.451 236.417 118.451C236.417 118.451 239.246 121.434 247.475 121.486C249.995 121.486 252.567 120.354 254.881 118.811C250.355 123.234 245.109 125.857 245.109 125.857C254.984 124.16 261.927 113.257 263.161 111.2C264.498 113.308 265.784 115.828 265.887 117.371C266.041 120.508 264.858 126.629 266.658 126.886C266.658 126.886 273.653 118.297 269.95 112.485Z" fill="#233862"/>
<path d="M253.852 133.52C253.852 133.52 254.058 135.218 255.189 135.629C256.269 136.041 259.252 136.812 259.561 136.606C259.818 136.452 260.949 135.063 260.949 135.063C260.949 135.063 256.321 133.315 253.852 133.52Z" fill="white"/>
<path d="M246.909 308.589C246.669 309.583 246.429 310.56 246.189 311.52C244.801 317.28 243.515 322.681 242.692 327.155C241.612 332.967 241.355 337.338 242.744 339.138C248.504 346.647 242.744 406.306 242.744 406.306L236.212 412.992C236.212 412.992 224.897 354.156 221.811 344.898C220.423 340.733 218.417 322.783 216.617 304.526C216.514 303.6 216.411 302.691 216.308 301.8C216 298.56 215.743 295.371 215.434 292.285C213.84 275.005 212.605 260.193 212.605 260.193C212.605 260.193 224.64 251.707 235.595 250.781C242.023 250.215 248.092 252.273 251.075 260.193C255.395 271.713 250.972 291.565 246.909 308.589Z" fill="#FFB27D"/>
<path d="M245.058 312.549C236.623 303.394 231.12 290.228 220.834 271.816C219.96 262.456 227.366 253.61 235.594 250.781C242.023 250.215 248.092 252.273 251.075 260.193C255.395 271.713 249.172 295.525 245.058 312.549Z" fill="#ED975D"/>
<path d="M272.11 153.424C269.436 149.721 260.641 149.567 258.687 149.515C257.247 149.412 259.921 143.395 257.401 142.675C255.344 142.109 252.67 144.578 250.509 145.144C246.292 146.275 240.223 143.292 238.115 142.623C236.983 142.263 235.698 144.166 235.852 145.349C236.109 146.686 225.874 146.944 219.189 151.469C215.434 153.99 216.514 174.87 216.514 174.87C215.897 190.711 220.32 214.111 220.32 214.111C238.166 224.912 259.818 215.449 259.818 215.449C259.818 215.449 259.407 213.391 259.458 212.826C259.51 212.363 259.921 208.917 259.973 208.557C260.178 207.683 274.27 156.458 272.11 153.424Z" fill="#F5AC0A"/>
<path d="M323.386 363.927L321.329 372.413C321.329 372.413 261.927 341.71 254.264 335.847C251.178 333.481 247.063 320.623 243.309 306.069C237.703 284.365 232.714 258.959 232.714 258.959C232.714 258.959 241.097 226.917 263.367 246.512C276.687 258.29 274.63 280.868 273.138 298.457C272.161 310.234 271.493 319.8 275.916 322.269C284.505 327.052 309.86 349.27 317.831 364.545L323.386 363.927Z" fill="#FFB27D"/>
<path d="M291.191 279.839C291.191 279.839 285.431 281.485 276.739 283.337C258.738 287.091 228.395 291.617 211.011 283.851C211.011 283.851 212.091 258.29 215.126 238.952C217.543 223.472 219.806 213.289 219.806 213.289C219.806 213.289 235.955 217.352 252.413 214.214C252.55 214.18 252.704 214.146 252.875 214.112C255.035 213.7 257.196 213.134 259.304 212.466C259.304 212.466 271.699 230.209 278.076 242.604C282.499 251.141 291.191 279.839 291.191 279.839Z" fill="#8253F6"/>
<path d="M236.983 218.072C225 218.072 220.063 213.957 219.703 213.649L219.137 207.22C219.291 207.323 235.132 217.763 259.972 208.557L259.458 212.826C249.892 216.375 243.206 218.072 236.983 218.072Z" fill="#ED7D2B"/>
<path d="M259.921 152.035C259.921 152.035 300.911 153.475 308.882 151.572C316.803 149.669 336.295 139.126 336.295 139.126L339.123 144.578C339.123 144.578 319.683 162.064 308.831 165.253C298.031 168.441 261.978 171.63 261.978 171.63L259.921 152.035Z" fill="#FFB27D"/>
<path d="M338.352 150.544H332.592C331.46 150.544 330.535 149.618 330.535 148.487V128.274C330.535 127.143 331.46 126.217 332.592 126.217H338.352C339.483 126.217 340.358 127.143 340.358 128.274V148.538C340.358 149.618 339.483 150.544 338.352 150.544Z" fill="#37547F"/>
<path d="M340.152 150.544H334.392C333.261 150.544 332.335 149.618 332.335 148.538V128.274C332.335 127.143 333.261 126.217 334.392 126.217H340.152C341.284 126.217 342.158 127.143 342.158 128.274V148.538C342.158 149.618 341.284 150.544 340.152 150.544Z" fill="#152847"/>
<path d="M344.266 133.366C344.266 133.366 339.226 128.737 337.735 130.486C336.192 132.235 340.203 141.749 342.003 142.109C343.855 142.418 346.221 137.326 344.266 133.366Z" fill="#BD7E51"/>
<path d="M328.683 128.069C328.683 128.069 332.643 128.48 333.106 126.269C333.569 124.057 333.569 120.971 333.569 120.971C333.569 120.971 333.775 127.4 335.472 127.966C337.118 128.532 339.021 128.532 339.021 128.532C339.021 128.532 336.038 129.046 335.112 129.612C334.083 130.28 333.62 132.235 333.672 133.366C333.672 133.366 333.518 130.743 332.078 129.406C331.615 128.995 329.969 128.377 328.683 128.069Z" fill="white"/>
<path d="M260.95 149.618C260.95 149.618 291.139 153.424 298.134 151.521C305.128 149.567 324.723 142.263 327.655 143.601C327.655 143.601 330.278 147.509 329.095 152.909C329.095 152.909 319.014 163.71 309.397 166.693C299.831 169.624 269.384 172.093 266.967 181.71L258.378 176.619C258.378 176.619 254.264 153.835 254.881 153.475C255.498 153.064 260.95 149.618 260.95 149.618Z" fill="#F5AC0A"/>
<path d="M195.016 228.82C195.016 228.82 194.193 255.564 192.085 282.051C189.256 318.103 181.593 407.437 181.593 407.437C181.593 407.437 176.604 411.706 165.547 409.34C165.547 409.34 156.443 379.459 153.461 344.95C153.426 344.435 153.392 343.904 153.358 343.355C153.289 342.772 153.238 342.19 153.203 341.607C151.918 323.658 150.22 295.782 148.883 272.382C147.546 249.135 146.569 230.415 146.569 230.415L195.016 228.82Z" fill="#F5AC0A"/>
<path d="M174.753 252.272L153.461 344.95C153.426 344.435 153.392 343.904 153.358 343.355C153.289 342.772 153.238 342.19 153.203 341.607C151.918 323.658 150.22 295.782 148.883 272.382L149.706 268.37L174.753 252.272Z" fill="#ED7D2B"/>
<path d="M185.296 225.837C185.296 225.837 157.163 295.782 148.163 322.269C141.734 341.195 123.682 407.437 123.682 407.437C123.682 407.437 115.865 409.803 109.231 405.174C109.231 405.174 105.63 339.344 116.122 318.412C124.608 301.543 117.922 213.134 147.135 212.363C176.295 211.54 185.296 225.837 185.296 225.837Z" fill="#F5AC0A"/>
<path d="M193.885 183.819C192.393 208.094 196.508 233.089 196.508 233.089C187.713 242.449 136.694 246.512 126.614 238.644C124.197 236.792 131.963 223.266 133.094 196.162C133.814 179.756 131.757 166.333 131.397 159.853C130.06 136.297 127.643 131.309 132.631 128.326C138.032 125.086 150.118 122.103 162.975 120.714C167.244 120.251 173.158 120.766 179.176 122C181.233 122.411 183.29 122.926 185.296 123.543C191.467 125.291 197.176 127.812 200.725 130.846C205.405 134.806 214.868 148.692 214.868 148.692C214.868 148.692 202.165 165.973 195.839 168.956C195.736 168.99 195.65 169.041 195.582 169.11C194.708 173.944 194.193 178.933 193.885 183.768C193.885 183.802 193.885 183.819 193.885 183.819Z" fill="#8253F6"/>
<path d="M147.083 130.177C147.083 130.177 132.22 131.823 125.688 137.069C119.157 142.315 90.9214 177.493 88.1442 187.11C85.367 196.676 123.631 219.254 123.631 219.254L126.46 212.311C126.46 212.311 108.15 190.248 109.848 187.11C111.493 183.922 161.329 148.332 147.083 130.177Z" fill="#FFB27D"/>
<path d="M156.084 120.714C156.084 120.714 137.929 123.028 128.774 130.383C124.608 133.777 109.128 152.447 109.128 152.447C109.128 152.447 113.191 169.521 134.586 171.681C156.341 173.841 155.415 137.995 155.415 137.995L156.084 120.714Z" fill="#8253F6"/>
<path d="M151.969 121.537C151.455 122.566 151.557 123.749 152.277 124.623C154.489 127.194 160.249 131.412 173.57 128.84C178.147 127.914 178.815 124.469 175.524 121.434C174.701 120.663 174.341 115.828 174.187 113.925C173.93 109.4 173.467 106.931 173.467 106.931L163.181 101.891L153.409 97.0564C156.598 110.84 153.563 118.657 151.969 121.537Z" fill="#FFB27D"/>
<path d="M155.569 106.52C155.569 106.52 162.41 113.154 174.187 113.926C173.93 109.4 173.467 106.931 173.467 106.931L163.181 101.891L155.569 106.52Z" fill="#ED985F"/>
<path d="M177.633 106.519C177.633 106.519 156.084 114.388 151.403 101.068C146.672 87.7988 140.757 79.8786 154.335 74.2727C167.912 68.6668 172.387 72.8327 175.01 76.8956C177.684 80.9072 183.136 104.102 177.633 106.519Z" fill="#FFB27D"/>
<path d="M138.186 75.6613C137.929 75.4556 137.414 75.3527 136.386 75.507C136.386 75.507 137.106 74.8384 138.186 74.5813C138.134 73.0898 138.443 70.4154 140.809 69.3354C140.809 69.3354 139.574 70.2612 139.729 71.8555C142.043 68.3582 147.546 62.9066 164.878 64.1924C186.119 65.7353 181.901 74.5813 178.044 77.5128C175.318 79.57 169.867 77.6671 164.518 79.1071C159.169 80.5986 159.632 88.6217 157.986 90.0103C156.341 91.4504 156.701 89.4446 154.026 88.776C151.3 88.1074 151.866 92.2733 153.101 94.8448C154.335 97.3649 151.558 101.582 151.558 101.582C151.558 101.582 151.558 101.582 147.392 98.4963C143.226 95.4619 137.003 80.29 137.929 76.6385C137.997 76.2956 138.083 75.9699 138.186 75.6613Z" fill="#2C3A64"/>
<path d="M178.507 97.1591C178.507 97.1591 178.044 99.9363 175.061 100.656C172.129 101.325 169.918 99.4734 169.918 99.4734C169.918 99.4734 174.547 96.5933 178.507 97.1591Z" fill="white"/>
<path d="M259.715 203.465C259.715 203.465 250.252 208.403 251.949 212.414C253.698 216.477 260.024 215.243 261.773 212.414C263.521 209.637 261.773 202.694 259.715 203.465Z" fill="#FFB27D"/>
<path d="M126.46 212.311C126.46 212.311 135.408 208.865 138.7 210.923C142.043 213.031 146.054 221.774 143.431 222.134C140.809 222.494 134.74 218.277 133.3 219.254C131.86 220.231 127.437 224.603 123.631 219.254L126.46 212.311Z" fill="#FFB27D"/>
<path d="M138.803 123.44C138.803 123.44 156.084 157.178 132.837 176.619L132.58 185.773C132.58 185.773 146.775 178.367 151.609 162.527C157.524 143.241 148.266 121.074 148.266 121.074L138.803 123.44Z" fill="#233862"/>
<path d="M193.885 183.767C193.885 183.802 193.885 183.819 193.885 183.819C191.93 164.378 181.079 128.171 179.176 122C181.233 122.411 183.29 122.925 185.296 123.543C191.519 139.023 194.811 151.778 195.788 166.641C195.822 167.43 195.839 168.201 195.839 168.955C195.942 176.824 194.039 183.407 193.885 183.767Z" fill="#233862"/>
</g>
</g>
<defs>
<clipPath id="clip0_1622_1780">
<rect width="375" height="270" fill="white"/>
</clipPath>
<clipPath id="clip1_1622_1780">
<rect width="390" height="356" fill="white" transform="translate(0 -33)"/>
</clipPath>
</defs>
</svg>
