<svg width="375" height="270" viewBox="0 0 375 270" fill="none" xmlns="http://www.w3.org/2000/svg">
<path d="M287.93 46H205V144.09H287.93V46Z" fill="#15C7BB"/>
<path d="M210.67 138.35H282.14V51.3901L210.67 51.3901V138.35Z" fill="#56DCD3"/>
<path d="M221.38 100.43L258.94 63.5201L218.3 56.8101L221.38 100.43Z" fill="#15C7BB"/>
<path d="M278.31 96.53L280.17 68.23L251.9 75.17L229.3 97.04L278.31 96.53Z" fill="#7AF2EA"/>
<path d="M253.59 79.6501C259.897 79.6501 265.01 74.5371 265.01 68.2301C265.01 61.923 259.897 56.8101 253.59 56.8101C247.283 56.8101 242.17 61.923 242.17 68.2301C242.17 74.5371 247.283 79.6501 253.59 79.6501Z" fill="#68E7DE"/>
<path d="M269.04 100.43C269.038 99.3333 269.362 98.2608 269.97 97.3483C270.578 96.4357 271.443 95.7241 272.455 95.3035C273.468 94.883 274.583 94.7724 275.658 94.9858C276.734 95.1993 277.722 95.7271 278.497 96.5025C279.273 97.2779 279.801 98.2659 280.014 99.3415C280.228 100.417 280.117 101.532 279.696 102.545C279.276 103.557 278.564 104.422 277.652 105.03C276.739 105.638 275.667 105.962 274.57 105.96C273.104 105.957 271.699 105.374 270.663 104.337C269.626 103.301 269.043 101.896 269.04 100.43Z" fill="#15C7BB"/>
<path d="M250.17 117.63L234.18 107.9L254.74 79.6399L250.17 117.63Z" fill="#7AF2EA"/>
<path d="M260.5 60.1399H257.36V129.58H260.5V60.1399Z" fill="#15C7BB"/>
<path d="M267.05 61.6799H262.98V128.05H267.05V61.6799Z" fill="#15C7BB"/>
<path d="M249.08 128.05L216.92 104.31V83.54H237.69L249.08 128.05Z" fill="#68E7DE"/>
<path d="M274.81 150.89H218V157.16H274.81V150.89Z" fill="#56DCD3"/>
<path d="M159.1 192.19H99.9502V198.46H159.1V192.19Z" fill="#2DC6BB"/>
<path d="M191.3 28H68V181.12H191.3V28Z" fill="#15C7BB"/>
<path d="M182.94 34.8999H76.1099V175.92H182.94V34.8999Z" fill="#56DCD3"/>
<path d="M110.94 79.46V141.46L135.64 140.07L138.48 79.46H110.94Z" fill="#3BCAC0"/>
<path d="M132.44 61.8999H170.44L170.11 166.96L150.43 167.27L132.44 61.8999Z" fill="#15C7BB"/>
<path d="M95.4399 53.8999H105.44L101.94 164.18L89.4399 167.27L95.4399 53.8999Z" fill="#2DC6BB"/>
<g clip-path="url(#clip0_1569_1929)">
<path d="M154.748 194.585H212.26C217.772 224.437 234.834 330.088 222.555 424.232L203.095 421.82C203.095 421.82 204.886 296.846 187.7 250.65C185.73 275.374 183.373 301.642 181.347 315.672C176.344 350.127 165.636 425.431 165.636 425.431H145.817C145.817 425.431 149.869 353.352 151.744 319.49C153.783 282.734 154.665 202.165 154.748 194.585Z" fill="#F5AC0A"/>
<path d="M145.817 425.43H165.636C165.636 425.43 176.344 350.127 181.347 315.672C183.387 301.684 185.73 275.374 187.714 250.649C190.544 258.748 192.692 267.069 194.136 275.526C204.404 330.942 203.095 421.82 203.095 421.82L222.555 424.576C234.834 330.432 217.731 224.216 212.26 195.274H154.762C154.679 202.165 153.797 283.078 151.744 319.834C149.869 353.765 145.817 425.43 145.817 425.43Z" fill="#1A365D"/>
<path d="M144.839 100.18C148.023 111.875 150.326 123.793 151.73 135.833C152.185 139.527 152.557 143.151 152.86 146.666C153.26 151.131 153.535 155.431 153.756 159.51C154.031 164.679 154.114 170.784 154.1 176.793C154.1 190.575 153.521 203.874 153.521 203.874C164.547 206.63 196.41 204.797 213.817 203.529C215.868 186.886 216.403 170.09 215.416 153.35C214.836 142.295 213.617 131.284 211.763 120.37C210.828 114.543 209.53 108.78 207.877 103.115C207.237 101.107 206.035 99.3247 204.413 97.9788C202.791 96.6329 200.817 95.7801 198.726 95.5214C196.617 95.2595 194.178 94.9977 191.614 94.8461C190.622 94.8461 189.63 94.7496 188.624 94.7358C180.388 94.8324 172.165 95.4076 163.996 96.4586C162.452 96.6377 160.881 96.872 159.365 97.1201C154.473 97.8845 149.624 98.9058 144.839 100.18Z" fill="#F5AC0A"/>
<path d="M196.493 48.6083C196.493 48.6083 198.326 60.9017 190.402 66.6487C182.477 72.3957 182.477 44.5978 182.477 44.5978L196.493 48.6083Z" fill="#1A365D"/>
<path d="M164.271 96.6242C169.55 101.42 182.477 99.6424 182.477 99.6424C182.477 99.6424 190.553 97.4373 188.858 94.9152C184.104 94.1296 181.802 91.9108 180.851 89.0717C180.33 87.3119 180.166 85.4658 180.369 83.6417C180.448 82.6246 180.581 81.6125 180.768 80.6097L164.781 68.7711C166.89 76.5854 169.44 90.9598 164.271 96.6242Z" fill="#E2AF8B"/>
<path opacity="0.2" d="M168.475 76.296C169.109 85.9433 176.992 88.5343 180.878 89.0718C180.358 87.3119 180.194 85.4658 180.396 83.6417L168.475 76.296Z" fill="black"/>
<path d="M167.4 78.5148C169.061 80.9729 171.482 82.8179 174.293 83.7665C177.104 84.7151 180.149 84.7148 182.959 83.7657C186.615 82.6014 189.693 80.0947 191.573 76.7507C191.835 76.3037 192.074 75.8437 192.29 75.3726C196.19 66.249 197.43 50.2896 187.783 44.3083C185.662 42.976 183.235 42.2082 180.733 42.078C178.232 41.9477 175.738 42.4593 173.49 43.5641C171.242 44.6689 169.313 46.3302 167.888 48.3902C166.463 50.4502 165.588 52.8404 165.346 55.3338C164.133 65.9871 162.962 72.2027 167.4 78.5148Z" fill="#E2AF8B"/>
<path d="M178.797 48.3876C175.82 46.8854 172.265 49.2421 173.064 52.3981C174.097 56.5327 171.107 62.3899 167.772 64.4572C167.772 64.4572 167.896 62.7345 166.393 62.9688C164.891 63.2031 164.216 72.1612 166.518 76.7506C166.518 76.7506 162.727 72.3817 161.46 62.7345C160.192 53.0872 161.005 45.397 163.637 42.7508C166.269 40.1047 166.972 42.8749 168.929 39.1951C170.886 35.5154 174.787 31.3808 178.108 33.7927C181.429 36.2045 184.889 36.6731 187.535 34.8263C190.181 32.9795 193.158 35.984 192.813 39.3054C192.469 42.6268 197.981 40.2288 199.125 43.6742C200.269 47.1197 197.664 57.8144 178.797 48.3876Z" fill="#1A365D"/>
<path d="M159.241 63.2031C160.004 65.7961 161.763 67.9812 164.133 69.2809C167.276 70.9761 169.646 68.33 169.426 64.9396C169.205 61.9352 167.331 57.3321 163.913 57.0702C160.495 56.8084 158.345 60.0058 159.241 63.2031Z" fill="#E2AF8B"/>
<path d="M175.159 45.4246L199.125 43.6743C198.51 41.5473 197.387 39.6016 195.853 38.005C194.319 36.4084 192.42 35.2088 190.319 34.5094C181.912 31.7531 170.404 33.7376 159.296 33.1312L163.334 36.6456L161.763 36.7559L164.257 39.2366L163.017 40.0084L167.262 41.2212L175.159 45.4246Z" fill="#1A365D"/>
<path d="M167.951 59.9367L177.474 58.145V59.0684L168.241 60.4741L167.951 59.9367Z" fill="#1A365D"/>
<path d="M168.953 59.293L168.622 59.3566L168.779 59.655L169.022 60.1165L169.105 60.2745L169.282 60.247L177.038 59.0399L177.25 59.007V58.7929V58V57.6973L176.953 57.7545L168.953 59.293Z" fill="#1A365D" stroke="#1A365D" stroke-width="0.5"/>
<path d="M186.46 59.7854L188.513 60.0748L188.637 60.7639L186.281 60.4331L186.46 59.7854Z" fill="#1A365D"/>
<path d="M186.495 59.5378L186.277 59.5072L186.219 59.7188L186.04 60.3665L185.964 60.6411L186.246 60.6807L188.603 61.0115L188.945 61.0595L188.883 60.7196L188.759 60.0305L188.727 59.8525L188.548 59.8273L186.495 59.5378Z" fill="#1A365D" stroke="#2D2D2D" stroke-width="0.5"/>
<path d="M186.019 58.6275L178.59 57.456C178.452 57.4323 178.311 57.4385 178.175 57.4743C178.039 57.5101 177.913 57.5746 177.805 57.6635C177.696 57.7524 177.608 57.8635 177.546 57.9894C177.484 58.1153 177.45 58.253 177.447 58.3932L177.267 63.079C177.261 63.3203 177.343 63.5555 177.498 63.7407C177.653 63.9258 177.87 64.0483 178.108 64.0851L183.483 64.8982C183.686 64.9251 183.893 64.8894 184.075 64.7958C184.257 64.7022 184.406 64.5553 184.503 64.3745L186.736 60.1021C186.819 59.9626 186.867 59.8043 186.874 59.6416C186.881 59.479 186.848 59.3171 186.777 59.1706C186.706 59.0242 186.599 58.8978 186.467 58.803C186.334 58.7081 186.18 58.6478 186.019 58.6275ZM186.019 60.1848L184.062 63.9059C183.982 64.0655 183.854 64.1956 183.695 64.2774C183.537 64.3591 183.356 64.3883 183.18 64.3607L178.48 63.6579C178.273 63.6218 178.086 63.5132 177.952 63.3515C177.818 63.1898 177.747 62.9857 177.75 62.7758L177.901 58.6413C177.908 58.5194 177.939 58.4001 177.995 58.2913C178.05 58.1826 178.128 58.0867 178.223 58.0099C178.318 57.9332 178.428 57.8773 178.546 57.846C178.664 57.8147 178.787 57.8086 178.907 57.8281L185.385 58.8893C185.534 58.9002 185.677 58.9492 185.802 59.0318C185.926 59.1143 186.027 59.2276 186.095 59.3606C186.163 59.4936 186.196 59.6419 186.19 59.7911C186.183 59.9403 186.139 60.0854 186.06 60.2124L186.019 60.1848Z" fill="#1A365D"/>
<path d="M185.108 59.5085C185.107 59.5239 185.106 59.5391 185.105 59.5542L185.101 59.5513L184.971 59.8351L183.138 63.8228L183.138 63.8228L183.136 63.8272C183.08 63.9542 182.994 64.0513 182.894 64.11C182.796 64.1681 182.687 64.1873 182.583 64.1685L182.581 64.1682L178.182 63.4156C178.057 63.3898 177.936 63.3123 177.844 63.1865C177.753 63.0597 177.7 62.895 177.702 62.7216L177.844 58.295C177.849 58.1953 177.871 58.0988 177.91 58.0119C177.949 57.9247 178.002 57.8502 178.065 57.7923C178.127 57.7344 178.198 57.6944 178.27 57.6723C178.343 57.6503 178.418 57.6462 178.491 57.6597C178.491 57.6597 178.491 57.6597 178.491 57.6597L184.558 58.7969L184.571 58.7992L184.583 58.8003C184.673 58.8078 184.763 58.8418 184.844 58.903C184.924 58.9643 184.994 59.0513 185.041 59.158C185.089 59.2649 185.112 59.3858 185.108 59.5085ZM176.75 63.0327L176.75 63.0327L176.75 63.0355C176.743 63.3459 176.835 63.6524 177.014 63.8976C177.194 64.1434 177.452 64.3138 177.744 64.3654L177.745 64.3656L182.78 65.237L182.78 65.237L182.785 65.2378C183.034 65.2755 183.285 65.2249 183.504 65.0965C183.721 64.9685 183.894 64.7709 184.004 64.5351L184.005 64.5333L186.094 59.9607C186.188 59.7787 186.241 59.5748 186.249 59.367C186.257 59.1568 186.219 58.9465 186.138 58.7549C186.056 58.5632 185.933 58.3942 185.776 58.2653C185.62 58.1372 185.435 58.0531 185.238 58.0238L178.286 56.7694C178.117 56.7365 177.943 56.7455 177.778 56.7954C177.612 56.8454 177.461 56.9349 177.333 57.0551C177.204 57.1752 177.102 57.3233 177.032 57.4882C176.961 57.6527 176.923 57.8313 176.918 58.0122L176.75 63.0327Z" fill="#1A365D" stroke="#1A365D" stroke-width="0.5"/>
<path d="M196.438 60.5569L189.161 59.1787C189.049 59.1548 188.934 59.1586 188.824 59.1896C188.714 59.2206 188.613 59.278 188.53 59.3567C188.447 59.4354 188.385 59.5332 188.348 59.6414C188.312 59.7497 188.302 59.8653 188.321 59.9781L189.023 65.2978C189.042 65.4467 189.107 65.5862 189.208 65.6971C189.309 65.8081 189.442 65.8852 189.588 65.918L194.564 66.9241C194.736 66.9567 194.915 66.9259 195.067 66.8372C195.219 66.7486 195.334 66.6082 195.391 66.4417L196.989 61.4665C197.018 61.3705 197.026 61.2695 197.014 61.1701C197.001 61.0706 196.968 60.975 196.916 60.8892C196.864 60.8035 196.794 60.7296 196.712 60.6724C196.63 60.6152 196.536 60.5758 196.438 60.5569ZM196.562 61.6319L195.184 66.1247C195.131 66.2764 195.025 66.4042 194.886 66.485C194.747 66.5659 194.584 66.5945 194.426 66.5658L189.947 65.6424C189.814 65.6168 189.693 65.5495 189.601 65.4504C189.51 65.3512 189.452 65.2253 189.437 65.0911L188.789 60.2813C188.776 60.1791 188.788 60.0754 188.823 59.9786C188.858 59.8818 188.915 59.7947 188.991 59.7247C189.066 59.6546 189.157 59.6035 189.257 59.5757C189.356 59.5479 189.46 59.5441 189.561 59.5646L196.121 60.805C196.202 60.8272 196.277 60.8653 196.343 60.9169C196.409 60.9685 196.464 61.0327 196.505 61.1058C196.546 61.1788 196.572 61.2593 196.582 61.3425C196.592 61.4257 196.585 61.51 196.562 61.5905V61.6319Z" fill="#1A365D"/>
<path d="M196.518 60.1899L196.518 60.1897L189.835 58.772C189.689 58.7377 189.538 58.7436 189.395 58.7888C189.251 58.8342 189.122 58.9174 189.019 59.028C188.915 59.1385 188.839 59.2735 188.794 59.4201C188.751 59.5656 188.739 59.7201 188.76 59.8708L189.406 65.3417C189.406 65.3419 189.406 65.342 189.406 65.3422C189.428 65.5403 189.505 65.7291 189.63 65.882C189.754 66.0354 189.922 66.1464 190.112 66.1941L190.112 66.1941L190.118 66.1954L194.689 67.2308L194.689 67.2308L194.692 67.2316C194.918 67.2793 195.15 67.2333 195.343 67.1069C195.536 66.9811 195.675 66.7862 195.743 66.5633L195.743 66.5633L195.744 66.5595L197.213 61.4393L197.213 61.4393L197.214 61.435C197.248 61.3058 197.258 61.1703 197.243 61.0371C197.228 60.9038 197.188 60.7744 197.125 60.6573C197.061 60.5402 196.975 60.4371 196.871 60.356C196.767 60.2748 196.647 60.2176 196.518 60.1899ZM190.559 65.4243L190.559 65.4243L190.555 65.4236C190.492 65.4099 190.429 65.3727 190.378 65.3111C190.327 65.2492 190.292 65.1669 190.283 65.0755L190.283 65.0755L190.282 65.0707L189.687 60.1223C189.687 60.1221 189.687 60.1219 189.687 60.1216C189.679 60.0518 189.686 59.9812 189.707 59.9161C189.729 59.8508 189.763 59.7946 189.804 59.7511C189.846 59.7077 189.894 59.6785 189.943 59.663C189.992 59.6476 190.043 59.6456 190.092 59.6568L190.092 59.6569L190.096 59.6577L196.11 60.9314C196.146 60.9439 196.181 60.9643 196.214 60.9928C196.249 61.0237 196.28 61.0636 196.304 61.1112C196.328 61.1588 196.344 61.2123 196.35 61.2687C196.356 61.3251 196.351 61.3821 196.338 61.4362L196.33 61.4666V61.498V61.507L195.074 66.0935C195.041 66.1968 194.978 66.2772 194.904 66.3257C194.83 66.3735 194.748 66.3889 194.67 66.3738L190.559 65.4243Z" fill="#1A365D" stroke="#1A365D" stroke-width="0.5"/>
<path opacity="0.1" d="M181.54 86.7289C182.791 86.9168 184.07 86.7347 185.22 86.2052C186.539 85.1986 187.411 83.7137 187.645 82.0707C188.403 81.0922 189.161 80.031 189.961 79.1214C190.181 78.9698 190.223 78.9698 190.581 78.7493C187.976 78.7493 183.69 78.9009 182.767 79.5073C181.843 80.1137 181.554 84.3998 181.54 86.7289Z" fill="black"/>
<path d="M166.338 90.2981L181.609 97.189L182.505 91.6763L188.127 93.6471C189.107 93.9917 189.942 94.6567 190.497 95.5345C191.053 96.4122 191.296 97.4516 191.187 98.4845L190.553 104.548L182.808 100.304L178.935 105.816L160.578 96.9823L166.338 90.2981Z" fill="#F5AC0A"/>
<path opacity="0.6" d="M166.338 90.2981L181.609 97.189L182.505 91.6763L188.127 93.6471C189.107 93.9917 189.942 94.6567 190.497 95.5345C191.053 96.4122 191.296 97.4516 191.187 98.4845L190.553 104.548L182.808 100.304L178.935 105.816L160.578 96.9823L166.338 90.2981Z" fill="white"/>
<path opacity="0.2" d="M187.714 250.65C190.544 258.748 192.692 267.069 194.137 275.526C195.735 253.475 189.313 230.184 189.313 230.184L187.714 250.65Z" fill="black"/>
<path opacity="0.2" d="M200.683 113.396C200.862 113.92 208.166 135.447 215.319 153.253C214.739 142.199 213.52 131.187 211.667 120.274L200.683 113.396Z" fill="black"/>
<path opacity="0.2" d="M153.701 162.846C153.976 168.014 154.059 174.119 154.045 180.128C174.359 177.923 179.431 166.843 179.431 166.843L152.805 150.001C153.204 154.467 153.48 158.766 153.701 162.846Z" fill="black"/>
<path d="M204.555 98.5259C217.593 99.5733 243.227 142.2 238.403 151.462C233.58 160.723 225.504 165.037 211.556 138.851C197.609 112.666 204.555 98.5259 204.555 98.5259Z" fill="#F5AC0A"/>
<path opacity="0.2" d="M204.555 98.5259C217.593 99.5733 243.227 142.2 238.403 151.462C233.58 160.723 225.504 165.037 211.556 138.851C197.609 112.666 204.555 98.5259 204.555 98.5259Z" fill="black"/>
<path d="M206.857 118.399L193.819 97.2855C191.685 96.8158 189.788 95.5988 188.472 93.8538C186.474 91.0975 185.233 80.072 186.17 79.6035C187.108 79.1349 197.196 80.2925 197.871 81.6432C198.547 82.9938 200.628 94.1846 200.628 94.1846L215.567 111.688L206.857 118.399Z" fill="#E2AF8B"/>
<path d="M236.006 136.894C229.652 126.462 207.353 99.2839 207.353 99.2839L196.989 106.258C196.989 106.258 215.65 144.102 222.651 151.462C229.652 158.821 244.964 151.641 236.006 136.894Z" fill="#F5AC0A"/>
<path opacity="0.1" d="M236.006 136.894C229.652 126.462 207.353 99.2839 207.353 99.2839L196.989 106.258C196.989 106.258 215.65 144.102 222.651 151.462C229.652 158.821 244.964 151.641 236.006 136.894Z" fill="black"/>
<path d="M210.413 101.034L207.078 97.6716L195.942 105.941L196.989 110.254L210.413 101.034Z" fill="#F5AC0A"/>
<path opacity="0.6" d="M210.413 101.034L207.078 97.6716L195.942 105.941L196.989 110.254L210.413 101.034Z" fill="white"/>
<path d="M193.668 151.848L218.379 150.139C219.786 148.469 221.739 147.351 223.891 146.983C227.309 146.528 237.577 150.483 237.577 151.545C237.577 152.606 231.871 160.985 230.355 160.985C228.839 160.985 217.952 157.553 217.952 157.553L195.515 162.694L193.668 151.848Z" fill="#E2AF8B"/>
<path d="M146.038 100.304C146.038 100.304 140.828 103.267 140.07 117.751C139.395 130.817 143.599 158.615 151.785 164.692C164.878 174.34 212.425 161.013 212.425 161.013L210.592 147.038C210.592 147.038 174.594 151.806 166.022 147.038C157.449 142.269 154.886 117.807 154.886 117.807C154.886 117.807 151.303 101.806 146.038 100.304Z" fill="#F5AC0A"/>
<path opacity="0.1" d="M146.038 100.304C146.038 100.304 140.828 103.267 140.07 117.751C139.395 130.817 143.599 158.615 151.785 164.692C164.878 174.34 212.425 161.013 212.425 161.013L210.592 147.038C210.592 147.038 174.594 151.806 166.022 147.038C157.449 142.269 154.886 117.807 154.886 117.807C154.886 117.807 151.303 101.806 146.038 100.304Z" fill="black"/>
<path d="M206.099 146.018L208.483 163.631L212.852 161.936L211.736 146.293L206.099 146.018Z" fill="#F5AC0A"/>
<path opacity="0.6" d="M206.099 146.018L208.483 163.631L212.852 161.936L211.736 146.293L206.099 146.018Z" fill="white"/>
</g>
<defs>
<clipPath id="clip0_1569_1929">
<rect width="99" height="237" fill="white" transform="translate(140 33)"/>
</clipPath>
</defs>
</svg>
