<svg width="172" height="150" viewBox="0 0 172 150" fill="none" xmlns="http://www.w3.org/2000/svg">
<g opacity="0.5" clip-path="url(#clip0_2313_2319)">
<path d="M152.441 55.1739C152.441 55.1739 148.406 45.4652 138.379 46.3835C138.379 46.3835 124.097 30.0874 108.383 43.7791C108.383 43.7791 91.9645 40.0753 79.6649 46.3289C71.4644 50.4995 68.709 54.9623 68.709 54.9623L152.439 55.1739H152.441Z" fill="#F8FCFF"/>
<path d="M97.6224 23.8297C97.6224 23.8297 92.9897 11.8983 81.4476 13.039C81.4476 13.039 65.0291 -6.98043 46.9267 9.87406C46.9267 9.87406 28.0338 5.33925 13.8701 13.0434C4.42699 18.1802 1.25 23.6704 1.25 23.6704L97.6224 23.8297Z" fill="#F8FCFF"/>
<path d="M119.554 29.1755C119.554 29.1755 121.659 23.9973 126.689 24.5753C126.689 24.5753 133.996 15.9463 141.782 23.4301C141.782 23.4301 150.061 21.5804 156.191 25.0399C160.277 27.3477 161.627 29.7667 161.627 29.7667L119.556 29.1777L119.554 29.1755Z" fill="#F8FCFF"/>
</g>
<path d="M139.106 135.981H19.375L23.4166 131.067H135.065L139.106 135.981Z" fill="#8253F6"/>
<path opacity="0.6" d="M139.106 135.981H19.375L23.4166 131.067H135.065L139.106 135.981Z" fill="white"/>
<path d="M42.5554 91.7488C57.4391 91.3726 67.0956 102.711 67.0956 102.711C65.6363 107.356 64.7014 110.834 64.7014 110.834C56.5613 109.295 47.3038 108.673 39.6824 106.69C32.802 104.9 32.0838 95.6023 32.8419 91.6975C33.6001 87.7927 37.5048 86.8806 41.3469 85.6095C45.7305 84.1559 54.0873 84.0418 60.0784 84.019C66.3945 84.019 74.6942 84.5891 78.9923 85.5582C78.9923 85.5582 88.113 85.1534 94.8908 85.2674C98.8468 84.6005 96.4641 91.0476 90.1822 96.5428C87.0797 99.2905 83.4068 101.316 79.4277 102.474C75.4485 103.633 71.2621 103.894 67.1697 103.241H67.1184" fill="#1A365D"/>
<path d="M114.141 91.7488C99.2574 91.3726 86.0496 102.711 86.0496 102.711C87.5089 107.356 88.4438 110.834 88.4438 110.834C96.584 109.295 109.393 108.673 117.014 106.69C123.9 104.9 124.613 95.6023 123.855 91.6975C123.097 87.7927 119.192 86.8806 115.35 85.6095C110.966 84.1559 102.609 84.0418 96.6182 84.019C90.3021 84.019 82.0023 84.5891 77.7042 85.5582C77.7042 85.5582 68.5836 85.1534 61.8115 85.2674C57.8498 84.6005 60.2325 91.0476 66.5144 96.5428C69.6136 99.2864 73.2818 101.31 77.2556 102.468C81.2295 103.626 85.4104 103.89 89.4984 103.241H89.5497" fill="#1A365D"/>
<path d="M67.1646 51.3671C65.8763 55.7602 64.5177 60.1305 63.0888 64.478C62.3763 66.6555 61.6523 68.8274 60.8999 70.9935C60.1474 73.1597 59.4178 75.3087 58.5855 77.4977L58.4829 77.7713L58.3461 78.1019C58.2549 78.3185 58.1523 78.5238 58.0497 78.729C57.8429 79.1103 57.6145 79.4795 57.3656 79.8349C56.9103 80.4717 56.3928 81.0618 55.8208 81.5963C54.8168 82.5272 53.7183 83.3506 52.5431 84.0531C50.4136 85.3111 48.1689 86.3629 45.8394 87.1941C41.3941 88.7967 36.8023 89.9594 32.13 90.6656L31.2578 86.9717C33.3328 86.2307 35.4704 85.444 37.5282 84.589C39.5861 83.7339 41.6268 82.8789 43.5707 81.887C45.4678 80.9749 47.285 79.9051 49.0031 78.6891C50.6107 77.549 51.8932 76.1182 52.0244 75.2688L55.8322 62.1978C57.1205 57.8256 58.443 53.4534 59.8225 49.0869L67.1646 51.3671Z" fill="#D3956A"/>
<path d="M32.7453 87.1538L25.7852 85.3867L29.1028 92.079C29.1028 92.079 33.8227 92.2842 35.3732 89.6563L32.7453 87.1538Z" fill="#D3956A"/>
<path d="M82.0199 3.8426C79.5231 2.03557 75.4188 0.519269 73.7657 3.27256C72.1126 6.02585 70.6875 11.8232 67.9342 13.2254C65.1809 14.6277 61.9032 20.254 63.7045 25.1963C65.5058 30.1385 58.386 28.8046 58.0041 36.3121C57.6222 43.8195 68.3104 47.6159 75.0597 43.9107C81.809 40.2054 86.5574 20.8697 86.1299 13.2254C85.7023 5.58122 82.0199 3.8426 82.0199 3.8426Z" fill="#1A365D"/>
<path d="M78.8848 3.51224C78.8848 3.51224 82.5444 -2.04565 89.2823 0.82165C97.1488 4.16778 94.6806 7.77614 96.1228 15.4033C97.565 23.0304 106.355 24.3928 105.956 35.0069C105.278 53.0829 89.2823 49.7311 84.8645 44.9313C80.4467 40.1316 85.3376 22.5117 85.3376 22.5117L78.8848 3.51224Z" fill="#1A365D"/>
<path d="M20.1416 88.015L23.2255 93.4703L29.0969 92.1649L25.7736 85.4727L20.1416 88.015Z" fill="#D3956A"/>
<path d="M62.3247 41.0266C59.2978 41.8019 57.1943 54.263 57.1943 54.263L65.5397 59.9634C65.5397 59.9634 73.5203 47.3883 71.2401 44.0592C68.7718 40.5649 66.7482 39.9037 62.3247 41.0266Z" fill="#8253F6"/>
<path d="M62.324 41.0268C62.324 41.0268 58.8468 42.2467 65.8355 85.3873H95.6885C95.1868 73.2398 95.1697 65.7495 100.978 40.8159C96.7988 39.9517 92.5616 39.3935 88.3008 39.1457C83.2787 38.9006 79.1801 38.741 74.7509 39.1457C68.9251 39.6758 62.324 41.0268 62.324 41.0268Z" fill="#8253F6"/>
<path d="M86.9616 23.8857C86.1066 28.2465 85.2515 36.2328 88.3012 39.1457C88.3012 39.1457 85.451 45.6784 77.898 45.6784C70.345 45.6784 74.7514 39.1457 74.7514 39.1457C79.6138 38.0056 79.4884 34.3745 78.639 30.9884L86.9616 23.8857Z" fill="#D3956A"/>
<path d="M88.3013 39.1457C83.2792 38.9006 79.1806 38.741 74.7457 39.1457C72.648 39.3338 70.4533 39.6302 68.5038 39.9324C67.2155 42.2638 62.1022 52.7469 74.6488 52.7469C87.8053 52.7469 93.2891 41.2206 93.9732 39.6359C92.2117 39.4307 90.2622 39.2426 88.3013 39.1457Z" fill="#D3956A"/>
<path opacity="0.2" d="M83.5697 26.7812L78.6445 30.9824C78.8507 31.7712 78.99 32.5759 79.0607 33.388C80.919 33.1201 83.4728 31.0794 83.6666 29.1355C83.777 28.3514 83.7442 27.5537 83.5697 26.7812Z" fill="black"/>
<path d="M92.7067 15.6429C91.3386 22.8083 90.8997 25.8695 86.7783 29.1016C80.5763 33.9697 72.077 30.7148 71.2846 23.2815C70.5721 16.5949 72.9434 6.00357 80.4052 4.04263C82.0416 3.60778 83.7619 3.59783 85.4033 4.01373C87.0446 4.42962 88.5525 5.25759 89.7844 6.41923C91.0162 7.58087 91.9312 9.03773 92.4426 10.6518C92.954 12.2659 93.0449 13.9839 92.7067 15.6429Z" fill="#D3956A"/>
<path d="M75.3281 23.0289C75.4694 23.0784 76.3738 24.7627 78.2531 25.0276C80.129 25.2924 80.6059 23.8693 80.6059 23.8693C80.6059 23.8693 79.4754 23.2584 78.352 23.0889C77.2287 22.9195 75.3317 23.0289 75.3317 23.0289H75.3281Z" fill="white"/>
<path d="M79.938 3.27285C77.3671 4.71505 79.0715 7.26313 83.7116 9.07015C88.3518 10.8772 88.6311 11.2078 87.8729 14.9587C87.1148 18.7095 93.8755 22.1811 93.961 18.3048C94.0465 14.4285 95.426 7.07502 91.8176 5.02857C88.2093 2.98213 82.6571 1.77365 79.938 3.27285Z" fill="#1A365D"/>
<path d="M79.5511 5.07983C77.2709 5.81518 72.0893 11.4415 72.4712 9.58885C72.8531 7.73622 73.8222 5.17104 76.5584 4.22477C77.8513 3.71209 79.2099 3.38395 80.5943 3.25L79.5511 5.07983Z" fill="#1A365D"/>
<path d="M94.0645 21.6625C93.3932 22.8984 92.2761 23.832 90.9407 24.2733C89.1679 24.8434 88.2729 23.31 88.7575 21.634C89.1964 20.1234 90.6386 18.0086 92.4228 18.1682C94.207 18.3278 94.8683 20.1462 94.0645 21.6625Z" fill="#D3956A"/>
<path d="M65.5114 109.984L68.2419 102.192C68.3445 101.907 69.5245 102.653 69.8152 102.71C69.8152 102.71 74.0962 102.14 75.8006 102.619C77.5051 103.098 77.431 104.192 77.1174 105.355C76.3935 108.057 75.2249 108.57 74.4725 112.15C74.0107 114.333 73.6345 116.346 71.246 118.421C68.9659 120.399 66.7769 120.279 67.6776 117.851C69.8437 112.059 68.8177 112.92 67.4496 110.765C67.1987 110.4 65.3632 110.394 65.5114 109.984Z" fill="#D3956A"/>
<path d="M86.9674 109.984L84.2312 102.192C84.1286 101.907 82.9486 102.653 82.6579 102.71C82.6579 102.71 78.3769 102.14 76.6725 102.619C74.9681 103.098 75.0422 104.192 75.3557 105.355C76.0797 108.057 77.2482 108.57 78.0007 112.15C78.4624 114.333 78.8387 116.346 81.2271 118.421C83.5073 120.399 85.6962 120.279 84.7956 117.851C82.6294 112.059 83.6555 112.92 85.0236 110.765C85.2744 110.4 87.1099 110.394 86.9674 109.984Z" fill="#D3956A"/>
<path d="M66.4454 111.843L69.1987 101.508L65.5732 100.009L60.46 111.107L66.4454 111.843Z" fill="#8253F6"/>
<path d="M86.2377 112.059L81.9111 101.61L85.2573 100.236L92.035 110.4L86.2377 112.059Z" fill="#8253F6"/>
<path d="M96.1342 83.6372L96.3736 86.305C96.4762 86.5159 96.2311 86.7268 95.889 86.7268H65.6883C65.4204 86.7268 65.1981 86.5957 65.181 86.4247L64.9131 83.7512C64.9131 83.5688 65.1297 83.4092 65.4204 83.4092H95.6325C95.729 83.3982 95.8265 83.4136 95.9149 83.4538C96.0033 83.494 96.079 83.5573 96.1342 83.6372Z" fill="#8253F6"/>
<path opacity="0.3" d="M96.1342 83.6372L96.3736 86.305C96.4762 86.5159 96.2311 86.7268 95.889 86.7268H65.6883C65.4204 86.7268 65.1981 86.5957 65.181 86.4247L64.9131 83.7512C64.9131 83.5688 65.1297 83.4092 65.4204 83.4092H95.6325C95.729 83.3982 95.8265 83.4136 95.9149 83.4538C96.0033 83.494 96.079 83.5573 96.1342 83.6372Z" fill="black"/>
<path d="M92.0751 87.0174H92.8845C93.0441 87.0174 93.1695 86.9319 93.1581 86.8292L92.7762 83.3577C92.7762 83.2551 92.628 83.1753 92.4627 83.1753H91.6532C91.4936 83.1753 91.3682 83.2551 91.3796 83.3577L91.7615 86.8292C91.7729 86.9319 91.9098 87.0174 92.0751 87.0174Z" fill="#1A365D"/>
<path d="M67.9677 87.0174H68.7771C68.9367 87.0174 69.0564 86.9319 69.045 86.8292L68.6688 83.3577C68.6688 83.2551 68.5149 83.1753 68.3553 83.1753H67.5458C67.3862 83.1753 67.2608 83.2551 67.2722 83.3577L67.6541 86.8292C67.6655 86.9319 67.8023 87.0174 67.9677 87.0174Z" fill="#1A365D"/>
<path d="M80.0186 87.0174H80.8281C80.9934 87.0174 81.1131 86.9319 81.1017 86.8292L80.7255 83.3577C80.7255 83.2551 80.5716 83.1753 80.412 83.1753H79.6025C79.4372 83.1753 79.3175 83.2551 79.3289 83.3577L79.7051 86.8292C79.7165 86.9319 79.859 87.0174 80.0186 87.0174Z" fill="#1A365D"/>
<path d="M103.63 49.6567L106.075 62.8361C106.491 65.025 106.913 67.2083 107.358 69.3687C107.574 70.4461 107.825 71.5121 108.059 72.5666L108.435 74.1228L108.8 75.4567C109.032 76.0538 109.392 76.5928 109.854 77.0357C110.499 77.6939 111.203 78.2911 111.958 78.82C113.67 80.003 115.474 81.0494 117.35 81.9495C119.277 82.9072 121.289 83.7793 123.324 84.6116C125.359 85.4438 127.463 86.2248 129.504 86.9601L128.631 90.654C124.021 89.9537 119.489 88.8083 115.099 87.2338C112.805 86.4219 110.59 85.403 108.481 84.1897C107.328 83.5147 106.244 82.7301 105.243 81.8469C104.013 80.7878 103.039 79.4647 102.393 77.9763L102.261 77.6514L102.176 77.4063L102.022 76.973L101.72 76.0952L101.19 74.3851C100.855 73.245 100.546 72.1239 100.261 71.0218C99.6715 68.7949 99.1376 66.5679 98.6588 64.341C97.6669 59.8833 96.8175 55.4426 96.0879 50.9336L103.63 49.6567Z" fill="#D3956A"/>
<path d="M100.979 40.8158C103.972 41.7222 107.677 51.3445 107.677 51.3445L96.0709 59.6442C96.0709 59.6442 91.7272 51.7207 92.987 47.8558C94.2924 43.8313 97.5644 39.7784 100.979 40.8158Z" fill="#8253F6"/>
<path d="M128.022 87.1538L134.993 85.3867L131.67 92.079C131.67 92.079 126.956 92.2842 125.399 89.6563L128.022 87.1538Z" fill="#D3956A"/>
<path d="M140.625 88.015L137.541 93.4703L131.67 92.1649L134.993 85.4727L140.625 88.015Z" fill="#D3956A"/>
<defs>
<clipPath id="clip0_2313_2319">
<rect width="170.625" height="94.375" fill="white" transform="translate(1.25 3.125)"/>
</clipPath>
</defs>
</svg>
