<svg width="375" height="270" viewBox="0 0 375 270" fill="none" xmlns="http://www.w3.org/2000/svg">
<g opacity="0.5" clip-path="url(#clip0_1569_1809)">
<path d="M292.906 88.2781C292.906 88.2781 286.45 72.7442 270.406 74.2135C270.406 74.2135 247.555 48.1397 222.413 70.0464C222.413 70.0464 196.143 64.1204 176.464 74.1262C163.343 80.7991 158.934 87.9396 158.934 87.9396L292.903 88.2781H292.906Z" fill="#F8FCFF"/>
<path d="M205.196 38.1271C205.196 38.1271 197.784 19.0368 179.316 20.8621C179.316 20.8621 153.047 -11.1691 124.083 15.7981C124.083 15.7981 93.854 8.5424 71.1922 20.8691C56.0832 29.088 51 37.8723 51 37.8723L205.196 38.1271Z" fill="#F8FCFF"/>
<path d="M240.286 46.681C240.286 46.681 243.655 38.3958 251.703 39.3206C251.703 39.3206 263.394 25.5142 275.851 37.4884C275.851 37.4884 289.098 34.5289 298.906 40.064C305.444 43.7564 307.604 47.6268 307.604 47.6268L240.29 46.6845L240.286 46.681Z" fill="#F8FCFF"/>
</g>
<path d="M271.57 217.569H80L86.4665 209.707H265.103L271.57 217.569Z" fill="#8253F6"/>
<path opacity="0.6" d="M271.57 217.569H80L86.4665 209.707H265.103L271.57 217.569Z" fill="white"/>
<path d="M117.088 146.798C140.902 146.196 156.353 164.337 156.353 164.337C154.018 171.77 152.522 177.334 152.522 177.334C139.498 174.871 124.686 173.877 112.492 170.703C101.483 167.839 100.334 152.964 101.547 146.716C102.76 140.468 109.008 139.009 115.155 136.975C122.169 134.649 135.54 134.467 145.125 134.43C155.231 134.43 168.511 135.342 175.388 136.893C175.388 136.893 189.981 136.245 200.825 136.428C207.155 135.361 203.342 145.676 193.291 154.468C188.327 158.865 182.451 162.106 176.084 163.959C169.717 165.812 163.019 166.231 156.471 165.185H156.389" fill="#1A365D"/>
<path d="M231.625 146.798C207.811 146.196 186.679 164.337 186.679 164.337C189.014 171.77 190.509 177.334 190.509 177.334C203.534 174.871 224.028 173.877 236.222 170.703C247.24 167.839 248.38 152.964 247.167 146.716C245.954 140.468 239.706 139.009 233.559 136.975C226.545 134.649 213.174 134.467 203.588 134.43C193.483 134.43 180.203 135.342 173.326 136.893C173.326 136.893 158.733 136.245 147.898 136.428C141.559 135.361 145.371 145.676 155.422 154.468C160.381 158.858 166.25 162.096 172.608 163.949C178.967 165.802 185.656 166.224 192.197 165.185H192.279" fill="#1A365D"/>
<path d="M156.462 82.1871C154.401 89.216 152.227 96.2085 149.941 103.165C148.801 106.649 147.642 110.124 146.439 113.589C145.235 117.055 144.067 120.494 142.736 123.996L142.571 124.434L142.352 124.963C142.207 125.309 142.042 125.638 141.878 125.966C141.547 126.576 141.182 127.167 140.784 127.736C140.055 128.755 139.227 129.699 138.312 130.554C136.706 132.043 134.948 133.361 133.068 134.485C129.661 136.498 126.069 138.18 122.342 139.51C115.229 142.074 107.882 143.935 100.407 145.065L99.0112 139.155C102.331 137.969 105.751 136.71 109.044 135.342C112.336 133.974 115.602 132.606 118.712 131.019C121.747 129.56 124.655 127.848 127.404 125.902C129.976 124.078 132.028 121.789 132.238 120.43L138.33 99.5163C140.392 92.5208 142.508 85.5252 144.715 78.5388L156.462 82.1871Z" fill="#D3956A"/>
<path d="M101.392 139.447L90.2556 136.619L95.5638 147.327C95.5638 147.327 103.116 147.655 105.597 143.451L101.392 139.447Z" fill="#D3956A"/>
<path d="M180.231 6.1486C176.236 3.25736 169.669 0.83127 167.024 5.23654C164.379 9.6418 162.099 18.9175 157.694 21.1612C153.288 23.4048 148.044 32.4069 150.926 40.3145C153.808 48.2221 142.417 46.0879 141.805 58.0997C141.194 70.1116 158.296 76.1859 169.094 70.2575C179.893 64.3291 187.491 33.3919 186.807 21.1612C186.123 8.93039 180.231 6.1486 180.231 6.1486Z" fill="#1A365D"/>
<path d="M175.214 5.61946C175.214 5.61946 181.07 -3.27316 191.85 1.31452C204.437 6.66833 200.487 12.4417 202.795 24.6451C205.102 36.8485 219.166 39.0283 218.528 56.011C217.443 84.9325 191.85 79.5696 184.782 71.89C177.713 64.2104 185.539 36.0185 185.539 36.0185L175.214 5.61946Z" fill="#1A365D"/>
<path d="M81.2261 140.824L86.1603 149.552L95.5546 147.464L90.2373 136.756L81.2261 140.824Z" fill="#D3956A"/>
<path d="M148.719 65.6423C143.876 66.8827 140.51 86.8204 140.51 86.8204L153.863 95.9411C153.863 95.9411 166.632 75.821 162.983 70.4945C159.034 64.9036 155.796 63.8456 148.719 65.6423Z" fill="#8253F6"/>
<path d="M148.718 65.6426C148.718 65.6426 143.155 67.5944 154.337 136.619H202.101C201.299 117.183 201.271 105.199 210.565 65.3052C203.878 63.9225 197.098 63.0293 190.281 62.6328C182.246 62.2406 175.688 61.9852 168.601 62.6328C159.28 63.481 148.718 65.6426 148.718 65.6426Z" fill="#8253F6"/>
<path d="M188.138 38.2168C186.77 45.1941 185.402 57.9721 190.281 62.6327C190.281 62.6327 185.721 73.085 173.636 73.085C161.551 73.085 168.602 62.6327 168.602 62.6327C176.382 60.8086 176.181 54.9988 174.822 49.5811L188.138 38.2168Z" fill="#D3956A"/>
<path d="M190.282 62.6328C182.246 62.2406 175.689 61.9852 168.593 62.6328C165.236 62.9338 161.725 63.4081 158.606 63.8915C156.544 67.6218 148.363 84.3947 168.438 84.3947C189.488 84.3947 198.262 65.9527 199.357 63.4172C196.538 63.0888 193.419 62.7879 190.282 62.6328Z" fill="#D3956A"/>
<path opacity="0.2" d="M182.711 42.8501L174.831 49.572C175.161 50.8339 175.384 52.1215 175.497 53.4209C178.47 52.9923 182.556 49.7271 182.866 46.6169C183.043 45.3623 182.99 44.086 182.711 42.8501Z" fill="black"/>
<path d="M197.332 25.0283C195.143 36.4929 194.44 41.3907 187.846 46.5621C177.923 54.3511 164.324 49.1432 163.056 37.2499C161.916 26.5514 165.711 9.6053 177.649 6.4678C180.268 5.77203 183.02 5.75612 185.646 6.42155C188.272 7.08698 190.685 8.41172 192.656 10.2703C194.627 12.129 196.091 14.4599 196.909 17.0425C197.727 19.6251 197.873 22.3738 197.332 25.0283Z" fill="#D3956A"/>
<path d="M169.524 36.8463C169.75 36.9254 171.197 39.6204 174.204 40.0441C177.205 40.4679 177.968 38.191 177.968 38.191C177.968 38.191 176.159 37.2135 174.362 36.9423C172.565 36.6711 169.529 36.8463 169.529 36.8463H169.524Z" fill="white"/>
<path d="M176.901 5.23658C172.788 7.54411 175.515 11.621 182.939 14.5123C190.363 17.4035 190.81 17.9325 189.597 23.9339C188.384 29.9353 199.201 35.4897 199.338 29.2877C199.475 23.0857 201.682 11.32 195.909 8.04574C190.135 4.77143 181.252 2.83786 176.901 5.23658Z" fill="#1A365D"/>
<path d="M176.281 8.12768C172.633 9.30424 164.342 18.3063 164.953 15.3421C165.564 12.3779 167.115 8.27361 171.493 6.75959C173.561 5.9393 175.735 5.41426 177.95 5.19995L176.281 8.12768Z" fill="#1A365D"/>
<path d="M199.502 34.6597C198.428 36.6371 196.641 38.1308 194.504 38.8369C191.668 39.749 190.236 37.2955 191.011 34.614C191.713 32.1971 194.021 28.8133 196.876 29.0687C199.73 29.3241 200.788 32.2336 199.502 34.6597Z" fill="#D3956A"/>
<path d="M153.818 175.975L158.187 163.507C158.351 163.051 160.239 164.246 160.704 164.337C160.704 164.337 167.553 163.425 170.281 164.191C173.008 164.957 172.889 166.708 172.387 168.569C171.229 172.892 169.359 173.713 168.155 179.441C167.417 182.934 166.815 186.153 162.993 189.473C159.345 192.638 155.843 192.447 157.284 188.561C160.749 179.295 159.108 180.672 156.919 177.224C156.518 176.641 153.581 176.632 153.818 175.975Z" fill="#D3956A"/>
<path d="M188.148 175.975L183.77 163.507C183.606 163.051 181.718 164.246 181.252 164.337C181.252 164.337 174.403 163.425 171.676 164.191C168.949 164.957 169.067 166.708 169.569 168.569C170.727 172.892 172.597 173.713 173.801 179.441C174.54 182.934 175.142 186.153 178.963 189.473C182.611 192.638 186.114 192.447 184.673 188.561C181.207 179.295 182.849 180.672 185.037 177.224C185.439 176.641 188.376 176.632 188.148 175.975Z" fill="#D3956A"/>
<path d="M155.313 178.948L159.718 162.412L153.918 160.014L145.736 177.772L155.313 178.948Z" fill="#8253F6"/>
<path d="M186.98 179.295L180.058 162.576L185.411 160.378L196.256 176.64L186.98 179.295Z" fill="#8253F6"/>
<path d="M202.813 133.819L203.196 138.088C203.361 138.425 202.968 138.763 202.421 138.763H154.1C153.671 138.763 153.316 138.553 153.288 138.279L152.86 134.002C152.86 133.71 153.206 133.454 153.671 133.454H202.011C202.165 133.437 202.321 133.462 202.463 133.526C202.604 133.59 202.725 133.692 202.813 133.819Z" fill="#8253F6"/>
<path opacity="0.3" d="M202.813 133.819L203.196 138.088C203.361 138.425 202.968 138.763 202.421 138.763H154.1C153.671 138.763 153.316 138.553 153.288 138.279L152.86 134.002C152.86 133.71 153.206 133.454 153.671 133.454H202.011C202.165 133.437 202.321 133.462 202.463 133.526C202.604 133.59 202.725 133.692 202.813 133.819Z" fill="black"/>
<path d="M196.319 139.228H197.615C197.87 139.228 198.071 139.091 198.052 138.927L197.441 133.372C197.441 133.208 197.204 133.08 196.94 133.08H195.644C195.389 133.08 195.188 133.208 195.207 133.372L195.818 138.927C195.836 139.091 196.055 139.228 196.319 139.228Z" fill="#1A365D"/>
<path d="M157.748 139.228H159.044C159.299 139.228 159.49 139.091 159.472 138.927L158.87 133.372C158.87 133.208 158.624 133.08 158.369 133.08H157.073C156.818 133.08 156.617 133.208 156.636 133.372L157.247 138.927C157.265 139.091 157.484 139.228 157.748 139.228Z" fill="#1A365D"/>
<path d="M177.029 139.228H178.324C178.589 139.228 178.781 139.091 178.762 138.927L178.16 133.372C178.16 133.208 177.914 133.08 177.659 133.08H176.364C176.099 133.08 175.908 133.208 175.926 133.372L176.528 138.927C176.546 139.091 176.774 139.228 177.029 139.228Z" fill="#1A365D"/>
<path d="M214.807 79.4509L218.719 100.538C219.385 104.04 220.06 107.533 220.772 110.99C221.118 112.714 221.519 114.419 221.893 116.107L222.495 118.597L223.079 120.731C223.45 121.686 224.026 122.549 224.766 123.257C225.798 124.31 226.925 125.266 228.132 126.112C230.872 128.005 233.757 129.679 236.76 131.119C239.843 132.652 243.062 134.047 246.318 135.379C249.574 136.71 252.94 137.96 256.205 139.136L254.81 145.047C247.432 143.926 240.181 142.093 233.157 139.574C229.487 138.275 225.943 136.645 222.568 134.704C220.725 133.624 218.99 132.368 217.388 130.955C215.421 129.261 213.862 127.144 212.827 124.762L212.618 124.242L212.481 123.85L212.235 123.157L211.751 121.752L210.903 119.016C210.368 117.192 209.872 115.398 209.416 113.635C208.474 110.072 207.62 106.509 206.853 102.946C205.266 95.8134 203.907 88.7084 202.74 81.4939L214.807 79.4509Z" fill="#D3956A"/>
<path d="M210.566 65.305C215.354 66.7552 221.282 82.1508 221.282 82.1508L202.713 95.4305C202.713 95.4305 195.763 82.7528 197.779 76.569C199.867 70.1298 205.102 63.6451 210.566 65.305Z" fill="#8253F6"/>
<path d="M253.834 139.447L264.989 136.619L259.672 147.327C259.672 147.327 252.129 147.655 249.639 143.451L253.834 139.447Z" fill="#D3956A"/>
<path d="M274 140.824L269.065 149.552L259.671 147.464L264.988 136.756L274 140.824Z" fill="#D3956A"/>
<defs>
<clipPath id="clip0_1569_1809">
<rect width="273" height="151" fill="white" transform="translate(51 5)"/>
</clipPath>
</defs>
</svg>
