<svg width="375" height="270" viewBox="0 0 375 270" fill="none" xmlns="http://www.w3.org/2000/svg">
<g clip-path="url(#clip0_1569_1730)">
<g clip-path="url(#clip1_1569_1730)">
<path d="M336.179 122.476C336.179 122.476 308.438 134.214 300.374 135.914C295.388 136.99 280.739 137.646 270.284 138.012C263.85 138.238 258.95 138.346 258.95 138.346L259.765 134.827L261.491 127.403C261.491 127.403 287.86 128.899 297.618 128.253C307.376 127.608 334.313 117.386 334.313 117.386L336.179 122.476Z" fill="#E4897B"/>
<path opacity="0.2" d="M270.284 138.013C263.85 138.239 258.95 138.346 258.95 138.346L259.765 134.828C263.394 135.429 266.93 136.5 270.284 138.013Z" fill="#1A365D"/>
<path d="M227.594 109.339L223.927 117.473L221.675 122.476C221.675 122.476 218.758 117.258 215.327 110.64C210.812 101.947 205.397 90.8754 204.604 86.2381C203.231 78.0825 196.422 45.858 196.422 45.858L201.73 44.5884C201.73 44.5884 209.365 76.9312 212.003 82.0419C214.641 87.1527 227.594 109.339 227.594 109.339Z" fill="#E4897B"/>
<path opacity="0.2" d="M223.927 117.473L221.675 122.476C221.675 122.476 218.758 117.258 215.327 110.641C218.639 112.288 221.569 114.616 223.927 117.473Z" fill="#1A365D"/>
<path d="M333.959 120.496C333.959 120.496 332.683 118.086 332.822 117.387C332.962 116.687 337.208 112.728 340.747 111.867C344.285 111.006 345.133 111.867 345.133 111.867L347.277 121.798C347.277 121.798 336.479 124.542 335.546 123.842C334.613 123.143 333.959 120.496 333.959 120.496Z" fill="#E4897B"/>
<path d="M353.165 111.491C353.165 111.491 352.275 109.813 351.149 109.533C351.017 109.477 350.875 109.449 350.731 109.449C350.588 109.449 350.446 109.478 350.314 109.534C350.182 109.591 350.063 109.673 349.963 109.776C349.863 109.879 349.785 110.002 349.733 110.136C349.733 110.136 351.288 110.276 350.902 112.223C350.516 114.17 353.165 111.491 353.165 111.491Z" fill="#1A365D"/>
<path d="M354.387 115.654C354.387 115.654 354.387 118.086 352.242 118.366C352.495 117.905 352.621 117.385 352.606 116.859C352.591 116.333 352.436 115.82 352.156 115.375L354.387 115.654Z" fill="#1A365D"/>
<path opacity="0.4" d="M353.165 111.491C353.165 111.491 352.275 109.813 351.149 109.533C351.017 109.477 350.875 109.449 350.731 109.449C350.588 109.449 350.446 109.478 350.314 109.534C350.182 109.591 350.063 109.673 349.963 109.776C349.863 109.879 349.785 110.002 349.733 110.136C349.733 110.136 351.288 110.276 350.902 112.223C350.516 114.17 353.165 111.491 353.165 111.491Z" fill="white"/>
<path opacity="0.4" d="M354.387 115.654C354.387 115.654 354.387 118.086 352.242 118.366C352.495 117.905 352.621 117.385 352.606 116.859C352.591 116.333 352.436 115.82 352.156 115.375L354.387 115.654Z" fill="white"/>
<path d="M354.783 114.213C354.783 114.213 353.389 113.783 353.389 113.008C353.466 112.427 353.743 111.89 354.172 111.491L352.832 110.415L345.905 114.246C345.905 114.246 343.964 111.125 342.162 113.041C341.369 113.88 342.419 116.15 342.859 117.42C343.524 119.324 343.47 120.647 345.004 120.647C347.277 120.647 346.977 117.065 346.977 117.065L354.805 115.989L354.783 114.213ZM345.229 119.464C344.628 119.679 344.317 119.173 343.996 117.549C343.674 115.924 341.937 114.138 343.256 113.492C344.242 113.008 345.272 115.031 345.733 115.989C346.194 116.946 345.829 119.249 345.229 119.464Z" fill="#F5AC0A"/>
<path d="M197.923 48.0206L202.298 46.9446L205.987 36.1206C205.987 36.1206 206.405 31.2251 201.955 29.5144C197.505 27.8036 192.83 35.9055 192.83 35.9055C192.83 35.9055 194.535 47.3858 197.923 48.0206Z" fill="#E4897B"/>
<path d="M189.955 218.773C190.194 218.128 190.175 217.414 189.902 216.783C189.726 216.381 189.452 216.03 189.105 215.763C188.759 215.496 188.35 215.321 187.918 215.255C187.411 215.177 186.893 215.249 186.427 215.463C185.96 215.678 185.567 216.024 185.294 216.46C185.022 216.895 184.882 217.402 184.893 217.916C184.904 218.43 185.065 218.93 185.355 219.354C185.586 219.671 185.701 220.059 185.679 220.451C185.658 220.844 185.502 221.216 185.237 221.506C184.742 222.106 184.437 222.841 184.362 223.616C184.286 224.392 184.443 225.172 184.813 225.857C185.183 226.542 185.748 227.1 186.437 227.46C187.125 227.82 187.905 227.965 188.677 227.877C189.448 227.789 190.176 227.471 190.766 226.965C191.356 226.459 191.781 225.787 191.988 225.036C192.195 224.285 192.173 223.489 191.925 222.751C191.678 222.013 191.216 221.366 190.599 220.893C190.271 220.662 190.029 220.329 189.913 219.944C189.796 219.56 189.811 219.148 189.955 218.773ZM185.752 218.063C185.724 217.833 185.742 217.599 185.805 217.376C185.867 217.153 185.973 216.944 186.116 216.761C186.259 216.579 186.436 216.427 186.638 216.313C186.839 216.2 187.061 216.127 187.291 216.099C187.52 216.072 187.753 216.09 187.976 216.153C188.198 216.215 188.406 216.321 188.588 216.465C188.77 216.608 188.921 216.786 189.035 216.988C189.148 217.19 189.22 217.413 189.248 217.643C189.303 218.109 189.172 218.577 188.884 218.945C188.595 219.313 188.173 219.551 187.709 219.607C187.245 219.663 186.779 219.531 186.412 219.242C186.045 218.952 185.807 218.528 185.752 218.063ZM188.551 226.584C188.028 226.649 187.498 226.557 187.028 226.318C186.558 226.08 186.168 225.708 185.91 225.248C185.651 224.787 185.534 224.26 185.574 223.734C185.614 223.207 185.809 222.704 186.134 222.288C186.46 221.872 186.901 221.563 187.401 221.399C187.902 221.235 188.44 221.224 188.947 221.368C189.454 221.511 189.907 221.802 190.249 222.204C190.59 222.606 190.806 223.101 190.867 223.626C190.909 223.973 190.882 224.324 190.788 224.661C190.695 224.998 190.536 225.312 190.321 225.587C190.105 225.862 189.838 226.092 189.535 226.263C189.231 226.434 188.897 226.543 188.551 226.584Z" fill="#1A365D"/>
<path opacity="0.6" d="M189.955 218.773C190.194 218.128 190.175 217.414 189.902 216.783C189.726 216.381 189.452 216.03 189.105 215.763C188.759 215.496 188.35 215.321 187.918 215.255C187.411 215.177 186.893 215.249 186.427 215.463C185.96 215.678 185.567 216.024 185.294 216.46C185.022 216.895 184.882 217.402 184.893 217.916C184.904 218.43 185.065 218.93 185.355 219.354C185.586 219.671 185.701 220.059 185.679 220.451C185.658 220.844 185.502 221.216 185.237 221.506C184.742 222.106 184.437 222.841 184.362 223.616C184.286 224.392 184.443 225.172 184.813 225.857C185.183 226.542 185.748 227.1 186.437 227.46C187.125 227.82 187.905 227.965 188.677 227.877C189.448 227.789 190.176 227.471 190.766 226.965C191.356 226.459 191.781 225.787 191.988 225.036C192.195 224.285 192.173 223.489 191.925 222.751C191.678 222.013 191.216 221.366 190.599 220.893C190.271 220.662 190.029 220.329 189.913 219.944C189.796 219.56 189.811 219.148 189.955 218.773ZM185.752 218.063C185.724 217.833 185.742 217.599 185.805 217.376C185.867 217.153 185.973 216.944 186.116 216.761C186.259 216.579 186.436 216.427 186.638 216.313C186.839 216.2 187.061 216.127 187.291 216.099C187.52 216.072 187.753 216.09 187.976 216.153C188.198 216.215 188.406 216.321 188.588 216.465C188.77 216.608 188.921 216.786 189.035 216.988C189.148 217.19 189.22 217.413 189.248 217.643C189.303 218.109 189.172 218.577 188.884 218.945C188.595 219.313 188.173 219.551 187.709 219.607C187.245 219.663 186.779 219.531 186.412 219.242C186.045 218.952 185.807 218.528 185.752 218.063ZM188.551 226.584C188.028 226.649 187.498 226.557 187.028 226.318C186.558 226.08 186.168 225.708 185.91 225.248C185.651 224.787 185.534 224.26 185.574 223.734C185.614 223.207 185.809 222.704 186.134 222.288C186.46 221.872 186.901 221.563 187.401 221.399C187.902 221.235 188.44 221.224 188.947 221.368C189.454 221.511 189.907 221.802 190.249 222.204C190.59 222.606 190.806 223.101 190.867 223.626C190.909 223.973 190.882 224.324 190.788 224.661C190.695 224.998 190.536 225.312 190.321 225.587C190.105 225.862 189.838 226.092 189.535 226.263C189.231 226.434 188.897 226.543 188.551 226.584Z" fill="white"/>
<path d="M173.313 217.461C174.3 217.396 175.372 217.375 175.758 218.364C176.326 219.838 175.865 222.969 175.383 226.531C175.125 228.424 171.094 228.683 169.667 226.832C169.163 226.176 169.817 224.379 169.817 224.379L170.836 224.669C170.836 224.669 170.311 225.552 170.836 225.993C172.134 227.069 173.313 226.918 173.957 226.079C174.117 225.864 175.083 219.311 174.718 218.87C174.626 218.739 174.507 218.63 174.368 218.551C174.229 218.472 174.074 218.425 173.915 218.413C173.756 218.402 173.596 218.427 173.447 218.485C173.299 218.544 173.165 218.635 173.056 218.752C172.166 219.828 170.825 224.669 170.825 224.669L170.01 224.088C170.01 224.088 170.75 221.872 171.34 219.849C171.565 219.107 172.198 217.547 173.313 217.461Z" fill="#1A365D"/>
<path opacity="0.6" d="M173.313 217.461C174.3 217.396 175.372 217.375 175.758 218.364C176.326 219.838 175.865 222.969 175.383 226.531C175.125 228.424 171.094 228.683 169.667 226.832C169.163 226.176 169.817 224.379 169.817 224.379L170.836 224.669C170.836 224.669 170.311 225.552 170.836 225.993C172.134 227.069 173.313 226.918 173.957 226.079C174.117 225.864 175.083 219.311 174.718 218.87C174.626 218.739 174.507 218.63 174.368 218.551C174.229 218.472 174.074 218.425 173.915 218.413C173.756 218.402 173.596 218.427 173.447 218.485C173.299 218.544 173.165 218.635 173.056 218.752C172.166 219.828 170.825 224.669 170.825 224.669L170.01 224.088C170.01 224.088 170.75 221.872 171.34 219.849C171.565 219.107 172.198 217.547 173.313 217.461Z" fill="white"/>
<path d="M180.873 221.581C179.726 221.151 178.471 220.763 177.656 221.796C176.487 223.335 175.972 227.176 175.318 231.48C174.975 233.804 179.693 235.472 181.945 233.804C182.76 233.191 182.589 230.856 182.589 230.856H181.291C181.291 230.856 181.613 232.072 180.841 232.405C178.954 233.212 177.624 232.653 177.141 231.437C177.013 231.136 178.106 223.098 178.696 222.711C178.851 222.594 179.029 222.513 179.218 222.471C179.406 222.429 179.602 222.429 179.791 222.47C179.98 222.511 180.158 222.592 180.314 222.708C180.469 222.823 180.597 222.971 180.691 223.141C181.377 224.68 181.291 230.856 181.291 230.856L182.449 230.458C182.449 230.458 182.342 227.585 182.331 225.013C182.364 224.088 182.149 222.055 180.873 221.581Z" fill="#1A365D"/>
<path opacity="0.6" d="M180.873 221.581C179.726 221.151 178.471 220.763 177.656 221.796C176.487 223.335 175.972 227.176 175.318 231.48C174.975 233.804 179.693 235.472 181.945 233.804C182.76 233.191 182.589 230.856 182.589 230.856H181.291C181.291 230.856 181.613 232.072 180.841 232.405C178.954 233.212 177.624 232.653 177.141 231.437C177.013 231.136 178.106 223.098 178.696 222.711C178.851 222.594 179.029 222.513 179.218 222.471C179.406 222.429 179.602 222.429 179.791 222.47C179.98 222.511 180.158 222.592 180.314 222.708C180.469 222.823 180.597 222.971 180.691 223.141C181.377 224.68 181.291 230.856 181.291 230.856L182.449 230.458C182.449 230.458 182.342 227.585 182.331 225.013C182.364 224.088 182.149 222.055 180.873 221.581Z" fill="white"/>
<path d="M179.758 199.449C179.758 199.449 180.058 215.653 178.986 223.529C179.095 223.674 179.236 223.791 179.397 223.872C179.559 223.953 179.738 223.995 179.919 223.995C180.099 223.995 180.278 223.953 180.44 223.872C180.602 223.791 180.742 223.674 180.851 223.529C180.851 223.529 183.286 207.142 181.806 199.449H179.758Z" fill="#F5AC0A"/>
<path d="M187.468 192.885C187.468 192.885 187.157 209.1 188.229 216.965C188.121 217.11 187.981 217.227 187.82 217.308C187.659 217.389 187.482 217.431 187.302 217.431C187.121 217.431 186.944 217.389 186.783 217.308C186.622 217.227 186.482 217.11 186.374 216.965C186.374 216.965 183.929 200.578 185.409 192.885H187.468Z" fill="#F5AC0A"/>
<path d="M177.206 196.189C177.206 196.189 175.061 212.264 172.788 219.86C172.874 220.019 172.996 220.157 173.144 220.261C173.292 220.365 173.462 220.433 173.641 220.461C173.819 220.488 174.002 220.473 174.174 220.417C174.346 220.361 174.503 220.266 174.632 220.14C174.632 220.14 179.533 204.323 179.233 196.469L177.206 196.189Z" fill="#F5AC0A"/>
<path d="M193.645 162.093C193.645 162.093 189.58 155.282 186.75 154.012C183.919 152.743 180.53 155.433 180.959 155.712L182.224 156.562C182.224 156.562 171.34 159.683 170.064 164.094C168.788 168.505 170.493 178.146 178.975 176.155C187.457 174.165 196.829 166.698 193.645 162.093Z" fill="#F5AC0A"/>
<path opacity="0.2" d="M193.645 162.093C193.645 162.093 189.58 155.282 186.75 154.012C183.919 152.743 180.53 155.433 180.959 155.712L182.224 156.562C182.224 156.562 171.34 159.683 170.064 164.094C168.788 168.505 170.493 178.146 178.975 176.155C187.457 174.165 196.829 166.698 193.645 162.093Z" fill="#1A365D"/>
<path d="M227.83 185.612C227.83 185.612 227.198 190.185 227.305 190.723C227.412 191.261 229.321 192.961 230.522 195.027C231.723 197.092 226.501 201.482 226.501 201.482H224.581C224.581 201.482 226.876 197.91 227.637 196.985C228.399 196.059 225.643 193.391 225.493 193.068C225.343 192.746 224.635 186.182 224.635 186.182L227.83 185.612Z" fill="#1A365D"/>
<path d="M173.217 170.076C173.217 170.076 177.774 166.568 178.203 166.676C179.569 166.678 180.927 166.46 182.224 166.03C184.133 165.503 191.564 162.092 191.564 162.092L193.999 163.588L173.849 173.164L173.217 170.076Z" fill="#1A365D"/>
<path d="M225.075 103.733C225.075 103.733 240.323 125.823 266.713 127.017C266.713 127.017 256.869 155.895 229.353 179.125L196.325 162.76C196.325 162.76 219.756 129.126 225.075 103.733Z" fill="#8253F6"/>
<path d="M237.063 119.012C237.953 124.51 246.714 129.771 246.714 129.771C246.714 129.771 252.698 132.353 252.891 129.986C250.382 127.189 250.06 124.714 250.853 122.519C251.392 121.19 252.191 119.983 253.202 118.969C253.742 118.384 254.315 117.831 254.918 117.312L250.939 102.302C248.376 108.048 242.961 118.076 237.063 119.012Z" fill="#E4897B"/>
<path opacity="0.2" d="M249.491 108.649C245.202 114.815 248.73 120.27 250.81 122.475C251.349 121.146 252.148 119.939 253.159 118.925L249.491 108.649Z" fill="#1A365D"/>
<path d="M269.051 88.6799C269.051 88.6799 271.603 100.515 265.545 105.583C259.486 110.651 258.103 88.2495 258.103 88.2495L269.051 88.6799Z" fill="#1A365D"/>
<path d="M247.711 116.268C249.163 118.161 251.193 119.523 253.491 120.145C255.788 120.767 258.226 120.615 260.429 119.711C263.302 118.597 265.644 116.427 266.981 113.643C267.173 113.259 267.341 112.864 267.485 112.46C270.155 104.928 270.359 92.0166 262.327 87.7128C260.559 86.7503 258.575 86.2575 256.564 86.2811C254.552 86.3047 252.58 86.8441 250.835 87.8478C249.09 88.8516 247.63 90.2865 246.593 92.0161C245.557 93.7458 244.978 95.7126 244.912 97.7299C244.494 106.359 243.84 111.416 247.711 116.268Z" fill="#E4897B"/>
<path d="M252.365 87.6909L252.601 91.5213C251.942 91.7866 251.408 92.2925 251.105 92.9373C250.803 93.5821 250.755 94.3179 250.971 94.9966C252.044 98.2244 249.899 103.12 247.336 104.96C247.336 104.96 247.336 103.561 246.157 103.83C244.977 104.099 244.87 111.362 246.939 114.891C246.939 114.891 243.722 111.577 242.189 103.884C240.806 96.7719 240.934 90.9188 242.532 88.3042L252.365 87.6909Z" fill="#1A365D"/>
<path d="M261.491 111.222C260.943 112.171 260.466 113.16 260.064 114.18L259.496 114.051C256.955 113.47 255.968 112.351 255.646 111.286C255.502 110.767 255.483 110.221 255.593 109.694C255.639 109.392 255.729 109.098 255.861 108.822C257.276 109.874 258.9 110.608 260.622 110.974C261.147 111.114 261.491 111.222 261.491 111.222Z" fill="white"/>
<path d="M252.58 91.5217C252.58 91.5217 271.024 97.3318 268.065 84.5926C268.065 84.5926 258.414 78.7072 249.567 80.9344C240.72 83.1616 241.964 92.4255 241.964 92.4255L252.58 91.5217Z" fill="#1A365D"/>
<path d="M249.041 97.2881C249.041 97.2881 248.237 108.607 250.907 115.913C253.577 123.218 258.81 121.292 260.43 119.711L258.21 120.324C257.666 120.577 257.06 120.665 256.467 120.575C255.874 120.485 255.32 120.222 254.875 119.818C253.352 118.398 249.578 112.803 250.907 96.804L249.041 97.2881Z" fill="#1A365D"/>
<path opacity="0.2" d="M249.041 97.2881C249.041 97.2881 248.237 108.607 250.907 115.913C253.577 123.218 258.81 121.292 260.43 119.711L258.21 120.324C257.666 120.577 257.06 120.665 256.467 120.575C255.874 120.485 255.32 120.222 254.875 119.818C253.352 118.398 249.578 112.803 250.907 96.804L249.041 97.2881Z" fill="white"/>
<path d="M259.496 79.8043C247.84 76.684 239.497 83.8928 237.063 92.8232C236.602 94.5339 237.771 100.731 239.358 104.895L242.521 106.66C242.521 106.66 242.371 100.882 243.808 99.2573C244.3 98.6581 244.958 98.2193 245.699 97.997C246.44 97.7747 247.23 97.779 247.969 98.0092C248.23 98.0775 248.502 98.0897 248.768 98.0452C249.034 98.0007 249.288 97.9005 249.513 97.751C252.033 96.0725 259.958 91.0694 264.611 90.9187C270.22 90.7358 270.82 92.1238 270.82 92.1238L271.667 90.2624C271.667 90.2624 271.163 82.9245 259.496 79.8043Z" fill="#F5AC0A"/>
<path opacity="0.2" d="M259.496 79.8043C247.84 76.684 239.497 83.8928 237.063 92.8232C236.602 94.5339 237.771 100.731 239.358 104.895L242.521 106.66C242.521 106.66 242.371 100.882 243.808 99.2573C244.3 98.6581 244.958 98.2193 245.699 97.997C246.44 97.7747 247.23 97.779 247.969 98.0092C248.23 98.0775 248.502 98.0897 248.768 98.0452C249.034 98.0007 249.288 97.9005 249.513 97.751C252.033 96.0725 259.958 91.0694 264.611 90.9187C270.22 90.7358 270.82 92.1238 270.82 92.1238L271.667 90.2624C271.667 90.2624 271.163 82.9245 259.496 79.8043Z" fill="white"/>
<path d="M241.428 106.316C241.428 106.316 241.685 100.236 243.948 97.708C246.21 95.1795 248.687 96.901 249.041 96.7719C249.395 96.6428 255.229 91.3169 260.623 90.0473C266.016 88.7777 270.08 89.7675 271.346 90.9726V92.3821L270.477 92.4574C270.477 92.4574 270.381 90.4669 263.85 91.2523C257.32 92.0378 250.607 98.5257 249.685 98.5365C248.763 98.5472 247.476 97.8801 245.974 98.5365C243.658 99.6124 242.618 105.756 242.972 106.993C242.961 106.972 242.168 107.596 241.428 106.316Z" fill="#1A365D"/>
<path opacity="0.3" d="M241.428 106.316C241.428 106.316 241.685 100.236 243.948 97.708C246.21 95.1795 248.687 96.901 249.041 96.7719C249.395 96.6428 255.229 91.3169 260.623 90.0473C266.016 88.7777 270.08 89.7675 271.346 90.9726V92.3821L270.477 92.4574C270.477 92.4574 270.381 90.4669 263.85 91.2523C257.32 92.0378 250.607 98.5257 249.685 98.5365C248.763 98.5472 247.476 97.8801 245.974 98.5365C243.658 99.6124 242.618 105.756 242.972 106.993C242.961 106.972 242.168 107.596 241.428 106.316Z" fill="white"/>
<path opacity="0.2" d="M263.464 85.195C263.464 85.195 257.341 80.0197 253.159 79.5893C254.63 79.2813 256.149 79.2813 257.62 79.5893C259.432 80.1596 265.308 83.495 263.464 85.195Z" fill="#1A365D"/>
<path opacity="0.2" d="M258.949 85.1955C256.858 82.8176 249.556 81.0853 246.896 81.3005C246.032 81.4401 245.209 81.7652 244.481 82.2535C243.754 82.7419 243.14 83.3821 242.682 84.1303C242.682 84.1303 254.371 84.6252 256.869 85.6258C259.368 86.6265 259.303 85.5936 258.949 85.1955Z" fill="#1A365D"/>
<path opacity="0.2" d="M264.944 82.2682C266.248 83.2725 267.314 84.5551 268.064 86.0232C268.911 88.0352 269.801 86.7549 269.136 85.6251C267.902 84.3149 266.491 83.1849 264.944 82.2682Z" fill="#1A365D"/>
<path d="M244.591 109.339C246.286 111.239 248.472 112.632 250.907 113.363L251.379 115.203C251.379 115.203 247.508 114.644 244.591 109.339Z" fill="#1A365D"/>
<path opacity="0.2" d="M244.591 109.339C246.286 111.239 248.472 112.632 250.907 113.363L251.379 115.203C251.379 115.203 247.508 114.644 244.591 109.339Z" fill="white"/>
<path d="M240.409 104.368C241.165 106.399 242.686 108.049 244.644 108.963C247.25 110.168 249.009 107.887 248.666 105.218C248.344 102.808 246.618 99.204 243.808 99.1717C240.999 99.1394 239.497 101.84 240.409 104.368Z" fill="#E4897B"/>
<path d="M195.768 160.607L185.184 167.988C185.184 167.988 142.065 178.554 125.734 186.343C103.086 197.167 55.7639 237.806 55.7639 237.806L61.2006 243.067C61.2006 243.067 116.694 212.037 127.76 207.228C138.827 202.418 189.805 198.781 189.805 198.781C189.805 198.781 212.957 236.235 214.105 242.744C215.252 249.254 158.676 263.112 158.676 263.112L162.482 273.269C162.482 273.269 221.761 263.069 231.519 255.806C241.277 248.544 222.941 194.833 222.941 194.833L227.005 182.782L195.768 160.607Z" fill="#E4897B"/>
<path d="M195.767 160.619L183.639 166.633L143.202 179.125L149.421 204.302L189.301 201.257L207.96 233.32L234.382 228.78L224.367 193.22L228.892 180.825L195.767 160.619Z" fill="#1A365D"/>
<path opacity="0.4" d="M195.767 160.619L183.639 166.633L143.202 179.125L149.421 204.302L189.301 201.257L207.96 233.32L234.382 228.78L224.367 193.22L228.892 180.825L195.767 160.619Z" fill="white"/>
<path d="M198.138 156.562L232.495 179.124L227.831 188.485L190.353 162.092L198.138 156.562Z" fill="#1A365D"/>
<path d="M163.855 171.958L174.686 168.677L180.959 202.752L169.817 203.709L163.855 171.958Z" fill="#1A365D"/>
<path d="M193.258 209.779L226.661 199.449L229.525 209.025L198.877 219.139L193.258 209.779Z" fill="#1A365D"/>
<path d="M194.631 157.412L231.52 183.202L230.168 185.612L192.519 159.327L194.631 157.412Z" fill="#F5AC0A"/>
<path d="M171.726 168.677L177.452 203.709H173.849L167.587 170.075L171.726 168.677Z" fill="#F5AC0A"/>
<path d="M194.256 212.812L228.367 202.429L229.525 205.937L196.325 216.363L194.256 212.812Z" fill="#F5AC0A"/>
<path d="M162.697 274.163L163.855 263.318C163.872 263.139 163.828 262.96 163.73 262.81C163.633 262.659 163.488 262.546 163.319 262.489L155.587 259.885C155.423 259.832 155.249 259.811 155.076 259.825C154.903 259.838 154.735 259.886 154.581 259.965C154.426 260.044 154.289 260.152 154.177 260.285C154.064 260.417 153.979 260.57 153.925 260.735C153.894 260.83 153.872 260.927 153.861 261.026C153.55 264.533 153.486 267.116 153.024 271.516C152.735 274.238 151.577 282.394 151.18 286.138C150.783 289.883 154.397 290.765 154.922 289.269C157.153 282.545 159.769 277.595 161.978 275.605C162.395 275.236 162.653 274.719 162.697 274.163Z" fill="#F5AC0A"/>
<path d="M55.0563 236.537L63.5491 243.348C63.6846 243.462 63.7781 243.618 63.8151 243.792C63.852 243.965 63.8301 244.146 63.7529 244.305L60.1498 251.654C59.9934 251.968 59.7191 252.207 59.3873 252.318C59.0555 252.429 58.6933 252.403 58.3805 252.246C58.2921 252.202 58.2093 252.148 58.1339 252.085C55.4209 249.836 53.5657 248.061 50.1128 245.285C47.9681 243.585 41.4055 238.657 38.478 236.3C35.5505 233.944 37.4807 230.738 38.8962 231.426C45.223 234.579 50.5739 236.204 53.5335 236.042C54.0858 236.004 54.6314 236.181 55.0563 236.537Z" fill="#F5AC0A"/>
<path d="M206.051 156.745C206.471 156.2 206.667 155.515 206.598 154.83C206.552 154.394 206.397 153.978 206.148 153.619C205.898 153.259 205.563 152.969 205.172 152.774C204.809 152.595 204.41 152.502 204.005 152.502C203.6 152.503 203.201 152.596 202.838 152.776C202.475 152.956 202.158 153.218 201.912 153.54C201.666 153.862 201.497 154.237 201.419 154.636C201.335 155.062 201.361 155.503 201.494 155.916C201.609 156.283 201.597 156.678 201.461 157.037C201.325 157.396 201.072 157.698 200.743 157.896C200.093 158.315 199.582 158.919 199.275 159.63C198.969 160.342 198.881 161.13 199.024 161.892C199.166 162.654 199.532 163.356 200.074 163.909C200.617 164.461 201.311 164.838 202.069 164.992C202.826 165.146 203.612 165.069 204.326 164.772C205.04 164.475 205.649 163.971 206.076 163.324C206.503 162.678 206.727 161.918 206.721 161.143C206.715 160.367 206.478 159.611 206.041 158.972C205.793 158.654 205.659 158.261 205.661 157.856C205.663 157.452 205.8 157.061 206.051 156.745ZM202.266 154.797C202.331 154.455 202.496 154.139 202.74 153.891C202.984 153.642 203.295 153.472 203.636 153.401C203.976 153.33 204.329 153.362 204.652 153.492C204.974 153.623 205.25 153.846 205.446 154.134C205.642 154.422 205.748 154.762 205.752 155.11C205.756 155.459 205.656 155.801 205.466 156.093C205.276 156.385 205.004 156.614 204.685 156.751C204.365 156.888 204.012 156.927 203.671 156.863C203.443 156.82 203.226 156.733 203.032 156.606C202.838 156.479 202.671 156.315 202.541 156.123C202.41 155.931 202.319 155.715 202.272 155.488C202.224 155.26 202.223 155.025 202.266 154.797ZM202.373 163.771C201.856 163.675 201.379 163.428 201.002 163.061C200.625 162.694 200.365 162.222 200.255 161.707C200.145 161.191 200.189 160.655 200.382 160.164C200.576 159.674 200.909 159.252 201.342 158.952C201.774 158.652 202.285 158.487 202.81 158.478C203.336 158.47 203.852 158.617 204.294 158.902C204.736 159.188 205.084 159.598 205.293 160.081C205.503 160.565 205.565 161.1 205.472 161.619C205.41 161.965 205.281 162.295 205.091 162.59C204.902 162.886 204.656 163.141 204.368 163.341C204.08 163.54 203.756 163.681 203.414 163.755C203.071 163.829 202.718 163.834 202.373 163.771Z" fill="#1A365D"/>
<path opacity="0.4" d="M206.051 156.745C206.471 156.2 206.667 155.515 206.598 154.83C206.552 154.394 206.397 153.978 206.148 153.619C205.898 153.259 205.563 152.969 205.172 152.774C204.809 152.595 204.41 152.502 204.005 152.502C203.6 152.503 203.201 152.596 202.838 152.776C202.475 152.956 202.158 153.218 201.912 153.54C201.666 153.862 201.497 154.237 201.419 154.636C201.335 155.062 201.361 155.503 201.494 155.916C201.609 156.283 201.597 156.678 201.461 157.037C201.325 157.396 201.072 157.698 200.743 157.896C200.093 158.315 199.582 158.919 199.275 159.63C198.969 160.342 198.881 161.13 199.024 161.892C199.166 162.654 199.532 163.356 200.074 163.909C200.617 164.461 201.311 164.838 202.069 164.992C202.826 165.146 203.612 165.069 204.326 164.772C205.04 164.475 205.649 163.971 206.076 163.324C206.503 162.678 206.727 161.918 206.721 161.143C206.715 160.367 206.478 159.611 206.041 158.972C205.793 158.654 205.659 158.261 205.661 157.856C205.663 157.452 205.8 157.061 206.051 156.745ZM202.266 154.797C202.331 154.455 202.496 154.139 202.74 153.891C202.984 153.642 203.295 153.472 203.636 153.401C203.976 153.33 204.329 153.362 204.652 153.492C204.974 153.623 205.25 153.846 205.446 154.134C205.642 154.422 205.748 154.762 205.752 155.11C205.756 155.459 205.656 155.801 205.466 156.093C205.276 156.385 205.004 156.614 204.685 156.751C204.365 156.888 204.012 156.927 203.671 156.863C203.443 156.82 203.226 156.733 203.032 156.606C202.838 156.479 202.671 156.315 202.541 156.123C202.41 155.931 202.319 155.715 202.272 155.488C202.224 155.26 202.223 155.025 202.266 154.797ZM202.373 163.771C201.856 163.675 201.379 163.428 201.002 163.061C200.625 162.694 200.365 162.222 200.255 161.707C200.145 161.191 200.189 160.655 200.382 160.164C200.576 159.674 200.909 159.252 201.342 158.952C201.774 158.652 202.285 158.487 202.81 158.478C203.336 158.47 203.852 158.617 204.294 158.902C204.736 159.188 205.084 159.598 205.293 160.081C205.503 160.565 205.565 161.1 205.472 161.619C205.41 161.965 205.281 162.295 205.091 162.59C204.902 162.886 204.656 163.141 204.368 163.341C204.08 163.54 203.756 163.681 203.414 163.755C203.071 163.829 202.718 163.834 202.373 163.771Z" fill="white"/>
<path d="M209.547 162.136C210.235 162.155 210.902 161.9 211.402 161.426C211.725 161.13 211.966 160.756 212.103 160.339C212.24 159.923 212.268 159.478 212.185 159.048C212.112 158.648 211.948 158.271 211.705 157.946C211.463 157.621 211.148 157.356 210.787 157.174C210.425 156.991 210.026 156.896 209.621 156.894C209.216 156.893 208.816 156.985 208.453 157.165C208.063 157.353 207.727 157.638 207.477 157.994C207.252 158.303 206.931 158.528 206.564 158.633C206.196 158.738 205.805 158.718 205.451 158.575C204.798 158.331 204.092 158.269 203.407 158.395C202.722 158.521 202.083 158.83 201.558 159.289C201.034 159.748 200.642 160.341 200.425 161.005C200.208 161.669 200.173 162.379 200.325 163.061C200.451 163.64 200.707 164.183 201.073 164.647C201.44 165.112 201.906 165.488 202.439 165.745C202.971 166.002 203.554 166.134 204.145 166.131C204.735 166.129 205.318 165.991 205.847 165.73C206.312 165.5 206.725 165.179 207.062 164.785C207.399 164.391 207.654 163.933 207.81 163.438C207.921 163.062 208.15 162.732 208.463 162.497C208.776 162.263 209.156 162.136 209.547 162.136ZM208.829 157.929C209.141 157.776 209.491 157.719 209.836 157.765C210.18 157.812 210.503 157.96 210.764 158.19C211.024 158.421 211.211 158.724 211.3 159.061C211.39 159.398 211.378 159.754 211.265 160.084C211.153 160.414 210.946 160.703 210.67 160.915C210.395 161.127 210.062 161.252 209.716 161.275C209.369 161.298 209.023 161.217 208.722 161.043C208.421 160.868 208.178 160.609 208.024 160.296C207.82 159.875 207.79 159.39 207.941 158.946C208.091 158.503 208.41 158.137 208.829 157.929ZM201.74 163.406C201.508 162.932 201.421 162.4 201.49 161.877C201.559 161.354 201.781 160.863 202.128 160.466C202.476 160.07 202.932 159.785 203.44 159.649C203.948 159.513 204.485 159.531 204.983 159.701C205.481 159.871 205.918 160.186 206.238 160.605C206.558 161.023 206.746 161.528 206.78 162.055C206.814 162.582 206.692 163.106 206.428 163.563C206.165 164.02 205.773 164.388 205.301 164.621C204.668 164.934 203.937 164.981 203.27 164.753C202.602 164.525 202.052 164.04 201.74 163.406Z" fill="#1A365D"/>
<path opacity="0.6" d="M209.547 162.136C210.235 162.155 210.902 161.9 211.402 161.426C211.725 161.13 211.966 160.756 212.103 160.339C212.24 159.923 212.268 159.478 212.185 159.048C212.112 158.648 211.948 158.271 211.705 157.946C211.463 157.621 211.148 157.356 210.787 157.174C210.425 156.991 210.026 156.896 209.621 156.894C209.216 156.893 208.816 156.985 208.453 157.165C208.063 157.353 207.727 157.638 207.477 157.994C207.252 158.303 206.931 158.528 206.564 158.633C206.196 158.738 205.805 158.718 205.451 158.575C204.798 158.331 204.092 158.269 203.407 158.395C202.722 158.521 202.083 158.83 201.558 159.289C201.034 159.748 200.642 160.341 200.425 161.005C200.208 161.669 200.173 162.379 200.325 163.061C200.451 163.64 200.707 164.183 201.073 164.647C201.44 165.112 201.906 165.488 202.439 165.745C202.971 166.002 203.554 166.134 204.145 166.131C204.735 166.129 205.318 165.991 205.847 165.73C206.312 165.5 206.725 165.179 207.062 164.785C207.399 164.391 207.654 163.933 207.81 163.438C207.921 163.062 208.15 162.732 208.463 162.497C208.776 162.263 209.156 162.136 209.547 162.136ZM208.829 157.929C209.141 157.776 209.491 157.719 209.836 157.765C210.18 157.812 210.503 157.96 210.764 158.19C211.024 158.421 211.211 158.724 211.3 159.061C211.39 159.398 211.378 159.754 211.265 160.084C211.153 160.414 210.946 160.703 210.67 160.915C210.395 161.127 210.062 161.252 209.716 161.275C209.369 161.298 209.023 161.217 208.722 161.043C208.421 160.868 208.178 160.609 208.024 160.296C207.82 159.875 207.79 159.39 207.941 158.946C208.091 158.503 208.41 158.137 208.829 157.929ZM201.74 163.406C201.508 162.932 201.421 162.4 201.49 161.877C201.559 161.354 201.781 160.863 202.128 160.466C202.476 160.07 202.932 159.785 203.44 159.649C203.948 159.513 204.485 159.531 204.983 159.701C205.481 159.871 205.918 160.186 206.238 160.605C206.558 161.023 206.746 161.528 206.78 162.055C206.814 162.582 206.692 163.106 206.428 163.563C206.165 164.02 205.773 164.388 205.301 164.621C204.668 164.934 203.937 164.981 203.27 164.753C202.602 164.525 202.052 164.04 201.74 163.406Z" fill="white"/>
<path d="M201.966 162.899C202.053 162.62 202.208 162.368 202.418 162.165C202.627 161.962 202.884 161.815 203.165 161.738C203.446 161.661 203.741 161.656 204.025 161.723C204.308 161.791 204.57 161.929 204.786 162.124C206.073 163.318 206.277 166.611 206.277 166.611C206.189 166.829 206.05 167.024 205.87 167.176C205.691 167.328 205.477 167.434 205.247 167.483C205.017 167.533 204.779 167.526 204.553 167.462C204.327 167.398 204.119 167.279 203.95 167.116C203.95 167.116 203.95 164.426 203.253 163.652C203.103 163.443 202.911 163.268 202.689 163.138C202.467 163.008 202.221 162.927 201.966 162.899Z" fill="#F5AC0A"/>
<path d="M203.585 154.743C203.3 154.743 203.028 154.629 202.827 154.428C202.625 154.226 202.512 153.952 202.512 153.667C202.512 152.526 203.81 39.4232 203.81 31.8593C203.81 26.2536 194.159 21.6056 177.988 19.4429C177.707 19.4054 177.452 19.2575 177.279 19.0316C177.106 18.8057 177.03 18.5203 177.066 18.2379C177.103 17.9555 177.251 17.6996 177.476 17.5262C177.701 17.3527 177.986 17.2759 178.267 17.3125C188.604 18.7005 205.955 22.4233 205.955 31.8593C205.955 39.3909 204.679 152.548 204.657 153.688C204.652 153.97 204.536 154.238 204.336 154.435C204.135 154.632 203.866 154.743 203.585 154.743Z" fill="#F5AC0A"/>
<path opacity="0.3" d="M203.585 154.743C203.3 154.743 203.028 154.629 202.827 154.428C202.625 154.226 202.512 153.952 202.512 153.667C202.512 152.526 203.81 39.4232 203.81 31.8593C203.81 26.2536 194.159 21.6056 177.988 19.4429C177.707 19.4054 177.452 19.2575 177.279 19.0316C177.106 18.8057 177.03 18.5203 177.066 18.2379C177.103 17.9555 177.251 17.6996 177.476 17.5262C177.701 17.3527 177.986 17.2759 178.267 17.3125C188.604 18.7005 205.955 22.4233 205.955 31.8593C205.955 39.3909 204.679 152.548 204.657 153.688C204.652 153.97 204.536 154.238 204.336 154.435C204.135 154.632 203.866 154.743 203.585 154.743Z" fill="#1A365D"/>
<path d="M274.798 211.177C235.487 211.177 208.914 160.607 208.646 160.016C208.517 159.764 208.492 159.472 208.577 159.202C208.661 158.932 208.848 158.706 209.097 158.574C209.222 158.508 209.359 158.469 209.499 158.457C209.64 158.445 209.782 158.46 209.916 158.503C210.051 158.546 210.175 158.616 210.283 158.707C210.391 158.799 210.48 158.91 210.544 159.036C210.834 159.585 239.315 213.845 280.299 208.68C321.284 203.516 343.76 118.925 343.985 118.065C344.014 117.921 344.072 117.784 344.155 117.663C344.238 117.542 344.345 117.44 344.469 117.362C344.593 117.285 344.732 117.233 344.877 117.211C345.022 117.189 345.169 117.197 345.311 117.235C345.452 117.272 345.585 117.339 345.7 117.429C345.815 117.52 345.91 117.634 345.98 117.763C346.049 117.892 346.092 118.034 346.105 118.18C346.118 118.326 346.101 118.474 346.055 118.613C345.143 122.153 323.01 205.453 280.567 210.811C278.654 211.054 276.727 211.176 274.798 211.177Z" fill="#F5AC0A"/>
<path opacity="0.3" d="M274.798 211.177C235.487 211.177 208.914 160.607 208.646 160.016C208.517 159.764 208.492 159.472 208.577 159.202C208.661 158.932 208.848 158.706 209.097 158.574C209.222 158.508 209.359 158.469 209.499 158.457C209.64 158.445 209.782 158.46 209.916 158.503C210.051 158.546 210.175 158.616 210.283 158.707C210.391 158.799 210.48 158.91 210.544 159.036C210.834 159.585 239.315 213.845 280.299 208.68C321.284 203.516 343.76 118.925 343.985 118.065C344.014 117.921 344.072 117.784 344.155 117.663C344.238 117.542 344.345 117.44 344.469 117.362C344.593 117.285 344.732 117.233 344.877 117.211C345.022 117.189 345.169 117.197 345.311 117.235C345.452 117.272 345.585 117.339 345.7 117.429C345.815 117.52 345.91 117.634 345.98 117.763C346.049 117.892 346.092 118.034 346.105 118.18C346.118 118.326 346.101 118.474 346.055 118.613C345.143 122.153 323.01 205.453 280.567 210.811C278.654 211.054 276.727 211.176 274.798 211.177Z" fill="#1A365D"/>
<path d="M188.787 17.6045C188.787 17.6045 203.102 26.6317 203.992 32.9259C204.883 39.2202 190.352 51.0448 190.352 51.0448L188.787 63.6333C188.787 63.6333 145.132 87.0028 143.202 83.549C141.272 80.0953 125.38 87.6914 125.38 87.6914C125.38 87.6914 99.9333 126.598 99.9333 130.299C99.9333 134 57.9837 164.094 55.7639 169.764C53.5442 175.435 47.1853 170.905 47.1853 170.905C47.1853 170.905 25.8458 210.403 27.5401 213.631C29.2344 216.858 38.4994 236.301 38.4994 236.301L50.1235 245.285C50.1235 245.285 46.1987 268.514 41.1159 269.644C36.033 270.774 36.9659 289.958 36.9659 289.958L19.058 309.938L14.522 340C14.522 340 11.0905 299.727 8.30248 295.746C5.51442 291.765 8.30248 248.846 8.30248 248.846C8.30248 248.846 4.16328 236.688 0.860494 234.439C-2.44229 232.191 3.00516 168.613 0.860494 166.913C-1.28417 165.213 9.43915 145.34 9.43915 145.34C9.43915 145.34 23.3795 147.772 24.0336 135.786C24.6877 123.8 23.3473 103.895 24.0336 98.5154C24.7199 93.1357 31.7008 75.1352 36.9659 66.2371C42.2311 57.3391 56.7397 20.5633 56.7397 20.5633C56.7397 20.5633 75.6128 32.5171 77.8754 30.1823C80.138 27.8475 101.906 10.0514 101.906 10.0514L188.787 17.6045Z" fill="#0AB9AD"/>
<path opacity="0.4" d="M190.352 50.0989L188.787 62.6874C188.787 62.6874 145.132 86.0569 143.202 82.6031C142.96 82.2882 142.642 82.0407 142.278 81.8844C141.914 81.728 141.516 81.668 141.122 81.7101C136.275 81.5164 125.38 86.7455 125.38 86.7455C125.38 86.7455 99.9333 125.652 99.9333 129.353C99.9333 133.054 57.9837 163.148 55.7639 168.818C53.5442 174.489 47.1853 169.959 47.1853 169.959C47.1853 169.959 25.8458 209.457 27.5401 212.685C29.2344 215.912 38.4994 235.355 38.4994 235.355L50.1235 244.339C50.1235 244.339 46.1987 267.568 41.1159 268.698C36.033 269.828 36.9767 289.012 36.9767 289.012L19.0473 308.992L14.522 339.054C14.522 339.054 12.1629 310.606 9.68579 299.169C9.45197 297.65 8.98535 296.176 8.30248 294.801C5.47153 290.83 8.30248 247.9 8.30248 247.9C8.30248 247.9 4.16328 235.742 0.860494 233.493C-2.44229 231.245 3.00516 167.667 0.860494 165.967C-1.28417 164.267 9.43915 144.395 9.43915 144.395C10.2269 144.518 11.0225 144.582 11.8197 144.588C15.8195 144.674 23.5296 143.684 24.0336 134.84C24.1944 132.032 24.2373 128.783 24.2159 125.393C24.2159 114.311 23.5082 101.723 24.0336 97.5695C24.7092 92.1898 31.7008 74.1892 36.9767 65.2912C39.6039 60.8691 44.483 49.4748 48.7723 39.1781C53.0616 28.8813 56.6968 19.6174 56.6968 19.6174C56.6968 19.6174 75.5699 31.5712 77.8325 29.2364C80.0951 26.9016 101.863 9.10547 101.863 9.10547L188.722 16.6371C188.722 16.6371 203.038 25.6642 203.928 31.9585C204.818 38.2528 190.352 50.0989 190.352 50.0989Z" fill="white"/>
<path opacity="0.1" d="M130.902 78.2443L141.122 82.6557C136.275 82.462 125.38 87.6911 125.38 87.6911C125.38 87.6911 99.9334 126.597 99.9334 130.298C99.9334 134 57.9838 164.094 55.764 169.764C53.5443 175.434 47.1854 170.905 47.1854 170.905C47.1854 170.905 25.846 210.402 27.5402 213.63C29.2345 216.858 38.4995 236.3 38.4995 236.3L50.1236 245.284C50.1236 245.284 46.1988 268.514 41.116 269.644C36.0331 270.774 36.9768 289.958 36.9768 289.958L19.0474 309.938L14.5221 340C14.5221 340 12.163 311.552 9.68591 300.114L12.163 296.607L20.2162 303.235L33.3737 287.913L24.0659 280.855L13.8573 266.384L19.3691 261.865L29.9744 270.214L42.1883 264.253L43.8933 250.632L29.8887 241.863L11.659 244.252L10.3829 231.34L21.8354 215.201L24.3876 175.918L5.729 168.72L21.814 166.127L24.3661 155.131L11.8091 145.545C15.8089 145.631 23.519 144.641 24.023 135.797C24.1838 132.988 24.2267 129.739 24.2053 126.35L36.966 125.521L42.6601 155.142L52.4184 163.836L95.2259 130.309L98.2284 102.475L79.9988 88.2614L66.0584 105.907L42.6601 111.868L61.3294 97.6866L76.1705 77.3943L50.4345 51.0445L48.8368 40.156C53.1261 29.8269 56.7613 20.5953 56.7613 20.5953C56.7613 20.5953 75.6344 32.5491 77.897 30.2143L76.2027 50.3452L82.1434 75.6944L118.603 83.5487L130.902 78.2443Z" fill="#1A365D"/>
<path opacity="0.1" d="M190.352 51.0435L188.787 63.6321C188.787 63.6321 145.132 87.0015 143.202 83.5478L172.519 65.4719H151.148L127.074 51.0435L169.688 42.6189L190.352 51.0435Z" fill="#1A365D"/>
<path d="M206.748 170.829L203.992 185.613L176.573 186.194V189.421L203.992 188.485L208.035 206.303L211.359 205.152L206.748 188.485L209.59 173.164L206.748 170.829Z" fill="#1A365D"/>
<path d="M52.4721 304.311C42.1792 304.275 31.9018 303.506 21.7176 302.008C21.4332 301.967 21.1768 301.814 21.0049 301.583C20.833 301.351 20.7595 301.061 20.8008 300.776C20.842 300.491 20.9945 300.233 21.2248 300.061C21.4551 299.888 21.7442 299.815 22.0286 299.856C69.3292 306.699 108.888 298.156 139.685 274.453C191.843 234.277 200.808 163.47 200.861 162.759C200.896 162.474 201.041 162.214 201.267 162.036C201.492 161.859 201.778 161.778 202.062 161.813C202.347 161.847 202.606 161.993 202.783 162.219C202.96 162.445 203.04 162.732 203.006 163.018C202.92 163.728 193.902 235.407 141.025 276.142C116.694 294.885 87.0012 304.311 52.4721 304.311Z" fill="#F5AC0A"/>
<path opacity="0.3" d="M52.4721 304.311C42.1792 304.275 31.9018 303.506 21.7176 302.008C21.4332 301.967 21.1768 301.814 21.0049 301.583C20.833 301.351 20.7595 301.061 20.8008 300.776C20.842 300.491 20.9945 300.233 21.2248 300.061C21.4551 299.888 21.7442 299.815 22.0286 299.856C69.3292 306.699 108.888 298.156 139.685 274.453C191.843 234.277 200.808 163.47 200.861 162.759C200.896 162.474 201.041 162.214 201.267 162.036C201.492 161.859 201.778 161.778 202.062 161.813C202.347 161.847 202.606 161.993 202.783 162.219C202.96 162.445 203.04 162.732 203.006 163.018C202.92 163.728 193.902 235.407 141.025 276.142C116.694 294.885 87.0012 304.311 52.4721 304.311Z" fill="#1A365D"/>
<path d="M196.508 181.482L196.969 180.406L197.248 180.664L196.947 181.848L196.508 181.482Z" fill="#1A365D"/>
<path d="M203.821 186.085C202.663 186.677 201.076 185.515 200.411 184.902L198.727 183.395L199.017 182.244C200.154 183.306 201.422 184.218 202.791 184.955C202.97 184.996 203.156 184.998 203.336 184.961C203.516 184.924 203.686 184.849 203.835 184.741C203.984 184.634 204.109 184.495 204.201 184.336C204.292 184.176 204.349 183.998 204.368 183.815C204.475 183.148 199.531 177.198 199.242 177.09C198.073 176.638 196.818 177.23 196.175 179.081C195.907 179.845 196.968 180.404 196.968 180.404L196.132 181.319C196.132 181.319 194.384 179.931 194.481 178.962C194.749 176.294 198.963 174.035 200.378 175.735C203.016 178.962 205.386 181.846 205.74 183.654C205.933 184.912 204.85 185.547 203.821 186.085Z" fill="#1A365D"/>
<path opacity="0.6" d="M196.508 181.482L196.969 180.406L197.248 180.664L196.947 181.848L196.508 181.482Z" fill="white"/>
<path opacity="0.6" d="M203.821 186.085C202.663 186.677 201.076 185.515 200.411 184.902L198.727 183.395L199.017 182.244C200.154 183.306 201.422 184.218 202.791 184.955C202.97 184.996 203.156 184.998 203.336 184.961C203.516 184.924 203.686 184.849 203.835 184.741C203.984 184.634 204.109 184.495 204.201 184.336C204.292 184.176 204.349 183.998 204.368 183.815C204.475 183.148 199.531 177.198 199.242 177.09C198.073 176.638 196.818 177.23 196.175 179.081C195.907 179.845 196.968 180.404 196.968 180.404L196.132 181.319C196.132 181.319 194.384 179.931 194.481 178.962C194.749 176.294 198.963 174.035 200.378 175.735C203.016 178.962 205.386 181.846 205.74 183.654C205.933 184.912 204.85 185.547 203.821 186.085Z" fill="white"/>
<path d="M204.035 183.644L206.169 186.463L204.336 188.055L202.534 184.569L204.035 183.644Z" fill="#1A365D"/>
</g>
</g>
<defs>
<clipPath id="clip0_1569_1730">
<rect width="375" height="270" fill="white"/>
</clipPath>
<clipPath id="clip1_1569_1730">
<rect width="424" height="345" fill="white" transform="translate(-60 -26)"/>
</clipPath>
</defs>
</svg>
