<svg width="350" height="338" viewBox="0 0 350 338" fill="none" xmlns="http://www.w3.org/2000/svg">
<g opacity="0.5" clip-path="url(#clip0_1066_1208)">
<path d="M230.289 94.2816C230.289 94.2816 223.046 76.8556 205.048 78.5039C205.048 78.5039 179.414 49.2545 151.21 73.8293C151.21 73.8293 121.741 67.1815 99.6644 78.406C84.9457 85.8916 80 93.9018 80 93.9018L230.285 94.2816H230.289Z" fill="#F8FCFF"/>
<path d="M172.976 37.1618C172.976 37.1618 164.661 15.7464 143.944 17.794C143.944 17.794 114.475 -18.1384 81.9837 12.1132C81.9837 12.1132 48.0734 3.97384 22.6515 17.8018C5.70229 27.0218 0 36.876 0 36.876L172.976 37.1618Z" fill="#F8FCFF"/>
<path d="M212.34 46.7574C212.34 46.7574 216.12 37.4631 225.148 38.5006C225.148 38.5006 238.263 23.0126 252.237 36.4452C252.237 36.4452 267.097 33.1252 278.1 39.3345C285.434 43.4766 287.857 47.8184 287.857 47.8184L212.344 46.7613L212.34 46.7574Z" fill="#F8FCFF"/>
</g>
<g clip-path="url(#clip1_1066_1208)">
<path d="M113.181 82.1624C113.181 82.1624 109.568 89.658 100.004 86.8477C90.4408 84.042 83.3799 93.0764 88.3991 96.9463C93.4136 100.816 77.5773 100.489 74.4386 108.644C71.3 116.798 69.3965 128.712 86.5739 127.385C103.751 126.058 115.2 90.7913 115.2 90.7913L113.181 82.1624Z" fill="#1A365D"/>
<path d="M135.654 56.446C137.549 64.1168 131.778 72.133 122.763 74.3582C113.748 76.5834 104.904 72.1699 103.009 64.5037C101.115 56.833 106.886 48.8168 115.901 46.5916C124.916 44.3664 133.76 48.7799 135.654 56.446Z" fill="#ED7D2B"/>
<path d="M154.855 58.3166C156.284 64.0985 142.227 72.5432 123.459 77.1779C104.692 81.8125 88.3163 80.8819 86.8875 75.0955C85.4588 69.3136 99.516 60.8689 118.284 56.2343C137.051 51.5996 153.427 52.5302 154.855 58.3166Z" fill="#F5AC0A"/>
<path d="M127.165 72.6305C125.639 73.1372 124.026 73.6072 122.344 74.0218C114.384 75.989 107.181 76.1871 103.715 74.7958C102.544 74.3259 101.797 73.6717 101.595 72.8424C101.327 71.7643 102.009 70.5251 103.42 69.2489C106.31 66.6459 112.255 63.9047 119.408 62.1402C126.193 60.4633 132.424 60.0717 136.263 60.8549C138.452 61.2972 139.863 62.1264 140.158 63.3196C140.844 66.0839 135.295 69.9215 127.165 72.6305Z" fill="#ED7D2B"/>
<path d="M212.499 60.505C212.499 60.505 240.595 54.7231 257.846 66.8166C270.461 75.6621 265.811 158.391 253.583 162.597C241.351 166.803 221.63 162.832 221.63 162.832L212.504 60.505H212.499Z" fill="#0CA89D"/>
<path d="M80.2177 153.635L73.6405 178.292L75.4575 178.776L82.0347 154.119L80.2177 153.635Z" fill="#1A365D"/>
<path d="M205.484 76.5469C209.591 77.6019 213.176 76.8832 216.108 75.4965C218.79 74.2342 220.919 72.4144 222.385 70.9033C223.887 69.3507 224.699 68.116 224.699 68.116C224.699 68.116 224.533 67.9686 224.242 67.6646C222.726 66.0751 217.887 60.2242 216.822 49.2318C216.808 49.089 215.799 49.5359 214.296 50.2868C209.821 52.5304 200.926 57.4922 200.534 57.7134C200.525 57.7134 200.516 57.7134 200.516 57.7134C200.516 57.7134 200.93 59.98 201.488 64.0849C201.539 64.4488 201.59 64.8266 201.645 65.2182C201.709 65.702 201.778 66.2133 201.838 66.7385C202.387 71.0139 205.484 76.5377 205.484 76.5377V76.5469Z" fill="#D3956A"/>
<path d="M201.488 64.0937C208.955 64.0384 217.043 51.088 217.043 51.088C216.135 50.6964 215.213 50.4338 214.296 50.2864C209.821 52.53 200.926 57.4918 200.534 57.7129C200.525 57.7129 200.516 57.7129 200.516 57.7129C200.516 57.7129 200.93 59.9796 201.488 64.0845V64.0937Z" fill="#BF865D"/>
<path d="M197.465 57.842C197.465 57.842 200.622 58.1968 204.452 57.819C210.052 57.2662 217.089 55.1423 217.776 48.0475C218.933 36.106 222.187 28.3386 210.006 26.4543C203.484 25.4453 199.649 26.2193 197.28 27.7535C195.225 29.0803 194.275 30.983 193.644 32.7936C192.289 36.6865 192.51 56.9713 197.465 57.8374V57.842Z" fill="#D3956A"/>
<path d="M191.224 26.3254C188.86 27.5278 188.666 31.7525 191.445 32.8259C196.428 34.7563 201.392 32.3606 203.521 32.7614C206.577 33.3327 208.171 37.8522 208.568 39.308C208.969 40.7685 209.453 41.9663 213.001 40.1972C213.582 39.9069 214.034 39.8471 214.384 39.9576C216.159 40.5105 215.232 45.4584 214.859 46.5687C214.859 46.5687 214.753 49.9779 217.043 51.0882C217.32 51.2218 221.473 51.9728 227.257 35.9449C228.165 33.4294 228.363 28.1959 225.045 23.9942C221.726 19.788 213.536 15.5495 205.369 17.4799C198.907 19.0094 196.234 23.7731 191.224 26.3208V26.3254Z" fill="#1A365D"/>
<path d="M195.69 50.7291C195.69 50.7291 195.796 52.2172 199.396 52.5674C199.396 52.5674 202.414 52.8622 202.58 51.2774C202.58 51.2774 199.861 49.6926 195.695 50.7291H195.69Z" fill="white"/>
<path d="M72.8762 315.762C72.8762 315.762 68.1014 320.116 69.0324 323.212C69.9634 326.308 74.2727 328.372 74.8534 332.154C75.4342 335.937 77.7617 338.001 79.8587 338.001C81.9558 338.001 89.8509 338.001 89.8509 338.001C89.8509 338.001 91.3949 335.338 87.6708 334.536C83.9468 333.73 82.5411 329.289 82.7762 325.161C83.0112 321.033 82.4305 315.532 82.4305 315.532L74.5124 313.694L72.8808 315.758L72.8762 315.762Z" fill="#1A365D"/>
<path d="M113.283 318.075C113.283 318.075 111.559 336.522 113.656 337.558L140.48 337.512C140.48 337.512 140.48 334.416 136.176 333.73C131.866 333.039 124.298 330.519 123.022 324.903C121.74 319.287 113.288 318.08 113.288 318.08L113.283 318.075Z" fill="#1A365D"/>
<path d="M135.235 166.222C135.235 166.222 142.96 190.285 143.453 198.476C143.946 206.668 128.63 314.845 128.013 318.619C127.432 322.175 123.012 324.442 123.012 324.442C123.012 324.442 120.98 325.64 118.076 324.82C114.052 323.682 112.78 322.323 112.78 322.323C112.78 322.323 106.789 245.164 110.522 217.605C114.255 190.045 114.306 166.208 114.306 166.208L135.23 166.218L135.235 166.222Z" fill="#D99A10"/>
<path d="M102.47 165.494C102.47 165.494 90.6668 181.31 89.5653 192.008C88.4637 202.701 87.8231 240.271 85.4771 250.697C83.1312 261.123 74.5171 281.182 74.5033 313.703C74.5033 313.703 75.3974 315.569 78.1582 316.559C79.0431 316.877 80.223 317.186 81.3752 317.448C83.652 317.969 85.9933 316.859 87.0303 314.767C92.856 303.056 111.407 265.287 112.356 257.446C113.029 251.899 118.896 215.172 131.672 193.625C134.737 188.451 129.801 167.876 129.801 167.876L102.466 165.499L102.47 165.494Z" fill="#F5AC0A"/>
<path d="M137.659 63.3237L134.322 66.2814L127.741 72.1185L127.16 72.6299L122.496 76.767L113.061 85.1242C113.061 85.1242 112.232 80.6553 109.665 81.457C107.36 82.1757 104.687 79.3055 103.705 74.7952C103.341 73.1413 103.208 71.257 103.41 69.2529C106.097 66.8342 111.43 64.2911 117.915 62.5313C118.403 62.3977 118.896 62.2687 119.399 62.1443C123.528 61.1261 127.455 60.5779 130.76 60.4857C132.884 60.4258 134.756 60.5548 136.254 60.8589C136.825 61.7987 137.24 62.5405 137.461 62.9597C137.59 63.1947 137.655 63.3283 137.655 63.3283L137.659 63.3237Z" fill="#1A365D"/>
<path d="M124.533 123.782C107.826 125.422 105.116 98.2591 106.144 98.3466C108.167 97.1672 111.725 91.7033 113.656 82.7288L114.384 83.042L126.58 88.3401C126.58 88.3401 125.386 92.4128 124.524 96.2965C123.957 98.8488 123.538 101.327 123.695 102.525C123.741 102.88 126.312 104.225 126.317 104.234C126.446 104.543 128.995 123.354 124.538 123.791L124.533 123.782Z" fill="#FFB27D"/>
<path d="M143.95 135.503C145.785 145.864 144.845 198.55 144.845 198.55C111.218 207.502 85.7305 195.583 85.7305 195.583C85.712 181.14 87.5556 143.74 90.8833 121.917C94.068 101.024 107.116 97.5593 107.116 97.5593C122.818 110.777 123.865 99.7292 123.865 99.7292C130.008 102.461 135.424 104.608 138.424 108.298C147.435 119.369 143.651 133.817 143.95 135.503Z" fill="#8253F6"/>
<path d="M126.575 88.3406C126.575 88.3406 125.381 92.4086 124.519 96.297C117.422 94.5785 115.112 87.0829 114.38 83.0471L126.575 88.3452V88.3406Z" fill="#E0A278"/>
<path d="M128.156 92.5283C128.156 92.5283 111.19 89.2434 113.55 78.4215C115.91 67.5996 115.31 59.8874 126.243 61.5275C137.175 63.1676 138.369 67.7378 138.438 71.5294C138.507 75.321 132.631 93.1041 128.156 92.5283Z" fill="#FFB27D"/>
<path d="M136.724 79.0064C135.074 78.859 135.936 73.1094 135.696 70.1747C135.595 68.8755 134.977 67.4565 134.323 66.2817C133.894 65.4939 133.442 64.8121 133.115 64.3468C132.779 64.9964 130.88 68.5807 127.741 72.1189C126.257 73.782 124.496 75.4359 122.501 76.7674C120.851 77.8638 119.03 78.73 117.067 79.1999C117.067 79.1999 121.763 76.4587 125.722 72.1142C123.658 73.6899 121.371 74.8646 119.076 74.9798C111.564 75.353 108.914 72.75 108.914 72.75C108.914 72.75 114.993 69.6311 117.929 62.5316C118.417 62.398 118.91 62.269 119.413 62.1446C123.542 61.1265 127.469 60.5782 130.774 60.4861C131.797 61.0021 132.852 61.707 133.912 62.6468C134.825 62.1308 136.129 61.8313 137.48 62.9647C138.079 63.4622 138.678 64.25 139.263 65.4156C142.112 71.1237 136.738 79.0156 136.738 79.0156L136.724 79.0064Z" fill="#1A365D"/>
<path d="M125.183 85.0881C125.367 85.1526 126.547 87.3501 128.999 87.6957C131.446 88.0412 132.069 86.1846 132.069 86.1846C132.069 86.1846 130.594 85.3876 129.128 85.1664C127.662 84.9453 125.187 85.0881 125.187 85.0881H125.183Z" fill="white"/>
<path d="M184.076 72.8331C170.36 79.5916 164.714 118.005 158.75 134.319C153.381 149.01 188.593 146.394 188.593 146.394C188.593 146.394 196.783 66.5721 184.076 72.8331Z" fill="#F5AC0A"/>
<path d="M173.973 337.577L208.369 337.59C210.835 335.923 207.71 319.586 207.71 319.586C207.71 319.586 198.322 316.025 196.7 323.262C195.073 330.496 184.739 332.794 179.273 333.674C175.531 334.282 174.346 336.337 173.973 337.577Z" fill="#1A365D"/>
<path d="M224.985 337.59L259.381 337.604C261.847 335.937 258.722 319.6 258.722 319.6C258.722 319.6 249.334 316.034 247.711 323.276C246.084 330.509 235.751 332.808 230.285 333.688C226.542 334.296 225.363 336.351 224.985 337.59Z" fill="#1A365D"/>
<path d="M183.283 170.954C183.283 170.954 184.822 190.234 186.634 213.412C189.095 244.897 195.727 322.958 195.727 322.958C195.727 322.958 200.092 326.686 209.766 324.649C209.766 324.649 218.011 297.721 220.482 266.988C220.519 266.485 220.56 265.974 220.597 265.467C222.897 234.181 226.483 168.291 226.483 168.291L183.283 170.949V170.954Z" fill="#1A365D"/>
<path d="M182.758 164.292C182.758 164.292 184.822 190.235 186.634 213.413L220.482 266.993C220.518 266.49 220.56 265.979 220.597 265.472C222.897 234.186 226.482 168.296 226.482 168.296L182.758 164.288V164.292Z" fill="#1A365D"/>
<path d="M192.625 164.296C192.625 164.296 217.168 225.423 225.012 248.591C230.598 265.094 246.356 322.99 246.356 322.99C246.356 322.99 253.214 325.082 258.98 321.046C258.98 321.046 264.87 261.901 253.021 245.219C246.734 236.369 251.491 153.244 225.989 152.521C200.488 151.802 192.625 164.292 192.625 164.292V164.296Z" fill="#1A365D"/>
<path d="M242.513 161.689C242.789 163.803 241.821 165.397 240.333 166.545C239.037 167.544 237.346 168.208 235.733 168.581C235.733 168.581 232.53 169.272 228.483 169.958C224.529 170.622 219.744 171.271 216.38 171.248C199.129 171.106 184.703 166.024 184.703 166.024C181.458 166.024 179.979 161.007 179.449 154C179.094 149.259 179.177 143.602 179.43 137.981C179.518 136.161 179.619 134.337 179.734 132.554C179.96 129.011 180.232 125.616 180.472 122.603C180.698 119.783 180.905 117.309 181.03 115.388C181.03 115.388 180.573 101.972 180.758 90.1599C180.891 81.6921 182.122 74.7724 183.316 73.5146C186.768 69.8659 200.295 66.7699 202.3 66.4521C202.456 66.4336 202.535 66.4152 202.535 66.4152C210.762 71.0361 221.837 64.8027 221.837 64.8027C222.086 64.8442 222.335 64.9041 222.574 64.9594C222.786 64.9133 223.805 64.9732 225.28 65.1667C227.888 65.5076 231.926 66.2632 235.41 67.59C237.595 68.4193 239.558 69.4697 240.821 70.7781C244.596 74.7033 241.185 98.5861 241.185 98.5861C241.434 104.672 241.503 111.877 241.535 119.299C241.535 119.696 241.535 120.092 241.535 120.493C241.545 123.662 241.549 126.864 241.554 130.02C241.568 138.511 241.618 146.688 241.881 153.147C241.89 153.35 241.9 153.553 241.909 153.755C242.042 156.884 242.241 159.588 242.508 161.689H242.513Z" fill="#F5AC0A"/>
<path d="M183.131 118.015L184.385 134.056L169.254 125.86C169.254 125.86 178.504 121.475 179.214 113.325C179.923 105.175 181.85 99.0659 181.85 99.0659L183.127 118.015H183.131Z" fill="#D99A10"/>
<path d="M195.455 68.1064C192.487 77.5509 184.689 103.369 183.131 118.014C183.131 118.014 183.131 118.014 183.131 117.996C183.03 117.66 181.306 112.048 181.393 105.35C181.403 104.696 181.426 104.037 181.472 103.369C182.274 91.7313 184.818 81.5728 189.56 69.7512L195.455 68.1064Z" fill="#0CA89D"/>
<path d="M195.621 122.239C195.621 122.239 200.276 119.973 203.904 119.83C207.531 119.687 217.288 118.415 216.398 119.83C215.509 121.249 209.259 121.198 209.259 122.239C209.259 123.28 208.411 127.625 203.936 127.339C199.461 127.054 197.769 127.348 197.769 127.348L195.617 122.23L195.621 122.239Z" fill="#FFB27D"/>
<path d="M107.116 97.5593C107.116 97.5593 94.0819 99.8444 87.4911 107.824C80.905 115.803 74.5631 145.187 74.5631 145.187C74.5631 145.187 80.8912 150.047 94.2985 146.214L110.771 119.807L107.111 97.5593H107.116Z" fill="#8253F6"/>
<path d="M135.7 105.75C135.7 105.75 161.105 125.441 169.258 125.86C177.411 126.279 198.423 119.912 198.423 119.912L199.52 128.376C199.52 128.376 180.384 148.882 169.097 147.711C157.805 146.541 135.382 138.493 135.382 138.493L135.705 105.746L135.7 105.75Z" fill="#8253F6"/>
<path d="M124.469 146.117C124.842 147.527 137.194 208.662 137.194 208.662L152.574 203.502L168.078 210.348L185.242 201.733L209.051 208.211L228.782 195.679L228.81 120.695L209.079 132.618L185.269 127.643L163.174 138.879L143.817 132.6L124.469 146.117Z" fill="#C8F3F0"/>
<g opacity="0.2">
<path d="M143.821 132.6L152.578 203.503L137.194 208.663L124.469 146.117L143.821 132.6Z" fill="#0AB9AD"/>
</g>
<g opacity="0.2">
<path d="M163.174 138.879L168.083 210.353L185.247 201.738L185.27 127.643L163.174 138.879Z" fill="#0AB9AD"/>
</g>
<g opacity="0.2">
<path d="M209.079 132.623L209.056 208.215L228.787 195.684L228.81 120.7L209.079 132.623Z" fill="#0AB9AD"/>
</g>
<path d="M240.332 166.549C237.549 165.747 232.216 163.154 231.686 159.933C230.423 152.249 238.014 137.718 236.618 130.9C235.212 124.081 228.146 106.916 231.704 106.916C235.267 106.916 241.535 119.304 241.535 119.304C241.577 131.379 241.512 143.993 241.886 153.152C241.895 153.354 241.904 153.557 241.913 153.76C242.047 156.888 242.245 159.592 242.512 161.693C242.789 163.808 241.821 165.402 240.332 166.549Z" fill="#D99A10"/>
<path d="M239.719 155.419C239.719 155.419 236.134 157.598 234.47 160.906C233.179 163.449 233.101 165.43 231.856 166.439C231.34 166.862 223.694 169.023 223.653 167.936C223.519 164.048 228.202 163.223 228.801 161.726C228.815 161.693 228.815 161.647 228.801 161.592V155.686C230.206 154.253 234.142 153.12 234.142 153.12L238.383 149.148L239.719 155.419Z" fill="#D3956A"/>
<path d="M238.89 69.2673C238.89 69.2673 245.135 71.018 252.38 85.1708C259.625 99.3236 274.789 126.795 268.511 135.922C265.28 140.621 246.785 158.524 237.535 158.69C237.535 158.69 233.106 151.816 234.262 149.895C234.262 149.895 251.085 134.457 246.25 126.786C241.535 119.3 227.616 94.1914 227.003 86.3502C226.386 78.509 238.89 69.2627 238.89 69.2627V69.2673Z" fill="#F5AC0A"/>
<path d="M110.43 185.392L108.434 205.009C108.259 206.764 106.692 208.036 104.936 207.861L69.8667 204.3C68.1107 204.12 66.8387 202.553 67.0138 200.803L69.0095 181.186C69.074 180.541 69.3229 179.961 69.7054 179.495C69.816 179.362 69.9312 179.237 70.0603 179.122C70.7055 178.551 71.5812 178.238 72.5076 178.334L107.577 181.896C108.443 181.983 109.19 182.407 109.697 183.024C109.803 183.149 109.895 183.273 109.974 183.411C110.333 183.987 110.499 184.674 110.43 185.392Z" fill="#1A365D"/>
<path d="M86.694 167.513C86.694 167.513 103.065 169.411 114.311 166.213L87.247 158.455L86.694 167.513Z" fill="#8253F6"/>
<path d="M104.895 155.719C104.895 155.719 97.23 145.777 98.9445 138.811C100.659 131.845 101.673 128.035 100.263 128.896C98.8523 129.758 95.0039 146.919 95.0039 146.919C95.0039 146.919 94.0083 148.651 91.2937 148.61C88.5744 148.564 93.7641 154.521 93.7641 154.521L104.899 155.723L104.895 155.719Z" fill="#8253F6"/>
<path d="M109.974 183.411C102.544 191.367 95.5063 195.389 89.0077 195.385C88.0306 195.385 87.0674 195.288 86.1133 195.113C76.831 193.339 71.4201 183.245 69.7056 179.495C69.8162 179.361 69.9314 179.237 70.0605 179.122C71.6413 182.651 76.9831 192.883 86.2055 194.648C93.3355 196.007 101.235 192.1 109.697 183.024C109.803 183.148 109.895 183.273 109.974 183.411Z" fill="#8253F6"/>
<path d="M86.3061 192.845L88.0486 193.022C88.3879 193.056 88.6305 193.359 88.5965 193.694L88.2714 196.893C88.2369 197.232 87.9343 197.474 87.5996 197.44L85.8571 197.264C85.5178 197.229 85.2752 196.927 85.3092 196.592L85.6343 193.393C85.6688 193.054 85.9714 192.811 86.3061 192.845Z" fill="#F5AC0A"/>
<path d="M104.54 181.674L102.692 181.315C102.798 180.762 113.011 125.27 98.9584 99.9038L100.839 99.1252C106.89 110.049 109.407 127.422 108.185 150.411C107.277 167.466 104.567 181.531 104.54 181.67V181.674Z" fill="#1A365D"/>
<path d="M82.0021 128.265C82.0021 128.265 73.0378 147.9 77.5222 157.202C80.7715 163.942 119.533 167.148 119.533 167.148L120.749 162.781C120.749 162.781 92.2754 150.922 92.0404 147.909C91.8053 144.896 95.7966 134.383 95.7966 134.383C95.7966 134.383 86.6157 128.477 81.9975 128.27L82.0021 128.265Z" fill="#FFB27D"/>
<path d="M127.451 174.515C125.934 173.99 125.183 172.152 123.104 170.198C120.408 167.664 116.297 166.835 116.297 166.835L115.412 160.487L120.754 162.772C120.754 162.772 125.271 162.468 126.911 163.509C127.432 163.831 127.907 164.186 128.368 164.541L128.967 167.503C128.815 167.508 128.764 167.614 128.833 167.899C128.861 168.019 128.972 168.176 129.142 168.365C130.216 169.562 134.465 169.42 135.659 173.124C135.996 174.16 128.068 174.736 127.441 174.515H127.451Z" fill="#FFB27D"/>
<path d="M74.5631 145.186C74.5631 145.186 81.9881 151.613 93.2016 148.093L98.1884 131.305L81.5272 125.206L74.5631 145.186Z" fill="#8253F6"/>
<path d="M241.558 130.025C238.042 127.998 226.441 120.447 222.012 106.699C216.407 89.3125 223.473 69.6911 225.275 65.167C227.884 65.5079 231.921 66.2635 235.405 67.5903C232.654 73.2569 219.993 102.47 241.535 120.498C241.544 123.667 241.549 126.869 241.554 130.025H241.558Z" fill="#0CA89D"/>
</g>
<defs>
<clipPath id="clip0_1066_1208">
<rect width="350" height="175" fill="white"/>
</clipPath>
<clipPath id="clip1_1066_1208">
<rect width="203" height="321" fill="white" transform="translate(67 17)"/>
</clipPath>
</defs>
</svg>
